<svg width="1440" height="315" viewBox="0 0 1440 315" fill="none" xmlns="http://www.w3.org/2000/svg">
<g clip-path="url(#clip0_1_10323)">
<rect width="1440" height="1389" transform="translate(0 -576)" fill="url(#paint0_linear_1_10323)"/>
<rect y="-576" width="1440" height="1025" fill="url(#paint1_linear_1_10323)"/>
<g filter="url(#filter0_f_1_10323)">
<ellipse cx="721.5" cy="159.5" rx="595.5" ry="115.5" fill="#E6B93D"/>
</g>
<path d="M1407.5 83.5L1642 97L1807 -166.5H1539L1575 -191L1418.5 -209L1452 -222.5L1356 -235.5L1575 -253.5L1452 -287L1418.5 -293.5L1452 -300.5H1336L1595 -360.5L1430 -385L1336 -345H1264.5L1293.5 -331.5H861L907.5 -300.5H847.5L861 -287L778.5 -273.5L1164.5 -209L1064 -191L1095 -166.5L1006 -139.5L1095 -128.5L965.5 -86H1392L1320.5 -55H1372L1356 -26H1113L1008 -3.5H1229L1140 23H1430L1372 63.5H1452L1407.5 83.5Z" fill="url(#paint2_linear_1_10323)" fill-opacity="0.28"/>
<path d="M315.5 -310.5L-339.5 -347L-374 -182.5H-118.5L-153 -168.5L-29.5 -152L-279 -69L-118.5 -6L-181.5 10L-118.5 30.5L-206 69L124.5 30.5L86 50.5H200L98.5 81L376 91.5L629.5 69L534.5 50.5L686.5 30.5L481.5 -6H561L124.5 -54.5L183.5 -69L200 -105.5L124.5 -136H183.5L98.5 -152L879 -213H660L611.5 -239.5H200L236.5 -263.5L124.5 -286L315.5 -310.5Z" fill="url(#paint3_linear_1_10323)"/>
<path d="M0 -576H381.5L720 442.058H328.5H0V-576Z" fill="url(#paint4_linear_1_10323)" fill-opacity="0.13"/>
<path d="M1440 -571.059H1058.5L720 446.999H1093.5H1440V-571.059Z" fill="url(#paint5_linear_1_10323)" fill-opacity="0.13"/>
<path d="M0 122.309V-316.049L720 447H0V122.309Z" fill="url(#paint6_linear_1_10323)" fill-opacity="0.13"/>
<path d="M0 122.309V102.047L720 447H0V122.309Z" fill="#E6B93D" fill-opacity="0.13"/>
<path d="M1440 117.366V97.1035L720 442.057H1440V117.366Z" fill="#E6B93D" fill-opacity="0.13"/>
<path d="M1440 117.366V-320.992L720 442.057H1440V117.366Z" fill="url(#paint7_linear_1_10323)" fill-opacity="0.13"/>
<path d="M40.9328 35.0928C40.1166 35.0928 39.3915 34.8499 38.7575 34.3643C38.1297 33.8786 37.6369 33.2325 37.279 32.426C36.9275 31.6108 36.7517 30.7175 36.7517 29.7462L36.7705 21.3036C36.7705 20.315 36.9495 19.426 37.3073 18.6368C37.6589 17.839 38.1485 17.2016 38.7763 16.7246C39.4041 16.2389 40.1229 15.9961 40.9328 15.9961C41.7614 15.9961 42.4834 16.2346 43.0986 16.7116C43.7138 17.1886 44.1972 17.8303 44.5488 18.6368C44.9066 19.4347 45.0855 20.3236 45.0855 21.3036L45.1044 29.7462C45.1044 30.7089 44.9286 31.5978 44.577 32.413C44.2192 33.2282 43.7264 33.8786 43.0986 34.3643C42.4771 34.8499 41.7551 35.0928 40.9328 35.0928ZM42.769 29.7462L42.7502 21.3036C42.7502 20.6792 42.5807 20.1719 42.2417 19.7816C41.909 19.3913 41.4726 19.1962 40.9328 19.1962C40.3803 19.1962 39.9377 19.3913 39.605 19.7816C39.2723 20.1719 39.1059 20.6792 39.1059 21.3036V29.7462C39.1059 30.4053 39.2723 30.9257 39.605 31.3073C39.9377 31.6888 40.3803 31.8796 40.9328 31.8796C41.4726 31.8796 41.9121 31.6888 42.2511 31.3073C42.5964 30.9257 42.769 30.4053 42.769 29.7462Z" fill="white" fill-opacity="0.4"/>
<path d="M1303.86 98.001C1303.04 98.001 1302.32 97.7581 1301.68 97.2725C1301.05 96.7868 1300.56 96.1407 1300.2 95.3342C1299.85 94.519 1299.68 93.6257 1299.68 92.6544L1299.69 84.2118C1299.69 83.2232 1299.87 82.3342 1300.23 81.545C1300.58 80.7472 1301.07 80.1098 1301.7 79.6328C1302.33 79.1471 1303.05 78.9043 1303.86 78.9043C1304.68 78.9043 1305.41 79.1428 1306.02 79.6198C1306.64 80.0968 1307.12 80.7385 1307.47 81.545C1307.83 82.3429 1308.01 83.2318 1308.01 84.2118L1308.03 92.6544C1308.03 93.6171 1307.85 94.506 1307.5 95.3212C1307.14 96.1364 1306.65 96.7868 1306.02 97.2725C1305.4 97.7581 1304.68 98.001 1303.86 98.001ZM1305.69 92.6544L1305.67 84.2118C1305.67 83.5874 1305.5 83.0801 1305.17 82.6898C1304.83 82.2995 1304.4 82.1044 1303.86 82.1044C1303.3 82.1044 1302.86 82.2995 1302.53 82.6898C1302.2 83.0801 1302.03 83.5874 1302.03 84.2118V92.6544C1302.03 93.3135 1302.2 93.8339 1302.53 94.2155C1302.86 94.597 1303.3 94.7878 1303.86 94.7878C1304.4 94.7878 1304.84 94.597 1305.17 94.2155C1305.52 93.8339 1305.69 93.3135 1305.69 92.6544Z" fill="white" fill-opacity="0.4"/>
<path d="M33.3305 33.9694H31.0051C30.9383 33.9694 30.9049 33.9274 30.9049 33.8433L30.925 16.097C30.925 16.0297 30.9517 15.9961 31.0051 15.9961H33.3105C33.3639 15.9961 33.3907 16.0297 33.3907 16.097L33.4107 33.8433C33.4107 33.9274 33.384 33.9694 33.3305 33.9694Z" fill="white" fill-opacity="0.4"/>
<g clip-path="url(#clip1_1_10323)">
<path d="M221.5 23.5C125.958 103.634 16.8333 135 -64 166.5V384.5H1376.5V23.5L1050.5 -131L702 103.5L644.5 66.5L547 114.5L284.5 -36.5C279.462 -29.7479 247.532 1.66664 221.5 23.5Z" fill="url(#paint8_linear_1_10323)"/>
<path d="M1261.74 38.8594L1050.5 -131L1381.5 22.4997L1407 28.4997L1401.5 323.5L1369.5 350.5H1103.5H1059L1043 332L1184.5 -0.000289917L1260.65 40.5215C1261.72 41.0916 1262.69 39.6198 1261.74 38.8594Z" fill="#A86744"/>
<path d="M204 31.0002C114.788 102.33 24 119.834 -56.5 151.5L-78 235.5L33 231L237 43.5002L284.508 -36.5078C274.174 -28.0078 237.983 3.82893 204 31.0002Z" fill="#A86744"/>
<path d="M543 135L284.496 -36.5039L550.026 112.998L543 135Z" fill="#B9704F"/>
<path d="M744.957 128.035L1050.51 -131.004L702.855 102.594L744.957 128.035Z" fill="#B9704F"/>
<path d="M643.99 70.4707L627.99 76.9707L644.49 66.4707L659.635 76.9707L643.99 70.4707Z" fill="#B9704F"/>
<path d="M543 134.999L644.548 66.4707L550.049 112.958L543 134.999Z" fill="#A86744"/>
<path d="M737.5 133.5L745 128L644.484 66.4766L737.5 133.5Z" fill="#A86744"/>
<rect y="66" width="1440" height="318" fill="url(#paint9_linear_1_10323)"/>
</g>
<rect x="-7" y="187" width="1454" height="13" fill="#A76545"/>
<path d="M102.5 187V171H127.5V346H86.5V227C64.5 184 42.8333 209.333 33.5 227V346H-12L-12.5 171H16.5V187H33.5V171H86.5V187H102.5Z" fill="url(#paint10_linear_1_10323)"/>
<path d="M249.5 187V171H274.5V346H233.5V227C211.5 184 189.833 209.333 180.5 227V346H133.5L134.5 171H163.5V187H180.5V171H233.5V187H249.5Z" fill="url(#paint11_linear_1_10323)"/>
<path d="M396.5 187V171H421.5V346H380.5V227C358.5 184 336.833 209.333 327.5 227V346H280.5L281.5 171H310.5V187H327.5V171H380.5V187H396.5Z" fill="url(#paint12_linear_1_10323)"/>
<path d="M543.5 187V171H568.5V346H527.5V227C505.5 184 483.833 209.333 474.5 227V346H427.5L428.5 171H457.5V187H474.5V171H527.5V187H543.5Z" fill="url(#paint13_linear_1_10323)"/>
<path d="M690.5 187V171H715.5V346H674.5V227C652.5 184 630.833 209.333 621.5 227V346H574.5L575.5 171H604.5V187H621.5V171H674.5V187H690.5Z" fill="url(#paint14_linear_1_10323)"/>
<path d="M837.5 187V171H862.5V346H821.5V227C799.5 184 777.833 209.333 768.5 227V346H721.5L722.5 171H751.5V187H768.5V171H821.5V187H837.5Z" fill="url(#paint15_linear_1_10323)"/>
<path d="M984.5 187V171H1009.5V346H968.5V227C946.5 184 924.833 209.333 915.5 227V346H868.5L869.5 171H898.5V187H915.5V171H968.5V187H984.5Z" fill="url(#paint16_linear_1_10323)"/>
<path d="M1131.5 187V171H1156.5V346H1115.5V227C1093.5 184 1071.83 209.333 1062.5 227V346H1015.5L1016.5 171H1045.5V187H1062.5V171H1115.5V187H1131.5Z" fill="url(#paint17_linear_1_10323)"/>
<path d="M1278.5 187V171H1303.5V346H1262.5V227C1240.5 184 1218.83 209.333 1209.5 227V346H1162.5L1163.5 171H1192.5V187H1209.5V171H1262.5V187H1278.5Z" fill="url(#paint18_linear_1_10323)"/>
<path d="M1425.5 187V171H1450.5V346H1409.5V227C1387.5 184 1365.83 209.333 1356.5 227V346H1309.5L1310.5 171H1339.5V187H1356.5V171H1409.5V187H1425.5Z" fill="url(#paint19_linear_1_10323)"/>
<path d="M-439.948 317.5H-486.549C-488.626 317.5 -490.487 318.784 -491.224 320.727L-571.834 533.244C-574.812 541.096 -569.012 549.5 -560.614 549.5H920.737C926.861 549.5 932.003 544.889 932.667 538.801L951.492 366.161C951.778 363.54 949.979 361.147 947.381 360.693L263.532 241.268C262.534 241.093 261.507 241.226 260.587 241.648L167.713 284.255C166.042 285.022 164.085 284.81 162.617 283.703L110.175 244.149C107.9 242.433 104.653 242.962 103.041 245.311L55.4291 314.689C54.2654 316.385 52.1822 317.195 50.1787 316.731L-148.008 270.845C-148.98 270.62 -149.863 270.109 -150.543 269.378L-224.558 189.741C-226.636 187.506 -230.213 187.637 -232.122 190.017L-271.499 239.128C-272.448 240.311 -273.883 241 -275.4 241H-299.808C-301.205 241 -302.539 241.585 -303.485 242.612L-341.052 283.386C-342.258 284.695 -344.069 285.264 -345.807 284.881L-407.355 271.304C-409.517 270.827 -411.735 271.829 -412.807 273.766L-435.573 314.92C-436.453 316.512 -438.129 317.5 -439.948 317.5Z" fill="#8C3E11"/>
<path d="M-254.92 392.276L-470.383 507.47C-484.307 514.914 -493 529.42 -493 545.208C-493 568.841 -473.841 588 -450.208 588H1418C1442.85 588 1463 567.853 1463 543V-11L1414.13 18.4042C1404.7 24.0738 1397.68 32.9981 1394.39 43.4913L1361.89 147.061C1356.01 165.822 1338.62 178.589 1318.96 178.589H1312.01C1305.1 178.589 1298.28 180.182 1292.08 183.245L1152.42 252.251C1146.22 255.314 1139.4 256.907 1132.49 256.907H919.418C915.161 256.907 910.925 257.511 906.838 258.702L712.14 315.391C702.034 318.333 691.217 317.64 681.569 313.432L645.819 297.838C637.47 294.196 628.212 293.174 619.27 294.906L497.846 318.425C492.656 319.43 487.329 319.513 482.111 318.67L216.02 275.674C200.759 273.208 185.3 278.748 175.079 290.347L162.437 304.694C153.895 314.39 141.596 319.944 128.674 319.944H52.2827C46.4822 319.944 40.7366 321.066 35.3619 323.247L-138.318 393.726C-145.643 396.698 -153.622 397.689 -161.452 396.597L-227.49 387.392C-236.92 386.077 -246.523 387.788 -254.92 392.276Z" fill="url(#paint20_linear_1_10323)"/>
<path d="M55 96C53.4 34.4 16.6667 -10.3333 -1.5 -25L-52 385L184.5 350.5C167 330.333 133.2 288 138 280C142.8 272 125 249.667 115.5 239.5C96 217.333 56.6 157.6 55 96Z" fill="#6A252E" stroke="#6A252E"/>
<g opacity="0.79" filter="url(#filter1_i_1_10323)">
<path d="M1407 375.743L1344.04 401.184L1158.31 394.354L1125.77 383.506L1092.03 385.515L1038.19 367.765L977.253 376.12L854.991 367.765L1326.57 236.465L1389.53 252.635L1407 299.42L1397.51 339.522L1407 375.743Z" fill="#E3CBC6" fill-opacity="0.86"/>
</g>
<g filter="url(#filter2_i_1_10323)">
<path d="M836.511 357.794L898.381 336.903L931.325 334.492L962.522 321.033L1097.71 284.809L1232.91 248.584L1300.5 230.472L1334.3 221.416L1341.51 227.626L1351.2 225.216L1362 232.447L832.014 374.743L832.092 370.248L829.672 366L836.511 357.794Z" fill="#C4A09F"/>
</g>
<path d="M1235.05 298.736L1299.32 288.817L1375.63 282.264L1377.18 300.299L1224.55 313.404L1223.77 304.387L1235.05 298.736Z" fill="#A67F78" fill-opacity="0.63"/>
<path d="M1609.04 378.315L1560.15 420.163L1450.5 473L1396 466L1392 477L1345.5 473L1330 466L1110.73 537.668L1489.34 319.531L1550.78 315.064L1560.95 342.493L1589.59 348.638L1609.04 378.315Z" fill="#B28888"/>
</g>
<defs>
<filter id="filter0_f_1_10323" x="-192" y="-274" width="1827" height="867" filterUnits="userSpaceOnUse" color-interpolation-filters="sRGB">
<feFlood flood-opacity="0" result="BackgroundImageFix"/>
<feBlend mode="normal" in="SourceGraphic" in2="BackgroundImageFix" result="shape"/>
<feGaussianBlur stdDeviation="159" result="effect1_foregroundBlur_1_10323"/>
</filter>
<filter id="filter1_i_1_10323" x="854.991" y="236.465" width="552.009" height="164.719" filterUnits="userSpaceOnUse" color-interpolation-filters="sRGB">
<feFlood flood-opacity="0" result="BackgroundImageFix"/>
<feBlend mode="normal" in="SourceGraphic" in2="BackgroundImageFix" result="shape"/>
<feColorMatrix in="SourceAlpha" type="matrix" values="0 0 0 0 0 0 0 0 0 0 0 0 0 0 0 0 0 0 127 0" result="hardAlpha"/>
<feOffset dx="44" dy="4"/>
<feComposite in2="hardAlpha" operator="arithmetic" k2="-1" k3="1"/>
<feColorMatrix type="matrix" values="0 0 0 0 0.4 0 0 0 0 0.117647 0 0 0 0 0.160784 0 0 0 0.21 0"/>
<feBlend mode="normal" in2="shape" result="effect1_innerShadow_1_10323"/>
</filter>
<filter id="filter2_i_1_10323" x="829.672" y="221.416" width="532.332" height="153.326" filterUnits="userSpaceOnUse" color-interpolation-filters="sRGB">
<feFlood flood-opacity="0" result="BackgroundImageFix"/>
<feBlend mode="normal" in="SourceGraphic" in2="BackgroundImageFix" result="shape"/>
<feColorMatrix in="SourceAlpha" type="matrix" values="0 0 0 0 0 0 0 0 0 0 0 0 0 0 0 0 0 0 127 0" result="hardAlpha"/>
<feOffset dx="-39" dy="4"/>
<feComposite in2="hardAlpha" operator="arithmetic" k2="-1" k3="1"/>
<feColorMatrix type="matrix" values="0 0 0 0 0.4 0 0 0 0 0.117647 0 0 0 0 0.160784 0 0 0 0.21 0"/>
<feBlend mode="normal" in2="shape" result="effect1_innerShadow_1_10323"/>
</filter>
<linearGradient id="paint0_linear_1_10323" x1="720" y1="0" x2="720" y2="1389" gradientUnits="userSpaceOnUse">
<stop offset="0.891227" stop-color="#72343A"/>
<stop offset="1" stop-color="#72343A" stop-opacity="0"/>
</linearGradient>
<linearGradient id="paint1_linear_1_10323" x1="720" y1="-373.5" x2="720" y2="574" gradientUnits="userSpaceOnUse">
<stop stop-color="#8D4440"/>
<stop offset="1" stop-color="#F3BF4A"/>
</linearGradient>
<linearGradient id="paint2_linear_1_10323" x1="2088" y1="-45.9999" x2="858.5" y2="112.5" gradientUnits="userSpaceOnUse">
<stop stop-color="white"/>
<stop offset="1" stop-color="white" stop-opacity="0"/>
</linearGradient>
<linearGradient id="paint3_linear_1_10323" x1="-256.5" y1="-478.5" x2="532.5" y2="209" gradientUnits="userSpaceOnUse">
<stop stop-color="white" stop-opacity="0.31"/>
<stop offset="1" stop-color="white" stop-opacity="0"/>
</linearGradient>
<linearGradient id="paint4_linear_1_10323" x1="360" y1="-576" x2="360" y2="442.058" gradientUnits="userSpaceOnUse">
<stop stop-color="#E6B93D"/>
<stop offset="1" stop-color="#E6B93D" stop-opacity="0"/>
</linearGradient>
<linearGradient id="paint5_linear_1_10323" x1="1080" y1="-571.059" x2="1080" y2="446.999" gradientUnits="userSpaceOnUse">
<stop stop-color="#E6B93D"/>
<stop offset="1" stop-color="#E6B93D" stop-opacity="0"/>
</linearGradient>
<linearGradient id="paint6_linear_1_10323" x1="360" y1="-316.049" x2="360" y2="447" gradientUnits="userSpaceOnUse">
<stop stop-color="#E6B93D"/>
<stop offset="1" stop-color="#E6B93D" stop-opacity="0"/>
</linearGradient>
<linearGradient id="paint7_linear_1_10323" x1="1080" y1="-320.992" x2="1080" y2="442.057" gradientUnits="userSpaceOnUse">
<stop stop-color="#E6B93D"/>
<stop offset="1" stop-color="#E6B93D" stop-opacity="0"/>
</linearGradient>
<linearGradient id="paint8_linear_1_10323" x1="656.25" y1="-131" x2="656.25" y2="384.5" gradientUnits="userSpaceOnUse">
<stop stop-color="#8D3732"/>
<stop offset="1" stop-color="#8D5132"/>
</linearGradient>
<linearGradient id="paint9_linear_1_10323" x1="720" y1="66" x2="720" y2="384" gradientUnits="userSpaceOnUse">
<stop stop-color="#72343A" stop-opacity="0"/>
<stop offset="1" stop-color="#72343A"/>
</linearGradient>
<linearGradient id="paint10_linear_1_10323" x1="57" y1="171" x2="57" y2="346" gradientUnits="userSpaceOnUse">
<stop stop-color="#A76545"/>
<stop offset="1" stop-color="#A76545" stop-opacity="0"/>
</linearGradient>
<linearGradient id="paint11_linear_1_10323" x1="204" y1="171" x2="204" y2="346" gradientUnits="userSpaceOnUse">
<stop stop-color="#A76545"/>
<stop offset="1" stop-color="#A76545" stop-opacity="0"/>
</linearGradient>
<linearGradient id="paint12_linear_1_10323" x1="351" y1="171" x2="351" y2="346" gradientUnits="userSpaceOnUse">
<stop stop-color="#A76545"/>
<stop offset="1" stop-color="#A76545" stop-opacity="0"/>
</linearGradient>
<linearGradient id="paint13_linear_1_10323" x1="498" y1="171" x2="498" y2="346" gradientUnits="userSpaceOnUse">
<stop stop-color="#A76545"/>
<stop offset="1" stop-color="#A76545" stop-opacity="0"/>
</linearGradient>
<linearGradient id="paint14_linear_1_10323" x1="645" y1="171" x2="645" y2="346" gradientUnits="userSpaceOnUse">
<stop stop-color="#A76545"/>
<stop offset="1" stop-color="#A76545" stop-opacity="0"/>
</linearGradient>
<linearGradient id="paint15_linear_1_10323" x1="792" y1="171" x2="792" y2="346" gradientUnits="userSpaceOnUse">
<stop stop-color="#A76545"/>
<stop offset="1" stop-color="#A76545" stop-opacity="0"/>
</linearGradient>
<linearGradient id="paint16_linear_1_10323" x1="939" y1="171" x2="939" y2="346" gradientUnits="userSpaceOnUse">
<stop stop-color="#A76545"/>
<stop offset="1" stop-color="#A76545" stop-opacity="0"/>
</linearGradient>
<linearGradient id="paint17_linear_1_10323" x1="1086" y1="171" x2="1086" y2="346" gradientUnits="userSpaceOnUse">
<stop stop-color="#A76545"/>
<stop offset="1" stop-color="#A76545" stop-opacity="0"/>
</linearGradient>
<linearGradient id="paint18_linear_1_10323" x1="1233" y1="171" x2="1233" y2="346" gradientUnits="userSpaceOnUse">
<stop stop-color="#A76545"/>
<stop offset="1" stop-color="#A76545" stop-opacity="0"/>
</linearGradient>
<linearGradient id="paint19_linear_1_10323" x1="1380" y1="171" x2="1380" y2="346" gradientUnits="userSpaceOnUse">
<stop stop-color="#A76545"/>
<stop offset="1" stop-color="#A76545" stop-opacity="0"/>
</linearGradient>
<linearGradient id="paint20_linear_1_10323" x1="485" y1="254.5" x2="485" y2="588" gradientUnits="userSpaceOnUse">
<stop stop-color="#661E29"/>
<stop offset="1" stop-color="#72343A"/>
</linearGradient>
<clipPath id="clip0_1_10323">
<rect width="1440" height="1389" fill="white" transform="translate(0 -576)"/>
</clipPath>
<clipPath id="clip1_1_10323">
<rect width="1440" height="516" fill="white" transform="translate(0 -131)"/>
</clipPath>
</defs>
</svg>
