<svg width="1441" height="408" viewBox="0 0 1441 408" fill="none" xmlns="http://www.w3.org/2000/svg">
<g clip-path="url(#clip0_798_4948)">
<rect width="1441" height="408" fill="url(#paint0_linear_798_4948)"/>
<g opacity="0.7" filter="url(#filter0_i_798_4948)">
<path d="M444 251.5L0 364.5V407.5H1488V216.5L1359.5 162V131L1269.5 197L833.5 279L701 197L537.5 279L444 251.5Z" fill="#7C514A"/>
</g>
<g opacity="0.7">
<g opacity="0.79" filter="url(#filter1_i_798_4948)">
<path d="M1543.26 441.009L1465.92 463.272L1247.87 432.443L1210.84 415.667L1170.82 413.895L1109.55 386.372L1036.7 388.745L893.624 363.903L1465.54 266.988L1537.77 293.769L1552.62 351.054L1536.52 397.155L1543.26 441.009Z" fill="#A47E7C"/>
</g>
<g filter="url(#filter2_i_798_4948)">
<path d="M-32.4539 321.24L32.9882 334.049L77.5787 314.922L140.413 359.484L174.187 375.34L151.146 422.741L-46.1094 371.576L-32.4539 321.24Z" fill="#E3CBC6" fill-opacity="0.25"/>
</g>
<g filter="url(#filter3_i_798_4948)">
<path d="M390.399 468.029L-181.901 368.66L362.023 316.807L434.25 343.588L431.593 380.069L460.99 401.912L467.73 445.766L390.399 468.029Z" fill="#96706C"/>
</g>
<g filter="url(#filter4_i_798_4948)">
<path d="M873.066 349.884L948.549 332.849L987.673 334.049L1026.09 322.012L1189.88 295.899L1353.66 269.785L1435.55 256.728L1476.5 250.199L1484.24 258.404L1495.95 256.751L1507.8 266.599L865.687 369.308L866.33 364.021L863.999 358.717L873.066 349.884Z" fill="#B59892"/>
</g>
<path d="M1184.23 358.629L1273.53 365.232L1320.36 361.085L1343.19 367.364L1357.34 373.953L1365.55 372.627L1365.35 383.35L1183.84 380.076L1184.23 358.629Z" fill="#745556"/>
<g filter="url(#filter5_i_798_4948)">
<path d="M754.323 343.603C756.521 338.368 762.958 336.451 767.662 339.631L795.869 358.699C796.862 359.371 797.98 359.837 799.157 360.071L841.369 368.448C841.963 368.566 842.543 368.744 843.101 368.978L917.655 400.281C922.237 402.205 924.393 407.48 922.468 412.063L908.66 444.951C906.576 449.915 900.63 451.951 895.941 449.307L818.104 405.419C817.43 405.039 816.71 404.747 815.961 404.551L747.402 386.618C742.104 385.232 739.261 379.476 741.381 374.426L754.323 343.603Z" fill="#E3CBC6" fill-opacity="0.65"/>
</g>
<g filter="url(#filter6_i_798_4948)">
<path d="M448.132 354.583C447.794 349.624 451.539 345.33 456.498 344.991L483.654 343.137C485.073 343.04 486.495 343.281 487.803 343.84L500.132 349.107C503.761 350.657 505.957 354.39 505.548 358.315L505.296 360.738C505.063 362.981 505.68 365.23 507.026 367.04L518.001 381.798C522.25 387.512 518.496 395.663 511.393 396.148L460.23 399.642C455.271 399.98 450.977 396.235 450.638 391.276L448.132 354.583Z" fill="#F8E6E3" fill-opacity="0.65"/>
</g>
<g filter="url(#filter7_i_798_4948)">
<path d="M271.056 298.106L287.271 288.519L307.136 287.163L308.672 309.646L268.941 312.359L271.056 298.106Z" fill="#F8E6E3" fill-opacity="0.65"/>
</g>
<g filter="url(#filter8_i_798_4948)">
<path d="M381.65 277.764L397.865 268.177L432.605 289.908L461.72 286.096L491.865 313.784L457.911 322.695L425.691 301.154L379.535 292.017L381.65 277.764Z" fill="#F8E6E3" fill-opacity="0.65"/>
</g>
<g filter="url(#filter9_i_798_4948)">
<path d="M594.18 338.988C594.08 334.018 598.029 329.909 602.998 329.81L684.684 328.18C689.653 328.08 693.762 332.029 693.861 336.998L693.983 343.076C694.096 348.745 689.003 353.105 683.419 352.119L667.233 349.26C666.495 349.13 665.744 349.092 664.996 349.148L638.511 351.131C637.313 351.221 636.109 351.069 634.97 350.686L618.1 345.011C615.529 344.146 612.704 344.487 610.413 345.94L608.017 347.458C602.092 351.213 594.34 347.048 594.201 340.036L594.18 338.988Z" fill="#F8E6E3" fill-opacity="0.27"/>
</g>
<path d="M1350.04 329.158L1427 325.349L1517.75 326.987L1517.36 348.433L1335.86 345.158L1336.05 334.435L1350.04 329.158Z" fill="#745556"/>
<rect x="1336.78" y="399.724" width="88.9978" height="34.499" transform="rotate(1.03363 1336.78 399.724)" fill="#745556"/>
</g>
<g opacity="0.7">
<mask id="mask0_798_4948" style="mask-type:alpha" maskUnits="userSpaceOnUse" x="501" y="204" width="197" height="139">
<path d="M501 204H698V342.988L682.826 335.24L671.51 337.419L656.851 333.787L645.278 337.419L635.505 335.24L631.133 341.051L604.644 333.787L565.552 300.614L558.608 297.224L556.037 300.614H536.234L501 204Z" fill="#D9D9D9"/>
</mask>
<g mask="url(#mask0_798_4948)">
<path d="M661.012 354.1L662.764 353.055L663.516 351.206C663.432 350.322 668.777 328.452 651.759 314.775L585.604 260.79C590.362 252.349 595.203 244.792 593.284 244.068L590.197 240.77C588.195 239.161 575.344 250.091 566.915 258.852L533.627 239.459C536.131 236.565 535.715 232.142 532.711 229.728L529.708 227.315C526.705 224.901 522.116 225.301 519.612 228.195L511.266 237.841C508.762 240.734 509.179 245.157 512.182 247.571L515.185 249.985C518.188 252.398 522.778 251.998 525.281 249.104L551.141 278.064C543.713 287.629 534.866 301.778 536.868 303.387L540.872 306.605C541.873 307.41 549.717 302.267 556.477 295.435L623.55 349.34C638.732 363.177 660.094 354.18 661.012 354.1Z" fill="#979595"/>
<path d="M661.012 354.1L662.764 353.055L663.516 351.206C663.432 350.322 668.777 328.452 651.759 314.775L585.604 260.79C590.362 252.349 595.203 244.792 593.284 244.068L590.197 240.77C588.195 239.161 575.344 250.091 566.915 258.852L533.627 239.459C536.131 236.565 535.715 232.142 532.711 229.728L529.708 227.315C526.705 224.901 522.116 225.301 519.612 228.195L511.266 237.841C508.762 240.734 509.179 245.157 512.182 247.571L515.185 249.985C518.188 252.398 522.778 251.998 525.281 249.104L551.141 278.064C543.713 287.629 534.866 301.778 536.868 303.387L540.872 306.605C541.873 307.41 549.717 302.267 556.477 295.435L623.55 349.34C638.732 363.177 660.094 354.18 661.012 354.1ZM562.486 290.452L569.162 282.735L637.654 332.057L575.004 275.983L580.846 269.231L645.917 321.527C655.927 329.572 655.174 341.232 654.756 346.619C649.332 347.984 637.567 350.793 628.474 342.668L562.486 290.452Z" fill="#AFAFAF"/>
<path d="M593.284 244.068C595.203 244.793 590.362 252.349 585.604 260.79L585.215 261.481C582.31 266.635 578.889 271.493 575.004 275.983L569.162 282.736L567.576 284.569C564.188 288.484 560.476 292.119 556.477 295.435C549.717 302.267 541.873 307.41 540.872 306.605L536.868 303.387C534.865 301.778 543.713 287.63 551.141 278.064L566.914 258.852C575.343 250.091 588.195 239.161 590.197 240.77L593.284 244.068Z" fill="#979595"/>
<path d="M532.711 229.729C535.715 232.142 536.131 236.565 533.627 239.459L525.281 249.105C522.778 251.998 518.188 252.398 515.185 249.985L512.182 247.571C509.179 245.157 508.762 240.735 511.266 237.841L519.612 228.195C522.116 225.301 526.705 224.901 529.708 227.315L532.711 229.729Z" fill="#8C3E11"/>
</g>
</g>
</g>
<defs>
<filter id="filter0_i_798_4948" x="0" y="131" width="1492" height="280.5" filterUnits="userSpaceOnUse" color-interpolation-filters="sRGB">
<feFlood flood-opacity="0" result="BackgroundImageFix"/>
<feBlend mode="normal" in="SourceGraphic" in2="BackgroundImageFix" result="shape"/>
<feColorMatrix in="SourceAlpha" type="matrix" values="0 0 0 0 0 0 0 0 0 0 0 0 0 0 0 0 0 0 127 0" result="hardAlpha"/>
<feOffset dx="16" dy="4"/>
<feGaussianBlur stdDeviation="2"/>
<feComposite in2="hardAlpha" operator="arithmetic" k2="-1" k3="1"/>
<feColorMatrix type="matrix" values="0 0 0 0 0 0 0 0 0 0 0 0 0 0 0 0 0 0 0.25 0"/>
<feBlend mode="normal" in2="shape" result="effect1_innerShadow_798_4948"/>
</filter>
<filter id="filter1_i_798_4948" x="893.625" y="266.988" width="658.992" height="196.283" filterUnits="userSpaceOnUse" color-interpolation-filters="sRGB">
<feFlood flood-opacity="0" result="BackgroundImageFix"/>
<feBlend mode="normal" in="SourceGraphic" in2="BackgroundImageFix" result="shape"/>
<feColorMatrix in="SourceAlpha" type="matrix" values="0 0 0 0 0 0 0 0 0 0 0 0 0 0 0 0 0 0 127 0" result="hardAlpha"/>
<feOffset dx="44" dy="4"/>
<feComposite in2="hardAlpha" operator="arithmetic" k2="-1" k3="1"/>
<feColorMatrix type="matrix" values="0 0 0 0 0.4 0 0 0 0 0.117647 0 0 0 0 0.160784 0 0 0 0.21 0"/>
<feBlend mode="normal" in2="shape" result="effect1_innerShadow_798_4948"/>
</filter>
<filter id="filter2_i_798_4948" x="-46.1094" y="314.922" width="220.296" height="107.819" filterUnits="userSpaceOnUse" color-interpolation-filters="sRGB">
<feFlood flood-opacity="0" result="BackgroundImageFix"/>
<feBlend mode="normal" in="SourceGraphic" in2="BackgroundImageFix" result="shape"/>
<feColorMatrix in="SourceAlpha" type="matrix" values="0 0 0 0 0 0 0 0 0 0 0 0 0 0 0 0 0 0 127 0" result="hardAlpha"/>
<feOffset dx="44" dy="4"/>
<feComposite in2="hardAlpha" operator="arithmetic" k2="-1" k3="1"/>
<feColorMatrix type="matrix" values="0 0 0 0 0.4 0 0 0 0 0.117647 0 0 0 0 0.160784 0 0 0 0.21 0"/>
<feBlend mode="normal" in2="shape" result="effect1_innerShadow_798_4948"/>
</filter>
<filter id="filter3_i_798_4948" x="-181.901" y="316.807" width="649.631" height="151.222" filterUnits="userSpaceOnUse" color-interpolation-filters="sRGB">
<feFlood flood-opacity="0" result="BackgroundImageFix"/>
<feBlend mode="normal" in="SourceGraphic" in2="BackgroundImageFix" result="shape"/>
<feColorMatrix in="SourceAlpha" type="matrix" values="0 0 0 0 0 0 0 0 0 0 0 0 0 0 0 0 0 0 127 0" result="hardAlpha"/>
<feOffset dx="44" dy="4"/>
<feComposite in2="hardAlpha" operator="arithmetic" k2="-1" k3="1"/>
<feColorMatrix type="matrix" values="0 0 0 0 0.4 0 0 0 0 0.117647 0 0 0 0 0.160784 0 0 0 0.21 0"/>
<feBlend mode="normal" in2="shape" result="effect1_innerShadow_798_4948"/>
</filter>
<filter id="filter4_i_798_4948" x="863.999" y="250.199" width="643.798" height="119.109" filterUnits="userSpaceOnUse" color-interpolation-filters="sRGB">
<feFlood flood-opacity="0" result="BackgroundImageFix"/>
<feBlend mode="normal" in="SourceGraphic" in2="BackgroundImageFix" result="shape"/>
<feColorMatrix in="SourceAlpha" type="matrix" values="0 0 0 0 0 0 0 0 0 0 0 0 0 0 0 0 0 0 127 0" result="hardAlpha"/>
<feOffset dx="-39" dy="4"/>
<feComposite in2="hardAlpha" operator="arithmetic" k2="-1" k3="1"/>
<feColorMatrix type="matrix" values="0 0 0 0 0.4 0 0 0 0 0.117647 0 0 0 0 0.160784 0 0 0 0.21 0"/>
<feBlend mode="normal" in2="shape" result="effect1_innerShadow_798_4948"/>
</filter>
<filter id="filter5_i_798_4948" x="740.675" y="338.084" width="182.498" height="112.386" filterUnits="userSpaceOnUse" color-interpolation-filters="sRGB">
<feFlood flood-opacity="0" result="BackgroundImageFix"/>
<feBlend mode="normal" in="SourceGraphic" in2="BackgroundImageFix" result="shape"/>
<feColorMatrix in="SourceAlpha" type="matrix" values="0 0 0 0 0 0 0 0 0 0 0 0 0 0 0 0 0 0 127 0" result="hardAlpha"/>
<feOffset dx="44" dy="4"/>
<feComposite in2="hardAlpha" operator="arithmetic" k2="-1" k3="1"/>
<feColorMatrix type="matrix" values="0 0 0 0 0.4 0 0 0 0 0.117647 0 0 0 0 0.160784 0 0 0 0.21 0"/>
<feBlend mode="normal" in2="shape" result="effect1_innerShadow_798_4948"/>
</filter>
<filter id="filter6_i_798_4948" x="448.111" y="343.116" width="71.6812" height="56.5472" filterUnits="userSpaceOnUse" color-interpolation-filters="sRGB">
<feFlood flood-opacity="0" result="BackgroundImageFix"/>
<feBlend mode="normal" in="SourceGraphic" in2="BackgroundImageFix" result="shape"/>
<feColorMatrix in="SourceAlpha" type="matrix" values="0 0 0 0 0 0 0 0 0 0 0 0 0 0 0 0 0 0 127 0" result="hardAlpha"/>
<feOffset dx="44" dy="4"/>
<feComposite in2="hardAlpha" operator="arithmetic" k2="-1" k3="1"/>
<feColorMatrix type="matrix" values="0 0 0 0 0.4 0 0 0 0 0.117647 0 0 0 0 0.160784 0 0 0 0.21 0"/>
<feBlend mode="normal" in2="shape" result="effect1_innerShadow_798_4948"/>
</filter>
<filter id="filter7_i_798_4948" x="268.941" y="287.163" width="39.7307" height="25.1957" filterUnits="userSpaceOnUse" color-interpolation-filters="sRGB">
<feFlood flood-opacity="0" result="BackgroundImageFix"/>
<feBlend mode="normal" in="SourceGraphic" in2="BackgroundImageFix" result="shape"/>
<feColorMatrix in="SourceAlpha" type="matrix" values="0 0 0 0 0 0 0 0 0 0 0 0 0 0 0 0 0 0 127 0" result="hardAlpha"/>
<feOffset dx="9" dy="4"/>
<feComposite in2="hardAlpha" operator="arithmetic" k2="-1" k3="1"/>
<feColorMatrix type="matrix" values="0 0 0 0 0.4 0 0 0 0 0.117647 0 0 0 0 0.160784 0 0 0 0.21 0"/>
<feBlend mode="normal" in2="shape" result="effect1_innerShadow_798_4948"/>
</filter>
<filter id="filter8_i_798_4948" x="379.535" y="268.177" width="112.33" height="54.5182" filterUnits="userSpaceOnUse" color-interpolation-filters="sRGB">
<feFlood flood-opacity="0" result="BackgroundImageFix"/>
<feBlend mode="normal" in="SourceGraphic" in2="BackgroundImageFix" result="shape"/>
<feColorMatrix in="SourceAlpha" type="matrix" values="0 0 0 0 0 0 0 0 0 0 0 0 0 0 0 0 0 0 127 0" result="hardAlpha"/>
<feOffset dx="9" dy="4"/>
<feComposite in2="hardAlpha" operator="arithmetic" k2="-1" k3="1"/>
<feColorMatrix type="matrix" values="0 0 0 0 0.4 0 0 0 0 0.117647 0 0 0 0 0.160784 0 0 0 0.21 0"/>
<feBlend mode="normal" in2="shape" result="effect1_innerShadow_798_4948"/>
</filter>
<filter id="filter9_i_798_4948" x="594.178" y="328.178" width="99.8069" height="24.0807" filterUnits="userSpaceOnUse" color-interpolation-filters="sRGB">
<feFlood flood-opacity="0" result="BackgroundImageFix"/>
<feBlend mode="normal" in="SourceGraphic" in2="BackgroundImageFix" result="shape"/>
<feColorMatrix in="SourceAlpha" type="matrix" values="0 0 0 0 0 0 0 0 0 0 0 0 0 0 0 0 0 0 127 0" result="hardAlpha"/>
<feOffset dx="44" dy="4"/>
<feComposite in2="hardAlpha" operator="arithmetic" k2="-1" k3="1"/>
<feColorMatrix type="matrix" values="0 0 0 0 0.4 0 0 0 0 0.117647 0 0 0 0 0.160784 0 0 0 0.21 0"/>
<feBlend mode="normal" in2="shape" result="effect1_innerShadow_798_4948"/>
</filter>
<linearGradient id="paint0_linear_798_4948" x1="684" y1="-219" x2="721" y2="1195" gradientUnits="userSpaceOnUse">
<stop stop-color="#723930"/>
<stop offset="1" stop-color="#661E29"/>
</linearGradient>
<clipPath id="clip0_798_4948">
<rect width="1441" height="408" fill="white"/>
</clipPath>
</defs>
</svg>
