<svg width="243" height="106" viewBox="0 0 243 106" fill="none" xmlns="http://www.w3.org/2000/svg">
<path d="M48.6187 1.44855L46.718 15.1712L50.7586 1.02672C55.3919 0.18844 59.6092 -0.0866072 63.0292 0.0228938L55.7799 27.1291C20.0163 21.1414 9.46446 38.3896 8.65897 47.7621H0C7.65237 17.5097 30.687 5.27411 48.6187 1.44855Z" fill="#E6B93D"/>
<path d="M39.6689 61.2162C55.2878 45.2793 69.3832 63.0031 71.9454 72.6805C73.6351 51.1413 65.8912 39.0746 55.4396 33.603L51.4581 35.7695L50.3119 31.4928C33.8206 26.3697 13.7227 34.7058 11.8438 47.1633C11.5541 49.0837 12.197 51.4302 13.4327 53.9946L15.9895 54.6558L14.9078 56.7156C18.4647 62.681 24.3603 69.3651 28.887 74.4972C30.4361 76.2534 31.8248 77.8279 32.9047 79.1297C26.5128 78.468 22.3669 73.5735 16.1367 66.2183L16.1362 66.2177C14.8132 64.6559 13.3962 62.983 11.8438 61.2162C13.0736 71.0995 9.98757 81.3538 5.84832 85.3067C5.84832 87.1516 8.14703 88.3669 11.9184 89.3615L16.9161 88.1615L16.9189 90.4422C19.1097 90.847 21.5417 91.2388 24.1359 91.6567C33.7119 93.1994 45.4975 95.098 55.5133 99.3215C53.3902 94.4797 49.8615 88.708 46.0308 83.3167C49.5893 83.8611 56.3408 93.1765 60.1726 101.537C62.5924 102.837 64.8509 104.313 66.8791 106L63.3365 72.6805C43.9051 72.3099 39.4126 67.0329 39.6689 61.2162Z" fill="#E6B93D"/>
<path fill-rule="evenodd" clip-rule="evenodd" d="M91.7428 43.7618L92.7106 45.5845L94.2727 43.7738C98.9792 43.9241 102.727 45.4767 105.515 48.4319C108.479 51.5182 109.962 55.728 109.962 61.0614C109.962 64.9599 109.194 68.3575 107.657 71.2543C106.094 74.124 104.073 76.344 101.594 77.9142C99.1141 79.4845 96.4191 80.2696 93.5084 80.2696H87.2019V101.224C87.2019 101.495 87.0672 101.63 86.7977 101.63H77.4997C77.2302 101.63 77.0955 101.495 77.0955 101.224L77.1073 97.0475L77.2993 98.0362L80.1632 95.6971L77.1161 93.9387L77.2571 44.0867C77.2571 43.8701 77.365 43.7618 77.5806 43.7618H91.7428ZM93.5084 53.6298L87.2019 53.7111V70.1985H93.5084C95.2602 70.1985 96.7829 69.3592 98.0765 67.6807C99.3701 65.9751 100.017 63.7687 100.017 61.0614C100.017 58.8955 99.4375 57.1223 98.2786 55.7415C97.1198 54.3337 95.5297 53.6298 93.5084 53.6298Z" fill="#E6B93D"/>
<path fill-rule="evenodd" clip-rule="evenodd" d="M108.021 101.224L118.289 44.0867C118.343 43.8701 118.478 43.7618 118.694 43.7618H130.7C130.916 43.7618 131.051 43.8701 131.105 44.0867L138.21 85.2481L136.068 85.3524L138.708 88.1278L140.968 101.224C140.995 101.495 140.888 101.63 140.645 101.63H131.468C131.199 101.63 131.051 101.495 131.024 101.224L130.134 95.1326H118.855L117.966 101.224C117.939 101.495 117.804 101.63 117.562 101.63H108.345C108.129 101.63 108.021 101.495 108.021 101.224ZM124.232 62.8888L120.513 86.2392H128.477L125.081 62.8888L124.596 59.8025L124.232 62.8888Z" fill="#E6B93D"/>
<path fill-rule="evenodd" clip-rule="evenodd" d="M155.845 101.63H146.466C146.251 101.63 146.143 101.495 146.143 101.224L146.281 52.4268L149.388 50.9615L146.294 47.9768L146.305 44.0867C146.305 43.8701 146.412 43.7618 146.628 43.7618H163.364C166.356 43.7618 169.105 44.4927 171.611 45.9547C174.118 47.4166 176.112 49.3794 177.594 51.843C179.104 54.3067 179.858 57.0952 179.858 60.2086C179.858 62.239 179.548 64.08 178.928 65.7314C178.309 67.3829 177.581 68.7771 176.745 69.9142C175.937 71.0513 175.196 71.8905 174.522 72.432C176.601 74.7464 177.958 77.342 178.592 80.2188L175.711 80.4521L178.965 83.6611L178.999 83.5429C179.006 83.75 179.009 83.9584 179.009 84.1681L179.09 101.224C179.09 101.495 178.955 101.63 178.686 101.63H169.307C169.091 101.63 168.984 101.549 168.984 101.386V84.1681C168.984 82.1647 168.283 80.432 166.881 78.9701C165.48 77.5081 163.755 76.7772 161.707 76.7772H156.249L156.169 101.224C156.169 101.495 156.061 101.63 155.845 101.63ZM163.364 53.7111H156.249V66.7873H163.364C165.062 66.7873 166.572 66.1511 167.892 64.8786C169.24 63.6062 169.913 62.0495 169.913 60.2086C169.913 58.4488 169.267 56.9327 167.973 55.6603C166.679 54.3608 165.143 53.7111 163.364 53.7111Z" fill="#E6B93D"/>
<path d="M202.052 101.63H192.714C192.471 101.63 192.35 101.495 192.35 101.224V98.1655L194.865 95.6847L192.35 95.481V53.7923H181.597C181.327 53.7923 181.192 53.6569 181.192 53.3862L181.273 44.0867C181.273 43.8701 181.381 43.7618 181.597 43.7618H213.048C213.344 43.7618 213.493 43.8701 213.493 44.0867V53.3862C213.493 53.6569 213.385 53.7923 213.169 53.7923H202.295L202.305 60.1444L199.751 60.3513L202.31 62.8751L202.375 101.224C202.375 101.495 202.268 101.63 202.052 101.63Z" fill="#E6B93D"/>
<path fill-rule="evenodd" clip-rule="evenodd" d="M209.733 101.224L215.861 67.1251L218.748 64.277L216.407 64.0873L220.001 44.0867C220.055 43.8701 220.19 43.7618 220.405 43.7618H232.412C232.628 43.7618 232.762 43.8701 232.816 44.0867L233.339 47.1123L231.452 47.2651L233.758 49.5395L242.68 101.224C242.707 101.495 242.599 101.63 242.357 101.63H233.18C232.911 101.63 232.762 101.495 232.735 101.224L231.846 95.1326H220.567L219.678 101.224C219.651 101.495 219.516 101.63 219.274 101.63H210.056C209.841 101.63 209.733 101.495 209.733 101.224ZM225.944 62.8888L222.225 86.2392H230.189L226.793 62.8888L226.308 59.8025L225.944 62.8888Z" fill="#E6B93D"/>
</svg>
