<svg width="24" height="30" viewBox="0 0 24 30" fill="none" xmlns="http://www.w3.org/2000/svg">
<path fill-rule="evenodd" clip-rule="evenodd" d="M12 0V9.75C12 10.3467 12.2371 10.919 12.659 11.341C13.081 11.7629 13.6533 12 14.25 12H24V27C24 27.7956 23.6839 28.5587 23.1213 29.1213C22.5587 29.6839 21.7956 30 21 30H3C2.20435 30 1.44129 29.6839 0.87868 29.1213C0.31607 28.5587 0 27.7956 0 27V3C0 2.20435 0.31607 1.44129 0.87868 0.87868C1.44129 0.31607 2.20435 0 3 0H12ZM10.5165 14.772C10.1572 17.0565 8.96247 19.1262 7.164 20.58C5.8335 21.654 7.05 23.7615 8.646 23.148C10.8043 22.3172 13.1942 22.3172 15.3525 23.148C16.9485 23.763 18.165 21.6555 16.8345 20.58C15.0361 19.1261 13.8415 17.0564 13.482 14.772C13.2165 13.083 10.782 13.0815 10.5165 14.772ZM12 18.4545L13.209 20.5455H10.794L12 18.4545ZM15 0.0645C15.5683 0.185033 16.0894 0.467987 16.5 0.879L23.121 7.5C23.532 7.91059 23.815 8.43168 23.9355 9H15V0.0645Z" fill="#661E29"/>
</svg>
