<svg width="1452" height="669" viewBox="0 0 1452 669" fill="none" xmlns="http://www.w3.org/2000/svg">
<g clip-path="url(#clip0_11_19127)">
<rect y="449" width="1452" height="218" fill="white"/>
<path d="M256 389L2.5 458.5H1451L1214 374V432L954 347.5V389L726.5 304.5L506.5 389V347.5L256 432V389Z" fill="white"/>
<path fill-rule="evenodd" clip-rule="evenodd" d="M914.125 248.445V248.445C922.386 242.488 917.781 229.23 907.64 230.17L901.768 230.714C900.184 230.715 898.489 230.75 896.678 230.821C895.862 230.853 895.169 230.948 894.388 231.187C894.1 231.275 893.788 231.371 893.453 231.474C893.418 231.485 893.382 231.492 893.345 231.495L892.572 231.567C892.522 231.572 892.494 231.629 892.522 231.672V231.672C892.547 231.709 892.541 231.756 892.498 231.77C860.258 241.778 659.612 306.514 544.114 343.836C536.217 346.388 528.891 338.746 531.686 330.932L537.67 314.204C540.491 306.317 532.946 298.664 525.02 301.373L309.216 375.124C301.729 377.683 294.376 370.945 296.274 363.264L303.214 335.167C305.012 327.889 298.458 321.293 291.168 323.046L90.9272 371.182C88.235 371.991 82.9575 372.388 77.753 369.964C73.0356 367.767 73.3841 361.374 76.5451 357.241C77.6125 355.845 78.6913 354.393 79.7085 352.999C82.1799 349.612 82.1477 345.036 79.7322 341.609L76.7827 337.425C75.4187 335.49 74.7854 333.134 74.9955 330.776L76.4522 314.428C76.8151 310.357 79.6195 306.916 83.5343 305.739L84.6564 305.402C87.4163 304.572 89.6841 302.592 90.8786 299.97L98.3176 283.635C99.3873 281.286 99.5279 278.613 98.5878 276.21C85.3728 242.422 50.2246 199.469 3.11719 270.707C2.10056 272.244 1.5175 274.129 1.47786 275.972C0.243769 333.42 -0.966556 368.233 -1.65741 383.951C-1.85027 388.338 -4.92687 392.026 -9.19117 393.074L-232.031 447.856C-236.55 448.967 -239.706 453.048 -239.643 457.701L-238.703 527.762C-238.616 534.238 -232.491 538.924 -226.218 537.314L-13.4737 482.713C-7.31507 481.133 -1.26455 485.626 -0.996614 491.978L3.89497 607.955C3.97104 609.758 4.5128 611.513 5.57738 612.971C19.1915 631.607 52.219 652.767 89.5543 606.29C91.5397 603.819 92.1187 600.493 91.2061 597.457L83.7324 572.592C83.4647 571.701 83.0755 570.857 82.5732 570.075L75.0746 558.39C74.0651 556.817 73.5167 554.992 73.4916 553.123L73.0835 522.7C73.0571 520.74 73.6079 518.814 74.6673 517.164L80.6719 507.81C83.4059 503.551 82.5269 497.921 78.6247 494.698L75.3765 492.015C72.9951 490.048 71.6562 487.091 71.7491 484.004L72.0271 474.763C72.0594 473.688 72.2411 472.617 72.7507 471.669C75.0972 467.309 81.8919 459.78 95.4879 455.693C109.745 451.408 143.943 444.146 162.446 440.398C164.873 439.907 167.026 438.537 168.496 436.545C171.434 432.564 176.852 431.346 181.211 433.688L182.429 434.342C184.744 435.586 187.456 435.868 189.978 435.128L204.443 430.882C212.53 428.509 219.746 436.591 216.475 444.358L214.275 449.583C213.233 452.058 213.23 454.849 214.268 457.326L216.136 461.788C218.167 466.635 223.602 469.084 228.578 467.393L468.512 385.841C475.7 383.398 482.882 389.541 481.582 397.021L478.057 417.308C476.703 425.099 484.5 431.305 491.789 428.237L906.606 253.627C906.722 253.579 906.836 253.528 906.949 253.475C906.975 253.464 907.006 253.472 907.021 253.496V253.496C907.039 253.523 907.076 253.529 907.102 253.51L907.662 253.106C907.795 253.03 907.926 252.951 908.055 252.867C910.11 251.538 912.208 250.032 914.125 248.445Z" fill="#8E4440"/>
<path d="M256.145 378.186L-236.635 497.239C-237.992 497.606 -239.33 496.592 -239.342 495.186L-239.662 457.551C-239.701 452.937 -236.577 448.895 -232.102 447.769L-9.22266 391.687C-4.89034 390.597 -1.80667 386.773 -1.66945 382.307C-0.845497 355.502 0.607489 306.759 1.38669 275.378C1.43246 273.537 2.01843 271.688 3.03939 270.155C49.1372 200.952 84.8979 242.855 98.666 275.93C99.6912 278.393 99.564 281.162 98.4452 283.584L90.9778 299.749C89.6925 302.532 87.1829 304.556 84.1913 305.222C79.9228 306.173 76.7958 309.83 76.5183 314.194L75.4701 330.685C75.3187 333.067 76.0245 335.425 77.4599 337.333L79.8037 340.447C82.4401 343.95 82.4942 348.766 79.856 352.268C78.5902 353.948 77.2269 355.73 75.8868 357.438C72.8997 361.244 72.5852 366.967 76.7964 369.349C82.1115 372.356 87.7205 372.334 90.5365 371.707L291.576 323.086C298.935 321.306 305.526 328.034 303.596 335.355L296.423 362.565C294.391 370.274 301.755 377.145 309.305 374.584L525.225 301.334C533.161 298.641 540.691 306.321 537.842 314.203L531.754 331.045C528.929 338.861 536.316 346.512 544.226 343.962L894.442 231.075C894.908 230.925 895.389 230.829 895.876 230.789C903.331 230.17 905.611 240.656 898.573 243.189L513.665 381.712C506.334 384.35 498.936 377.963 500.476 370.326L501.966 362.935C503.473 355.462 496.401 349.119 489.136 351.427L276.286 419.053C268.717 421.458 261.5 414.505 263.621 406.852L268.131 390.577C270.167 383.228 263.558 376.395 256.145 378.186Z" fill="url(#paint0_linear_11_19127)"/>
<path d="M128.914 408.888L-236.637 497.239C-237.994 497.607 -239.332 496.592 -239.344 495.186L-239.663 457.552C-239.703 452.937 -236.579 448.895 -232.104 447.769L-9.22418 391.688C-4.89188 390.597 -1.80819 386.773 -1.67094 382.308C-0.847024 355.503 0.60596 306.76 1.38521 275.378C1.43093 273.537 2.01694 271.689 3.03789 270.156C49.1357 200.953 84.8965 242.855 98.6645 275.931C99.6897 278.394 99.5625 281.163 98.4438 283.585L90.9764 299.75C89.691 302.532 87.1815 304.556 84.1898 305.223C79.9213 306.174 76.7943 309.83 76.5169 314.194L75.4687 330.686C75.3173 333.068 76.023 335.426 77.4585 337.333L79.8022 340.447C82.4387 343.951 82.534 348.797 79.9939 352.37C78.5386 354.418 76.9922 356.508 75.351 358.455C74.4778 359.491 73.6483 360.669 73.5699 362.022C72.7588 376.008 124.393 365.609 158.895 357.206C168.338 354.906 174.751 365.352 168.275 372.598L163 378.5L133.433 406.436C132.166 407.633 130.608 408.478 128.914 408.888Z" fill="#C5960D" fill-opacity="0.13"/>
<path d="M262 375.5L-236.636 497.239C-237.993 497.607 -239.331 496.592 -239.343 495.186L-239.663 457.552C-239.702 452.938 -236.578 448.895 -232.103 447.769L-9.22385 391.688C-4.89153 390.598 -1.80786 386.773 -1.67061 382.308C-0.846689 355.503 0.606326 306.76 1.38556 275.378C1.43126 273.537 2.01729 271.689 3.03825 270.156C49.136 200.953 84.8968 242.855 98.6648 275.931C99.69 278.394 99.5629 281.163 98.4441 283.585L90.9767 299.75C89.6913 302.533 87.1818 304.556 84.1901 305.223C79.9217 306.174 76.7946 309.83 76.5172 314.195L75.469 330.686C75.3176 333.068 76.0234 335.426 77.4588 337.333L79.8025 340.447C82.439 343.951 82.493 348.766 79.8549 352.268C78.5891 353.949 77.2258 355.731 75.8856 357.439C72.8986 361.245 72.5841 366.967 76.7952 369.35C82.1103 372.357 87.7193 372.335 90.5353 371.707L289.603 322.188C298.907 319.874 305.82 330.712 299.799 338.173L274.34 369.72C273.138 371.209 271.535 372.322 269.72 372.927L262 375.5Z" fill="#C5960D" fill-opacity="0.13"/>
<path d="M256.145 378.187L-236.636 497.239C-237.993 497.607 -239.331 496.592 -239.343 495.187L-239.662 457.552C-239.701 452.938 -236.578 448.896 -232.103 447.769L-9.22336 391.688C-4.89111 390.598 -1.80737 386.773 -1.67015 382.308C-0.846207 355.503 0.606782 306.76 1.38604 275.378C1.43175 273.537 2.01772 271.689 3.03868 270.156C49.1365 200.953 84.8971 242.855 98.6652 275.931C99.6904 278.394 99.5632 281.163 98.4445 283.585L90.9771 299.75C89.6917 302.533 87.1822 304.556 84.1905 305.223C79.922 306.174 76.795 309.83 76.5176 314.195L75.4694 330.686C75.3179 333.068 76.0237 335.426 77.4591 337.333L79.8029 340.448C82.4393 343.951 82.4934 348.766 79.8552 352.268C78.5894 353.949 77.2261 355.731 75.886 357.439C72.8989 361.245 72.5845 366.967 76.7956 369.35C82.1107 372.357 87.7197 372.335 90.5357 371.707L291.575 323.087C298.935 321.307 305.526 328.034 303.596 335.356L296.423 362.566C294.39 370.275 301.755 377.146 309.305 374.585L513.721 305.237C523.082 302.061 530.884 312.946 524.869 320.791L507.236 343.79C505.991 345.414 504.278 346.617 502.328 347.236L276.285 419.054C268.716 421.458 261.499 414.506 263.62 406.853L268.13 390.577C270.166 383.228 263.557 376.396 256.145 378.187Z" fill="#C5960D" fill-opacity="0.13"/>
<path fill-rule="evenodd" clip-rule="evenodd" d="M548.166 251.445V251.445C539.905 245.488 544.51 232.23 554.651 233.17L560.523 233.714C562.107 233.715 563.802 233.75 565.613 233.821C566.429 233.853 567.122 233.948 567.903 234.187C568.191 234.275 568.503 234.371 568.838 234.474C568.873 234.485 568.909 234.492 568.946 234.495L569.719 234.567C569.769 234.572 569.797 234.629 569.769 234.672V234.672C569.744 234.709 569.75 234.756 569.793 234.77C602.033 244.778 802.679 309.514 918.177 346.836C926.074 349.388 933.4 341.746 930.605 333.932L924.621 317.204C921.8 309.317 929.345 301.664 937.271 304.373L1153.08 378.124C1160.56 380.683 1167.91 373.945 1166.02 366.264L1159.08 338.167C1157.28 330.889 1163.83 324.293 1171.12 326.046L1371.36 374.182C1374.06 374.991 1379.33 375.388 1384.54 372.964C1389.26 370.767 1388.91 364.374 1385.75 360.241C1384.68 358.845 1383.6 357.393 1382.58 355.999C1380.11 352.612 1380.14 348.036 1382.56 344.609L1385.51 340.425C1386.87 338.49 1387.51 336.134 1387.3 333.776L1385.84 317.428C1385.48 313.357 1382.67 309.916 1378.76 308.739L1377.63 308.402C1374.87 307.572 1372.61 305.592 1371.41 302.97L1363.97 286.635C1362.9 284.286 1362.76 281.613 1363.7 279.21C1376.92 245.422 1412.07 202.469 1459.17 273.707C1460.19 275.244 1460.77 277.129 1460.81 278.972C1462.05 336.42 1463.26 371.233 1463.95 386.951C1464.14 391.338 1467.22 395.026 1471.48 396.074L1694.32 450.856C1698.84 451.967 1702 456.048 1701.93 460.701L1700.99 530.762C1700.91 537.238 1694.78 541.924 1688.51 540.314L1475.76 485.713C1469.61 484.133 1463.56 488.626 1463.29 494.978L1458.4 610.955C1458.32 612.758 1457.78 614.513 1456.71 615.971C1443.1 634.607 1410.07 655.767 1372.74 609.29C1370.75 606.819 1370.17 603.493 1371.08 600.457L1378.56 575.592C1378.83 574.701 1379.22 573.857 1379.72 573.075L1387.22 561.39C1388.23 559.817 1388.77 557.992 1388.8 556.123L1389.21 525.7C1389.23 523.74 1388.68 521.814 1387.62 520.164L1381.62 510.81C1378.89 506.551 1379.76 500.921 1383.67 497.698L1386.91 495.015C1389.3 493.048 1390.63 490.091 1390.54 487.004L1390.26 477.763C1390.23 476.688 1390.05 475.617 1389.54 474.669C1387.19 470.309 1380.4 462.78 1366.8 458.693C1352.55 454.408 1318.35 447.146 1299.84 443.398C1297.42 442.907 1295.27 441.537 1293.8 439.545C1290.86 435.564 1285.44 434.346 1281.08 436.688L1279.86 437.342C1277.55 438.586 1274.83 438.868 1272.31 438.128L1257.85 433.882C1249.76 431.509 1242.55 439.591 1245.82 447.358L1248.02 452.583C1249.06 455.058 1249.06 457.849 1248.02 460.326L1246.15 464.788C1244.12 469.635 1238.69 472.084 1233.71 470.393L993.779 388.841C986.591 386.398 979.409 392.541 980.709 400.021L984.234 420.308C985.588 428.099 977.791 434.305 970.502 431.237L555.685 256.627C555.569 256.579 555.455 256.528 555.342 256.475C555.316 256.464 555.285 256.472 555.27 256.496V256.496C555.252 256.523 555.215 256.529 555.189 256.51L554.629 256.106C554.496 256.03 554.365 255.951 554.236 255.867C552.181 254.538 550.083 253.032 548.166 251.445Z" fill="#8E4440"/>
<path d="M1206.15 381.186L1698.93 500.239C1700.28 500.606 1701.62 499.592 1701.63 498.186L1701.95 460.551C1701.99 455.937 1698.87 451.895 1694.39 450.769L1471.51 394.687C1467.18 393.597 1464.1 389.773 1463.96 385.307C1463.14 358.502 1461.68 309.759 1460.9 278.378C1460.86 276.537 1460.27 274.688 1459.25 273.155C1413.15 203.952 1377.39 245.855 1363.63 278.93C1362.6 281.393 1362.73 284.162 1363.85 286.584L1371.31 302.749C1372.6 305.532 1375.11 307.556 1378.1 308.222C1382.37 309.173 1385.5 312.83 1385.77 317.194L1386.82 333.685C1386.97 336.067 1386.27 338.425 1384.83 340.333L1382.49 343.447C1379.85 346.95 1379.8 351.766 1382.43 355.268C1383.7 356.948 1385.06 358.73 1386.4 360.438C1389.39 364.244 1389.71 369.967 1385.49 372.349C1380.18 375.356 1374.57 375.334 1371.75 374.707L1170.72 326.086C1163.36 324.306 1156.76 331.034 1158.69 338.355L1165.87 365.565C1167.9 373.274 1160.54 380.145 1152.99 377.584L937.067 304.334C929.13 301.641 921.6 309.321 924.449 317.203L930.537 334.045C933.362 341.861 925.975 349.512 918.065 346.962L567.849 234.075C567.383 233.925 566.902 233.829 566.415 233.789C558.96 233.17 556.68 243.656 563.718 246.189L948.626 384.712C955.957 387.35 963.355 380.963 961.815 373.326L960.325 365.935C958.818 358.462 965.89 352.119 973.155 354.427L1186.01 422.053C1193.57 424.458 1200.79 417.505 1198.67 409.852L1194.16 393.577C1192.12 386.228 1198.73 379.395 1206.15 381.186Z" fill="url(#paint1_linear_11_19127)"/>
<path d="M1333.38 411.888L1698.93 500.239C1700.28 500.607 1701.62 499.592 1701.63 498.186L1701.95 460.552C1701.99 455.937 1698.87 451.895 1694.39 450.769L1471.52 394.688C1467.18 393.597 1464.1 389.773 1463.96 385.308C1463.14 358.503 1461.69 309.76 1460.91 278.378C1460.86 276.537 1460.27 274.689 1459.25 273.156C1413.16 203.953 1377.39 245.855 1363.63 278.931C1362.6 281.394 1362.73 284.163 1363.85 286.585L1371.31 302.75C1372.6 305.532 1375.11 307.556 1378.1 308.223C1382.37 309.174 1385.5 312.83 1385.77 317.194L1386.82 333.686C1386.97 336.068 1386.27 338.426 1384.83 340.333L1382.49 343.447C1379.85 346.951 1379.76 351.797 1382.3 355.37C1383.75 357.418 1385.3 359.508 1386.94 361.455C1387.81 362.491 1388.64 363.669 1388.72 365.022C1389.53 379.008 1337.9 368.609 1303.4 360.206C1293.95 357.906 1287.54 368.352 1294.02 375.598L1299.29 381.5L1328.86 409.436C1330.12 410.633 1331.68 411.478 1333.38 411.888Z" fill="#C5960D" fill-opacity="0.13"/>
<path d="M1200.29 378.5L1698.93 500.239C1700.28 500.607 1701.62 499.592 1701.63 498.186L1701.95 460.552C1701.99 455.938 1698.87 451.895 1694.39 450.769L1471.51 394.688C1467.18 393.598 1464.1 389.773 1463.96 385.308C1463.14 358.503 1461.68 309.76 1460.91 278.378C1460.86 276.537 1460.27 274.689 1459.25 273.156C1413.15 203.953 1377.39 245.855 1363.63 278.931C1362.6 281.394 1362.73 284.163 1363.85 286.585L1371.31 302.75C1372.6 305.533 1375.11 307.556 1378.1 308.223C1382.37 309.174 1385.5 312.83 1385.77 317.195L1386.82 333.686C1386.97 336.068 1386.27 338.426 1384.83 340.333L1382.49 343.447C1379.85 346.951 1379.8 351.766 1382.44 355.268C1383.7 356.949 1385.07 358.731 1386.41 360.439C1389.39 364.245 1389.71 369.967 1385.5 372.35C1380.18 375.357 1374.57 375.335 1371.76 374.707L1172.69 325.188C1163.38 322.874 1156.47 333.712 1162.49 341.173L1187.95 372.72C1189.15 374.209 1190.76 375.322 1192.57 375.927L1200.29 378.5Z" fill="#C5960D" fill-opacity="0.13"/>
<path d="M1206.15 381.187L1698.93 500.239C1700.28 500.607 1701.62 499.592 1701.63 498.187L1701.95 460.552C1701.99 455.938 1698.87 451.896 1694.39 450.769L1471.51 394.688C1467.18 393.598 1464.1 389.773 1463.96 385.308C1463.14 358.503 1461.68 309.76 1460.9 278.378C1460.86 276.537 1460.27 274.689 1459.25 273.156C1413.15 203.953 1377.39 245.855 1363.63 278.931C1362.6 281.394 1362.73 284.163 1363.85 286.585L1371.31 302.75C1372.6 305.533 1375.11 307.556 1378.1 308.223C1382.37 309.174 1385.5 312.83 1385.77 317.195L1386.82 333.686C1386.97 336.068 1386.27 338.426 1384.83 340.333L1382.49 343.448C1379.85 346.951 1379.8 351.766 1382.44 355.268C1383.7 356.949 1385.06 358.731 1386.41 360.439C1389.39 364.245 1389.71 369.967 1385.5 372.35C1380.18 375.357 1374.57 375.335 1371.76 374.707L1170.72 326.087C1163.36 324.307 1156.77 331.034 1158.7 338.356L1165.87 365.566C1167.9 373.275 1160.54 380.146 1152.99 377.585L948.57 308.237C939.209 305.061 931.407 315.946 937.422 323.791L955.055 346.79C956.3 348.414 958.013 349.617 959.963 350.236L1186.01 422.054C1193.57 424.458 1200.79 417.506 1198.67 409.853L1194.16 393.577C1192.12 386.228 1198.73 379.396 1206.15 381.187Z" fill="#C5960D" fill-opacity="0.13"/>
</g>
<defs>
<linearGradient id="paint0_linear_11_19127" x1="-372.646" y1="490.6" x2="295.265" y2="358.55" gradientUnits="userSpaceOnUse">
<stop stop-color="#C5960D"/>
<stop offset="1" stop-color="#BD720B"/>
</linearGradient>
<linearGradient id="paint1_linear_11_19127" x1="1834.94" y1="493.6" x2="1167.03" y2="361.55" gradientUnits="userSpaceOnUse">
<stop stop-color="#C5960D"/>
<stop offset="1" stop-color="#BD720B"/>
</linearGradient>
<clipPath id="clip0_11_19127">
<rect width="1452" height="669" fill="white"/>
</clipPath>
</defs>
</svg>
