<svg width="18" height="18" viewBox="0 0 18 18" fill="none" xmlns="http://www.w3.org/2000/svg">
<path fill-rule="evenodd" clip-rule="evenodd" d="M3.62793 4.94137C3.3516 4.4859 3.20945 3.92527 3.20945 3.24383C3.20945 1.90029 4.21167 0.69751 5.73531 0.69751C7.26092 0.69751 8.49124 1.7276 9.10311 3.34044C9.71499 1.7276 10.9453 0.69751 12.4709 0.69751C13.9946 0.69751 14.9968 1.90029 14.9968 3.24383C14.9968 3.92527 14.8546 4.4859 14.5783 4.94137H15.8387C16.7687 4.94137 17.5226 5.70139 17.5226 6.63892V8.33646C17.5226 9.27399 16.7687 10.034 15.8387 10.034V15.9754C15.8387 16.9129 15.0848 17.673 14.1548 17.673H4.0514C3.12141 17.673 2.3675 16.9129 2.3675 15.9754V10.034C1.4375 10.034 0.683594 9.27399 0.683594 8.33646V6.63892C0.683594 5.70139 1.4375 4.94137 2.3675 4.94137H3.62793ZM8.26057 6.63895H2.36691V8.3365H8.26057V6.63895ZM15.8386 8.3365H9.94494V6.63895H15.8386V8.3365ZM8.26137 15.9754V10.034H4.05161V15.9754H8.26137ZM14.1547 15.9754H9.94494V10.034H14.1547V15.9754ZM5.73528 2.39504C5.21298 2.39504 4.89333 2.77865 4.89333 3.24381C4.89333 4.30752 5.7496 4.81329 7.78074 4.9197C7.555 3.33853 6.71378 2.39504 5.73528 2.39504ZM10.3664 4.9197C10.5922 3.33853 11.4334 2.39504 12.4119 2.39504C12.9342 2.39504 13.2538 2.77865 13.2538 3.24381C13.2538 4.30752 12.3976 4.81329 10.3664 4.9197Z" fill="#0B0A0A"/>
</svg>
