<svg width="25" height="25" viewBox="0 0 25 25" fill="none" xmlns="http://www.w3.org/2000/svg">
<mask id="mask0_423_1654" style="mask-type:alpha" maskUnits="userSpaceOnUse" x="2" y="1" width="21" height="22">
<path fill-rule="evenodd" clip-rule="evenodd" d="M7.81254 1.04175C8.38784 1.04175 8.85421 1.50812 8.85421 2.08341V3.12508H16.1459V2.08341C16.1459 1.50812 16.6122 1.04175 17.1875 1.04175C17.7628 1.04175 18.2292 1.50812 18.2292 2.08341V3.1508C20.8611 3.41211 22.9167 5.63271 22.9167 8.33341V17.7084C22.9167 20.5849 20.5849 22.9167 17.7084 22.9167H7.29171C4.41522 22.9167 2.08337 20.5849 2.08337 17.7084V8.33341C2.08337 5.63271 4.13894 3.41211 6.77087 3.1508V2.08341C6.77087 1.50812 7.23724 1.04175 7.81254 1.04175ZM4.34453 7.29175H20.6556C20.2266 6.07801 19.069 5.20841 17.7084 5.20841H7.29171C5.93106 5.20841 4.77352 6.07801 4.34453 7.29175ZM20.8334 9.37508H4.16671V17.7084C4.16671 19.4343 5.56582 20.8334 7.29171 20.8334H17.7084C19.4343 20.8334 20.8334 19.4343 20.8334 17.7084V9.37508ZM6.25004 12.5001C6.25004 11.9248 6.71641 11.4584 7.29171 11.4584H11.4584C12.0337 11.4584 12.5 11.9248 12.5 12.5001V16.6667C12.5 17.242 12.0337 17.7084 11.4584 17.7084H7.29171C6.71641 17.7084 6.25004 17.242 6.25004 16.6667V12.5001ZM10.4167 13.5417H8.33337V15.6251H10.4167V13.5417Z" fill="white"/>
</mask>
<g mask="url(#mask0_423_1654)">
<rect width="22.7941" height="22.7941" fill="#5C5C5C"/>
</g>
</svg>
