<svg width="37" height="37" viewBox="0 0 37 37" fill="none" xmlns="http://www.w3.org/2000/svg">
<path d="M5.54912 22.0795L5.5491 22.0795C5.54681 22.0818 5.54453 22.0841 5.54224 22.0864C5.51259 22.116 5.4831 22.1454 5.45378 22.1747C4.996 22.6314 4.5805 23.0459 4.28745 23.5635C3.9944 24.0811 3.85271 24.6507 3.6966 25.2782C3.68583 25.3215 3.67499 25.3651 3.66403 25.4089L2.20069 31.2622C2.19424 31.2881 2.18773 31.314 2.1812 31.3401C2.07057 31.7818 1.95036 32.2616 1.91078 32.6662C1.86705 33.1133 1.87534 33.8848 2.49524 34.5047C3.11513 35.1246 3.8866 35.1329 4.33366 35.0891C4.73825 35.0496 5.21808 34.9294 5.65971 34.8187C5.68583 34.8122 5.71182 34.8057 5.73765 34.7992L5.803 34.7829L11.591 33.3359C11.6349 33.3249 11.6784 33.3141 11.7217 33.3033C12.3493 33.1472 12.9188 33.0055 13.4364 32.7125C13.954 32.4194 14.3685 32.0039 14.8252 31.5462C14.8567 31.5146 14.8885 31.4828 14.9204 31.4508L13.8598 30.3902L14.9204 31.4508L14.9204 31.4508L31.9356 14.4357L31.9907 14.3806C32.7038 13.6675 33.3233 13.0481 33.7727 12.4881C34.2516 11.8913 34.6527 11.2261 34.7778 10.3964C34.8425 9.96789 34.8425 9.53211 34.7778 9.10361C34.6527 8.2739 34.2516 7.60869 33.7727 7.01189C33.3233 6.45195 32.7038 5.83247 31.9907 5.11943L31.9356 5.06434L31.8805 5.00921C31.1674 4.29611 30.548 3.67659 29.988 3.22725C29.3912 2.74832 28.726 2.34725 27.8963 2.22209C27.4678 2.15744 27.032 2.15744 26.6035 2.22209C25.7738 2.34725 25.1086 2.74832 24.5118 3.22725C23.9519 3.67658 23.3324 4.29611 22.6194 5.00921L22.5643 5.06434L5.54912 22.0795ZM5.37389 33.3441L5.37383 33.344L5.37389 33.3441Z" stroke="#F2F2F2" stroke-width="3"/>
</svg>
