<svg width="102" height="40" viewBox="0 0 102 40" fill="none" xmlns="http://www.w3.org/2000/svg">
<path d="M20.359 0.782958L19.5681 5.83186L21.2496 0.627755C23.1779 0.319332 24.9331 0.218135 26.3564 0.258423L23.3394 10.2314C8.45536 8.02845 4.06391 14.3745 3.72868 17.8229H0.125C3.30976 6.69225 12.8963 2.19048 20.359 0.782958Z" fill="#E6B93D"/>
<path d="M16.6343 22.7729C23.1346 16.9094 29.0008 23.4304 30.0672 26.9909C30.7704 19.0661 27.5475 14.6265 23.1978 12.6134L21.5408 13.4105L21.0637 11.837C14.2004 9.95206 5.83611 13.0191 5.05412 17.6025C4.93357 18.3091 5.20115 19.1724 5.71539 20.1159L6.77947 20.3592L6.32932 21.1171C7.80962 23.3119 10.2632 25.7711 12.1472 27.6593C12.7919 28.3055 13.3698 28.8848 13.8193 29.3637C11.1591 29.1203 9.43363 27.3195 6.84074 24.6133L6.84055 24.6131C6.28994 24.0385 5.70022 23.423 5.05412 22.7729C5.56597 26.4092 4.28161 30.182 2.55895 31.6364C2.55895 32.3152 3.51562 32.7623 5.08518 33.1283L7.16514 32.6868L7.16627 33.5259C8.07804 33.6748 9.0902 33.819 10.1698 33.9728C14.1552 34.5403 19.0601 35.2389 23.2285 36.7928C22.3449 35.0114 20.8763 32.8878 19.2821 30.9043C20.763 31.1045 23.5729 34.5319 25.1676 37.6081C26.1746 38.0861 27.1145 38.6292 27.9586 39.25L26.4843 26.9909C18.3974 26.8546 16.5277 24.9131 16.6343 22.7729Z" fill="#E6B93D"/>
<path fill-rule="evenodd" clip-rule="evenodd" d="M38.3064 16.351L38.7092 17.0217L39.3593 16.3555C41.318 16.4107 42.8776 16.982 44.0381 18.0693C45.2718 19.2048 45.8887 20.7537 45.8887 22.716C45.8887 24.1503 45.5691 25.4004 44.9298 26.4662C44.2792 27.522 43.438 28.3388 42.4061 28.9166C41.3742 29.4943 40.2526 29.7831 39.0412 29.7831H36.4166V37.4928C36.4166 37.5924 36.3605 37.6422 36.2483 37.6422H32.3787C32.2666 37.6422 32.2105 37.5924 32.2105 37.4928L32.2154 35.9562L32.2953 36.3199L33.4872 35.4593L32.2191 34.8124L32.2778 16.4706C32.2778 16.3909 32.3227 16.351 32.4124 16.351H38.3064ZM39.0412 19.9817L36.4166 20.0116V26.0777H39.0412C39.7703 26.0777 40.404 25.769 40.9424 25.1514C41.4807 24.5239 41.7499 23.712 41.7499 22.716C41.7499 21.9191 41.5088 21.2667 41.0265 20.7587C40.5442 20.2407 39.8824 19.9817 39.0412 19.9817Z" fill="#E6B93D"/>
<path fill-rule="evenodd" clip-rule="evenodd" d="M45.0812 37.4928L49.3546 16.4706C49.377 16.3909 49.4331 16.351 49.5228 16.351H54.5197C54.6094 16.351 54.6655 16.3909 54.6879 16.4706L57.6452 31.6149L56.7537 31.6532L57.8522 32.6744L58.7931 37.4928C58.8043 37.5924 58.7594 37.6422 58.6585 37.6422H54.8393C54.7272 37.6422 54.6655 37.5924 54.6543 37.4928L54.2841 35.2516H49.5901L49.22 37.4928C49.2088 37.5924 49.1527 37.6422 49.0517 37.6422H45.2158C45.126 37.6422 45.0812 37.5924 45.0812 37.4928ZM51.8278 23.3883L50.2799 31.9795H53.5943L52.1811 23.3883L51.9792 22.2528L51.8278 23.3883Z" fill="#E6B93D"/>
<path fill-rule="evenodd" clip-rule="evenodd" d="M64.9845 37.6422H61.0812C60.9915 37.6422 60.9466 37.5924 60.9466 37.4928L61.0041 19.5391L62.2971 19L61.0093 17.9019L61.0139 16.4706C61.0139 16.3909 61.0588 16.351 61.1485 16.351H68.1138C69.3588 16.351 70.5029 16.62 71.546 17.1579C72.5891 17.6957 73.4191 18.4179 74.036 19.3243C74.6641 20.2308 74.9782 21.2567 74.9782 22.4022C74.9782 23.1493 74.8492 23.8266 74.5912 24.4342C74.3332 25.0418 74.0304 25.5548 73.6827 25.9731C73.3462 26.3915 73.0378 26.7003 72.7573 26.8995C73.6227 27.751 74.1873 28.706 74.4512 29.7645L73.2524 29.8503L74.6064 31.031L74.6208 30.9875C74.6235 31.0637 74.6249 31.1404 74.6249 31.2175L74.6585 37.4928C74.6585 37.5924 74.6024 37.6422 74.4903 37.6422H70.587C70.4973 37.6422 70.4524 37.6123 70.4524 37.5526V31.2175C70.4524 30.4804 70.1608 29.8429 69.5775 29.305C68.9943 28.7671 68.2764 28.4982 67.424 28.4982H65.1527L65.1191 37.4928C65.1191 37.5924 65.0742 37.6422 64.9845 37.6422ZM68.1138 20.0116H65.1527V24.8227H68.1138C68.8204 24.8227 69.4485 24.5886 69.9981 24.1204C70.5589 23.6523 70.8394 23.0795 70.8394 22.4022C70.8394 21.7548 70.5702 21.197 70.0318 20.7288C69.4934 20.2507 68.8541 20.0116 68.1138 20.0116Z" fill="#E6B93D"/>
<path d="M84.2148 37.6422H80.3283C80.2274 37.6422 80.1769 37.5924 80.1769 37.4928V36.3675L81.2236 35.4548L80.1769 35.3798V20.0415H75.7016C75.5895 20.0415 75.5334 19.9917 75.5334 19.8921L75.567 16.4706C75.567 16.3909 75.6119 16.351 75.7016 16.351H88.791C88.9144 16.351 88.9761 16.3909 88.9761 16.4706V19.8921C88.9761 19.9917 88.9312 20.0415 88.8415 20.0415H84.3157L84.3202 22.3786L83.2573 22.4547L84.3222 23.3833L84.3494 37.4928C84.3494 37.5924 84.3045 37.6422 84.2148 37.6422Z" fill="#E6B93D"/>
<path fill-rule="evenodd" clip-rule="evenodd" d="M87.4114 37.4928L89.9617 24.947L91.1635 23.8991L90.1889 23.8293L91.6848 16.4706C91.7073 16.3909 91.7633 16.351 91.8531 16.351H96.8499C96.9396 16.351 96.9957 16.3909 97.0182 16.4706L97.2355 17.5838L96.4503 17.64L97.4099 18.4768L101.123 37.4928C101.135 37.5924 101.09 37.6422 100.989 37.6422H97.1696C97.0574 37.6422 96.9957 37.5924 96.9845 37.4928L96.6144 35.2516H91.9204L91.5502 37.4928C91.539 37.5924 91.4829 37.6422 91.382 37.6422H87.546C87.4563 37.6422 87.4114 37.5924 87.4114 37.4928ZM94.158 23.3883L92.6102 31.9795H95.9246L94.5113 23.3883L94.3094 22.2528L94.158 23.3883Z" fill="#E6B93D"/>
</svg>
