<svg width="88" height="39" viewBox="0 0 88 39" fill="none" xmlns="http://www.w3.org/2000/svg">
<path d="M17.5543 1.26929L16.873 6.18874L18.3215 1.11807C19.9825 0.817554 21.4943 0.718952 22.7204 0.758207L20.1216 10.4755C7.30066 8.32901 3.51792 14.5123 3.22916 17.8723H0.125C2.8683 7.02707 11.126 2.64072 17.5543 1.26929Z" fill="#661E29"/>
<path d="M14.3459 22.6954C19.9452 16.9822 24.9982 23.336 25.9168 26.8053C26.5225 19.0837 23.7464 14.7579 19.9996 12.7964L18.5722 13.573L18.1613 12.0399C12.2494 10.2033 5.04447 13.1917 4.37088 17.6576C4.26703 18.346 4.49752 19.1872 4.94048 20.1066L5.85707 20.3436L5.46932 21.082C6.74442 23.2205 8.85793 25.6167 10.4807 27.4565C11.036 28.0861 11.5339 28.6506 11.921 29.1172C9.62959 28.8801 8.14332 27.1254 5.90985 24.4886L5.90968 24.4884C5.43539 23.9285 4.92741 23.3288 4.37088 22.6954C4.81178 26.2385 3.70545 29.9146 2.22157 31.3317C2.22157 31.993 3.04563 32.4287 4.39763 32.7852L6.18928 32.355L6.19025 33.1727C6.97564 33.3178 7.8475 33.4582 8.77748 33.6081C12.2104 34.1611 16.4354 34.8417 20.026 36.3558C19.2649 34.6201 17.9999 32.551 16.6266 30.6182C17.9023 30.8134 20.3227 34.1529 21.6963 37.1502C22.5638 37.616 23.3734 38.1451 24.1005 38.75L22.8306 26.8053C15.8646 26.6724 14.2541 24.7807 14.3459 22.6954Z" fill="#661E29"/>
<path fill-rule="evenodd" clip-rule="evenodd" d="M33.0139 16.4382L33.3609 17.0916L33.9209 16.4425C35.6081 16.4964 36.9515 17.053 37.9511 18.1124C39.0139 19.2188 39.5452 20.728 39.5452 22.6399C39.5452 24.0375 39.2699 25.2555 38.7192 26.294C38.1588 27.3228 37.4342 28.1186 36.5453 28.6815C35.6565 29.2444 34.6903 29.5259 33.6469 29.5259H31.3861V37.0378C31.3861 37.1349 31.3378 37.1834 31.2411 37.1834H27.9079C27.8113 37.1834 27.763 37.1349 27.763 37.0378L27.7672 35.5406L27.8361 35.895L28.8628 35.0565L27.7704 34.4262L27.821 16.5547C27.821 16.477 27.8596 16.4382 27.9369 16.4382H33.0139ZM33.6469 19.9758L31.3861 20.0049V25.9155H33.6469C34.2749 25.9155 34.8208 25.6146 35.2845 25.0129C35.7483 24.4014 35.9801 23.6105 35.9801 22.6399C35.9801 21.8635 35.7724 21.2278 35.357 20.7328C34.9415 20.2281 34.3715 19.9758 33.6469 19.9758Z" fill="#661E29"/>
<path fill-rule="evenodd" clip-rule="evenodd" d="M38.8496 37.0378L42.5307 16.5547C42.55 16.477 42.5983 16.4382 42.6756 16.4382H46.9798C47.0571 16.4382 47.1054 16.477 47.1247 16.5547L49.6721 31.3106L48.9042 31.348L49.8504 32.343L50.6609 37.0378C50.6705 37.1349 50.6319 37.1834 50.5449 37.1834H47.2552C47.1586 37.1834 47.1054 37.1349 47.0957 37.0378L46.7769 34.8541H42.7336L42.4147 37.0378C42.4051 37.1349 42.3568 37.1834 42.2698 37.1834H38.9656C38.8883 37.1834 38.8496 37.1349 38.8496 37.0378ZM44.661 23.295L43.3278 31.6659H46.1827L44.9654 23.295L44.7915 22.1886L44.661 23.295Z" fill="#661E29"/>
<path fill-rule="evenodd" clip-rule="evenodd" d="M55.994 37.1834H52.6318C52.5545 37.1834 52.5159 37.1349 52.5159 37.0378L52.5654 19.5445L53.6792 19.0192L52.5699 17.9492L52.5739 16.5547C52.5739 16.477 52.6125 16.4382 52.6898 16.4382H58.6896C59.762 16.4382 60.7475 16.7002 61.646 17.2243C62.5446 17.7484 63.2595 18.4521 63.7909 19.3352C64.332 20.2184 64.6025 21.2181 64.6025 22.3342C64.6025 23.0621 64.4914 23.7221 64.2691 24.3141C64.0469 24.9061 63.7861 25.406 63.4866 25.8136C63.1967 26.2212 62.931 26.5221 62.6895 26.7162C63.4349 27.5459 63.9212 28.4764 64.1485 29.5077L63.1159 29.5913L64.2822 30.7417L64.2946 30.6993C64.297 30.7736 64.2981 30.8483 64.2981 30.9235L64.3271 37.0378C64.3271 37.1349 64.2788 37.1834 64.1822 37.1834H60.82C60.7427 37.1834 60.704 37.1543 60.704 37.0961V30.9235C60.704 30.2053 60.4528 29.5841 59.9504 29.06C59.448 28.5359 58.8297 28.2739 58.0954 28.2739H56.139L56.11 37.0378C56.11 37.1349 56.0713 37.1834 55.994 37.1834ZM58.6896 20.0049H56.139V24.6926H58.6896C59.2983 24.6926 59.8393 24.4645 60.3127 24.0084C60.7958 23.5522 61.0374 22.9942 61.0374 22.3342C61.0374 21.7034 60.8055 21.1599 60.3417 20.7037C59.878 20.2378 59.3273 20.0049 58.6896 20.0049Z" fill="#661E29"/>
<path d="M72.5588 37.1834H69.211C69.1241 37.1834 69.0806 37.1349 69.0806 37.0378V35.9414L69.9822 35.0521L69.0806 34.9791V20.034H65.2257C65.129 20.034 65.0807 19.9855 65.0807 19.8884L65.1097 16.5547C65.1097 16.477 65.1484 16.4382 65.2257 16.4382H76.5007C76.607 16.4382 76.6601 16.477 76.6601 16.5547V19.8884C76.6601 19.9855 76.6214 20.034 76.5442 20.034H72.6457L72.6496 22.3112L71.734 22.3854L72.6513 23.2901L72.6747 37.0378C72.6747 37.1349 72.6361 37.1834 72.5588 37.1834Z" fill="#661E29"/>
<path fill-rule="evenodd" clip-rule="evenodd" d="M75.3123 37.0378L77.5091 24.8137L78.5443 23.7927L77.7048 23.7247L78.9934 16.5547C79.0127 16.477 79.061 16.4382 79.1383 16.4382H83.4425C83.5198 16.4382 83.5681 16.477 83.5874 16.5547L83.7747 17.6393L83.0983 17.6941L83.9249 18.5094L87.1235 37.0378C87.1332 37.1349 87.0946 37.1834 87.0076 37.1834H83.7179C83.6212 37.1834 83.5681 37.1349 83.5584 37.0378L83.2396 34.8541H79.1963L78.8774 37.0378C78.8678 37.1349 78.8195 37.1834 78.7325 37.1834H75.4282C75.351 37.1834 75.3123 37.1349 75.3123 37.0378ZM81.1237 23.295L79.7904 31.6659H82.6454L81.4281 23.295L81.2542 22.1886L81.1237 23.295Z" fill="#661E29"/>
</svg>
