<svg width="64" height="64" viewBox="0 0 64 64" fill="none" xmlns="http://www.w3.org/2000/svg">
<path d="M7.11112 64C5.15556 64 3.48089 63.3031 2.08712 61.9093C0.693339 60.5156 -0.00236433 58.8421 6.0366e-06 56.8889V7.11112C6.0366e-06 5.15556 0.696895 3.48089 2.09067 2.08712C3.48445 0.693339 5.15793 -0.00236433 7.11112 6.0366e-06H56.8889C58.8444 6.0366e-06 60.5191 0.696895 61.9129 2.09067C63.3067 3.48445 64.0024 5.15793 64 7.11112V56.8889C64 58.8444 63.3031 60.5191 61.9093 61.9129C60.5156 63.3067 58.8421 64.0024 56.8889 64H7.11112ZM50.7556 56.8889H56.8889V50.7556L50.7556 56.8889ZM10.1333 56.8889H16.6222L27.2889 46.2222H34.8444L24.1778 56.8889H29.8667L40.5333 46.2222H48.0889L37.4222 56.8889H43.2L53.8667 46.2222H56.8889V7.11112H7.11112V52.3556L13.2444 46.2222H20.8L10.1333 56.8889ZM19.0273 36.6377C17.6483 38.0054 15.423 38.0008 14.0496 36.6274C12.6722 35.25 12.6722 33.0167 14.0496 31.6393L27.2889 18.4L34.4 25.5111L44.9747 14.9364C46.351 13.5601 48.5823 13.5601 49.9586 14.9364C51.3325 16.3103 51.3352 18.5369 49.9647 19.9142L34.4 35.5556L27.2889 28.4444L19.0273 36.6377Z" fill="url(#paint0_linear_2110_12953)"/>
<defs>
<linearGradient id="paint0_linear_2110_12953" x1="6.2439" y1="-5.46341" x2="94.439" y2="104.585" gradientUnits="userSpaceOnUse">
<stop stop-color="#E6B93D"/>
<stop offset="1" stop-color="#E6B93D" stop-opacity="0"/>
</linearGradient>
</defs>
</svg>
