<svg width="80" height="61" viewBox="0 0 80 61" fill="none" xmlns="http://www.w3.org/2000/svg">
<path fill-rule="evenodd" clip-rule="evenodd" d="M17.0687 9.00393C19.906 6.67331 23.4614 5.40011 27.1298 5.40098H52.7447C56.9528 5.40098 60.9886 7.07648 63.9641 10.0589C66.9397 13.0413 68.6114 17.0863 68.6114 21.3041C68.6114 25.5219 66.9397 29.5669 63.9641 32.5494C60.9886 35.5318 56.9528 37.2073 52.7447 37.2073H32.3276C31.5889 37.2073 30.8827 37.5112 30.374 38.048L15.4695 53.7755C14.5969 54.6964 13.4493 55.308 12.1997 55.5182C10.9502 55.7284 9.66624 55.5259 8.54148 54.9411C7.41673 54.3563 6.51209 53.421 5.96387 52.276C5.41566 51.131 5.25361 49.8383 5.50209 48.593L11.5678 18.1835C12.2876 14.5783 14.2315 11.3345 17.0687 9.00393ZM13.6531 4.82658C17.4538 1.70458 22.2164 -0.00101532 27.1305 0H52.7447C58.3819 0 63.7883 2.24454 67.7745 6.23983C68.2637 6.73021 68.7266 7.24202 69.1624 7.77308C70.8404 9.17621 73.6291 15.4136 73.8754 16.6961L79.7946 47.5127C80.2563 49.9181 79.9348 52.4105 78.8782 54.6153C77.8216 56.8201 76.087 58.6187 73.9345 59.7413C71.782 60.8639 69.3279 61.25 66.9402 60.8415C64.5526 60.4331 62.3602 59.2522 60.692 57.476L46.7331 42.6083H33.4844L19.3766 57.4951C17.6993 59.265 15.4936 60.4406 13.0918 60.8447C10.6899 61.2487 8.22209 60.8594 6.0602 59.7354C3.8983 58.6114 2.15947 56.8135 1.10574 54.6128C0.0520372 52.4121 -0.259474 49.9276 0.218091 47.534L6.28388 17.1243C7.24806 12.2944 9.85218 7.94871 13.6531 4.82658ZM54.0997 42.565L64.5847 53.7325C65.4525 54.6564 66.5933 55.271 67.8354 55.4835C69.0776 55.696 70.3544 55.4951 71.4742 54.9111C72.594 54.3271 73.4965 53.3913 74.0462 52.2442C74.5959 51.0971 74.7632 49.8006 74.523 48.5492L71.2895 31.7146C70.3446 33.4055 69.166 34.9737 67.7745 36.3684C64.1089 40.0424 59.2424 42.2359 54.0997 42.565ZM29.527 15.717C29.527 14.2165 28.3249 13 26.8419 13C25.359 13 24.1569 14.2165 24.1569 15.717V18.1324H21.6851C20.2021 18.1324 19 19.3489 19 20.8495C19 22.35 20.2021 23.5665 21.6851 23.5665H24.1569V26.5851C24.1569 28.0857 25.359 29.3022 26.8419 29.3022C28.3249 29.3022 29.527 28.0857 29.527 26.5851V23.5665H32.2121C33.695 23.5665 34.8971 22.35 34.8971 20.8495C34.8971 19.3489 33.695 18.1324 32.2121 18.1324H29.527V15.717ZM47.5814 18.1324C46.0985 18.1324 44.8964 19.3489 44.8964 20.8495C44.8964 22.35 46.0985 23.5665 47.5814 23.5665H56.3777C57.8606 23.5665 59.0627 22.35 59.0627 20.8495C59.0627 19.3489 57.8606 18.1324 56.3777 18.1324H47.5814Z" fill="url(#paint0_linear_2110_13138)"/>
<defs>
<linearGradient id="paint0_linear_2110_13138" x1="7.80488" y1="-5.20732" x2="84.4484" y2="120.215" gradientUnits="userSpaceOnUse">
<stop stop-color="#E6B93D"/>
<stop offset="1" stop-color="#E6B93D" stop-opacity="0"/>
</linearGradient>
</defs>
</svg>
