<svg width="52" height="92" viewBox="0 0 52 92" fill="none" xmlns="http://www.w3.org/2000/svg">
<path fill-rule="evenodd" clip-rule="evenodd" d="M9.61345 6.13333C8.69137 6.13333 7.80388 6.5023 7.14707 7.16417C6.48973 7.82657 6.11765 8.72829 6.11765 9.67179V82.3282C6.11765 83.2717 6.48973 84.1734 7.14707 84.8358C7.80388 85.4977 8.69137 85.8667 9.61345 85.8667H42.3866C43.3086 85.8667 44.1961 85.4977 44.8529 84.8358C45.5103 84.1734 45.8824 83.2717 45.8824 82.3282V25.3C45.8824 23.6063 47.2518 22.2333 48.9412 22.2333C50.6305 22.2333 52 23.6063 52 25.3V82.3282C52 84.8883 50.9909 87.3466 49.1898 89.1616C47.3882 90.9772 44.9413 92 42.3866 92H9.61345C7.05873 92 4.61184 90.9772 2.81019 89.1616C1.00906 87.3466 0 84.8883 0 82.3282V9.67179C0 7.11172 1.00906 4.65336 2.81019 2.83836C4.61184 1.02282 7.05874 4.56969e-08 9.61345 4.56969e-08H16.0588C17.7482 4.56969e-08 19.1176 1.37299 19.1176 3.06667C19.1176 4.76034 17.7482 6.13333 16.0588 6.13333H9.61345ZM30.7194 0.898206C31.914 -0.299402 33.8507 -0.299402 35.0453 0.898206C36.2398 2.09581 36.2398 4.03752 35.0453 5.23513L31.0905 9.2L35.0453 13.1649C36.2398 14.3625 36.2398 16.3042 35.0453 17.5018C33.8507 18.6994 31.914 18.6994 30.7194 17.5018L24.6018 11.3685C23.4072 10.1709 23.4072 8.22915 24.6018 7.03154L30.7194 0.898206ZM39.8959 0.898206C41.0905 -0.299402 43.0272 -0.299402 44.2217 0.898206L50.3394 7.03154C51.5339 8.22915 51.5339 10.1709 50.3394 11.3685L44.2217 17.5018C43.0272 18.6994 41.0905 18.6994 39.8959 17.5018C38.7014 16.3042 38.7014 14.3625 39.8959 13.1649L43.8506 9.2L39.8959 5.23513C38.7014 4.03752 38.7014 2.09581 39.8959 0.898206ZM19.6639 75.7231C19.6639 74.0294 21.0333 72.6564 22.7227 72.6564H29.2773C30.9667 72.6564 32.3361 74.0294 32.3361 75.7231C32.3361 77.4167 30.9667 78.7897 29.2773 78.7897H22.7227C21.0333 78.7897 19.6639 77.4167 19.6639 75.7231Z" fill="url(#paint0_linear_2110_12952)"/>
<defs>
<linearGradient id="paint0_linear_2110_12952" x1="5.07317" y1="-7.85366" x2="127.437" y2="78.4463" gradientUnits="userSpaceOnUse">
<stop stop-color="#E6B93D"/>
<stop offset="1" stop-color="#E6B93D" stop-opacity="0"/>
</linearGradient>
</defs>
</svg>
