<svg width="99" height="87" viewBox="0 0 99 87" fill="none" xmlns="http://www.w3.org/2000/svg">
<path fill-rule="evenodd" clip-rule="evenodd" d="M5.65714 0H50.9143C54.0257 0 56.5714 2.5258 56.5714 5.6129V39.2903C56.5714 39.4893 56.5608 39.6859 56.5402 39.8797C56.5402 39.8798 56.5402 39.8798 56.5402 39.8799L56.5402 39.8799L85.1673 46.7359C86.238 46.9923 87.0613 47.842 87.2773 48.9136L89.5821 60.3476C90.379 60.2848 91.1977 60.5559 91.8073 61.1607L98.1715 67.4752C99.2762 68.5712 99.2762 70.3482 98.1715 71.4442L83.3215 86.178C82.2169 87.274 80.426 87.274 79.3213 86.178L72.9571 79.8635C72.3475 79.2587 72.0743 78.4466 72.1375 77.656L60.6132 75.3691C59.5332 75.1548 58.6768 74.338 58.4183 73.2757L51.5083 44.8725L51.5083 44.8722C51.313 44.8927 51.1148 44.9032 50.9143 44.9032H5.65714C2.54571 44.9032 0 42.3774 0 39.2903L0.0282857 5.6129C0.0282857 2.5258 2.54571 0 5.65714 0ZM84.6152 64.3276L76.1487 72.7279L63.4937 70.2167L58.8514 51.1344L66.2513 58.4765C65.937 59.2707 65.7643 60.1355 65.7643 61.0403C65.7643 64.9152 68.9303 68.0565 72.8357 68.0565C76.7412 68.0565 79.9072 64.9152 79.9072 61.0403C79.9072 57.1654 76.7412 54.0242 72.8357 54.0242C71.9237 54.0242 71.0519 54.1955 70.2514 54.5075L62.8516 47.1655L82.0842 51.7716L84.6152 64.3276ZM71.8079 60.0764C71.8174 60.0673 71.8268 60.0581 71.8362 60.0488C71.8456 60.0395 71.8549 60.0301 71.8642 60.0206C72.1175 59.7829 72.4595 59.6371 72.8357 59.6371C73.6168 59.6371 74.25 60.2654 74.25 61.0403C74.25 61.8153 73.6168 62.4436 72.8357 62.4436C72.0546 62.4436 71.4214 61.8153 71.4214 61.0403C71.4214 60.6671 71.5684 60.3278 71.8079 60.0764ZM79.0548 77.7823L78.9574 77.879L81.3214 80.2246L92.1712 69.4597L89.8072 67.1141L89.7087 67.2117C89.7012 67.2194 89.6935 67.2271 89.6859 67.2347L79.0787 77.7589C79.0708 77.7668 79.0628 77.7746 79.0548 77.7823ZM35.3571 14.0323H5.65714V23.8548H35.3571V14.0323ZM35.3571 29.4677H5.65714V36.4838C5.65714 38.0274 6.93 39.2903 8.48571 39.2903H35.3571V29.4677ZM41.0143 39.2903H48.0857C49.6414 39.2903 50.9143 38.0274 50.9143 36.4838V14.0323H41.0143V39.2903Z" fill="url(#paint0_linear_2110_13133)"/>
<defs>
<linearGradient id="paint0_linear_2110_13133" x1="9.65854" y1="-7.42683" x2="125.318" y2="156.797" gradientUnits="userSpaceOnUse">
<stop stop-color="#E6B93D"/>
<stop offset="1" stop-color="#E6B93D" stop-opacity="0"/>
</linearGradient>
</defs>
</svg>
