<svg width="82" height="82" viewBox="0 0 82 82" fill="none" xmlns="http://www.w3.org/2000/svg">
<path fill-rule="evenodd" clip-rule="evenodd" d="M3.00216 3.00216C4.9244 1.07991 7.53153 6.10948e-08 10.25 6.10948e-08H34.85C37.1144 6.10948e-08 38.95 1.83563 38.95 4.1C38.95 6.36437 37.1144 8.2 34.85 8.2H10.25C9.70631 8.2 9.18488 8.41598 8.80043 8.80043C8.41598 9.18488 8.2 9.70631 8.2 10.25V16.4H34.85C37.1144 16.4 38.95 18.2356 38.95 20.5C38.95 22.7644 37.1144 24.6 34.85 24.6H8.2V55.35C8.2 55.8937 8.41598 56.4151 8.80043 56.7996C9.18488 57.184 9.70631 57.4 10.25 57.4H71.75C72.2937 57.4 72.8151 57.184 73.1996 56.7996C73.584 56.4151 73.8 55.8937 73.8 55.35V34.85C73.8 32.5856 75.6356 30.75 77.9 30.75C80.1644 30.75 82 32.5856 82 34.85V55.35C82 58.0685 80.9201 60.6756 78.9978 62.5978C77.0756 64.5201 74.4685 65.6 71.75 65.6H45.1V73.8H61.5C63.7644 73.8 65.6 75.6356 65.6 77.9C65.6 80.1644 63.7644 82 61.5 82H20.5C18.2356 82 16.4 80.1644 16.4 77.9C16.4 75.6356 18.2356 73.8 20.5 73.8H36.9V65.6H10.25C7.53153 65.6 4.9244 64.5201 3.00216 62.5978C1.07991 60.6756 0 58.0685 0 55.35V10.25C0 7.53153 1.07991 4.9244 3.00216 3.00216ZM54.5009 1.20086C56.102 -0.400287 58.698 -0.400287 60.2991 1.20086C61.9003 2.80201 61.9003 5.39799 60.2991 6.99914L54.9983 12.3L60.2991 17.6009C61.9003 19.202 61.9003 21.798 60.2991 23.3991C58.698 25.0003 56.102 25.0003 54.5009 23.3991L46.3009 15.1991C44.6997 13.598 44.6997 11.002 46.3009 9.40086L54.5009 1.20086ZM66.8009 1.20086C68.402 -0.400287 70.998 -0.400287 72.5991 1.20086L80.7991 9.40086C82.4003 11.002 82.4003 13.598 80.7991 15.1991L72.5991 23.3991C70.998 25.0003 68.402 25.0003 66.8009 23.3991C65.1997 21.798 65.1997 19.202 66.8009 17.6009L72.1017 12.3L66.8009 6.99914C65.1997 5.39799 65.1997 2.80201 66.8009 1.20086Z" fill="url(#paint0_linear_2110_12947)"/>
<defs>
<linearGradient id="paint0_linear_2110_12947" x1="8" y1="-7" x2="121" y2="134" gradientUnits="userSpaceOnUse">
<stop stop-color="#E6B93D"/>
<stop offset="1" stop-color="#E6B93D" stop-opacity="0"/>
</linearGradient>
</defs>
</svg>
