<svg width="244" height="68" viewBox="0 0 244 68" fill="none" xmlns="http://www.w3.org/2000/svg">
<path d="M11.7188 54.8198L19.6562 10.8511C19.6979 10.6844 19.8021 10.6011 19.9688 10.6011H29.25C29.4167 10.6011 29.5208 10.6844 29.5625 10.8511L37.1875 54.8198C37.2083 55.0282 37.125 55.1323 36.9375 55.1323H29.8438C29.6354 55.1323 29.5208 55.0282 29.5 54.8198L28.8125 50.1323H20.0938L19.4062 54.8198C19.3854 55.0282 19.2812 55.1323 19.0938 55.1323H11.9688C11.8021 55.1323 11.7188 55.0282 11.7188 54.8198ZM24.25 25.3198L21.375 43.2886H27.5312L24.9062 25.3198L24.5312 22.9448L24.25 25.3198ZM50.3438 55.1323H42.5938C42.4062 55.1323 42.3021 55.0282 42.2812 54.8198L34.7188 10.8511C34.6771 10.6844 34.7396 10.6011 34.9062 10.6011H42.0938C42.2604 10.6011 42.3646 10.6844 42.4062 10.8511L46.5 39.7573L50.7188 10.8511C50.7604 10.6844 50.8854 10.6011 51.0938 10.6011H56.875C57.0417 10.6011 57.1458 10.6844 57.1875 10.8511L61.3438 39.7573L65.5 10.8511C65.5417 10.6844 65.6458 10.6011 65.8125 10.6011H72.9375C73.1458 10.6011 73.2292 10.6844 73.1875 10.8511L65.5625 54.8198C65.5417 54.9032 65.4792 54.9761 65.375 55.0386L65.25 55.1323H57.5C57.375 55.1323 57.2708 55.0282 57.1875 54.8198L53.9062 31.8511L50.6562 54.8198C50.6354 55.0282 50.5312 55.1323 50.3438 55.1323ZM97.875 55.1323H77.1875C77.0208 55.1323 76.9375 55.0282 76.9375 54.8198L77 10.8511C77 10.6844 77.0833 10.6011 77.25 10.6011H97.8125C97.9792 10.6011 98.0625 10.7052 98.0625 10.9136V18.0698C98.0625 18.2365 97.9792 18.3198 97.8125 18.3198H84.6875V28.3198H97.8125C97.9792 28.3198 98.0625 28.4032 98.0625 28.5698L98.125 35.8198C98.125 35.9865 98.0417 36.0698 97.875 36.0698H84.6875V47.2573H97.875C98.0417 47.2573 98.125 47.3615 98.125 47.5698V54.8823C98.125 55.049 98.0417 55.1323 97.875 55.1323ZM114.688 55.7573C112.417 55.7573 110.323 55.174 108.406 54.0073C106.51 52.8407 104.99 51.2886 103.844 49.3511C102.719 47.3927 102.156 45.2469 102.156 42.9136V39.9761C102.156 39.7469 102.26 39.6323 102.469 39.6323H109.656C109.823 39.6323 109.906 39.7469 109.906 39.9761V42.9136C109.906 44.3094 110.375 45.5177 111.312 46.5386C112.25 47.5386 113.375 48.0386 114.688 48.0386C116.021 48.0386 117.156 47.5282 118.094 46.5073C119.031 45.4657 119.5 44.2677 119.5 42.9136C119.5 41.3511 118.479 39.9865 116.438 38.8198C116.104 38.6115 115.667 38.3615 115.125 38.0698C114.604 37.7573 113.979 37.4032 113.25 37.0073C112.521 36.6115 111.812 36.2261 111.125 35.8511C110.438 35.4552 109.771 35.0802 109.125 34.7261C106.792 33.3511 105.052 31.6323 103.906 29.5698C102.781 27.4865 102.219 25.1532 102.219 22.5698C102.219 20.1948 102.802 18.049 103.969 16.1323C105.135 14.2365 106.656 12.7365 108.531 11.6323C110.427 10.5073 112.479 9.94482 114.688 9.94482C116.958 9.94482 119.042 10.5073 120.938 11.6323C122.833 12.7782 124.344 14.299 125.469 16.1948C126.615 18.0907 127.188 20.2157 127.188 22.5698V27.8198C127.188 27.9865 127.104 28.0698 126.938 28.0698H119.75C119.583 28.0698 119.5 27.9865 119.5 27.8198L119.438 22.5698C119.438 21.0698 118.969 19.8511 118.031 18.9136C117.094 17.9761 115.979 17.5073 114.688 17.5073C113.375 17.5073 112.25 18.0073 111.312 19.0073C110.375 20.0073 109.906 21.1948 109.906 22.5698C109.906 23.9657 110.198 25.1323 110.781 26.0698C111.385 27.0073 112.479 27.9032 114.062 28.7573C114.229 28.8407 114.615 29.049 115.219 29.3823C115.823 29.7157 116.49 30.0907 117.219 30.5073C117.969 30.9032 118.646 31.2677 119.25 31.6011C119.854 31.9136 120.219 32.1011 120.344 32.1636C122.469 33.3511 124.146 34.8094 125.375 36.5386C126.625 38.2677 127.25 40.3927 127.25 42.9136C127.25 45.3511 126.688 47.5386 125.562 49.4761C124.417 51.4136 122.896 52.9448 121 54.0698C119.104 55.1948 117 55.7573 114.688 55.7573ZM143.531 55.7573C141.26 55.7573 139.167 55.174 137.25 54.0073C135.354 52.8407 133.823 51.2886 132.656 49.3511C131.51 47.3927 130.938 45.2469 130.938 42.9136L131 22.6323C131 20.2573 131.573 18.1219 132.719 16.2261C133.844 14.3094 135.365 12.7782 137.281 11.6323C139.198 10.4657 141.281 9.88232 143.531 9.88232C145.865 9.88232 147.958 10.4552 149.812 11.6011C151.688 12.7469 153.188 14.2886 154.312 16.2261C155.458 18.1427 156.031 20.2782 156.031 22.6323L156.094 42.9136C156.094 45.2469 155.531 47.3823 154.406 49.3198C153.26 51.2782 151.74 52.8407 149.844 54.0073C147.948 55.174 145.844 55.7573 143.531 55.7573ZM143.531 48.0386C144.823 48.0386 145.948 47.5177 146.906 46.4761C147.865 45.4136 148.344 44.2261 148.344 42.9136L148.281 22.6323C148.281 21.2157 147.833 20.0177 146.938 19.0386C146.042 18.0594 144.906 17.5698 143.531 17.5698C142.219 17.5698 141.094 18.049 140.156 19.0073C139.219 19.9657 138.75 21.174 138.75 22.6323V42.9136C138.75 44.3094 139.219 45.5177 140.156 46.5386C141.094 47.5386 142.219 48.0386 143.531 48.0386ZM168.438 55.1323H161.188C161.021 55.1323 160.938 55.0282 160.938 54.8198L161.062 10.8511C161.062 10.6844 161.146 10.6011 161.312 10.6011H169.125C169.292 10.6011 169.438 10.6844 169.562 10.8511L175.406 19.2886L181.219 10.8511C181.344 10.6844 181.5 10.6011 181.688 10.6011H189.531C189.719 10.6011 189.812 10.6844 189.812 10.8511L189.938 54.8198C189.938 55.0282 189.854 55.1323 189.688 55.1323H182.438C182.271 55.1323 182.188 55.0282 182.188 54.8198L182.125 22.1636L175.406 31.9136L168.75 22.1636L168.688 54.8198C168.688 55.0282 168.604 55.1323 168.438 55.1323ZM216.25 55.1323H195.562C195.396 55.1323 195.312 55.0282 195.312 54.8198L195.375 10.8511C195.375 10.6844 195.458 10.6011 195.625 10.6011H216.188C216.354 10.6011 216.438 10.7052 216.438 10.9136V18.0698C216.438 18.2365 216.354 18.3198 216.188 18.3198H203.062V28.3198H216.188C216.354 28.3198 216.438 28.4032 216.438 28.5698L216.5 35.8198C216.5 35.9865 216.417 36.0698 216.25 36.0698H203.062V47.2573H216.25C216.417 47.2573 216.5 47.3615 216.5 47.5698V54.8823C216.5 55.049 216.417 55.1323 216.25 55.1323ZM228.219 43.3511H223.844C223.656 43.3511 223.552 43.2469 223.531 43.0386L222.188 28.3198V10.9136C222.188 10.7052 222.271 10.6011 222.438 10.6011H229.625C229.833 10.6011 229.938 10.7052 229.938 10.9136L229.875 28.3198L228.531 43.0386C228.51 43.2469 228.406 43.3511 228.219 43.3511ZM229.625 55.1323H222.438C222.271 55.1323 222.188 55.0282 222.188 54.8198V47.8511C222.188 47.6636 222.271 47.5698 222.438 47.5698H229.625C229.792 47.5698 229.875 47.6636 229.875 47.8511V54.8198C229.875 55.0282 229.792 55.1323 229.625 55.1323Z" fill="#661E29"/>
<path d="M11.7188 54.8198L4.8301 53.5762L4.71875 54.193V54.8198H11.7188ZM19.6562 10.8511L12.8653 9.15332L12.8089 9.37879L12.7676 9.60749L19.6562 10.8511ZM29.5625 10.8511L36.4596 9.655L36.4157 9.40222L36.3535 9.15332L29.5625 10.8511ZM37.1875 54.8198L44.1528 54.1233L44.1277 53.8723L44.0846 53.6237L37.1875 54.8198ZM29.5 54.8198L36.4653 54.1233L36.4493 53.9632L36.4259 53.804L29.5 54.8198ZM28.8125 50.1323L35.7384 49.1165L34.8607 43.1323H28.8125V50.1323ZM20.0938 50.1323V43.1323H14.0455L13.1678 49.1165L20.0938 50.1323ZM19.4062 54.8198L12.4803 53.804L12.457 53.9632L12.441 54.1233L19.4062 54.8198ZM24.25 25.3198L31.1621 26.4258L31.1846 26.2848L31.2014 26.143L24.25 25.3198ZM21.375 43.2886L14.4629 42.1826L13.166 50.2886H21.375V43.2886ZM27.5312 43.2886V50.2886H35.6282L34.4577 42.2767L27.5312 43.2886ZM24.9062 25.3198L31.8327 24.308L31.8269 24.268L31.8206 24.2281L24.9062 25.3198ZM24.5312 22.9448L31.4456 21.8531L17.5798 22.1216L24.5312 22.9448ZM18.6074 56.0634L26.5449 12.0947L12.7676 9.60749L4.8301 53.5762L18.6074 56.0634ZM26.4472 12.5488C26.2041 13.5215 25.5891 14.9691 24.1385 16.1297C22.6659 17.3078 21.0692 17.6011 19.9688 17.6011V3.60107C18.7016 3.60107 16.9696 3.93606 15.3928 5.19749C13.838 6.44134 13.1501 8.014 12.8653 9.15332L26.4472 12.5488ZM19.9688 17.6011H29.25V3.60107H19.9688V17.6011ZM29.25 17.6011C28.1495 17.6011 26.5529 17.3078 25.0803 16.1297C23.6296 14.9691 23.0147 13.5215 22.7715 12.5488L36.3535 9.15332C36.0687 8.014 35.3808 6.44134 33.826 5.19749C32.2492 3.93606 30.5172 3.60107 29.25 3.60107V17.6011ZM22.6654 12.0472L30.2904 56.0159L44.0846 53.6237L36.4596 9.655L22.6654 12.0472ZM30.2222 55.5164C30.1508 54.8024 30.069 52.6883 31.6745 50.6813C33.4398 48.4748 35.8115 48.1323 36.9375 48.1323V62.1323C38.251 62.1323 40.7581 61.7378 42.6067 59.4271C44.2956 57.3159 44.245 55.0456 44.1528 54.1233L30.2222 55.5164ZM36.9375 48.1323H29.8438V62.1323H36.9375V48.1323ZM29.8438 48.1323C30.8704 48.1323 32.6892 48.4009 34.3103 49.8746C35.9262 51.3437 36.3648 53.1191 36.4653 54.1233L22.5347 55.5164C22.656 56.7288 23.1623 58.6606 24.8929 60.2338C26.6285 61.8116 28.6088 62.1323 29.8438 62.1323V48.1323ZM36.4259 53.804L35.7384 49.1165L21.8866 51.1481L22.5741 55.8356L36.4259 53.804ZM28.8125 43.1323H20.0938V57.1323H28.8125V43.1323ZM13.1678 49.1165L12.4803 53.804L26.3322 55.8356L27.0197 51.1481L13.1678 49.1165ZM12.441 54.1233C12.5249 53.284 12.8756 51.5916 14.3628 50.1045C15.9569 48.5103 17.8627 48.1323 19.0938 48.1323V62.1323C20.5123 62.1323 22.564 61.7022 24.2622 60.0039C25.8536 58.4126 26.2667 56.564 26.3715 55.5164L12.441 54.1233ZM19.0938 48.1323H11.9688V62.1323H19.0938V48.1323ZM11.9688 48.1323C13.4304 48.1323 15.6354 48.6665 17.2473 50.6813C18.6206 52.3979 18.7188 54.1761 18.7188 54.8198H4.71875C4.71875 55.6719 4.85856 57.6063 6.31517 59.4271C8.01039 61.5461 10.3405 62.1323 11.9688 62.1323V48.1323ZM17.3379 24.2139L14.4629 42.1826L28.2871 44.3945L31.1621 26.4258L17.3379 24.2139ZM21.375 50.2886H27.5312V36.2886H21.375V50.2886ZM34.4577 42.2767L31.8327 24.308L17.9798 26.3317L20.6048 44.3004L34.4577 42.2767ZM31.8206 24.2281L31.4456 21.8531L17.6169 24.0366L17.9919 26.4116L31.8206 24.2281ZM17.5798 22.1216L17.2986 24.4966L31.2014 26.143L31.4827 23.768L17.5798 22.1216ZM42.2812 54.8198L49.2465 54.1233L49.2219 53.8771L49.18 53.6333L42.2812 54.8198ZM34.7188 10.8511L41.6175 9.66452L41.5731 9.40691L41.5097 9.15332L34.7188 10.8511ZM42.4062 10.8511L49.3371 9.86952L49.2859 9.50777L49.1972 9.15332L42.4062 10.8511ZM46.5 39.7573L39.5692 40.7389L53.4266 40.7682L46.5 39.7573ZM50.7188 10.8511L43.9278 9.15332L43.8427 9.49335L43.7921 9.84016L50.7188 10.8511ZM57.1875 10.8511L64.1162 9.85483L64.0653 9.50056L63.9785 9.15332L57.1875 10.8511ZM61.3438 39.7573L54.415 40.7536H68.2725L61.3438 39.7573ZM65.5 10.8511L58.709 9.15332L58.6222 9.50056L58.5713 9.85483L65.5 10.8511ZM73.1875 10.8511L66.3965 9.15332L66.3343 9.40222L66.2904 9.655L73.1875 10.8511ZM65.5625 54.8198L72.3535 56.5176L72.4157 56.2687L72.4596 56.0159L65.5625 54.8198ZM65.375 55.0386L61.7735 49.0361L61.4639 49.2219L61.175 49.4386L65.375 55.0386ZM65.25 55.1323V62.1323H67.5833L69.45 60.7323L65.25 55.1323ZM57.1875 54.8198L50.2579 55.8098L50.3765 56.6405L50.6882 57.4196L57.1875 54.8198ZM53.9062 31.8511L60.8359 30.8611L46.9753 30.8704L53.9062 31.8511ZM50.6562 54.8198L43.7253 53.8391L43.7052 53.9809L43.691 54.1233L50.6562 54.8198ZM50.3438 48.1323H42.5938V62.1323H50.3438V48.1323ZM42.5938 48.1323C43.8248 48.1323 45.7306 48.5103 47.3247 50.1045C48.8119 51.5916 49.1626 53.284 49.2465 54.1233L35.316 55.5164C35.4208 56.564 35.8339 58.4126 37.4253 60.0039C39.1235 61.7022 41.1752 62.1323 42.5938 62.1323V48.1323ZM49.18 53.6333L41.6175 9.66452L27.82 12.0376L35.3825 56.0064L49.18 53.6333ZM41.5097 9.15332C41.6742 9.81124 42.1987 12.3778 40.3344 14.8636C38.4085 17.4314 35.6926 17.6011 34.9062 17.6011V3.60107C33.9533 3.60107 31.1227 3.81243 29.1344 6.46357C27.2076 9.03264 27.7216 11.7242 27.9278 12.5488L41.5097 9.15332ZM34.9062 17.6011H42.0938V3.60107H34.9062V17.6011ZM42.0938 17.6011C40.9933 17.6011 39.3966 17.3078 37.924 16.1297C36.4734 14.9691 35.8584 13.5215 35.6153 12.5488L49.1972 9.15332C48.9124 8.014 48.2245 6.44134 46.6697 5.19749C45.0929 3.93606 43.3609 3.60107 42.0938 3.60107V17.6011ZM35.4754 11.8326L39.5692 40.7389L53.4308 38.7758L49.3371 9.86952L35.4754 11.8326ZM53.4266 40.7682L57.6454 11.862L43.7921 9.84016L39.5734 38.7464L53.4266 40.7682ZM57.5097 12.5488C57.1732 13.8952 56.3213 15.4248 54.7267 16.4879C53.2739 17.4565 51.855 17.6011 51.0938 17.6011V3.60107C50.1242 3.60107 48.5386 3.78736 46.9608 4.83922C45.2412 5.98567 44.306 7.64028 43.9278 9.15332L57.5097 12.5488ZM51.0938 17.6011H56.875V3.60107H51.0938V17.6011ZM56.875 17.6011C55.7745 17.6011 54.1779 17.3078 52.7053 16.1297C51.2546 14.9691 50.6397 13.5215 50.3965 12.5488L63.9785 9.15332C63.6937 8.014 63.0058 6.44134 61.451 5.19749C59.8742 3.93606 58.1422 3.60107 56.875 3.60107V17.6011ZM50.2588 11.8473L54.415 40.7536L68.2725 38.7611L64.1162 9.85483L50.2588 11.8473ZM68.2725 40.7536L72.4287 11.8473L58.5713 9.85483L54.415 38.7611L68.2725 40.7536ZM72.291 12.5488C72.0478 13.5215 71.4329 14.9691 69.9822 16.1297C68.5096 17.3078 66.913 17.6011 65.8125 17.6011V3.60107C64.5453 3.60107 62.8133 3.93606 61.2365 5.19749C59.6817 6.44134 58.9938 8.014 58.709 9.15332L72.291 12.5488ZM65.8125 17.6011H72.9375V3.60107H65.8125V17.6011ZM72.9375 17.6011C72.4978 17.6011 70.1803 17.5871 68.2065 15.6133C65.788 13.1949 66.1191 10.2629 66.3965 9.15332L79.9785 12.5488C80.2976 11.2726 80.6078 8.21562 78.106 5.71383C76.0489 3.65671 73.5856 3.60107 72.9375 3.60107V17.6011ZM66.2904 9.655L58.6654 53.6237L72.4596 56.0159L80.0846 12.0472L66.2904 9.655ZM58.7715 53.1221C59.3597 50.7691 60.9525 49.5288 61.7735 49.0361L68.9765 61.041C70.0059 60.4234 71.7236 59.0372 72.3535 56.5176L58.7715 53.1221ZM61.175 49.4386L61.05 49.5323L69.45 60.7323L69.575 60.6386L61.175 49.4386ZM65.25 48.1323H57.5V62.1323H65.25V48.1323ZM57.5 48.1323C59.6227 48.1323 61.2694 49.096 62.2779 50.1045C63.1529 50.9795 63.5425 51.8592 63.6868 52.2201L50.6882 57.4196C50.9314 58.0276 52.6816 62.1323 57.5 62.1323V48.1323ZM64.1171 53.8299L60.8359 30.8611L46.9766 32.841L50.2579 55.8098L64.1171 53.8299ZM46.9753 30.8704L43.7253 53.8391L57.5872 55.8005L60.8372 32.8318L46.9753 30.8704ZM43.691 54.1233C43.7749 53.284 44.1256 51.5916 45.6128 50.1045C47.2069 48.5103 49.1127 48.1323 50.3438 48.1323V62.1323C51.7623 62.1323 53.814 61.7022 55.5122 60.0039C57.1036 58.4126 57.5167 56.564 57.6215 55.5164L43.691 54.1233ZM76.9375 54.8198L69.9375 54.8099V54.8198H76.9375ZM77 10.8511L84 10.861V10.8511H77ZM84.6875 18.3198V11.3198H77.6875V18.3198H84.6875ZM84.6875 28.3198H77.6875V35.3198H84.6875V28.3198ZM98.0625 28.5698H91.0625V28.6L91.0628 28.6302L98.0625 28.5698ZM98.125 35.8198H105.125V35.7897L105.125 35.7595L98.125 35.8198ZM84.6875 36.0698V29.0698H77.6875V36.0698H84.6875ZM84.6875 47.2573H77.6875V54.2573H84.6875V47.2573ZM97.875 48.1323H77.1875V62.1323H97.875V48.1323ZM77.1875 48.1323C78.6491 48.1323 80.8542 48.6665 82.4661 50.6813C83.8394 52.3979 83.9375 54.1761 83.9375 54.8198H69.9375C69.9375 55.6719 70.0773 57.6063 71.5339 59.4271C73.2291 61.5461 75.5592 62.1323 77.1875 62.1323V48.1323ZM83.9375 54.8298L84 10.861L70 10.8411L69.9375 54.8099L83.9375 54.8298ZM84 10.8511C84 11.8468 83.7463 13.8792 82.0122 15.6133C80.2782 17.3474 78.2457 17.6011 77.25 17.6011V3.60107C76.0877 3.60107 73.9302 3.8964 72.1128 5.71383C70.2953 7.53125 70 9.68873 70 10.8511H84ZM77.25 17.6011H97.8125V3.60107H77.25V17.6011ZM97.8125 17.6011C96.3509 17.6011 94.1458 17.0669 92.5339 15.0521C91.1606 13.3355 91.0625 11.5573 91.0625 10.9136H105.062C105.062 10.0615 104.923 8.1271 103.466 6.30633C101.771 4.1873 99.4408 3.60107 97.8125 3.60107V17.6011ZM91.0625 10.9136V18.0698H105.062V10.9136H91.0625ZM91.0625 18.0698C91.0625 17.0741 91.3162 15.0417 93.0503 13.3076C94.7843 11.5735 96.8168 11.3198 97.8125 11.3198V25.3198C98.9748 25.3198 101.132 25.0245 102.95 23.2071C104.767 21.3896 105.062 19.2322 105.062 18.0698H91.0625ZM97.8125 11.3198H84.6875V25.3198H97.8125V11.3198ZM77.6875 18.3198V28.3198H91.6875V18.3198H77.6875ZM84.6875 35.3198H97.8125V21.3198H84.6875V35.3198ZM97.8125 35.3198C96.8168 35.3198 94.7843 35.0662 93.0503 33.3321C91.3162 31.598 91.0625 29.5655 91.0625 28.5698H105.062C105.062 27.4075 104.767 25.25 102.95 23.4326C101.132 21.6152 98.9748 21.3198 97.8125 21.3198V35.3198ZM91.0628 28.6302L91.1253 35.8802L105.125 35.7595L105.062 28.5095L91.0628 28.6302ZM91.125 35.8198C91.125 34.8241 91.3787 32.7917 93.1128 31.0576C94.8468 29.3235 96.8793 29.0698 97.875 29.0698V43.0698C99.0373 43.0698 101.195 42.7745 103.012 40.9571C104.83 39.1396 105.125 36.9822 105.125 35.8198H91.125ZM97.875 29.0698H84.6875V43.0698H97.875V29.0698ZM77.6875 36.0698V47.2573H91.6875V36.0698H77.6875ZM84.6875 54.2573H97.875V40.2573H84.6875V54.2573ZM97.875 54.2573C96.4134 54.2573 94.2083 53.7232 92.5964 51.7083C91.2231 49.9917 91.125 48.2136 91.125 47.5698H105.125C105.125 46.7178 104.985 44.7833 103.529 42.9626C101.833 40.8436 99.5033 40.2573 97.875 40.2573V54.2573ZM91.125 47.5698V54.8823H105.125V47.5698H91.125ZM91.125 54.8823C91.125 53.8866 91.3787 51.8542 93.1128 50.1201C94.8468 48.386 96.8793 48.1323 97.875 48.1323V62.1323C99.0373 62.1323 101.195 61.837 103.012 60.0196C104.83 58.2021 105.125 56.0447 105.125 54.8823H91.125ZM108.406 54.0073L104.738 59.9689L104.752 59.9779L104.767 59.9867L108.406 54.0073ZM103.844 49.3511L97.774 52.8379L97.796 52.8763L97.8186 52.9144L103.844 49.3511ZM111.312 46.5386L106.157 51.2734L106.181 51.2999L106.206 51.3262L111.312 46.5386ZM118.094 46.5073L123.249 51.2422L123.273 51.2162L123.297 51.1901L118.094 46.5073ZM116.438 38.8198L112.728 44.7558L112.845 44.829L112.965 44.8975L116.438 38.8198ZM115.125 38.0698L111.524 44.0723L111.663 44.156L111.806 44.2331L115.125 38.0698ZM111.125 35.8511L107.632 41.9174L107.702 41.9577L107.773 41.9963L111.125 35.8511ZM109.125 34.7261L105.571 40.7568L105.664 40.8118L105.759 40.8638L109.125 34.7261ZM103.906 29.5698L97.7469 32.8959L97.7668 32.9327L97.7871 32.9693L103.906 29.5698ZM103.969 16.1323L98.0071 12.4636L97.9982 12.4781L97.9894 12.4927L103.969 16.1323ZM108.531 11.6323L112.083 17.6641L112.093 17.6582L112.103 17.6522L108.531 11.6323ZM120.938 11.6323L124.558 5.64152L124.534 5.62688L124.51 5.61243L120.938 11.6323ZM125.469 16.1948L119.449 19.7671L119.463 19.7914L119.478 19.8156L125.469 16.1948ZM119.5 27.8198H126.5V27.7782L126.5 27.7365L119.5 27.8198ZM119.438 22.5698H112.438V22.6115L112.438 22.6532L119.438 22.5698ZM110.781 26.0698L104.838 29.7679L104.867 29.8151L104.897 29.8617L110.781 26.0698ZM114.062 28.7573L110.739 34.918L110.835 34.9697L110.932 35.0183L114.062 28.7573ZM117.219 30.5073L113.746 36.585L113.848 36.6432L113.951 36.698L117.219 30.5073ZM119.25 31.6011L115.868 37.7301L115.951 37.7755L116.034 37.8186L119.25 31.6011ZM120.344 32.1636L123.758 26.053L123.618 25.9745L123.474 25.9026L120.344 32.1636ZM125.375 36.5386L119.67 40.5942L119.686 40.6169L119.702 40.6395L125.375 36.5386ZM125.562 49.4761L131.588 53.0394L131.602 53.0152L131.616 52.991L125.562 49.4761ZM114.688 48.7573C113.684 48.7573 112.852 48.5186 112.046 48.0279L104.767 59.9867C107.794 61.8293 111.149 62.7573 114.688 62.7573V48.7573ZM112.075 48.0457C111.159 47.4821 110.443 46.7577 109.869 45.7878L97.8186 52.9144C99.5366 55.8195 101.862 58.1992 104.738 59.9689L112.075 48.0457ZM109.913 45.8642C109.419 45.003 109.156 44.0656 109.156 42.9136H95.1562C95.1562 46.4282 96.0187 49.7825 97.774 52.8379L109.913 45.8642ZM109.156 42.9136V39.9761H95.1562V42.9136H109.156ZM109.156 39.9761C109.156 40.7842 108.987 42.6967 107.414 44.427C105.726 46.2838 103.625 46.6323 102.469 46.6323V32.6323C101.105 32.6323 98.8469 33.0382 97.0548 35.0096C95.3777 36.8544 95.1562 38.9388 95.1562 39.9761H109.156ZM102.469 46.6323H109.656V32.6323H102.469V46.6323ZM109.656 46.6323C107.949 46.6323 105.702 45.9244 104.183 43.8355C102.965 42.1607 102.906 40.5018 102.906 39.9761H116.906C116.906 39.2212 116.806 37.3904 115.505 35.6011C113.902 33.3975 111.53 32.6323 109.656 32.6323V46.6323ZM102.906 39.9761V42.9136H116.906V39.9761H102.906ZM102.906 42.9136C102.906 46.0492 104.024 48.9509 106.157 51.2734L116.468 41.8037C116.548 41.8909 116.681 42.0708 116.784 42.335C116.886 42.5984 116.906 42.8126 116.906 42.9136H102.906ZM106.206 51.3262C108.4 53.6672 111.346 55.0386 114.688 55.0386V41.0386C114.945 41.0386 115.312 41.0932 115.702 41.2669C116.086 41.4375 116.321 41.6463 116.419 41.751L106.206 51.3262ZM114.688 55.0386C118.067 55.0386 121.046 53.642 123.249 51.2422L112.938 41.7725C113.038 41.6632 113.278 41.4472 113.669 41.2712C114.067 41.0924 114.436 41.0386 114.688 41.0386V55.0386ZM123.297 51.1901C125.347 48.9124 126.5 46.0623 126.5 42.9136H112.5C112.5 42.7644 112.529 42.533 112.63 42.2768C112.728 42.0245 112.847 41.8734 112.891 41.8246L123.297 51.1901ZM126.5 42.9136C126.5 37.7112 122.935 34.4705 119.91 32.7421L112.965 44.8975C113.449 45.1744 113.367 45.2293 113.129 44.9114C112.997 44.7351 112.83 44.4589 112.699 44.0839C112.566 43.7027 112.5 43.3013 112.5 42.9136H126.5ZM120.147 32.8838C119.636 32.5642 119.053 32.2347 118.444 31.9065L111.806 44.2331C112.28 44.4883 112.572 44.6588 112.728 44.7558L120.147 32.8838ZM118.726 32.0674C118.095 31.6884 117.378 31.2832 116.59 30.8554L109.91 43.1593C110.581 43.5232 111.113 43.8263 111.524 44.0723L118.726 32.0674ZM116.59 30.8554C115.864 30.4616 115.16 30.0784 114.477 29.7058L107.773 41.9963C108.465 42.3737 109.177 42.7614 109.91 43.1593L116.59 30.8554ZM114.618 29.7847C113.891 29.3665 113.182 28.9676 112.491 28.5884L105.759 40.8638C106.359 41.1929 106.984 41.544 107.632 41.9174L114.618 29.7847ZM112.679 28.6953C111.258 27.8582 110.481 26.9901 110.025 26.1703L97.7871 32.9693C99.6234 36.2746 102.325 38.844 105.571 40.7568L112.679 28.6953ZM110.066 26.2438C109.542 25.2735 109.219 24.1002 109.219 22.5698H95.2188C95.2188 26.2061 96.0209 29.6995 97.7469 32.8959L110.066 26.2438ZM109.219 22.5698C109.219 21.4004 109.489 20.527 109.948 19.772L97.9894 12.4927C96.1156 15.571 95.2188 18.9893 95.2188 22.5698H109.219ZM109.93 19.801C110.513 18.8543 111.215 18.1752 112.083 17.6641L104.979 5.60051C102.097 7.29779 99.7579 9.61865 98.0071 12.4636L109.93 19.801ZM112.103 17.6522C112.916 17.1699 113.734 16.9448 114.688 16.9448V2.94482C111.224 2.94482 107.938 3.8447 104.959 5.61243L112.103 17.6522ZM114.688 16.9448C115.741 16.9448 116.584 17.1887 117.365 17.6522L124.51 5.61243C121.499 3.82594 118.176 2.94482 114.688 2.94482V16.9448ZM117.317 17.6231C118.231 18.1757 118.915 18.8677 119.449 19.7671L131.489 12.6226C129.772 9.73028 127.436 7.38066 124.558 5.64152L117.317 17.6231ZM119.478 19.8156C119.922 20.5499 120.188 21.4087 120.188 22.5698H134.188C134.188 19.0227 133.307 15.6314 131.46 12.574L119.478 19.8156ZM120.188 22.5698V27.8198H134.188V22.5698H120.188ZM120.188 27.8198C120.188 26.8241 120.441 24.7917 122.175 23.0576C123.909 21.3235 125.942 21.0698 126.938 21.0698V35.0698C128.1 35.0698 130.257 34.7745 132.075 32.9571C133.892 31.1396 134.188 28.9822 134.188 27.8198H120.188ZM126.938 21.0698H119.75V35.0698H126.938V21.0698ZM119.75 21.0698C120.746 21.0698 122.778 21.3235 124.512 23.0576C126.246 24.7917 126.5 26.8241 126.5 27.8198H112.5C112.5 28.9822 112.795 31.1396 114.613 32.9571C116.43 34.7745 118.588 35.0698 119.75 35.0698V21.0698ZM126.5 27.7365L126.437 22.4865L112.438 22.6532L112.5 27.9032L126.5 27.7365ZM126.438 22.5698C126.438 19.4791 125.408 16.3908 122.981 13.9638L113.082 23.8633C112.869 23.6505 112.675 23.3627 112.553 23.0436C112.436 22.7412 112.438 22.5528 112.438 22.5698H126.438ZM122.981 13.9638C120.77 11.7524 117.89 10.5073 114.688 10.5073V24.5073C114.466 24.5073 114.138 24.4626 113.778 24.3115C113.423 24.1619 113.192 23.9735 113.082 23.8633L122.981 13.9638ZM114.688 10.5073C111.346 10.5073 108.4 11.8787 106.206 14.2197L116.419 23.7949C116.321 23.8996 116.086 24.1083 115.702 24.279C115.312 24.4527 114.945 24.5073 114.688 24.5073V10.5073ZM106.206 14.2197C104.048 16.5217 102.906 19.4226 102.906 22.5698H116.906C116.906 22.6939 116.882 22.9323 116.769 23.2181C116.656 23.5043 116.509 23.6988 116.419 23.7949L106.206 14.2197ZM102.906 22.5698C102.906 24.9306 103.403 27.462 104.838 29.7679L116.725 22.3717C116.851 22.5742 116.901 22.7332 116.916 22.7939C116.929 22.8463 116.906 22.7847 116.906 22.5698H102.906ZM104.897 29.8617C106.419 32.2231 108.687 33.8109 110.739 34.918L117.386 22.5966C116.887 22.3275 116.613 22.1296 116.49 22.0294C116.364 21.9262 116.483 21.9946 116.665 22.2779L104.897 29.8617ZM110.932 35.0183C110.906 35.0053 110.957 35.0309 111.148 35.134C111.316 35.2248 111.544 35.3496 111.837 35.5114L118.6 23.2533C118.036 22.9419 117.514 22.6566 117.193 22.4963L110.932 35.0183ZM111.837 35.5114C112.405 35.8247 113.041 36.1821 113.746 36.585L120.692 24.4296C119.938 23.9992 119.241 23.6066 118.6 23.2533L111.837 35.5114ZM113.951 36.698C114.671 37.078 115.31 37.4218 115.868 37.7301L122.632 25.472C121.982 25.1137 121.266 24.7283 120.486 24.3166L113.951 36.698ZM116.034 37.8186C116.617 38.12 117.034 38.3351 117.213 38.4246L123.474 25.9026C123.474 25.9027 123.468 25.8993 123.451 25.891C123.436 25.8831 123.415 25.8725 123.389 25.859C123.335 25.8319 123.266 25.7962 123.178 25.7511C123.003 25.6609 122.766 25.5387 122.466 25.3836L116.034 37.8186ZM116.929 38.2742C118.281 39.0298 119.125 39.8279 119.67 40.5942L131.08 32.4829C129.167 29.7909 126.656 27.6724 123.758 26.053L116.929 38.2742ZM119.702 40.6395C119.941 40.9703 120.25 41.5903 120.25 42.9136H134.25C134.25 39.1951 133.309 35.5652 131.048 32.4376L119.702 40.6395ZM120.25 42.9136C120.25 44.2284 119.96 45.1841 119.509 45.9611L131.616 52.991C133.415 49.893 134.25 46.4737 134.25 42.9136H120.25ZM119.537 45.9128C118.977 46.8607 118.291 47.5379 117.428 48.0499L124.572 60.0897C127.501 58.3518 129.857 55.9665 131.588 53.0394L119.537 45.9128ZM117.428 48.0499C116.667 48.5014 115.807 48.7573 114.688 48.7573V62.7573C118.193 62.7573 121.541 61.8883 124.572 60.0897L117.428 48.0499ZM137.25 54.0073L133.581 59.9689L133.596 59.9779L133.61 59.9867L137.25 54.0073ZM132.656 49.3511L126.614 52.8862L126.637 52.9242L126.659 52.962L132.656 49.3511ZM130.938 42.9136L123.938 42.892L123.938 42.9028V42.9136H130.938ZM131 22.6323L138 22.6539L138 22.6431V22.6323H131ZM132.719 16.2261L138.71 19.8469L138.733 19.8083L138.756 19.7695L132.719 16.2261ZM137.281 11.6323L140.873 17.6405L140.897 17.6262L140.921 17.6117L137.281 11.6323ZM149.812 11.6011L146.133 17.5558L146.147 17.565L146.162 17.574L149.812 11.6011ZM154.312 16.2261L148.259 19.741L148.281 19.7796L148.304 19.8179L154.312 16.2261ZM156.031 22.6323H149.031V22.6431L149.031 22.6539L156.031 22.6323ZM156.094 42.9136H163.094V42.9028L163.094 42.892L156.094 42.9136ZM154.406 49.3198L160.448 52.8549L160.454 52.8449L160.46 52.8348L154.406 49.3198ZM146.906 46.4761L152.058 51.2155L152.081 51.1901L152.104 51.1645L146.906 46.4761ZM148.344 42.9136H155.344V42.9028L155.344 42.892L148.344 42.9136ZM148.281 22.6323H141.281V22.6431L141.281 22.6539L148.281 22.6323ZM140.156 46.5386L135.001 51.2734L135.025 51.2999L135.049 51.3262L140.156 46.5386ZM143.531 48.7573C142.528 48.7573 141.696 48.5186 140.89 48.0279L133.61 59.9867C136.638 61.8293 139.993 62.7573 143.531 62.7573V48.7573ZM140.919 48.0457C139.991 47.475 139.252 46.7352 138.653 45.7401L126.659 52.962C128.394 55.8419 130.717 58.2063 133.581 59.9689L140.919 48.0457ZM138.698 45.816C138.198 44.9615 137.938 44.0413 137.938 42.9136H123.938C123.938 46.4525 124.823 49.824 126.614 52.8862L138.698 45.816ZM137.937 42.9351L138 22.6539L124 22.6108L123.938 42.892L137.937 42.9351ZM138 22.6323C138 21.4381 138.272 20.5713 138.71 19.8469L126.728 12.6053C124.874 15.6725 124 19.0766 124 22.6323H138ZM138.756 19.7695C139.283 18.8718 139.96 18.1861 140.873 17.6405L133.689 5.62412C130.769 7.37018 128.405 9.74706 126.682 12.6827L138.756 19.7695ZM140.921 17.6117C141.738 17.1145 142.561 16.8823 143.531 16.8823V2.88232C140.001 2.88232 136.658 3.81679 133.642 5.65293L140.921 17.6117ZM143.531 16.8823C144.66 16.8823 145.463 17.1418 146.133 17.5558L153.492 5.64637C150.454 3.76869 147.069 2.88232 143.531 2.88232V16.8823ZM146.162 17.574C147.024 18.1008 147.706 18.7894 148.259 19.741L160.366 12.7111C158.669 9.7878 156.351 7.39303 153.463 5.6281L146.162 17.574ZM148.304 19.8179C148.765 20.5891 149.031 21.4715 149.031 22.6323H163.031C163.031 19.0848 162.151 15.6964 160.321 12.6342L148.304 19.8179ZM149.031 22.6539L149.094 42.9351L163.094 42.892L163.031 22.6108L149.031 22.6539ZM149.094 42.9136C149.094 44.0657 148.832 44.9803 148.353 45.8049L160.46 52.8348C162.231 49.7843 163.094 46.4281 163.094 42.9136H149.094ZM148.364 45.7847C147.787 46.7717 147.073 47.4929 146.175 48.0457L153.512 59.9689C156.406 58.1884 158.734 55.7846 160.448 52.8549L148.364 45.7847ZM146.175 48.0457C145.427 48.5063 144.601 48.7573 143.531 48.7573V62.7573C147.086 62.7573 150.469 61.8417 153.512 59.9689L146.175 48.0457ZM143.531 55.0386C146.98 55.0386 149.916 53.544 152.058 51.2155L141.755 41.7367C141.811 41.6751 142.019 41.4732 142.403 41.2957C142.801 41.1114 143.205 41.0386 143.531 41.0386V55.0386ZM152.104 51.1645C154.109 48.9416 155.344 46.1202 155.344 42.9136H141.344C141.344 42.6951 141.388 42.4289 141.493 42.1692C141.594 41.919 141.702 41.7941 141.708 41.7877L152.104 51.1645ZM155.344 42.892L155.281 22.6108L141.281 22.6539L141.344 42.9351L155.344 42.892ZM155.281 22.6323C155.281 19.5956 154.263 16.6752 152.102 14.3135L141.773 23.7637C141.639 23.617 141.491 23.3957 141.389 23.123C141.29 22.8578 141.281 22.6712 141.281 22.6323H155.281ZM152.102 14.3135C149.827 11.8267 146.79 10.5698 143.531 10.5698V24.5698C143.373 24.5698 143.043 24.5378 142.642 24.3649C142.236 24.1895 141.943 23.9501 141.773 23.7637L152.102 14.3135ZM143.531 10.5698C140.291 10.5698 137.375 11.8402 135.152 14.1123L145.16 23.9024C145.047 24.0183 144.81 24.2144 144.446 24.3694C144.079 24.5257 143.748 24.5698 143.531 24.5698V10.5698ZM135.152 14.1123C132.817 16.4996 131.75 19.5206 131.75 22.6323H145.75C145.75 22.6613 145.743 22.8661 145.628 23.164C145.508 23.473 145.33 23.7286 145.16 23.9024L135.152 14.1123ZM131.75 22.6323V42.9136H145.75V22.6323H131.75ZM131.75 42.9136C131.75 46.0492 132.868 48.9509 135.001 51.2734L145.312 41.8037C145.392 41.8909 145.525 42.0708 145.628 42.335C145.73 42.5984 145.75 42.8126 145.75 42.9136H131.75ZM135.049 51.3262C137.244 53.6672 140.189 55.0386 143.531 55.0386V41.0386C143.789 41.0386 144.155 41.0932 144.546 41.2669C144.93 41.4375 145.165 41.6463 145.263 41.751L135.049 51.3262ZM160.938 54.8198L153.938 54.7999L153.938 54.8099V54.8198H160.938ZM161.062 10.8511L168.062 10.871L168.062 10.861V10.8511H161.062ZM169.562 10.8511L175.317 6.8655L175.242 6.75683L175.162 6.65107L169.562 10.8511ZM175.406 19.2886L169.652 23.2742L175.422 31.6052L181.171 23.2597L175.406 19.2886ZM181.219 10.8511L175.619 6.65107L175.534 6.76385L175.454 6.87994L181.219 10.8511ZM189.812 10.8511H182.812V10.861L182.813 10.871L189.812 10.8511ZM189.938 54.8198H196.938V54.8099L196.937 54.7999L189.938 54.8198ZM182.188 54.8198L189.188 54.8198L189.187 54.8064L182.188 54.8198ZM182.125 22.1636L189.125 22.1502L176.361 18.1916L182.125 22.1636ZM175.406 31.9136L169.625 35.8604L175.379 44.2892L181.17 35.8855L175.406 31.9136ZM168.75 22.1636L174.531 18.2168L161.75 22.1502L168.75 22.1636ZM168.688 54.8198L161.688 54.8064V54.8198H168.688ZM168.438 48.1323H161.188V62.1323H168.438V48.1323ZM161.188 48.1323C162.649 48.1323 164.854 48.6665 166.466 50.6813C167.839 52.3979 167.938 54.1761 167.938 54.8198H153.938C153.938 55.6719 154.077 57.6063 155.534 59.4271C157.229 61.5461 159.559 62.1323 161.188 62.1323V48.1323ZM167.937 54.8397L168.062 10.871L154.063 10.8312L153.938 54.7999L167.937 54.8397ZM168.062 10.8511C168.062 11.8468 167.809 13.8792 166.075 15.6133C164.341 17.3474 162.308 17.6011 161.312 17.6011V3.60107C160.15 3.60107 157.993 3.8964 156.175 5.71383C154.358 7.53125 154.062 9.68873 154.062 10.8511H168.062ZM161.312 17.6011H169.125V3.60107H161.312V17.6011ZM169.125 17.6011C167.98 17.6011 166.863 17.2991 165.886 16.7413C164.956 16.2095 164.34 15.5539 163.963 15.0511L175.162 6.65107C174.082 5.21054 172.042 3.60107 169.125 3.60107V17.6011ZM163.808 14.8367L169.652 23.2742L181.161 15.303L175.317 6.8655L163.808 14.8367ZM181.171 23.2597L186.983 14.8222L175.454 6.87994L169.642 15.3174L181.171 23.2597ZM186.819 15.0511C186.374 15.644 185.696 16.3218 184.724 16.84C183.728 17.371 182.673 17.6011 181.688 17.6011V3.60107C179.029 3.60107 176.897 4.94715 175.619 6.65107L186.819 15.0511ZM181.688 17.6011H189.531V3.60107H181.688V17.6011ZM189.531 17.6011C188.736 17.6011 186.832 17.4422 185.092 15.8954C183.194 14.209 182.812 12.0743 182.812 10.8511H196.812C196.812 9.46118 196.384 7.20145 194.393 5.43171C192.559 3.80163 190.514 3.60107 189.531 3.60107V17.6011ZM182.813 10.871L182.938 54.8397L196.937 54.7999L196.812 10.8312L182.813 10.871ZM182.938 54.8198C182.938 54.1761 183.036 52.3979 184.409 50.6813C186.021 48.6665 188.226 48.1323 189.688 48.1323V62.1323C191.316 62.1323 193.646 61.5461 195.341 59.4271C196.798 57.6063 196.938 55.6719 196.938 54.8198H182.938ZM189.688 48.1323H182.438V62.1323H189.688V48.1323ZM182.438 48.1323C183.899 48.1323 186.104 48.6665 187.716 50.6813C189.089 52.3979 189.188 54.1761 189.188 54.8198H175.188C175.188 55.6719 175.327 57.6063 176.784 59.4271C178.479 61.5461 180.809 62.1323 182.438 62.1323V48.1323ZM189.187 54.8064L189.125 22.1502L175.125 22.177L175.188 54.8332L189.187 54.8064ZM176.361 18.1916L169.642 27.9416L181.17 35.8855L187.889 26.1355L176.361 18.1916ZM181.187 27.9668L174.531 18.2168L162.969 26.1104L169.625 35.8604L181.187 27.9668ZM161.75 22.1502L161.688 54.8064L175.687 54.8332L175.75 22.177L161.75 22.1502ZM161.688 54.8198C161.688 54.1761 161.786 52.3979 163.159 50.6813C164.771 48.6665 166.976 48.1323 168.438 48.1323V62.1323C170.066 62.1323 172.396 61.5461 174.091 59.4271C175.548 57.6063 175.688 55.6719 175.688 54.8198H161.688ZM195.312 54.8198L188.312 54.8099V54.8198H195.312ZM195.375 10.8511L202.375 10.861V10.8511H195.375ZM203.062 18.3198V11.3198H196.062V18.3198H203.062ZM203.062 28.3198H196.062V35.3198H203.062V28.3198ZM216.438 28.5698H209.438V28.6L209.438 28.6302L216.438 28.5698ZM216.5 35.8198H223.5V35.7897L223.5 35.7595L216.5 35.8198ZM203.062 36.0698V29.0698H196.062V36.0698H203.062ZM203.062 47.2573H196.062V54.2573H203.062V47.2573ZM216.25 48.1323H195.562V62.1323H216.25V48.1323ZM195.562 48.1323C197.024 48.1323 199.229 48.6665 200.841 50.6813C202.214 52.3979 202.312 54.1761 202.312 54.8198H188.312C188.312 55.6719 188.452 57.6063 189.909 59.4271C191.604 61.5461 193.934 62.1323 195.562 62.1323V48.1323ZM202.312 54.8298L202.375 10.861L188.375 10.8411L188.313 54.8099L202.312 54.8298ZM202.375 10.8511C202.375 11.8468 202.121 13.8792 200.387 15.6133C198.653 17.3474 196.621 17.6011 195.625 17.6011V3.60107C194.463 3.60107 192.305 3.8964 190.488 5.71383C188.67 7.53125 188.375 9.68873 188.375 10.8511H202.375ZM195.625 17.6011H216.188V3.60107H195.625V17.6011ZM216.188 17.6011C214.726 17.6011 212.521 17.0669 210.909 15.0521C209.536 13.3355 209.438 11.5573 209.438 10.9136H223.438C223.438 10.0615 223.298 8.1271 221.841 6.30633C220.146 4.1873 217.816 3.60107 216.188 3.60107V17.6011ZM209.438 10.9136V18.0698H223.438V10.9136H209.438ZM209.438 18.0698C209.438 17.0741 209.691 15.0417 211.425 13.3076C213.159 11.5735 215.192 11.3198 216.188 11.3198V25.3198C217.35 25.3198 219.507 25.0245 221.325 23.2071C223.142 21.3896 223.438 19.2322 223.438 18.0698H209.438ZM216.188 11.3198H203.062V25.3198H216.188V11.3198ZM196.062 18.3198V28.3198H210.062V18.3198H196.062ZM203.062 35.3198H216.188V21.3198H203.062V35.3198ZM216.188 35.3198C215.192 35.3198 213.159 35.0662 211.425 33.3321C209.691 31.598 209.438 29.5655 209.438 28.5698H223.438C223.438 27.4075 223.142 25.25 221.325 23.4326C219.507 21.6152 217.35 21.3198 216.188 21.3198V35.3198ZM209.438 28.6302L209.5 35.8802L223.5 35.7595L223.437 28.5095L209.438 28.6302ZM209.5 35.8198C209.5 34.8241 209.754 32.7917 211.488 31.0576C213.222 29.3235 215.254 29.0698 216.25 29.0698V43.0698C217.412 43.0698 219.57 42.7745 221.387 40.9571C223.205 39.1396 223.5 36.9822 223.5 35.8198H209.5ZM216.25 29.0698H203.062V43.0698H216.25V29.0698ZM196.062 36.0698V47.2573H210.062V36.0698H196.062ZM203.062 54.2573H216.25V40.2573H203.062V54.2573ZM216.25 54.2573C214.788 54.2573 212.583 53.7232 210.971 51.7083C209.598 49.9917 209.5 48.2136 209.5 47.5698H223.5C223.5 46.7178 223.36 44.7833 221.904 42.9626C220.208 40.8436 217.878 40.2573 216.25 40.2573V54.2573ZM209.5 47.5698V54.8823H223.5V47.5698H209.5ZM209.5 54.8823C209.5 53.8866 209.754 51.8542 211.488 50.1201C213.222 48.386 215.254 48.1323 216.25 48.1323V62.1323C217.412 62.1323 219.57 61.837 221.387 60.0196C223.205 58.2021 223.5 56.0447 223.5 54.8823H209.5ZM223.531 43.0386L216.56 43.675L216.563 43.7051L216.566 43.7351L223.531 43.0386ZM222.188 28.3198H215.188V28.6387L215.216 28.9562L222.188 28.3198ZM229.938 10.9136L236.937 10.9387L236.938 10.9261V10.9136H229.938ZM229.875 28.3198L236.846 28.9562L236.874 28.6512L236.875 28.345L229.875 28.3198ZM228.531 43.0386L235.497 43.7351L235.5 43.7051L235.502 43.675L228.531 43.0386ZM228.219 36.3511H223.844V50.3511H228.219V36.3511ZM223.844 36.3511C225.075 36.3511 226.981 36.7291 228.575 38.3232C230.062 39.8104 230.413 41.5027 230.497 42.342L216.566 43.7351C216.671 44.7828 217.084 46.6314 218.675 48.2227C220.374 49.921 222.425 50.3511 223.844 50.3511V36.3511ZM230.502 42.4022L229.159 27.6834L215.216 28.9562L216.56 43.675L230.502 42.4022ZM229.188 28.3198V10.9136H215.188V28.3198H229.188ZM229.188 10.9136C229.188 11.5573 229.089 13.3355 227.716 15.0521C226.104 17.0669 223.899 17.6011 222.438 17.6011V3.60107C220.809 3.60107 218.479 4.1873 216.784 6.30633C215.327 8.1271 215.188 10.0615 215.188 10.9136H229.188ZM222.438 17.6011H229.625V3.60107H222.438V17.6011ZM229.625 17.6011C228.65 17.6011 226.633 17.3526 224.91 15.6289C223.186 13.9053 222.938 11.8884 222.938 10.9136H236.938C236.938 9.73039 236.637 7.55729 234.809 5.72945C232.981 3.90161 230.808 3.60107 229.625 3.60107V17.6011ZM222.938 10.8884L222.875 28.2947L236.875 28.345L236.937 10.9387L222.938 10.8884ZM222.904 27.6834L221.56 42.4022L235.502 43.675L236.846 28.9562L222.904 27.6834ZM221.566 42.342C221.65 41.5027 222.001 39.8104 223.488 38.3232C225.082 36.7291 226.988 36.3511 228.219 36.3511V50.3511C229.637 50.3511 231.689 49.921 233.387 48.2227C234.979 46.6314 235.392 44.7828 235.497 43.7351L221.566 42.342ZM229.625 48.1323H222.438V62.1323H229.625V48.1323ZM222.438 48.1323C223.899 48.1323 226.104 48.6665 227.716 50.6813C229.089 52.3979 229.188 54.1761 229.188 54.8198H215.188C215.188 55.6719 215.327 57.6063 216.784 59.4271C218.479 61.5461 220.809 62.1323 222.438 62.1323V48.1323ZM229.188 54.8198V47.8511H215.188V54.8198H229.188ZM229.188 47.8511C229.188 48.6465 229.029 50.5506 227.482 52.2907C225.795 54.1879 223.661 54.5698 222.438 54.5698V40.5698C221.048 40.5698 218.788 40.9986 217.018 42.9896C215.388 44.8234 215.188 46.8681 215.188 47.8511H229.188ZM222.438 54.5698H229.625V40.5698H222.438V54.5698ZM229.625 54.5698C228.402 54.5698 226.267 54.1879 224.581 52.2907C223.034 50.5506 222.875 48.6465 222.875 47.8511H236.875C236.875 46.8681 236.674 44.8234 235.044 42.9896C233.275 40.9986 231.015 40.5698 229.625 40.5698V54.5698ZM222.875 47.8511V54.8198H236.875V47.8511H222.875ZM222.875 54.8198C222.875 54.1761 222.973 52.3979 224.346 50.6813C225.958 48.6665 228.163 48.1323 229.625 48.1323V62.1323C231.253 62.1323 233.583 61.5461 235.279 59.4271C236.735 57.6063 236.875 55.6719 236.875 54.8198H222.875Z" fill="#661E29"/>
<path d="M11.7188 51.6875L19.6562 7.71875C19.6979 7.55208 19.8021 7.46875 19.9688 7.46875H29.25C29.4167 7.46875 29.5208 7.55208 29.5625 7.71875L37.1875 51.6875C37.2083 51.8958 37.125 52 36.9375 52H29.8438C29.6354 52 29.5208 51.8958 29.5 51.6875L28.8125 47H20.0938L19.4062 51.6875C19.3854 51.8958 19.2812 52 19.0938 52H11.9688C11.8021 52 11.7188 51.8958 11.7188 51.6875ZM24.25 22.1875L21.375 40.1562H27.5312L24.9062 22.1875L24.5312 19.8125L24.25 22.1875ZM50.3438 52H42.5938C42.4062 52 42.3021 51.8958 42.2812 51.6875L34.7188 7.71875C34.6771 7.55208 34.7396 7.46875 34.9062 7.46875H42.0938C42.2604 7.46875 42.3646 7.55208 42.4062 7.71875L46.5 36.625L50.7188 7.71875C50.7604 7.55208 50.8854 7.46875 51.0938 7.46875H56.875C57.0417 7.46875 57.1458 7.55208 57.1875 7.71875L61.3438 36.625L65.5 7.71875C65.5417 7.55208 65.6458 7.46875 65.8125 7.46875H72.9375C73.1458 7.46875 73.2292 7.55208 73.1875 7.71875L65.5625 51.6875C65.5417 51.7708 65.4792 51.8438 65.375 51.9062L65.25 52H57.5C57.375 52 57.2708 51.8958 57.1875 51.6875L53.9062 28.7188L50.6562 51.6875C50.6354 51.8958 50.5312 52 50.3438 52ZM97.875 52H77.1875C77.0208 52 76.9375 51.8958 76.9375 51.6875L77 7.71875C77 7.55208 77.0833 7.46875 77.25 7.46875H97.8125C97.9792 7.46875 98.0625 7.57292 98.0625 7.78125V14.9375C98.0625 15.1042 97.9792 15.1875 97.8125 15.1875H84.6875V25.1875H97.8125C97.9792 25.1875 98.0625 25.2708 98.0625 25.4375L98.125 32.6875C98.125 32.8542 98.0417 32.9375 97.875 32.9375H84.6875V44.125H97.875C98.0417 44.125 98.125 44.2292 98.125 44.4375V51.75C98.125 51.9167 98.0417 52 97.875 52ZM114.688 52.625C112.417 52.625 110.323 52.0417 108.406 50.875C106.51 49.7083 104.99 48.1562 103.844 46.2188C102.719 44.2604 102.156 42.1146 102.156 39.7812V36.8438C102.156 36.6146 102.26 36.5 102.469 36.5H109.656C109.823 36.5 109.906 36.6146 109.906 36.8438V39.7812C109.906 41.1771 110.375 42.3854 111.312 43.4062C112.25 44.4062 113.375 44.9062 114.688 44.9062C116.021 44.9062 117.156 44.3958 118.094 43.375C119.031 42.3333 119.5 41.1354 119.5 39.7812C119.5 38.2188 118.479 36.8542 116.438 35.6875C116.104 35.4792 115.667 35.2292 115.125 34.9375C114.604 34.625 113.979 34.2708 113.25 33.875C112.521 33.4792 111.812 33.0938 111.125 32.7188C110.438 32.3229 109.771 31.9479 109.125 31.5938C106.792 30.2188 105.052 28.5 103.906 26.4375C102.781 24.3542 102.219 22.0208 102.219 19.4375C102.219 17.0625 102.802 14.9167 103.969 13C105.135 11.1042 106.656 9.60417 108.531 8.5C110.427 7.375 112.479 6.8125 114.688 6.8125C116.958 6.8125 119.042 7.375 120.938 8.5C122.833 9.64583 124.344 11.1667 125.469 13.0625C126.615 14.9583 127.188 17.0833 127.188 19.4375V24.6875C127.188 24.8542 127.104 24.9375 126.938 24.9375H119.75C119.583 24.9375 119.5 24.8542 119.5 24.6875L119.438 19.4375C119.438 17.9375 118.969 16.7188 118.031 15.7812C117.094 14.8438 115.979 14.375 114.688 14.375C113.375 14.375 112.25 14.875 111.312 15.875C110.375 16.875 109.906 18.0625 109.906 19.4375C109.906 20.8333 110.198 22 110.781 22.9375C111.385 23.875 112.479 24.7708 114.062 25.625C114.229 25.7083 114.615 25.9167 115.219 26.25C115.823 26.5833 116.49 26.9583 117.219 27.375C117.969 27.7708 118.646 28.1354 119.25 28.4688C119.854 28.7812 120.219 28.9688 120.344 29.0312C122.469 30.2188 124.146 31.6771 125.375 33.4062C126.625 35.1354 127.25 37.2604 127.25 39.7812C127.25 42.2188 126.688 44.4062 125.562 46.3438C124.417 48.2812 122.896 49.8125 121 50.9375C119.104 52.0625 117 52.625 114.688 52.625ZM143.531 52.625C141.26 52.625 139.167 52.0417 137.25 50.875C135.354 49.7083 133.823 48.1562 132.656 46.2188C131.51 44.2604 130.938 42.1146 130.938 39.7812L131 19.5C131 17.125 131.573 14.9896 132.719 13.0938C133.844 11.1771 135.365 9.64583 137.281 8.5C139.198 7.33333 141.281 6.75 143.531 6.75C145.865 6.75 147.958 7.32292 149.812 8.46875C151.688 9.61458 153.188 11.1562 154.312 13.0938C155.458 15.0104 156.031 17.1458 156.031 19.5L156.094 39.7812C156.094 42.1146 155.531 44.25 154.406 46.1875C153.26 48.1458 151.74 49.7083 149.844 50.875C147.948 52.0417 145.844 52.625 143.531 52.625ZM143.531 44.9062C144.823 44.9062 145.948 44.3854 146.906 43.3438C147.865 42.2812 148.344 41.0938 148.344 39.7812L148.281 19.5C148.281 18.0833 147.833 16.8854 146.938 15.9062C146.042 14.9271 144.906 14.4375 143.531 14.4375C142.219 14.4375 141.094 14.9167 140.156 15.875C139.219 16.8333 138.75 18.0417 138.75 19.5V39.7812C138.75 41.1771 139.219 42.3854 140.156 43.4062C141.094 44.4062 142.219 44.9062 143.531 44.9062ZM168.438 52H161.188C161.021 52 160.938 51.8958 160.938 51.6875L161.062 7.71875C161.062 7.55208 161.146 7.46875 161.312 7.46875H169.125C169.292 7.46875 169.438 7.55208 169.562 7.71875L175.406 16.1562L181.219 7.71875C181.344 7.55208 181.5 7.46875 181.688 7.46875H189.531C189.719 7.46875 189.812 7.55208 189.812 7.71875L189.938 51.6875C189.938 51.8958 189.854 52 189.688 52H182.438C182.271 52 182.188 51.8958 182.188 51.6875L182.125 19.0312L175.406 28.7812L168.75 19.0312L168.688 51.6875C168.688 51.8958 168.604 52 168.438 52ZM216.25 52H195.562C195.396 52 195.312 51.8958 195.312 51.6875L195.375 7.71875C195.375 7.55208 195.458 7.46875 195.625 7.46875H216.188C216.354 7.46875 216.438 7.57292 216.438 7.78125V14.9375C216.438 15.1042 216.354 15.1875 216.188 15.1875H203.062V25.1875H216.188C216.354 25.1875 216.438 25.2708 216.438 25.4375L216.5 32.6875C216.5 32.8542 216.417 32.9375 216.25 32.9375H203.062V44.125H216.25C216.417 44.125 216.5 44.2292 216.5 44.4375V51.75C216.5 51.9167 216.417 52 216.25 52ZM228.219 40.2188H223.844C223.656 40.2188 223.552 40.1146 223.531 39.9062L222.188 25.1875V7.78125C222.188 7.57292 222.271 7.46875 222.438 7.46875H229.625C229.833 7.46875 229.938 7.57292 229.938 7.78125L229.875 25.1875L228.531 39.9062C228.51 40.1146 228.406 40.2188 228.219 40.2188ZM229.625 52H222.438C222.271 52 222.188 51.8958 222.188 51.6875V44.7188C222.188 44.5312 222.271 44.4375 222.438 44.4375H229.625C229.792 44.4375 229.875 44.5312 229.875 44.7188V51.6875C229.875 51.8958 229.792 52 229.625 52Z" fill="#F2F2F2"/>
</svg>
