<svg width="1440" height="499" viewBox="0 0 1440 499" fill="none" xmlns="http://www.w3.org/2000/svg">
<g filter="url(#filter0_d_1265_12991)">
<circle cx="53.7061" cy="286.297" r="82.865" transform="rotate(8.99552 53.7061 286.297)" fill="#D9D9D9"/>
<circle cx="157.14" cy="178.024" r="49.719" transform="rotate(8.99552 157.14 178.024)" fill="#D9D9D9"/>
<circle cx="208.352" cy="157.366" r="49.719" transform="rotate(8.99552 208.352 157.366)" fill="#D9D9D9"/>
<circle cx="253.386" cy="190.863" r="61.5568" transform="rotate(8.99552 253.386 190.863)" fill="#D9D9D9"/>
<circle cx="193.29" cy="267.643" r="61.5568" transform="rotate(8.99552 193.29 267.643)" fill="#D9D9D9"/>
<circle cx="287.319" cy="294.514" r="97.0704" transform="rotate(8.99552 287.319 294.514)" fill="#D9D9D9"/>
<circle cx="303.334" cy="253.903" r="97.0704" transform="rotate(8.99552 303.334 253.903)" fill="#D9D9D9"/>
<circle cx="346.622" cy="359.033" r="56.8217" transform="rotate(8.99552 346.622 359.033)" fill="#D9D9D9"/>
<circle cx="399.057" cy="345.761" r="78.1298" transform="rotate(8.99552 399.057 345.761)" fill="#D9D9D9"/>
<circle cx="467.225" cy="399.7" r="49.719" transform="rotate(8.99552 467.225 399.7)" fill="#D9D9D9"/>
<circle cx="540.339" cy="392.097" r="68.6595" transform="rotate(8.99552 540.339 392.097)" fill="#D9D9D9"/>
<circle cx="581.852" cy="302.981" r="71.795" transform="rotate(8.99552 581.852 302.981)" fill="#D9D9D9"/>
<circle cx="658.31" cy="252.568" r="59.1893" transform="rotate(8.99552 658.31 252.568)" fill="#D9D9D9"/>
<ellipse cx="779.774" cy="302.957" rx="59.1893" ry="42.6163" transform="rotate(8.99552 779.774 302.957)" fill="#D9D9D9"/>
<circle cx="716.635" cy="356.387" r="86.5763" transform="rotate(8.99552 716.635 356.387)" fill="#D9D9D9"/>
<circle cx="803.727" cy="424.204" r="73.3947" transform="rotate(8.99552 803.727 424.204)" fill="#D9D9D9"/>
<circle cx="983.435" cy="409.506" r="73.3947" transform="rotate(8.99552 983.435 409.506)" fill="#D9D9D9"/>
<circle cx="1151.3" cy="469.638" r="73.3947" transform="rotate(8.99552 1151.3 469.638)" fill="#D9D9D9"/>
<circle cx="1158.7" cy="422.869" r="73.3947" transform="rotate(8.99552 1158.7 422.869)" fill="#D9D9D9"/>
<circle cx="725.27" cy="253.579" r="44.9838" transform="rotate(8.99552 725.27 253.579)" fill="#D9D9D9"/>
<circle cx="820.992" cy="345.438" r="44.9838" transform="rotate(8.99552 820.992 345.438)" fill="#D9D9D9"/>
<circle cx="1044.71" cy="476.734" r="44.9838" transform="rotate(8.99552 1044.71 476.734)" fill="#D9D9D9"/>
<circle cx="1074.75" cy="438.344" r="44.9838" transform="rotate(8.99552 1074.75 438.344)" fill="#D9D9D9"/>
<circle cx="1186.29" cy="369.708" r="44.9838" transform="rotate(8.99552 1186.29 369.708)" fill="#D9D9D9"/>
<circle cx="1252.75" cy="404.198" r="44.9838" transform="rotate(8.99552 1252.75 404.198)" fill="#D9D9D9"/>
<circle cx="1243.86" cy="460.321" r="44.9838" transform="rotate(8.99552 1243.86 460.321)" fill="#D9D9D9"/>
<circle cx="1080.36" cy="320.572" r="44.9838" transform="rotate(8.99552 1080.36 320.572)" fill="#D9D9D9"/>
<circle cx="883.842" cy="289.462" r="44.9838" transform="rotate(8.99552 883.842 289.462)" fill="#D9D9D9"/>
<circle cx="952.884" cy="481.376" r="44.9838" transform="rotate(8.99552 952.884 481.376)" fill="#D9D9D9"/>
<circle cx="903.461" cy="339.317" r="59.1893" transform="rotate(8.99552 903.461 339.317)" fill="#D9D9D9"/>
<circle cx="913.283" cy="398.401" r="59.1893" transform="rotate(8.99552 913.283 398.401)" fill="#D9D9D9"/>
<ellipse cx="620.456" cy="431.148" rx="68.6595" ry="56.8217" transform="rotate(8.99552 620.456 431.148)" fill="#D9D9D9"/>
<circle cx="6.48595" cy="175.748" r="99.438" transform="rotate(8.99552 6.48595 175.748)" fill="#D9D9D9"/>
<circle cx="18.9784" cy="198.91" r="73.9066" transform="rotate(8.99552 18.9784 198.91)" fill="white"/>
<circle cx="155.068" cy="284.591" r="73.9066" transform="rotate(8.99552 155.068 284.591)" fill="white"/>
<circle cx="247.321" cy="188.024" r="44.344" transform="rotate(8.99552 247.321 188.024)" fill="white"/>
<circle cx="292.993" cy="169.599" r="44.344" transform="rotate(8.99552 292.993 169.599)" fill="white"/>
<circle cx="333.163" cy="199.476" r="54.902" transform="rotate(8.99552 333.163 199.476)" fill="white"/>
<circle cx="279.565" cy="267.956" r="54.902" transform="rotate(8.99552 279.565 267.956)" fill="white"/>
<circle cx="363.422" cy="291.92" r="86.5763" transform="rotate(8.99552 363.422 291.92)" fill="white"/>
<circle cx="377.71" cy="255.699" r="86.5763" transform="rotate(8.99552 377.71 255.699)" fill="white"/>
<circle cx="416.315" cy="349.465" r="50.6788" transform="rotate(8.99552 416.315 349.465)" fill="white"/>
<circle cx="463.082" cy="337.627" r="69.6834" transform="rotate(8.99552 463.082 337.627)" fill="white"/>
<circle cx="523.882" cy="385.735" r="44.344" transform="rotate(8.99552 523.882 385.735)" fill="white"/>
<circle cx="616.653" cy="358.709" r="85.7922" transform="rotate(8.99552 616.653 358.709)" fill="white"/>
<circle cx="616.586" cy="259.308" r="52.7904" transform="rotate(8.99552 616.586 259.308)" fill="white"/>
<circle cx="694.31" cy="254.509" r="52.7904" transform="rotate(8.99552 694.31 254.509)" fill="white"/>
<ellipse cx="802.643" cy="299.451" rx="52.7904" ry="38.0091" transform="rotate(8.99552 802.643 299.451)" fill="white"/>
<circle cx="795.671" cy="249.365" r="73.9273" transform="rotate(8.99552 795.671 249.365)" fill="white"/>
<circle cx="824.005" cy="407.59" r="65.4601" transform="rotate(8.99552 824.005 407.59)" fill="white"/>
<circle cx="743.323" cy="350.783" r="65.4601" transform="rotate(8.99552 743.323 350.783)" fill="white"/>
<circle cx="582.634" cy="186.739" r="65.4601" transform="rotate(8.99552 582.634 186.739)" fill="white"/>
<circle cx="984.287" cy="394.481" r="65.4601" transform="rotate(8.99552 984.287 394.481)" fill="white"/>
<circle cx="1134" cy="448.113" r="65.4601" transform="rotate(8.99552 1134 448.113)" fill="white"/>
<circle cx="1140.61" cy="406.4" r="65.4601" transform="rotate(8.99552 1140.61 406.4)" fill="white"/>
<circle cx="754.026" cy="255.41" r="40.1207" transform="rotate(8.99552 754.026 255.41)" fill="white"/>
<circle cx="967.889" cy="299.729" r="56.5864" transform="rotate(8.99552 967.889 299.729)" fill="white"/>
<circle cx="1038.93" cy="454.442" r="40.1207" transform="rotate(8.99552 1038.93 454.442)" fill="white"/>
<circle cx="1065.73" cy="420.202" r="40.1207" transform="rotate(8.99552 1065.73 420.202)" fill="white"/>
<circle cx="1165.21" cy="358.985" r="40.1207" transform="rotate(8.99552 1165.21 358.985)" fill="white"/>
<circle cx="1224.48" cy="389.747" r="40.1207" transform="rotate(8.99552 1224.48 389.747)" fill="white"/>
<circle cx="1216.56" cy="439.803" r="40.1207" transform="rotate(8.99552 1216.56 439.803)" fill="white"/>
<circle cx="1048.31" cy="329.165" r="27.451" transform="rotate(8.99552 1048.31 329.165)" fill="white"/>
<circle cx="1060.06" cy="371.683" r="27.451" transform="rotate(8.99552 1060.06 371.683)" fill="white"/>
<circle cx="917.374" cy="280.715" r="27.451" transform="rotate(8.99552 917.374 280.715)" fill="white"/>
<circle cx="1162.03" cy="334.159" r="76.6654" transform="rotate(8.99552 1162.03 334.159)" fill="white"/>
<circle cx="957.037" cy="458.58" r="40.1207" transform="rotate(8.99552 957.037 458.58)" fill="white"/>
<circle cx="912.954" cy="331.879" r="52.7904" transform="rotate(8.99552 912.954 331.879)" fill="white"/>
<circle cx="921.718" cy="384.576" r="52.7904" transform="rotate(8.99552 921.718 384.576)" fill="white"/>
<ellipse cx="660.544" cy="413.783" rx="61.2369" ry="50.6788" transform="rotate(8.99552 660.544 413.783)" fill="white"/>
<circle cx="112.953" cy="185.995" r="88.6879" transform="rotate(8.99552 112.953 185.995)" fill="white"/>
<circle cx="-1.0369" cy="431.841" r="82.865" fill="#D9D9D9"/>
<circle cx="164.692" cy="502.868" r="82.865" fill="#D9D9D9"/>
<circle cx="249.924" cy="379.754" r="49.719" fill="#D9D9D9"/>
<circle cx="297.276" cy="351.343" r="49.719" fill="#D9D9D9"/>
<circle cx="346.994" cy="377.387" r="61.5568" fill="#D9D9D9"/>
<circle cx="299.641" cy="462.619" r="61.5568" fill="#D9D9D9"/>
<circle cx="396.716" cy="474.458" r="97.0704" fill="#D9D9D9"/>
<circle cx="406.184" cy="431.842" r="97.0704" fill="#D9D9D9"/>
<circle cx="465.377" cy="528.911" r="56.8217" fill="#D9D9D9"/>
<circle cx="515.092" cy="507.603" r="78.1298" fill="#D9D9D9"/>
<circle cx="661.882" cy="531.279" r="68.6595" fill="#D9D9D9"/>
<circle cx="688.95" cy="436.768" r="71.795" fill="#D9D9D9"/>
<circle cx="756.585" cy="375.02" r="59.1893" fill="#D9D9D9"/>
<ellipse cx="884.434" cy="405.798" rx="59.1893" ry="42.6163" fill="#D9D9D9"/>
<circle cx="830.426" cy="468.443" r="86.5763" fill="#D9D9D9"/>
<circle cx="927.05" cy="521.809" r="73.3947" fill="#D9D9D9"/>
<circle cx="1102.25" cy="479.193" r="73.3947" fill="#D9D9D9"/>
<circle cx="1277.45" cy="512.339" r="73.3947" fill="#D9D9D9"/>
<circle cx="1277.45" cy="464.987" r="73.3947" fill="#D9D9D9"/>
<circle cx="822.88" cy="365.549" r="44.9838" fill="#D9D9D9"/>
<circle cx="931.788" cy="441.312" r="44.9838" fill="#D9D9D9"/>
<circle cx="1173.28" cy="536.014" r="44.9838" fill="#D9D9D9"/>
<circle cx="1196.95" cy="493.398" r="44.9838" fill="#D9D9D9"/>
<circle cx="1296.39" cy="408.165" r="44.9838" fill="#D9D9D9"/>
<circle cx="1367.42" cy="431.842" r="44.9838" fill="#D9D9D9"/>
<circle cx="1367.42" cy="488.663" r="44.9838" fill="#D9D9D9"/>
<circle cx="1184.08" cy="376.197" r="44.9838" fill="#D9D9D9"/>
<circle cx="985.112" cy="376.197" r="44.9838" fill="#D9D9D9"/>
<circle cx="1012.28" cy="422.371" r="59.1893" fill="#D9D9D9"/>
<circle cx="1031.22" cy="479.192" r="59.1893" fill="#D9D9D9"/>
<circle cx="100.767" cy="401.062" r="99.438" fill="#D9D9D9"/>
<circle cx="116.727" cy="421.987" r="73.9066" fill="#F7F3EF"/>
<circle cx="264.541" cy="485.335" r="73.9066" fill="#F7F3EF"/>
<circle cx="340.559" cy="375.531" r="44.344" fill="#F7F3EF"/>
<circle cx="382.79" cy="350.192" r="44.344" fill="#F7F3EF"/>
<circle cx="427.137" cy="373.42" r="54.902" fill="#F7F3EF"/>
<circle cx="384.904" cy="449.438" r="54.902" fill="#F7F3EF"/>
<circle cx="471.478" cy="459.996" r="86.5763" fill="#F7F3EF"/>
<circle cx="479.926" cy="421.987" r="86.5763" fill="#F7F3EF"/>
<circle cx="532.717" cy="508.564" r="50.6788" fill="#F7F3EF"/>
<circle cx="577.058" cy="489.559" r="69.6834" fill="#F7F3EF"/>
<circle cx="644.633" cy="527.568" r="44.344" fill="#F7F3EF"/>
<circle cx="732.037" cy="486.369" r="85.7922" fill="#F7F3EF"/>
<circle cx="716.429" cy="388.201" r="52.7904" fill="#F7F3EF"/>
<circle cx="792.446" cy="371.308" r="52.7904" fill="#F7F3EF"/>
<ellipse cx="906.474" cy="398.759" rx="52.7904" ry="38.0091" fill="#F7F3EF"/>
<circle cx="891.757" cy="350.379" r="73.9273" fill="#F7F3EF"/>
<circle cx="944.482" cy="502.228" r="65.4601" fill="#F7F3EF"/>
<circle cx="855.909" cy="458.736" r="65.4601" fill="#F7F3EF"/>
<circle cx="671.548" cy="321.833" r="65.4601" fill="#F7F3EF"/>
<circle cx="1100.74" cy="464.219" r="65.4601" fill="#F7F3EF"/>
<circle cx="1257" cy="493.782" r="65.4601" fill="#F7F3EF"/>
<circle cx="1257" cy="451.549" r="65.4601" fill="#F7F3EF"/>
<circle cx="851.568" cy="362.861" r="40.1207" fill="#F7F3EF"/>
<circle cx="1069.73" cy="373.196" r="56.5864" fill="#F7F3EF"/>
<circle cx="1164.09" cy="514.898" r="40.1207" fill="#F7F3EF"/>
<circle cx="1185.21" cy="476.889" r="40.1207" fill="#F7F3EF"/>
<circle cx="1273.89" cy="400.87" r="40.1207" fill="#F7F3EF"/>
<circle cx="1337.24" cy="421.987" r="40.1207" fill="#F7F3EF"/>
<circle cx="1337.24" cy="472.666" r="40.1207" fill="#F7F3EF"/>
<circle cx="1153.77" cy="389.695" r="27.451" fill="#F7F3EF"/>
<circle cx="1172.02" cy="429.853" r="27.451" fill="#F7F3EF"/>
<circle cx="1016.86" cy="362.315" r="27.451" fill="#F7F3EF"/>
<circle cx="1266.87" cy="376.847" r="76.6654" fill="#F7F3EF"/>
<circle cx="1083.85" cy="531.791" r="40.1207" fill="#F7F3EF"/>
<circle cx="1020.5" cy="413.54" r="52.7904" fill="#F7F3EF"/>
<circle cx="1037.39" cy="464.219" r="52.7904" fill="#F7F3EF"/>
<ellipse cx="783.999" cy="533.903" rx="61.2369" ry="50.6788" fill="#F7F3EF"/>
<circle cx="207.527" cy="394.536" r="88.6879" fill="#F7F3EF"/>
<circle cx="697.806" cy="175.82" r="82.865" fill="#D9D9D9"/>
<circle cx="863.534" cy="246.847" r="82.865" fill="#D9D9D9"/>
<circle cx="948.766" cy="123.733" r="49.719" fill="#D9D9D9"/>
<circle cx="996.119" cy="95.3225" r="49.719" fill="#D9D9D9"/>
<circle cx="1045.84" cy="121.366" r="61.5568" fill="#D9D9D9"/>
<circle cx="998.484" cy="206.598" r="61.5568" fill="#D9D9D9"/>
<circle cx="1095.56" cy="218.437" r="97.0704" fill="#D9D9D9"/>
<circle cx="1105.03" cy="175.821" r="97.0704" fill="#D9D9D9"/>
<circle cx="1164.22" cy="272.89" r="56.8217" fill="#D9D9D9"/>
<circle cx="1213.93" cy="251.582" r="78.1298" fill="#D9D9D9"/>
<circle cx="1289.7" cy="294.199" r="49.719" fill="#D9D9D9"/>
<circle cx="1360.72" cy="275.258" r="68.6595" fill="#D9D9D9"/>
<circle cx="1387.79" cy="180.747" r="71.795" fill="#D9D9D9"/>
<circle cx="1455.43" cy="118.999" r="59.1893" fill="#D9D9D9"/>
<ellipse cx="1445.96" cy="301.302" rx="68.6595" ry="56.8217" fill="#D9D9D9"/>
<circle cx="799.609" cy="145.042" r="99.438" fill="#D9D9D9"/>
<circle cx="815.57" cy="165.966" r="73.9066" fill="white"/>
<circle cx="963.384" cy="229.315" r="73.9066" fill="white"/>
<circle cx="1039.4" cy="119.511" r="44.344" fill="white"/>
<circle cx="1081.63" cy="94.1714" r="44.344" fill="white"/>
<circle cx="1125.98" cy="117.399" r="54.902" fill="white"/>
<circle cx="1083.75" cy="193.417" r="54.902" fill="white"/>
<circle cx="1170.32" cy="203.975" r="86.5763" fill="white"/>
<circle cx="1178.77" cy="165.966" r="86.5763" fill="white"/>
<circle cx="1231.56" cy="252.543" r="50.6788" fill="white"/>
<circle cx="1275.9" cy="233.538" r="69.6834" fill="white"/>
<circle cx="1343.47" cy="271.547" r="44.344" fill="white"/>
<circle cx="1430.88" cy="230.348" r="85.7922" fill="white"/>
<circle cx="1415.27" cy="132.18" r="52.7904" fill="white"/>
<circle cx="1491.29" cy="115.288" r="52.7904" fill="white"/>
<circle cx="1370.39" cy="65.8122" r="65.4601" fill="white"/>
<ellipse cx="1482.84" cy="277.882" rx="61.2369" ry="50.6788" fill="white"/>
<circle cx="906.37" cy="138.515" r="88.6879" fill="white"/>
<path fill-rule="evenodd" clip-rule="evenodd" d="M1274.65 942.172C1252.15 942.172 1231.87 932.679 1217.6 917.479C1210.77 919.004 1203.67 919.808 1196.38 919.808C1168.14 919.808 1142.72 907.725 1125.01 888.448C1117.89 889.465 1110.61 889.991 1103.21 889.991C1019.59 889.991 951.654 822.826 950.412 739.502C944.33 740.427 938.101 740.907 931.759 740.907C867.578 740.907 814.878 691.747 809.26 629.027C805.424 628.871 801.659 628.44 797.985 627.751C788.787 646.715 774.209 662.584 756.234 673.376C765.686 689.895 771.088 709.028 771.088 729.423C771.088 791.844 720.486 842.445 658.065 842.445C653.159 842.445 648.326 842.133 643.585 841.527C636.454 885.906 597.982 919.808 551.592 919.808C528.397 919.808 507.182 911.333 490.874 897.311C478.847 906.736 463.694 912.355 447.229 912.355C408.473 912.355 376.989 881.221 376.422 842.6C368.142 844.336 359.385 845.266 350.326 845.266C304.981 845.266 267.201 821.945 258.862 791.052C251.133 789.158 243.902 785.994 237.403 781.795C225.001 818.69 190.135 845.266 149.061 845.266C102.677 845.266 64.2083 811.373 57.07 767.002C42.0318 774.167 25.2008 778.178 7.43336 778.178C-43.633 778.178 -86.9618 745.048 -102.233 699.11C-113.501 706.676 -127.064 711.09 -141.657 711.09C-146.391 711.09 -151.016 710.625 -155.49 709.739C-164.072 749.08 -192.696 780.932 -230.125 794.059C-238.629 823.631 -265.884 845.266 -298.191 845.266C-330.854 845.266 -358.351 823.153 -366.53 793.082C-378.53 802.427 -393.618 807.994 -410.006 807.994C-449.116 807.994 -480.821 776.289 -480.821 737.179C-480.821 720.217 -474.857 704.648 -464.913 692.454C-474.857 680.26 -480.821 664.691 -480.821 647.729C-480.821 608.619 -449.116 576.914 -410.006 576.914C-399.551 576.914 -389.626 579.179 -380.694 583.246C-368.459 532.565 -322.814 494.916 -268.376 494.916C-227.337 494.916 -191.295 516.312 -170.797 548.558C-160.793 521.589 -134.832 502.371 -104.382 502.371C-71.3939 502.371 -43.6739 524.928 -35.8042 555.458C-34.7885 555.048 -33.7658 554.652 -32.7362 554.27C-33.2852 550.717 -33.5702 547.076 -33.5702 543.369C-33.5702 504.258 -1.86507 472.553 37.2452 472.553C76.3554 472.553 108.06 504.258 108.06 543.369C108.06 553.158 106.074 562.483 102.483 570.963C107.92 569.975 113.522 569.459 119.244 569.459C137.256 569.459 154.074 574.57 168.328 583.421C174.39 525.31 223.525 480.008 283.24 480.008C331.274 480.008 372.462 509.32 389.893 551.032C404.11 546.004 419.409 543.268 435.348 543.268C443.28 543.268 451.054 543.946 458.615 545.246C458.477 543.393 458.406 541.524 458.406 539.641C458.406 490.239 506.798 450.191 566.493 450.191C600.98 450.191 631.694 463.557 651.485 484.372C666.241 476.817 682.962 472.554 700.678 472.554C723.278 472.554 744.257 479.49 761.604 491.349C775.287 479.631 793.061 472.553 812.489 472.553C839.666 472.553 863.608 486.405 877.64 507.433C892.074 500.349 908.1 496.01 925.036 495.098C961.53 381.124 1068.35 298.612 1194.43 298.612C1320.97 298.612 1428.1 381.711 1464.22 496.314C1470.47 495.394 1476.87 494.917 1483.37 494.917C1555.42 494.917 1613.82 553.321 1613.82 625.366C1613.82 627.557 1613.77 629.735 1613.66 631.899C1627.23 634.501 1640.17 638.854 1652.25 644.714C1675.84 621.239 1708.36 606.731 1744.27 606.731C1816.31 606.731 1874.72 665.135 1874.72 737.18C1874.72 809.225 1816.31 867.629 1744.27 867.629C1735.58 867.629 1727.08 866.779 1718.87 865.158C1691.63 911.254 1641.43 942.172 1584.01 942.172C1497.55 942.172 1427.47 872.087 1427.47 785.632C1427.47 771.789 1429.26 758.365 1432.64 745.581C1430.62 744.729 1428.63 743.827 1426.67 742.878C1420.78 751.326 1414.45 759.438 1407.7 767.179C1420 781.004 1427.47 799.218 1427.47 819.176C1427.47 862.403 1392.43 897.446 1349.2 897.446C1347.94 897.446 1346.68 897.416 1345.43 897.357C1332.89 923.848 1305.91 942.172 1274.65 942.172ZM570.029 658.539C568.44 648.274 565.705 638.388 561.96 629.015C563.463 629.066 564.974 629.092 566.493 629.092C578.834 629.092 590.693 627.381 601.74 624.228C602.588 626.15 603.491 628.043 604.446 629.904C591.145 637.086 579.448 646.856 570.029 658.539ZM-566.549 666.364C-574.42 666.364 -581.853 668.241 -588.425 671.572C-597.276 659.958 -611.255 652.463 -626.985 652.463C-653.744 652.463 -675.437 674.156 -675.437 700.915C-675.437 727.675 -653.744 749.368 -626.985 749.368C-619.113 749.368 -611.68 747.491 -605.109 744.16C-596.257 755.774 -582.278 763.27 -566.549 763.27C-539.789 763.27 -518.096 741.577 -518.096 714.817C-518.096 688.057 -539.789 666.364 -566.549 666.364Z" fill="#CAC6C2"/>
<path fill-rule="evenodd" clip-rule="evenodd" d="M1140.04 935.523C1119.97 935.523 1101.88 927.056 1089.15 913.5C1083.06 914.86 1076.72 915.578 1070.22 915.578C1045.03 915.578 1022.36 904.802 1006.56 887.609C1000.21 888.516 993.722 888.985 987.121 888.985C912.54 888.985 851.951 829.081 850.844 754.764C845.42 755.589 839.866 756.017 834.212 756.017C776.969 756.017 729.966 712.172 724.955 656.233C721.534 656.094 718.176 655.709 714.899 655.095C699.285 687.285 666.29 709.478 628.112 709.478C588.703 709.478 554.818 685.832 539.87 651.954C530.018 654.765 519.443 656.291 508.437 656.291C455.196 656.291 412.035 620.572 412.035 576.51C412.035 532.449 455.196 496.73 508.437 496.73C539.194 496.73 566.588 508.651 584.239 527.214C597.399 520.477 612.311 516.675 628.112 516.675C648.268 516.675 666.98 522.862 682.452 533.439C694.655 522.988 710.508 516.675 727.835 516.675C752.074 516.675 773.427 529.029 785.943 547.783C800.508 540.634 816.891 536.62 834.212 536.62C847.492 536.62 860.221 538.98 872.002 543.303C881.801 539.006 892.63 536.62 904.016 536.62C909.384 536.62 914.628 537.151 919.699 538.161C940.082 526.019 963.901 519.045 989.349 519.045C992.743 519.045 996.107 519.169 999.439 519.412C994.505 500.784 991.877 481.219 991.877 461.039C991.877 335.45 1093.69 233.64 1219.28 233.64C1330.14 233.64 1422.48 312.983 1442.6 417.985C1484.32 368.366 1546.85 336.83 1616.75 336.83C1684.41 336.83 1745.16 366.38 1786.82 413.277C1812.3 403.398 1840.01 397.979 1868.99 397.979C1994.57 397.979 2096.38 499.789 2096.38 625.378C2096.38 750.967 1994.57 852.777 1868.99 852.777C1801.33 852.777 1740.57 823.227 1698.91 776.329C1689.76 779.879 1680.31 782.853 1670.63 785.206C1656.56 833.64 1611.85 869.04 1558.88 869.04C1551.13 869.04 1543.55 868.281 1536.23 866.835C1511.93 907.948 1467.16 935.523 1415.94 935.523C1338.84 935.523 1276.33 873.015 1276.33 795.907C1276.33 783.561 1277.93 771.588 1280.94 760.187C1256.05 749.67 1235.58 730.74 1223.1 706.962C1223.13 707.798 1223.14 708.637 1223.14 709.478C1223.14 726.64 1218.14 742.633 1209.51 756.08C1246.68 757.648 1276.33 788.274 1276.33 825.825C1276.33 864.379 1245.07 895.633 1206.52 895.633C1205.39 895.633 1204.28 895.607 1203.16 895.554C1191.98 919.181 1167.91 935.523 1140.04 935.523ZM614.812 722.775C584.03 722.775 557.157 739.511 542.795 764.38C539.163 761.834 535.318 759.571 531.292 757.623C527.097 715.654 491.677 682.885 448.604 682.885C410.613 682.885 378.577 708.377 368.666 743.188C354.276 734.592 335.794 729.424 315.635 729.424C314.262 729.424 312.897 729.448 311.54 729.495C310.771 724.61 309.442 719.911 307.621 715.465C338.259 697.606 358.849 664.394 358.849 626.374C358.849 569.461 312.712 523.324 255.799 523.324C202.54 523.324 158.718 563.727 153.311 615.554C140.599 607.662 125.6 603.104 109.536 603.104C104.433 603.104 99.437 603.564 94.5879 604.445C97.7908 596.882 99.5622 588.565 99.5622 579.835C99.5622 544.953 71.2847 516.675 36.4026 516.675C1.52054 516.675 -26.757 544.953 -26.757 579.835C-26.757 583.141 -26.5029 586.388 -26.0134 589.557C-26.9323 589.897 -27.8449 590.251 -28.7512 590.617C-35.7702 563.387 -60.4936 543.269 -89.9155 543.269C-117.074 543.269 -140.229 560.411 -149.152 584.465C-167.433 555.705 -199.579 536.621 -236.182 536.621C-284.735 536.621 -325.446 570.199 -336.358 615.4C-344.324 611.773 -353.176 609.753 -362.501 609.753C-397.383 609.753 -425.66 638.03 -425.66 672.912C-425.66 688.041 -420.341 701.927 -411.471 712.802C-420.341 723.678 -425.66 737.564 -425.66 752.693C-425.66 787.575 -397.383 815.852 -362.501 815.852C-347.885 815.852 -334.428 810.888 -323.726 802.552C-316.431 829.373 -291.906 849.094 -262.775 849.094C-233.96 849.094 -209.652 829.798 -202.068 803.423C-168.684 791.715 -143.154 763.306 -135.5 728.218C-131.509 729.009 -127.382 729.423 -123.159 729.423C-110.145 729.423 -98.0495 725.487 -87.9995 718.74C-74.3791 759.712 -35.7349 789.259 9.81032 789.259C25.6589 789.259 40.6721 785.681 54.0858 779.289C60.4513 818.865 94.7615 849.094 136.132 849.094C172.765 849.094 203.863 825.392 214.924 792.486C220.719 796.23 227.167 799.051 234.058 800.741C241.496 828.294 275.192 849.094 315.635 849.094C323.716 849.094 331.527 848.264 338.914 846.715C339.419 881.162 367.5 908.93 402.066 908.93C416.75 908.93 430.263 903.919 440.989 895.515C455.534 908.02 474.455 915.578 495.141 915.578C525.923 915.578 552.797 898.842 567.158 873.974C580.65 883.433 597.083 888.985 614.812 888.985C660.709 888.985 697.917 851.778 697.917 805.88C697.917 759.983 660.709 722.775 614.812 722.775ZM-544.383 741.776C-540.231 761.309 -522.883 775.962 -502.113 775.962C-478.246 775.962 -458.899 756.614 -458.899 732.748C-458.899 711.977 -473.553 694.628 -493.086 690.477C-497.238 670.945 -514.586 656.292 -535.356 656.292C-550.727 656.292 -564.224 664.317 -571.885 676.405C-578.609 672.09 -586.608 669.588 -595.192 669.588C-619.058 669.588 -638.406 688.936 -638.406 712.802C-638.406 736.669 -619.058 756.017 -595.192 756.017C-579.821 756.017 -566.324 747.992 -558.663 735.903C-554.364 738.662 -549.544 740.68 -544.383 741.776Z" fill="#FCF4EA"/>
<path fill-rule="evenodd" clip-rule="evenodd" d="M246.245 1408.01C268.104 1402.68 285.56 1388.65 295.832 1370.51C302.825 1370.37 309.912 1369.47 316.991 1367.74C344.431 1361.06 366.267 1343.3 378.91 1320.37C386.069 1319.67 393.265 1318.46 400.456 1316.71C481.697 1296.9 531.791 1215.56 513.263 1134.31C519.392 1133.77 525.558 1132.76 531.719 1131.26C594.074 1116.06 633.632 1055.82 624.236 993.552C627.926 992.493 631.481 991.182 634.887 989.643C648.315 1005.89 666.237 1017.85 686.256 1024.08C680.986 1042.37 680.269 1062.24 685.099 1082.05C699.882 1142.7 761.029 1179.87 821.673 1165.09C826.44 1163.93 831.061 1162.48 835.524 1160.77C852.962 1202.2 898.369 1226.02 943.44 1215.04C965.975 1209.54 984.579 1196.28 997.103 1178.8C1011.02 1185.11 1027.07 1186.98 1043.07 1183.08C1080.72 1173.9 1103.94 1136.2 1095.34 1098.54C1103.8 1098.26 1112.52 1097.09 1121.33 1094.95C1165.38 1084.21 1196.56 1052.6 1197.35 1020.62C1204.41 1016.94 1210.68 1012.16 1216 1006.54C1236.79 1039.45 1276.96 1057.01 1316.86 1047.28C1361.93 1036.3 1391.28 994.258 1387.7 949.458C1404.01 952.858 1421.31 952.768 1438.57 948.56C1488.19 936.466 1522.44 894.018 1526.39 845.769C1539.13 850.451 1553.36 851.528 1567.53 848.072C1572.13 846.95 1576.52 845.404 1580.65 843.483C1598.31 879.672 1633.66 903.839 1673.14 907.728C1688.4 934.445 1720 949.01 1751.39 941.358C1783.13 933.623 1804.6 905.626 1805.43 874.473C1819.3 880.711 1835.28 882.546 1851.2 878.665C1889.2 869.402 1912.49 831.09 1903.23 793.093C1899.21 776.613 1889.73 762.9 1877.18 753.408C1883.95 739.206 1886.06 722.667 1882.04 706.188C1872.78 668.19 1834.47 644.896 1796.47 654.158C1786.31 656.634 1777.21 661.186 1769.49 667.252C1745.6 620.911 1692.34 595.143 1639.45 608.036C1599.58 617.756 1569.63 647.079 1557.35 683.262C1541.25 659.43 1511.47 646.907 1481.89 654.119C1449.84 661.931 1428.25 690.411 1427.83 721.937C1426.75 721.779 1425.66 721.637 1424.57 721.509C1424.26 717.927 1423.68 714.322 1422.8 710.72C1413.54 672.723 1375.23 649.429 1337.23 658.691C1299.23 667.954 1275.94 706.266 1285.2 744.263C1287.52 753.774 1291.66 762.363 1297.15 769.751C1291.64 770.08 1286.07 770.905 1280.51 772.26C1263.01 776.526 1247.88 785.475 1236.13 797.449C1216.48 742.427 1158.01 710.052 1100 724.194C1053.33 735.57 1020.26 773.802 1013.2 818.456C998.197 816.938 982.684 817.903 967.199 821.678C959.492 823.557 952.1 826.056 945.062 829.111C944.758 827.277 944.383 825.445 943.938 823.616C932.237 775.619 875.737 748.171 817.741 762.308C784.235 770.476 757.56 790.737 743.263 815.646C727.137 811.801 709.882 811.62 692.67 815.815C670.713 821.168 651.974 832.875 637.929 848.505C621.86 840.361 602.915 837.694 584.04 842.295C557.637 848.731 537.656 867.859 529.003 891.612C513.302 888.148 496.705 887.728 480.034 890.853C417.586 788.765 294.267 733.897 171.767 763.759C48.8312 793.727 -35.567 899.834 -43.5187 1019.73C-49.8112 1020.32 -56.1388 1021.37 -62.4617 1022.91C-132.457 1039.97 -175.368 1110.55 -158.305 1180.54C-157.786 1182.67 -157.218 1184.77 -156.602 1186.85C-169.167 1192.59 -180.712 1199.89 -191.059 1208.44C-219.536 1191.22 -254.567 1184.83 -289.454 1193.33C-359.449 1210.39 -402.36 1280.97 -385.297 1350.96C-368.234 1420.96 -297.66 1463.87 -227.664 1446.81C-219.22 1444.75 -211.169 1441.91 -203.571 1438.39C-166.188 1476.72 -110.093 1494.87 -54.3052 1481.27C29.6894 1460.8 81.1819 1376.11 60.7067 1292.11C57.428 1278.66 52.5028 1266.05 46.1976 1254.43C47.955 1253.12 49.6756 1251.77 51.3583 1250.39C59.0757 1257.2 67.1499 1263.58 75.539 1269.5C66.866 1285.85 63.9218 1305.31 68.6487 1324.7C78.8863 1366.7 121.231 1392.45 163.228 1382.21C164.455 1381.91 165.667 1381.59 166.865 1381.23C185.326 1404 215.876 1415.41 246.245 1408.01ZM863.65 965.567C862.763 955.218 863.078 944.965 864.497 934.972C863.049 935.378 861.586 935.761 860.111 936.12C848.121 939.043 836.194 940.189 824.715 939.742C824.346 941.811 823.918 943.863 823.431 945.898C838.054 949.725 851.732 956.447 863.65 965.567ZM1969.75 703.99C1977.39 702.126 1985.06 702.189 1992.23 703.869C1998.08 690.489 2009.89 679.896 2025.17 676.17C2051.17 669.833 2077.38 685.771 2083.72 711.769C2090.06 737.768 2074.12 763.981 2048.12 770.319C2040.47 772.183 2032.81 772.12 2025.63 770.44C2019.78 783.82 2007.98 794.413 1992.7 798.138C1966.7 804.476 1940.48 788.538 1934.15 762.539C1927.81 736.541 1943.75 710.327 1969.75 703.99Z" fill="#CAC6C2"/>
<path fill-rule="evenodd" clip-rule="evenodd" d="M375.459 1369.67C394.955 1364.92 410.524 1352.41 419.685 1336.22C425.924 1336.1 432.247 1335.3 438.562 1333.76C463.035 1327.79 482.51 1311.95 493.786 1291.51C500.171 1290.88 506.589 1289.8 513.002 1288.24C585.461 1270.57 630.139 1198.03 613.613 1125.56C619.078 1125.08 624.576 1124.18 630.069 1122.84C685.684 1109.28 720.965 1055.55 712.585 1000.02C715.876 999.073 719.048 997.903 722.086 996.531C744.879 1024.11 782.192 1037.85 819.284 1028.81C857.571 1019.48 884.892 988.481 891.391 952.026C901.629 952.424 912.264 951.402 922.957 948.796C974.684 936.186 1008.16 891.262 997.722 848.454C987.286 805.646 936.894 781.165 885.168 793.774C855.285 801.058 831.495 819.128 818.742 841.344C804.361 837.914 788.973 837.753 773.622 841.495C754.039 846.269 737.324 856.711 724.798 870.651C710.466 863.388 693.57 861.009 676.736 865.113C653.186 870.853 635.366 887.913 627.648 909.098C611.804 905.602 594.937 905.582 578.109 909.684C565.207 912.829 553.399 918.137 542.976 925.127C532.438 923.272 521.352 923.52 510.29 926.216C505.076 927.487 500.106 929.244 495.42 931.427C472.741 924.458 447.948 923.323 423.223 929.35C419.926 930.154 416.686 931.071 413.507 932.097C413.888 912.831 411.808 893.199 407.029 873.593C377.286 751.578 254.26 676.776 132.244 706.52C24.5297 732.777 -46.3896 831.731 -41.0717 938.511C-93.3501 900.183 -161.571 884.354 -229.478 900.908C-295.214 916.932 -347.245 960.031 -376.608 1015.46C-403.708 1011.9 -431.911 1013.19 -460.061 1020.06C-582.077 1049.8 -656.879 1172.83 -627.135 1294.84C-597.391 1416.86 -474.366 1491.66 -352.35 1461.91C-286.615 1445.89 -234.584 1402.79 -205.22 1347.36C-195.484 1348.64 -185.604 1349.3 -175.636 1349.29C-150.497 1393.01 -98.6819 1416.82 -47.2174 1404.27C-39.6852 1402.44 -32.5046 1399.91 -25.7272 1396.76C7.61415 1430.95 57.6445 1447.14 107.402 1435.01C182.316 1416.75 228.241 1341.22 209.98 1266.3C207.056 1254.31 202.663 1243.05 197.04 1232.69C218.73 1216.58 234.131 1193.34 240.625 1167.28C240.799 1168.1 240.986 1168.92 241.186 1169.74C245.25 1186.41 253.898 1200.76 265.462 1211.78C229.725 1222.11 208.172 1258.89 217.066 1295.37C226.196 1332.83 263.963 1355.79 301.42 1346.66C302.513 1346.39 303.593 1346.1 304.661 1345.79C321.126 1366.09 348.373 1376.27 375.459 1369.67ZM835.354 1038.58C865.261 1031.29 895.333 1041.19 915.176 1061.95C918.101 1058.61 921.301 1055.5 924.751 1052.66C918.888 1010.89 945.539 970.664 987.387 960.463C1024.3 951.465 1061.46 968.644 1079.33 1000.12C1091.28 988.358 1108.01 978.96 1127.59 974.186C1128.93 973.861 1130.26 973.561 1131.59 973.285C1131.18 968.357 1131.36 963.477 1132.07 958.726C1098.08 948.631 1070.21 921.241 1061.2 884.302C1047.72 829.008 1081.62 773.257 1136.92 759.778C1188.66 747.165 1240.8 776.04 1258.33 825.112C1268.81 814.434 1282.31 806.453 1297.91 802.649C1302.87 801.441 1307.83 800.704 1312.75 800.411C1307.85 793.822 1304.16 786.162 1302.09 777.68C1293.83 743.79 1314.61 709.62 1348.5 701.359C1382.39 693.097 1416.56 713.873 1424.82 747.763C1425.6 750.975 1426.12 754.189 1426.4 757.384C1427.37 757.498 1428.34 757.625 1429.31 757.766C1429.68 729.648 1448.93 704.247 1477.52 697.279C1503.91 690.847 1530.46 702.017 1544.83 723.275C1555.78 691.002 1582.49 664.848 1618.05 656.179C1665.22 644.68 1712.73 667.662 1734.03 708.992C1740.91 703.582 1749.04 699.522 1758.1 697.314C1791.98 689.053 1826.15 709.829 1834.42 743.719C1838 758.417 1836.12 773.167 1830.08 785.834C1841.27 794.3 1849.73 806.531 1853.31 821.229C1861.57 855.119 1840.8 889.289 1806.91 897.55C1792.71 901.012 1778.46 899.375 1766.08 893.812C1765.35 921.597 1746.19 946.566 1717.89 953.465C1689.9 960.289 1661.71 947.299 1648.09 923.471C1612.89 920.002 1581.36 898.448 1565.61 866.171C1561.92 867.884 1558.01 869.264 1553.9 870.265C1541.26 873.347 1528.58 872.387 1517.22 868.212C1513.69 911.244 1483.14 949.103 1438.89 959.889C1423.49 963.643 1408.06 963.722 1393.51 960.689C1396.7 1000.65 1370.53 1038.14 1330.33 1047.94C1294.74 1056.62 1258.92 1040.95 1240.38 1011.6C1235.63 1016.61 1230.04 1020.88 1223.74 1024.15C1223.04 1052.68 1195.23 1080.87 1155.94 1090.45C1148.09 1092.37 1140.3 1093.41 1132.76 1093.65C1140.42 1127.24 1119.72 1160.87 1086.14 1169.06C1071.87 1172.53 1057.55 1170.86 1045.14 1165.24C1033.97 1180.83 1017.38 1192.66 997.283 1197.56C967.376 1204.85 937.304 1194.95 917.461 1174.19C906.593 1186.58 891.943 1195.86 874.718 1200.06C830.126 1210.93 785.166 1183.6 774.296 1139C763.426 1094.41 790.762 1049.45 835.354 1038.58ZM1966.07 782.506C1966.66 802.466 1953.28 820.811 1933.1 825.73C1909.91 831.383 1886.53 817.167 1880.88 793.98C1875.96 773.8 1886.09 753.474 1904.08 744.815C1903.49 724.855 1916.88 706.51 1937.05 701.591C1951.99 697.951 1967 702.551 1977.31 712.482C1982.82 706.697 1990 702.371 1998.34 700.338C2021.52 694.686 2044.9 708.901 2050.56 732.089C2056.21 755.276 2041.99 778.656 2018.81 784.308C2003.87 787.949 1988.86 783.348 1978.55 773.418C1975.03 777.116 1970.82 780.218 1966.07 782.506Z" fill="#FCF4EA"/>
<g clip-path="url(#clip0_1265_12991)">
<path fill-rule="evenodd" clip-rule="evenodd" d="M965.626 271.986C973.887 266.028 969.282 252.77 959.141 253.711L953.269 254.255C951.685 254.256 949.99 254.29 948.179 254.362C947.363 254.394 946.67 254.488 945.889 254.727C945.601 254.816 945.289 254.911 944.954 255.015C944.919 255.026 944.883 255.033 944.846 255.036L944.073 255.108C944.023 255.113 943.995 255.17 944.023 255.212C944.048 255.25 944.042 255.297 943.999 255.31C911.759 265.319 711.113 330.055 595.615 367.377C587.718 369.929 580.392 362.286 583.187 354.472L589.171 337.745C591.992 329.858 584.447 322.205 576.521 324.914L360.717 398.665C353.229 401.224 345.877 394.486 347.775 386.804L354.715 358.708C356.513 351.429 349.959 344.834 342.669 346.586L142.428 394.723C139.736 395.532 134.458 395.928 129.254 393.505C124.537 391.308 124.885 384.915 128.046 380.781C129.113 379.385 130.192 377.934 131.21 376.54C133.681 373.153 133.649 368.577 131.233 365.15L128.284 360.966C126.92 359.031 126.286 356.675 126.497 354.317L127.953 337.969C128.316 333.897 131.12 330.457 135.035 329.28L136.157 328.943C138.917 328.113 141.185 326.133 142.38 323.51L149.819 307.176C150.888 304.827 151.029 302.154 150.089 299.751C136.874 265.963 101.726 223.01 54.6182 294.247C53.6015 295.785 53.0185 297.67 52.9788 299.513C51.7447 356.961 50.5344 391.774 49.8436 407.492C49.6507 411.879 46.5741 415.566 42.3098 416.615L-180.53 471.396C-185.049 472.507 -188.205 476.588 -188.142 481.241L-187.202 551.303C-187.115 557.778 -180.99 562.465 -174.717 560.855L38.0273 506.254C44.1859 504.674 50.2364 509.166 50.5044 515.519L55.3959 631.496C55.472 633.299 56.0138 635.054 57.0783 636.511C70.6925 655.148 103.72 676.308 141.055 629.831C143.041 627.359 143.62 624.034 142.707 620.998L135.233 596.133C134.966 595.242 134.576 594.398 134.074 593.615L126.576 581.93C125.566 580.357 125.018 578.533 124.993 576.664L124.584 546.241C124.558 544.28 125.109 542.355 126.168 540.705L132.173 531.351C134.907 527.092 134.028 521.462 130.126 518.239L126.877 515.556C124.496 513.589 123.157 510.632 123.25 507.545L123.528 498.304C123.56 497.229 123.742 496.157 124.252 495.21C126.598 490.849 133.393 483.321 146.989 479.234C161.246 474.949 195.444 467.687 213.947 463.939C216.374 463.448 218.527 462.078 219.997 460.086C222.935 456.104 228.353 454.887 232.712 457.229L233.93 457.883C236.245 459.126 238.957 459.409 241.479 458.669L255.943 454.423C264.031 452.05 271.247 460.131 267.976 467.899L265.776 473.123C264.734 475.599 264.731 478.39 265.769 480.867L267.637 485.328C269.667 490.176 275.103 492.625 280.079 490.933L520.013 409.382C527.201 406.938 534.383 413.082 533.083 420.562L529.558 440.849C528.204 448.64 536.001 454.846 543.29 451.778L958.107 277.168C958.223 277.119 958.337 277.069 958.45 277.016C958.476 277.004 958.507 277.013 958.522 277.036C958.54 277.063 958.577 277.07 958.603 277.051L959.163 276.647C959.296 276.571 959.427 276.491 959.556 276.408C961.611 275.079 963.709 273.573 965.626 271.986Z" fill="#8E4440"/>
<path d="M307.646 401.728L-185.134 520.78C-186.491 521.148 -187.829 520.133 -187.841 518.727L-188.161 481.093C-188.2 476.478 -185.076 472.436 -180.601 471.31L42.2783 415.229C46.6106 414.138 49.6943 410.314 49.8315 405.849C50.6555 379.043 52.1085 330.301 52.8877 298.919C52.9334 297.078 53.5194 295.23 54.5404 293.697C100.638 224.494 136.399 266.396 150.167 299.472C151.192 301.935 151.065 304.704 149.946 307.126L142.479 323.291C141.193 326.073 138.684 328.097 135.692 328.764C131.424 329.715 128.297 333.371 128.019 337.735L126.971 354.227C126.82 356.609 127.525 358.967 128.961 360.874L131.305 363.988C133.941 367.492 133.995 372.307 131.357 375.809C130.091 377.489 128.728 379.272 127.388 380.979C124.401 384.786 124.086 390.508 128.297 392.891C133.612 395.898 139.221 395.876 142.037 395.248L343.077 346.628C350.436 344.848 357.027 351.575 355.097 358.897L347.924 386.106C345.892 393.815 353.256 400.687 360.806 398.125L576.725 324.875C584.662 322.183 592.192 329.863 589.343 337.745L583.255 354.587C580.43 362.402 587.817 370.054 595.727 367.504L945.943 254.617C946.409 254.467 946.89 254.371 947.377 254.33C954.832 253.712 957.112 264.197 950.074 266.73L565.166 405.253C557.835 407.892 550.437 401.504 551.977 393.867L553.467 386.476C554.974 379.004 547.902 372.661 540.637 374.969L327.787 442.595C320.218 444.999 313.001 438.047 315.122 430.394L319.631 414.118C321.668 406.769 315.059 399.937 307.646 401.728Z" fill="url(#paint0_linear_1265_12991)"/>
<path d="M180.415 432.429L-185.136 520.78C-186.493 521.148 -187.831 520.133 -187.843 518.727L-188.162 481.093C-188.202 476.478 -185.078 472.436 -180.603 471.31L42.2768 415.228C46.6091 414.138 49.6928 410.314 49.83 405.849C50.654 379.043 52.1069 330.301 52.8862 298.919C52.9319 297.078 53.5179 295.23 54.5389 293.697C100.637 224.494 136.397 266.396 150.165 299.472C151.191 301.935 151.064 304.704 149.945 307.126L142.477 323.291C141.192 326.073 138.682 328.097 135.691 328.764C131.422 329.715 128.295 333.371 128.018 337.735L126.97 354.227C126.818 356.609 127.524 358.967 128.959 360.874L131.303 363.988C133.94 367.492 134.035 372.337 131.495 375.911C130.04 377.959 128.493 380.049 126.852 381.996C125.979 383.032 125.149 384.21 125.071 385.563C124.26 399.549 175.894 389.15 210.396 380.747C219.839 378.447 226.252 388.893 219.776 396.139L214.5 402.041L184.934 429.977C183.667 431.174 182.109 432.019 180.415 432.429Z" fill="#C5960D" fill-opacity="0.13"/>
<path d="M313.5 399.041L-185.135 520.78C-186.492 521.148 -187.83 520.133 -187.842 518.727L-188.162 481.093C-188.201 476.478 -185.077 472.436 -180.602 471.31L42.2771 415.228C46.6094 414.138 49.6931 410.314 49.8304 405.849C50.6543 379.043 52.1073 330.301 52.8865 298.919C52.9322 297.078 53.5183 295.23 54.5392 293.697C100.637 224.494 136.398 266.396 150.166 299.472C151.191 301.935 151.064 304.704 149.945 307.126L142.478 323.291C141.192 326.073 138.683 328.097 135.691 328.764C131.423 329.715 128.296 333.371 128.018 337.735L126.97 354.226C126.819 356.609 127.524 358.967 128.96 360.874L131.303 363.988C133.94 367.491 133.994 372.307 131.356 375.809C130.09 377.489 128.727 379.272 127.387 380.979C124.4 384.785 124.085 390.508 128.296 392.89C133.611 395.897 139.22 395.876 142.036 395.248L341.104 345.729C350.408 343.415 357.321 354.253 351.3 361.714L325.841 393.261C324.639 394.75 323.036 395.863 321.221 396.467L313.5 399.041Z" fill="#C5960D" fill-opacity="0.13"/>
<path d="M307.646 401.728L-185.135 520.78C-186.492 521.148 -187.83 520.133 -187.842 518.727L-188.161 481.093C-188.201 476.478 -185.077 472.436 -180.602 471.31L42.2776 415.228C46.6099 414.138 49.6936 410.314 49.8308 405.849C50.6548 379.043 52.1078 330.301 52.887 298.919C52.9327 297.078 53.5187 295.23 54.5397 293.697C100.637 224.494 136.398 266.396 150.166 299.472C151.191 301.935 151.064 304.704 149.945 307.126L142.478 323.291C141.193 326.073 138.683 328.097 135.691 328.764C131.423 329.715 128.296 333.371 128.019 337.735L126.97 354.226C126.819 356.609 127.525 358.967 128.96 360.874L131.304 363.988C133.94 367.491 133.994 372.307 131.356 375.809C130.09 377.489 128.727 379.272 127.387 380.979C124.4 384.785 124.085 390.508 128.297 392.89C133.612 395.897 139.221 395.876 142.037 395.248L343.076 346.628C350.436 344.848 357.027 351.575 355.097 358.897L347.923 386.106C345.891 393.815 353.256 400.687 360.806 398.125L565.222 328.778C574.583 325.602 582.385 336.487 576.37 344.332L558.737 367.331C557.492 368.955 555.779 370.158 553.829 370.777L327.786 442.595C320.217 444.999 313 438.047 315.121 430.394L319.631 414.118C321.667 406.769 315.058 399.937 307.646 401.728Z" fill="#C5960D" fill-opacity="0.13"/>
<path fill-rule="evenodd" clip-rule="evenodd" d="M458.519 276.986C450.259 271.028 454.864 257.77 465.005 258.711L470.876 259.255C472.461 259.256 474.156 259.29 475.967 259.362C476.783 259.394 477.476 259.488 478.257 259.727C478.545 259.816 478.856 259.911 479.191 260.015C479.226 260.026 479.263 260.033 479.299 260.036L480.072 260.108C480.123 260.113 480.15 260.17 480.122 260.212C480.097 260.25 480.104 260.297 480.147 260.31C512.386 270.319 713.032 335.055 828.53 372.377C836.427 374.929 843.754 367.286 840.959 359.472L834.975 342.745C832.154 334.858 839.698 327.205 847.625 329.914L1063.43 403.665C1070.92 406.224 1078.27 399.486 1076.37 391.804L1069.43 363.708C1067.63 356.429 1074.19 349.834 1081.48 351.586L1281.72 399.723C1284.41 400.532 1289.69 400.928 1294.89 398.505C1299.61 396.308 1299.26 389.915 1296.1 385.781C1295.03 384.385 1293.95 382.934 1292.94 381.54C1290.46 378.153 1290.5 373.577 1292.91 370.15L1295.86 365.966C1297.23 364.031 1297.86 361.675 1297.65 359.317L1296.19 342.969C1295.83 338.897 1293.03 335.457 1289.11 334.28L1287.99 333.943C1285.23 333.113 1282.96 331.133 1281.77 328.51L1274.33 312.176C1273.26 309.827 1273.12 307.154 1274.06 304.751C1287.27 270.963 1322.42 228.01 1369.53 299.247C1370.54 300.785 1371.13 302.67 1371.17 304.513C1372.4 361.961 1373.61 396.774 1374.3 412.492C1374.49 416.879 1377.57 420.566 1381.84 421.615L1604.68 476.396C1609.19 477.507 1612.35 481.588 1612.29 486.241L1611.35 556.303C1611.26 562.778 1605.14 567.465 1598.86 565.855L1386.12 511.254C1379.96 509.674 1373.91 514.166 1373.64 520.519L1368.75 636.496C1368.67 638.299 1368.13 640.054 1367.07 641.511C1353.45 660.148 1320.43 681.308 1283.09 634.831C1281.1 632.359 1280.53 629.034 1281.44 625.998L1288.91 601.133C1289.18 600.242 1289.57 599.398 1290.07 598.615L1297.57 586.93C1298.58 585.357 1299.13 583.533 1299.15 581.664L1299.56 551.241C1299.59 549.28 1299.04 547.355 1297.98 545.705L1291.97 536.351C1289.24 532.092 1290.12 526.462 1294.02 523.239L1297.27 520.556C1299.65 518.589 1300.99 515.632 1300.9 512.545L1300.62 503.304C1300.59 502.229 1300.4 501.157 1299.89 500.21C1297.55 495.849 1290.75 488.321 1277.16 484.234C1262.9 479.949 1228.7 472.687 1210.2 468.939C1207.77 468.448 1205.62 467.078 1204.15 465.086C1201.21 461.104 1195.79 459.887 1191.43 462.229L1190.22 462.883C1187.9 464.126 1185.19 464.409 1182.67 463.669L1168.2 459.423C1160.11 457.05 1152.9 465.131 1156.17 472.899L1158.37 478.123C1159.41 480.599 1159.41 483.39 1158.38 485.867L1156.51 490.328C1154.48 495.176 1149.04 497.625 1144.07 495.933L904.133 414.382C896.944 411.938 889.762 418.082 891.062 425.562L894.588 445.849C895.942 453.64 888.144 459.846 880.856 456.778L466.038 282.168C465.923 282.119 465.809 282.069 465.695 282.016C465.67 282.004 465.639 282.013 465.623 282.036C465.605 282.063 465.569 282.07 465.542 282.051L464.982 281.647C464.849 281.571 464.718 281.491 464.589 281.408C462.535 280.079 460.437 278.573 458.519 276.986Z" fill="#8E4440"/>
<path d="M1116.5 406.728L1609.28 525.78C1610.64 526.148 1611.97 525.133 1611.99 523.727L1612.31 486.093C1612.35 481.478 1609.22 477.436 1604.75 476.31L1381.87 420.229C1377.53 419.138 1374.45 415.314 1374.31 410.849C1373.49 384.043 1372.04 335.301 1371.26 303.919C1371.21 302.078 1370.63 300.23 1369.61 298.697C1323.51 229.494 1287.75 271.396 1273.98 304.472C1272.95 306.935 1273.08 309.704 1274.2 312.126L1281.67 328.291C1282.95 331.073 1285.46 333.097 1288.45 333.764C1292.72 334.715 1295.85 338.371 1296.13 342.735L1297.17 359.227C1297.33 361.609 1296.62 363.967 1295.18 365.874L1292.84 368.988C1290.2 372.492 1290.15 377.307 1292.79 380.809C1294.05 382.489 1295.42 384.272 1296.76 385.979C1299.74 389.786 1300.06 395.508 1295.85 397.891C1290.53 400.898 1284.92 400.876 1282.11 400.248L1081.07 351.628C1073.71 349.848 1067.12 356.575 1069.05 363.897L1076.22 391.106C1078.25 398.815 1070.89 405.687 1063.34 403.125L847.42 329.875C839.483 327.183 831.954 334.863 834.803 342.745L840.891 359.587C843.716 367.402 836.328 375.054 828.418 372.504L478.202 259.617C477.737 259.467 477.256 259.371 476.768 259.33C469.313 258.712 467.033 269.197 474.072 271.73L858.98 410.253C866.311 412.892 873.709 406.504 872.169 398.867L870.678 391.476C869.171 384.004 876.244 377.661 883.509 379.969L1096.36 447.595C1103.93 449.999 1111.14 443.047 1109.02 435.394L1104.51 419.118C1102.48 411.769 1109.09 404.937 1116.5 406.728Z" fill="url(#paint1_linear_1265_12991)"/>
<path d="M1243.73 437.429L1609.28 525.78C1610.64 526.148 1611.98 525.133 1611.99 523.727L1612.31 486.093C1612.35 481.478 1609.22 477.436 1604.75 476.31L1381.87 420.228C1377.54 419.138 1374.45 415.314 1374.32 410.849C1373.49 384.043 1372.04 335.301 1371.26 303.919C1371.21 302.078 1370.63 300.23 1369.61 298.697C1323.51 229.494 1287.75 271.396 1273.98 304.472C1272.96 306.935 1273.08 309.704 1274.2 312.126L1281.67 328.291C1282.95 331.073 1285.46 333.097 1288.46 333.764C1292.72 334.715 1295.85 338.371 1296.13 342.735L1297.18 359.227C1297.33 361.609 1296.62 363.967 1295.19 365.874L1292.84 368.988C1290.21 372.492 1290.11 377.337 1292.65 380.911C1294.11 382.959 1295.65 385.049 1297.29 386.996C1298.17 388.032 1299 389.21 1299.08 390.563C1299.89 404.549 1248.25 394.15 1213.75 385.747C1204.31 383.447 1197.89 393.893 1204.37 401.139L1209.65 407.041L1239.21 434.977C1240.48 436.174 1242.04 437.019 1243.73 437.429Z" fill="#C5960D" fill-opacity="0.13"/>
<path d="M1110.65 404.041L1609.28 525.78C1610.64 526.148 1611.98 525.133 1611.99 523.727L1612.31 486.093C1612.35 481.478 1609.22 477.436 1604.75 476.31L1381.87 420.228C1377.54 419.138 1374.45 415.314 1374.32 410.849C1373.49 384.043 1372.04 335.301 1371.26 303.919C1371.21 302.078 1370.63 300.23 1369.61 298.697C1323.51 229.494 1287.75 271.396 1273.98 304.472C1272.95 306.935 1273.08 309.704 1274.2 312.126L1281.67 328.291C1282.95 331.073 1285.46 333.097 1288.45 333.764C1292.72 334.715 1295.85 338.371 1296.13 342.735L1297.18 359.226C1297.33 361.609 1296.62 363.967 1295.19 365.874L1292.84 368.988C1290.21 372.491 1290.15 377.307 1292.79 380.809C1294.06 382.489 1295.42 384.272 1296.76 385.979C1299.75 389.785 1300.06 395.508 1295.85 397.89C1290.53 400.897 1284.93 400.876 1282.11 400.248L1083.04 350.729C1073.74 348.415 1066.82 359.253 1072.85 366.714L1098.3 398.261C1099.51 399.75 1101.11 400.863 1102.92 401.467L1110.65 404.041Z" fill="#C5960D" fill-opacity="0.13"/>
<path d="M1116.5 406.728L1609.28 525.78C1610.64 526.148 1611.98 525.133 1611.99 523.727L1612.31 486.093C1612.35 481.478 1609.22 477.436 1604.75 476.31L1381.87 420.228C1377.54 419.138 1374.45 415.314 1374.31 410.849C1373.49 384.043 1372.04 335.301 1371.26 303.919C1371.21 302.078 1370.63 300.23 1369.61 298.697C1323.51 229.494 1287.75 271.396 1273.98 304.472C1272.95 306.935 1273.08 309.704 1274.2 312.126L1281.67 328.291C1282.95 331.073 1285.46 333.097 1288.45 333.764C1292.72 334.715 1295.85 338.371 1296.13 342.735L1297.18 359.226C1297.33 361.609 1296.62 363.967 1295.19 365.874L1292.84 368.988C1290.21 372.491 1290.15 377.307 1292.79 380.809C1294.06 382.489 1295.42 384.272 1296.76 385.979C1299.75 389.785 1300.06 395.508 1295.85 397.89C1290.53 400.897 1284.92 400.876 1282.11 400.248L1081.07 351.628C1073.71 349.848 1067.12 356.575 1069.05 363.897L1076.22 391.106C1078.25 398.815 1070.89 405.687 1063.34 403.125L858.924 333.778C849.562 330.602 841.76 341.487 847.775 349.332L865.409 372.331C866.653 373.955 868.366 375.158 870.316 375.777L1096.36 447.595C1103.93 449.999 1111.15 443.047 1109.02 435.394L1104.51 419.118C1102.48 411.769 1109.09 404.937 1116.5 406.728Z" fill="#C5960D" fill-opacity="0.13"/>
</g>
</g>
<defs>
<filter id="filter0_d_1265_12991" x="-679.438" y="0.352051" width="2794.68" height="1493.41" filterUnits="userSpaceOnUse" color-interpolation-filters="sRGB">
<feFlood flood-opacity="0" result="BackgroundImageFix"/>
<feColorMatrix in="SourceAlpha" type="matrix" values="0 0 0 0 0 0 0 0 0 0 0 0 0 0 0 0 0 0 127 0" result="hardAlpha"/>
<feOffset dy="4"/>
<feGaussianBlur stdDeviation="2"/>
<feComposite in2="hardAlpha" operator="out"/>
<feColorMatrix type="matrix" values="0 0 0 0 0 0 0 0 0 0 0 0 0 0 0 0 0 0 0.25 0"/>
<feBlend mode="normal" in2="BackgroundImageFix" result="effect1_dropShadow_1265_12991"/>
<feBlend mode="normal" in="SourceGraphic" in2="effect1_dropShadow_1265_12991" result="shape"/>
</filter>
<linearGradient id="paint0_linear_1265_12991" x1="-321.145" y1="514.142" x2="346.766" y2="382.091" gradientUnits="userSpaceOnUse">
<stop stop-color="#C5960D"/>
<stop offset="1" stop-color="#BD720B"/>
</linearGradient>
<linearGradient id="paint1_linear_1265_12991" x1="1745.29" y1="519.142" x2="1077.38" y2="387.091" gradientUnits="userSpaceOnUse">
<stop stop-color="#C5960D"/>
<stop offset="1" stop-color="#BD720B"/>
</linearGradient>
<clipPath id="clip0_1265_12991">
<rect width="1440" height="797" fill="white" transform="translate(-0.5 25.541)"/>
</clipPath>
</defs>
</svg>
