<svg width="1382" height="426" viewBox="0 0 1382 426" fill="none" xmlns="http://www.w3.org/2000/svg">
<path d="M817.861 414.068L1122.77 426L1349.02 387.996L1170.23 337.176L1520 283.705L1211.84 249.237L1337.31 193.114H988.845L1035.65 171.461L832.164 155.552L875.723 143.62L750.898 132.131L1035.65 116.222L875.723 86.6141L832.164 80.8693L875.723 74.6826H724.893L1061.66 21.6535L847.117 0L724.893 35.3527H631.925L669.632 47.2842H107.271L167.733 74.6826H89.7177L107.271 86.6141L0 98.5456L501.899 155.552L371.223 171.461L411.531 193.114L295.808 216.977L411.531 226.699L243.148 264.261H797.707L704.739 291.66H771.702L750.898 317.29H434.936L298.409 337.176H585.766L470.043 360.598H847.117L771.702 396.392H875.723L817.861 414.068Z" fill="url(#paint0_radial_500_3275)" fill-opacity="0.28"/>
<defs>
<radialGradient id="paint0_radial_500_3275" cx="0" cy="0" r="1" gradientUnits="userSpaceOnUse" gradientTransform="translate(828.263 232.002) rotate(3.1529) scale(827.566 1204.54)">
<stop stop-color="white" stop-opacity="0.8"/>
<stop offset="1" stop-color="white" stop-opacity="0"/>
</radialGradient>
</defs>
</svg>
