<svg width="1440" height="5553" viewBox="0 0 1440 5553" fill="none" xmlns="http://www.w3.org/2000/svg">
<rect x="-12" y="344" width="1453" height="5209" fill="url(#paint0_linear_523_4154)"/>
<path d="M-5 2347V3015.5L715 255.155H323.5H-5V2347Z" fill="url(#paint1_linear_523_4154)" fill-opacity="0.13"/>
<path d="M-5 912.157V1812.87L715 245H-5V912.157Z" fill="url(#paint2_linear_523_4154)" fill-opacity="0.13"/>
<path d="M-5 912.157V953.791L715 245H-5V912.157Z" fill="#E6B93D" fill-opacity="0.13"/>
<path d="M1435 922.311V963.945L715 255.154H1435V922.311Z" fill="#E6B93D" fill-opacity="0.13"/>
<path d="M1435 922.311V1823.02L715 255.155H1435V922.311Z" fill="url(#paint3_linear_523_4154)" fill-opacity="0.13"/>
<path d="M1440 2288.85V2957.35L720 197H1111.5H1440V2288.85Z" fill="url(#paint4_linear_523_4154)" fill-opacity="0.13"/>
<path d="M0 413L0 4L1448 4L1446.99 412.909L1102.09 407.327L707.5 335.5L588.5 369L276.5 383L0 413Z" fill="#5D242A"/>
<path fill-rule="evenodd" clip-rule="evenodd" d="M966.126 246.445V246.445C974.386 240.487 969.781 227.229 959.64 228.17L953.769 228.714C952.184 228.715 950.49 228.749 948.678 228.821C947.862 228.853 947.169 228.947 946.388 229.186C946.1 229.274 945.789 229.37 945.454 229.474C945.419 229.484 945.383 229.492 945.346 229.495L944.573 229.567C944.522 229.571 944.495 229.629 944.523 229.671V229.671C944.548 229.709 944.541 229.756 944.498 229.769C912.259 239.778 711.613 304.514 596.115 341.836C588.218 344.388 580.891 336.745 583.686 328.931L589.67 312.203C592.491 304.317 584.947 296.664 577.02 299.373L361.216 373.124C353.729 375.683 346.377 368.945 348.274 361.263L355.214 333.167C357.012 325.888 350.458 319.293 343.169 321.045L142.928 369.181C140.235 369.991 134.958 370.387 129.753 367.964C125.036 365.767 125.385 359.374 128.546 355.24C129.613 353.844 130.692 352.393 131.709 350.999C134.18 347.612 134.148 343.036 131.733 339.609L128.783 335.425C127.419 333.49 126.786 331.134 126.996 328.776L128.453 312.428C128.816 308.356 131.62 304.915 135.535 303.739L136.657 303.402C139.417 302.572 141.685 300.592 142.879 297.969L150.318 281.635C151.388 279.286 151.528 276.613 150.588 274.21C137.373 240.422 102.225 197.469 55.1177 268.706C54.1011 270.244 53.518 272.129 53.4783 273.972C52.2443 331.419 51.0339 366.233 50.3431 381.951C50.1502 386.338 47.0736 390.025 42.8093 391.074L-180.031 445.855C-184.55 446.966 -187.705 451.047 -187.643 455.7L-186.703 525.762C-186.616 532.237 -180.491 536.924 -174.218 535.314L38.5268 480.713C44.6854 479.133 50.7359 483.625 51.0039 489.978L55.8955 605.955C55.9715 607.758 56.5133 609.513 57.5779 610.97C71.192 629.607 104.22 650.766 141.555 604.29C143.54 601.818 144.119 598.493 143.207 595.457L135.733 570.592C135.465 569.701 135.076 568.857 134.574 568.074L127.075 556.389C126.066 554.816 125.517 552.992 125.492 551.123L125.084 520.7C125.058 518.739 125.608 516.814 126.668 515.164L132.672 505.81C135.406 501.551 134.527 495.92 130.625 492.698L127.377 490.015C124.996 488.048 123.657 485.091 123.75 482.004L124.028 472.763C124.06 471.688 124.242 470.616 124.751 469.669C127.098 465.308 133.892 457.779 147.488 453.693C161.746 449.408 195.943 442.145 214.447 438.398C216.873 437.907 219.026 436.537 220.496 434.545C223.435 430.563 228.853 429.346 233.212 431.688L234.43 432.342C236.745 433.585 239.457 433.868 241.978 433.127L256.443 428.882C264.53 426.509 271.746 434.59 268.476 442.358L266.276 447.582C265.234 450.058 265.231 452.848 266.268 455.326L268.137 459.787C270.167 464.635 275.603 467.084 280.579 465.392L520.512 383.841C527.701 381.397 534.883 387.541 533.583 395.021L530.057 415.308C528.703 423.099 536.501 429.305 543.789 426.237L958.607 251.627C958.722 251.578 958.836 251.528 958.95 251.475C958.975 251.463 959.006 251.472 959.022 251.495V251.495C959.04 251.522 959.076 251.529 959.103 251.51L959.663 251.106C959.796 251.03 959.927 250.95 960.056 250.867C962.11 249.538 964.208 248.032 966.126 246.445Z" fill="#8E4440"/>
<path d="M308.146 376.187L-184.635 495.239C-185.992 495.607 -187.33 494.592 -187.342 493.186L-187.661 455.552C-187.7 450.937 -184.577 446.895 -180.102 445.769L42.7776 389.687C47.1099 388.597 50.1936 384.773 50.3308 380.308C51.1547 353.502 52.6077 304.76 53.3869 273.378C53.4327 271.537 54.0187 269.689 55.0396 268.156C101.137 198.953 136.898 240.855 150.666 273.931C151.691 276.394 151.564 279.163 150.445 281.585L142.978 297.75C141.693 300.532 139.183 302.556 136.192 303.223C131.923 304.174 128.796 307.83 128.519 312.194L127.47 328.686C127.319 331.068 128.025 333.426 129.46 335.333L131.804 338.447C134.44 341.95 134.494 346.766 131.856 350.268C130.59 351.948 129.227 353.731 127.887 355.438C124.9 359.244 124.585 364.967 128.797 367.349C134.112 370.356 139.721 370.335 142.537 369.707L343.576 321.087C350.936 319.307 357.527 326.034 355.596 333.356L348.423 360.565C346.391 368.274 353.756 375.146 361.306 372.584L577.225 299.334C585.162 296.642 592.691 304.321 589.842 312.204L583.754 329.046C580.929 336.861 588.317 344.513 596.226 341.963L946.442 229.076C946.908 228.926 947.389 228.829 947.877 228.789C955.331 228.171 957.611 238.656 950.573 241.189L565.665 379.712C558.334 382.35 550.936 375.963 552.476 368.326L553.967 360.935C555.474 353.463 548.401 347.12 541.136 349.428L328.286 417.054C320.717 419.458 313.5 412.506 315.621 404.853L320.131 388.577C322.167 381.228 315.558 374.396 308.146 376.187Z" fill="url(#paint5_linear_523_4154)"/>
<path d="M180.915 406.888L-184.636 495.239C-185.993 495.607 -187.331 494.592 -187.343 493.186L-187.663 455.552C-187.702 450.937 -184.579 446.895 -180.103 445.769L42.7763 389.687C47.1086 388.597 50.1923 384.773 50.3295 380.308C51.1535 353.502 52.6064 304.76 53.3857 273.378C53.4314 271.537 54.0174 269.689 55.0384 268.156C101.136 198.953 136.897 240.855 150.665 273.931C151.69 276.394 151.563 279.163 150.444 281.585L142.977 297.75C141.692 300.532 139.182 302.556 136.19 303.223C131.922 304.174 128.795 307.83 128.517 312.194L127.469 328.686C127.318 331.068 128.024 333.426 129.459 335.333L131.803 338.447C134.439 341.951 134.534 346.796 131.994 350.37C130.539 352.418 128.993 354.508 127.351 356.455C126.478 357.491 125.649 358.669 125.57 360.022C124.759 374.008 176.394 363.609 210.896 355.206C220.338 352.906 226.752 363.352 220.275 370.598L215 376.5L185.433 404.436C184.167 405.633 182.609 406.478 180.915 406.888Z" fill="#C5960D" fill-opacity="0.13"/>
<path d="M314 373.5L-184.635 495.239C-185.992 495.607 -187.33 494.592 -187.342 493.186L-187.662 455.552C-187.701 450.937 -184.578 446.895 -180.103 445.769L42.7769 389.687C47.1092 388.597 50.1929 384.773 50.3301 380.308C51.154 353.502 52.6071 304.76 53.3863 273.378C53.432 271.537 54.018 269.689 55.039 268.156C101.137 198.953 136.898 240.855 150.666 273.931C151.691 276.394 151.564 279.163 150.445 281.585L142.977 297.75C141.692 300.532 139.182 302.556 136.191 303.223C131.922 304.174 128.795 307.83 128.518 312.194L127.47 328.686C127.318 331.068 128.024 333.426 129.46 335.333L131.803 338.447C134.44 341.95 134.494 346.766 131.856 350.268C130.59 351.948 129.227 353.731 127.886 355.438C124.899 359.244 124.585 364.967 128.796 367.349C134.111 370.356 139.72 370.335 142.536 369.707L341.603 320.188C350.907 317.874 357.821 328.712 351.799 336.173L326.34 367.72C325.139 369.209 323.536 370.322 321.721 370.927L314 373.5Z" fill="#C5960D" fill-opacity="0.13"/>
<path d="M308.145 376.187L-184.635 495.239C-185.992 495.607 -187.33 494.592 -187.342 493.186L-187.662 455.552C-187.701 450.937 -184.577 446.895 -180.102 445.769L42.7774 389.687C47.1096 388.597 50.1934 384.773 50.3306 380.308C51.1545 353.502 52.6075 304.76 53.3868 273.378C53.4325 271.537 54.0184 269.689 55.0394 268.156C101.137 198.953 136.898 240.855 150.666 273.931C151.691 276.394 151.564 279.163 150.445 281.585L142.978 297.75C141.692 300.532 139.183 302.556 136.191 303.223C131.923 304.174 128.796 307.83 128.518 312.194L127.47 328.685C127.319 331.068 128.024 333.426 129.46 335.333L131.804 338.447C134.44 341.951 134.494 346.766 131.856 350.268C130.59 351.948 129.227 353.731 127.887 355.438C124.9 359.244 124.585 364.967 128.796 367.349C134.111 370.356 139.72 370.335 142.536 369.707L343.576 321.087C350.935 319.307 357.526 326.034 355.596 333.356L348.423 360.565C346.391 368.274 353.756 375.146 361.305 372.584L565.721 303.237C575.083 300.061 582.885 310.946 576.87 318.791L559.237 341.79C557.992 343.414 556.279 344.617 554.329 345.236L328.286 417.054C320.717 419.458 313.5 412.506 315.621 404.853L320.131 388.577C322.167 381.228 315.558 374.396 308.145 376.187Z" fill="#C5960D" fill-opacity="0.13"/>
<path fill-rule="evenodd" clip-rule="evenodd" d="M459.019 251.445V251.445C450.759 245.487 455.364 232.229 465.505 233.17L471.376 233.714C472.961 233.715 474.656 233.749 476.467 233.821C477.283 233.853 477.976 233.947 478.757 234.186C479.045 234.274 479.356 234.37 479.691 234.474C479.726 234.484 479.763 234.492 479.799 234.495L480.572 234.567C480.623 234.571 480.65 234.629 480.622 234.671V234.671C480.597 234.709 480.604 234.756 480.647 234.769C512.886 244.778 713.532 309.514 829.03 346.836C836.927 349.388 844.254 341.745 841.459 333.931L835.475 317.203C832.654 309.317 840.198 301.664 848.125 304.373L1063.93 378.124C1071.42 380.683 1078.77 373.945 1076.87 366.263L1069.93 338.167C1068.13 330.888 1074.69 324.293 1081.98 326.045L1282.22 374.181C1284.91 374.991 1290.19 375.387 1295.39 372.964C1300.11 370.767 1299.76 364.374 1296.6 360.24C1295.53 358.844 1294.45 357.393 1293.44 355.999C1290.96 352.612 1291 348.036 1293.41 344.609L1296.36 340.425C1297.73 338.49 1298.36 336.134 1298.15 333.776L1296.69 317.428C1296.33 313.356 1293.53 309.915 1289.61 308.739L1288.49 308.402C1285.73 307.572 1283.46 305.592 1282.27 302.969L1274.83 286.635C1273.76 284.286 1273.62 281.613 1274.56 279.21C1287.77 245.422 1322.92 202.469 1370.03 273.706C1371.04 275.244 1371.63 277.129 1371.67 278.972C1372.9 336.419 1374.11 371.233 1374.8 386.951C1374.99 391.338 1378.07 395.025 1382.34 396.074L1605.18 450.855C1609.69 451.966 1612.85 456.047 1612.79 460.7L1611.85 530.762C1611.76 537.237 1605.64 541.924 1599.36 540.314L1386.62 485.713C1380.46 484.133 1374.41 488.625 1374.14 494.978L1369.25 610.955C1369.17 612.758 1368.63 614.513 1367.57 615.97C1353.95 634.607 1320.93 655.766 1283.59 609.29C1281.6 606.818 1281.03 603.493 1281.94 600.457L1289.41 575.592C1289.68 574.701 1290.07 573.857 1290.57 573.074L1298.07 561.389C1299.08 559.816 1299.63 557.992 1299.65 556.123L1300.06 525.7C1300.09 523.739 1299.54 521.814 1298.48 520.164L1292.47 510.81C1289.74 506.551 1290.62 500.92 1294.52 497.698L1297.77 495.015C1300.15 493.048 1301.49 490.091 1301.4 487.004L1301.12 477.763C1301.09 476.688 1300.9 475.616 1300.39 474.669C1298.05 470.308 1291.25 462.779 1277.66 458.693C1263.4 454.408 1229.2 447.145 1210.7 443.398C1208.27 442.907 1206.12 441.537 1204.65 439.545C1201.71 435.563 1196.29 434.346 1191.93 436.688L1190.72 437.342C1188.4 438.585 1185.69 438.868 1183.17 438.127L1168.7 433.882C1160.61 431.509 1153.4 439.59 1156.67 447.358L1158.87 452.582C1159.91 455.058 1159.91 457.848 1158.88 460.326L1157.01 464.787C1154.98 469.635 1149.54 472.084 1144.57 470.392L904.633 388.841C897.444 386.397 890.262 392.541 891.562 400.021L895.088 420.308C896.442 428.099 888.644 434.305 881.356 431.237L466.538 256.627C466.423 256.578 466.309 256.528 466.195 256.475C466.17 256.463 466.139 256.472 466.123 256.495V256.495C466.105 256.522 466.069 256.529 466.042 256.51L465.482 256.106C465.349 256.03 465.218 255.95 465.089 255.867C463.035 254.538 460.937 253.032 459.019 251.445Z" fill="#8E4440"/>
<path d="M1117 381.187L1609.78 500.239C1611.14 500.607 1612.47 499.592 1612.49 498.186L1612.81 460.552C1612.85 455.937 1609.72 451.895 1605.25 450.769L1382.37 394.687C1378.04 393.597 1374.95 389.773 1374.81 385.308C1373.99 358.502 1372.54 309.76 1371.76 278.378C1371.71 276.537 1371.13 274.689 1370.11 273.156C1324.01 203.953 1288.25 245.855 1274.48 278.931C1273.45 281.394 1273.58 284.163 1274.7 286.585L1282.17 302.75C1283.45 305.532 1285.96 307.556 1288.95 308.223C1293.22 309.174 1296.35 312.83 1296.63 317.194L1297.67 333.686C1297.83 336.068 1297.12 338.426 1295.68 340.333L1293.34 343.447C1290.7 346.95 1290.65 351.766 1293.29 355.268C1294.55 356.948 1295.92 358.731 1297.26 360.438C1300.25 364.244 1300.56 369.967 1296.35 372.349C1291.03 375.356 1285.42 375.335 1282.61 374.707L1081.57 326.087C1074.21 324.307 1067.62 331.034 1069.55 338.356L1076.72 365.565C1078.75 373.274 1071.39 380.146 1063.84 377.584L847.92 304.334C839.983 301.642 832.454 309.321 835.303 317.204L841.391 334.046C844.216 341.861 836.828 349.513 828.919 346.963L478.703 234.076C478.237 233.926 477.756 233.829 477.268 233.789C469.814 233.171 467.534 243.656 474.572 246.189L859.48 384.712C866.811 387.35 874.209 380.963 872.669 373.326L871.178 365.935C869.672 358.463 876.744 352.12 884.009 354.428L1096.86 422.054C1104.43 424.458 1111.64 417.506 1109.52 409.853L1105.01 393.577C1102.98 386.228 1109.59 379.396 1117 381.187Z" fill="url(#paint6_linear_523_4154)"/>
<path d="M1244.23 411.888L1609.78 500.239C1611.14 500.607 1612.48 499.592 1612.49 498.186L1612.81 460.552C1612.85 455.937 1609.72 451.895 1605.25 450.769L1382.37 394.687C1378.04 393.597 1374.95 389.773 1374.82 385.308C1373.99 358.502 1372.54 309.76 1371.76 278.378C1371.71 276.537 1371.13 274.689 1370.11 273.156C1324.01 203.953 1288.25 245.855 1274.48 278.931C1273.45 281.394 1273.58 284.163 1274.7 286.585L1282.17 302.75C1283.45 305.532 1285.96 307.556 1288.95 308.223C1293.22 309.174 1296.35 312.83 1296.63 317.194L1297.68 333.686C1297.83 336.068 1297.12 338.426 1295.69 340.333L1293.34 343.447C1290.71 346.951 1290.61 351.796 1293.15 355.37C1294.61 357.418 1296.15 359.508 1297.79 361.455C1298.67 362.491 1299.5 363.669 1299.57 365.022C1300.39 379.008 1248.75 368.609 1214.25 360.206C1204.81 357.906 1198.39 368.352 1204.87 375.598L1210.15 381.5L1239.71 409.436C1240.98 410.633 1242.54 411.478 1244.23 411.888Z" fill="#C5960D" fill-opacity="0.13"/>
<path d="M1111.14 378.5L1609.78 500.239C1611.14 500.607 1612.48 499.592 1612.49 498.186L1612.81 460.552C1612.85 455.937 1609.72 451.895 1605.25 450.769L1382.37 394.687C1378.04 393.597 1374.95 389.773 1374.81 385.308C1373.99 358.502 1372.54 309.76 1371.76 278.378C1371.71 276.537 1371.13 274.689 1370.11 273.156C1324.01 203.953 1288.25 245.855 1274.48 278.931C1273.45 281.394 1273.58 284.163 1274.7 286.585L1282.17 302.75C1283.45 305.532 1285.96 307.556 1288.95 308.223C1293.22 309.174 1296.35 312.83 1296.63 317.194L1297.68 333.686C1297.83 336.068 1297.12 338.426 1295.69 340.333L1293.34 343.447C1290.71 346.95 1290.65 351.766 1293.29 355.268C1294.56 356.948 1295.92 358.731 1297.26 360.438C1300.25 364.244 1300.56 369.967 1296.35 372.349C1291.03 375.356 1285.42 375.335 1282.61 374.707L1083.54 325.188C1074.24 322.874 1067.32 333.712 1073.35 341.173L1098.8 372.72C1100.01 374.209 1101.61 375.322 1103.42 375.927L1111.14 378.5Z" fill="#C5960D" fill-opacity="0.13"/>
<path d="M1117 381.187L1609.78 500.239C1611.14 500.607 1612.47 499.592 1612.49 498.186L1612.81 460.552C1612.85 455.937 1609.72 451.895 1605.25 450.769L1382.37 394.687C1378.04 393.597 1374.95 389.773 1374.81 385.308C1373.99 358.502 1372.54 309.76 1371.76 278.378C1371.71 276.537 1371.13 274.689 1370.11 273.156C1324.01 203.953 1288.25 245.855 1274.48 278.931C1273.45 281.394 1273.58 284.163 1274.7 286.585L1282.17 302.75C1283.45 305.532 1285.96 307.556 1288.95 308.223C1293.22 309.174 1296.35 312.83 1296.63 317.194L1297.67 333.685C1297.83 336.068 1297.12 338.426 1295.69 340.333L1293.34 343.447C1290.7 346.951 1290.65 351.766 1293.29 355.268C1294.55 356.948 1295.92 358.731 1297.26 360.438C1300.25 364.244 1300.56 369.967 1296.35 372.349C1291.03 375.356 1285.42 375.335 1282.61 374.707L1081.57 326.087C1074.21 324.307 1067.62 331.034 1069.55 338.356L1076.72 365.565C1078.75 373.274 1071.39 380.146 1063.84 377.584L859.424 308.237C850.062 305.061 842.26 315.946 848.275 323.791L865.908 346.79C867.153 348.414 868.866 349.617 870.816 350.236L1096.86 422.054C1104.43 424.458 1111.64 417.506 1109.52 409.853L1105.01 393.577C1102.98 386.228 1109.59 379.396 1117 381.187Z" fill="#C5960D" fill-opacity="0.13"/>
<defs>
<linearGradient id="paint0_linear_523_4154" x1="714.5" y1="344" x2="717.989" y2="6572.61" gradientUnits="userSpaceOnUse">
<stop stop-color="#CA8E46"/>
<stop offset="1" stop-color="#5E252A"/>
</linearGradient>
<linearGradient id="paint1_linear_523_4154" x1="355" y1="2347" x2="355" y2="255.158" gradientUnits="userSpaceOnUse">
<stop stop-color="#E6B93D"/>
<stop offset="1" stop-color="#E6B93D" stop-opacity="0"/>
</linearGradient>
<linearGradient id="paint2_linear_523_4154" x1="355" y1="1812.87" x2="355" y2="245" gradientUnits="userSpaceOnUse">
<stop stop-color="#E6B93D"/>
<stop offset="1" stop-color="#E6B93D" stop-opacity="0"/>
</linearGradient>
<linearGradient id="paint3_linear_523_4154" x1="1075" y1="1823.02" x2="1075" y2="255.155" gradientUnits="userSpaceOnUse">
<stop stop-color="#E6B93D"/>
<stop offset="1" stop-color="#E6B93D" stop-opacity="0"/>
</linearGradient>
<linearGradient id="paint4_linear_523_4154" x1="1080" y1="2288.85" x2="1080" y2="197.004" gradientUnits="userSpaceOnUse">
<stop stop-color="#E6B93D"/>
<stop offset="1" stop-color="#E6B93D" stop-opacity="0"/>
</linearGradient>
<linearGradient id="paint5_linear_523_4154" x1="-320.646" y1="488.6" x2="347.265" y2="356.55" gradientUnits="userSpaceOnUse">
<stop stop-color="#C5960D"/>
<stop offset="1" stop-color="#BD720B"/>
</linearGradient>
<linearGradient id="paint6_linear_523_4154" x1="1745.79" y1="493.6" x2="1077.88" y2="361.55" gradientUnits="userSpaceOnUse">
<stop stop-color="#C5960D"/>
<stop offset="1" stop-color="#BD720B"/>
</linearGradient>
</defs>
</svg>
