<svg width="1444" height="824" viewBox="0 0 1444 824" fill="none" xmlns="http://www.w3.org/2000/svg">
<rect y="49" width="103" height="88" rx="2" fill="#62282D"/>
<path fill-rule="evenodd" clip-rule="evenodd" d="M2 137C0.895431 137 0 137.895 0 139V223C0 224.105 0.895429 225 2 225H101C102.105 225 103 224.105 103 223C103 224.105 103.895 225 105 225H204C205.105 225 206 224.105 206 223V139C206 137.895 205.105 137 204 137H105C103.895 137 103 137.895 103 139C103 137.895 102.105 137 101 137H2Z" fill="#62282D"/>
<path fill-rule="evenodd" clip-rule="evenodd" d="M0 227C0 225.895 0.895431 225 2 225H101C102.105 225 103 225.895 103 227C103 225.895 103.895 225 105 225H204C205.105 225 206 225.895 206 227C206 225.895 206.895 225 208 225H307C308.105 225 309 225.895 309 227V311C309 312.105 308.105 313 307 313H208C206.895 313 206 312.105 206 311C206 312.105 205.105 313 204 313H105C103.895 313 103 312.105 103 311C103 312.105 102.105 313 101 313H2C0.895429 313 0 312.105 0 311V227Z" fill="#62282D"/>
<rect width="103" height="88" rx="2" transform="matrix(-1 0 0 1 1444 49)" fill="#62282D"/>
<path fill-rule="evenodd" clip-rule="evenodd" d="M1442 137C1443.1 137 1444 137.895 1444 139V223C1444 224.105 1443.1 225 1442 225H1343C1341.9 225 1341 224.105 1341 223C1341 224.105 1340.1 225 1339 225H1240C1238.9 225 1238 224.105 1238 223V139C1238 137.895 1238.9 137 1240 137H1339C1340.1 137 1341 137.895 1341 139C1341 137.895 1341.9 137 1343 137H1442Z" fill="#62282D"/>
<path fill-rule="evenodd" clip-rule="evenodd" d="M1444 227C1444 225.895 1443.1 225 1442 225H1343C1341.9 225 1341 225.895 1341 227C1341 225.895 1340.1 225 1339 225H1240C1238.9 225 1238 225.895 1238 227C1238 225.895 1237.1 225 1236 225H1137C1135.9 225 1135 225.895 1135 227V311C1135 312.105 1135.9 313 1137 313H1236C1237.1 313 1238 312.105 1238 311C1238 312.105 1238.9 313 1240 313H1339C1340.1 313 1341 312.105 1341 311C1341 312.105 1341.9 313 1343 313H1442C1443.1 313 1444 312.105 1444 311V227Z" fill="#62282D"/>
<path fill-rule="evenodd" clip-rule="evenodd" d="M2 313C0.895431 313 0 313.895 0 315V399C0 400.105 0.895436 401 2.00001 401H358C359.105 401 360 400.105 360 399C360 400.105 360.895 401 362 401H718C719.105 401 720 400.105 720 399C720 400.105 720.895 401 722 401H1078C1079.1 401 1080 400.105 1080 399C1080 400.105 1080.9 401 1082 401H1438C1439.1 401 1440 400.105 1440 399V315C1440 313.895 1439.1 313 1438 313H1082C1080.9 313 1080 313.895 1080 315C1080 313.895 1079.1 313 1078 313H722C720.895 313 720 313.895 720 315C720 313.895 719.105 313 718 313H362C360.895 313 360 313.895 360 315C360 313.895 359.105 313 358 313H2Z" fill="#62282D"/>
<path fill-rule="evenodd" clip-rule="evenodd" d="M2 313C0.895431 313 0 313.895 0 315V822C0 823.105 0.895436 824 2.00001 824H358C359.105 824 360 823.105 360 822C360 823.105 360.895 824 362 824H718C719.105 824 720 823.105 720 822C720 823.105 720.895 824 722 824H1078C1079.1 824 1080 823.105 1080 822C1080 823.105 1080.9 824 1082 824H1438C1439.1 824 1440 823.105 1440 822V315C1440 313.895 1439.1 313 1438 313H1082C1080.9 313 1080 313.895 1080 315C1080 313.895 1079.1 313 1078 313H722C720.895 313 720 313.895 720 315C720 313.895 719.105 313 718 313H362C360.895 313 360 313.895 360 315C360 313.895 359.105 313 358 313H2Z" fill="url(#paint0_linear_703_2262)"/>
<rect x="127.5" y="27" width="114" height="63" rx="2" transform="rotate(30 127.5 27)" fill="#62282D"/>
<rect x="250" y="176" width="89" height="49" rx="2" fill="#62282D"/>
<rect x="1317" width="89" height="49" rx="2" fill="#62282D"/>
<rect width="171.574" height="73.322" rx="2" transform="matrix(-0.847543 0.530727 0.530727 0.847543 1108.24 160.822)" fill="#62282D"/>
<defs>
<linearGradient id="paint0_linear_703_2262" x1="720" y1="313" x2="720" y2="824" gradientUnits="userSpaceOnUse">
<stop stop-color="#62282D"/>
<stop offset="1" stop-color="#5D242A"/>
</linearGradient>
</defs>
</svg>
