<svg width="1445" height="2771" viewBox="0 0 1445 2771" fill="none" xmlns="http://www.w3.org/2000/svg">
<path d="M0 2102V2770.5L720 10.1545H328.5H0V2102Z" fill="url(#paint0_linear_500_3267)" fill-opacity="0.13"/>
<path d="M0 667.156V1567.87L720 -7.53403e-05H0V667.156Z" fill="url(#paint1_linear_500_3267)" fill-opacity="0.13"/>
<path d="M0 667.157V708.79L720 6.41346e-05H0V667.157Z" fill="#E6B93D" fill-opacity="0.13"/>
<path d="M1440 677.311V1578.02L720 10.1547H1440V677.311Z" fill="url(#paint2_linear_500_3267)" fill-opacity="0.13"/>
<path d="M1445 2043.85V2712.35L714 5.00024L1103.5 5L1445 5.00024V2043.85Z" fill="url(#paint3_linear_500_3267)" fill-opacity="0.13"/>
<path d="M1440 677.311V718.945L722 0H1440V677.311Z" fill="#E6B93D" fill-opacity="0.13"/>
<defs>
<linearGradient id="paint0_linear_500_3267" x1="360" y1="2102" x2="360" y2="10.158" gradientUnits="userSpaceOnUse">
<stop stop-color="#E6B93D"/>
<stop offset="1" stop-color="#E6B93D" stop-opacity="0"/>
</linearGradient>
<linearGradient id="paint1_linear_500_3267" x1="360" y1="1567.87" x2="360" y2="0" gradientUnits="userSpaceOnUse">
<stop stop-color="#E6B93D"/>
<stop offset="1" stop-color="#E6B93D" stop-opacity="0"/>
</linearGradient>
<linearGradient id="paint2_linear_500_3267" x1="1080" y1="1578.02" x2="1080" y2="10.1548" gradientUnits="userSpaceOnUse">
<stop stop-color="#E6B93D"/>
<stop offset="1" stop-color="#E6B93D" stop-opacity="0"/>
</linearGradient>
<linearGradient id="paint3_linear_500_3267" x1="1085" y1="2043.85" x2="1085" y2="-47.9952" gradientUnits="userSpaceOnUse">
<stop stop-color="#E6B93D"/>
<stop offset="1" stop-color="#E6B93D" stop-opacity="0"/>
</linearGradient>
</defs>
</svg>
