<svg width="879" height="439" viewBox="0 0 879 439" fill="none" xmlns="http://www.w3.org/2000/svg">
<path d="M315.5 36.5L-339.5 0L-374 164.5H-118.5L-153 178.5L-29.5 195L-279 278L-118.5 341L-181.5 357L-118.5 377.5L-206 416L124.5 377.5L86 397.5H200L98.5 428L376 438.5L629.5 416L534.5 397.5L686.5 377.5L481.5 341H561L124.5 292.5L183.5 278L200 241.5L124.5 211H183.5L98.5 195L879 134H660L611.5 107.5H200L236.5 83.5L124.5 61L315.5 36.5Z" fill="url(#paint0_linear_83_225)"/>
<defs>
<linearGradient id="paint0_linear_83_225" x1="-256.5" y1="-131.5" x2="532.5" y2="556" gradientUnits="userSpaceOnUse">
<stop stop-color="white" stop-opacity="0.31"/>
<stop offset="1" stop-color="white" stop-opacity="0"/>
</linearGradient>
</defs>
</svg>
