<svg width="662" height="482" viewBox="0 0 662 482" fill="none" xmlns="http://www.w3.org/2000/svg">
<path d="M629.5 468.5L864 482L1029 218.5H761L797 194L640.5 176L674 162.5L578 149.5L797 131.5L674 98L640.5 91.5L674 84.5H558L817 24.5L652 0L558 40H486.5L515.5 53.5H83L129.5 84.5H69.5L83 98L0.5 111.5L386.5 176L286 194L317 218.5L228 245.5L317 256.5L187.5 299H614L542.5 330H594L578 359H335L230 381.5H451L362 408H652L594 448.5H674L629.5 468.5Z" fill="url(#paint0_linear_83_224)" fill-opacity="0.28"/>
<defs>
<linearGradient id="paint0_linear_83_224" x1="1310" y1="339" x2="80.5" y2="497.5" gradientUnits="userSpaceOnUse">
<stop stop-color="white"/>
<stop offset="1" stop-color="white" stop-opacity="0"/>
</linearGradient>
</defs>
</svg>
