<svg width="1440" height="614" viewBox="0 0 1440 614" fill="none" xmlns="http://www.w3.org/2000/svg">
<path d="M-439.948 343.5H-486.549C-488.626 343.5 -490.487 344.784 -491.224 346.727L-571.834 559.244C-574.812 567.096 -569.012 575.5 -560.614 575.5H920.737C926.861 575.5 932.003 570.889 932.667 564.801L951.492 392.161C951.778 389.54 949.979 387.147 947.381 386.693L263.532 267.268C262.534 267.093 261.507 267.226 260.587 267.648L167.713 310.255C166.042 311.022 164.085 310.81 162.617 309.703L110.175 270.149C107.9 268.433 104.653 268.962 103.041 271.311L55.4291 340.689C54.2654 342.385 52.1822 343.195 50.1787 342.731L-148.008 296.845C-148.98 296.62 -149.863 296.109 -150.543 295.378L-224.558 215.741C-226.636 213.506 -230.213 213.637 -232.122 216.017L-271.499 265.128C-272.448 266.311 -273.883 267 -275.4 267H-299.808C-301.205 267 -302.539 267.585 -303.485 268.612L-341.052 309.386C-342.258 310.695 -344.069 311.264 -345.807 310.881L-407.355 297.304C-409.517 296.827 -411.735 297.829 -412.807 299.766L-435.573 340.92C-436.453 342.512 -438.129 343.5 -439.948 343.5Z" fill="#8C3E11"/>
<path d="M-254.92 418.276L-470.383 533.47C-484.307 540.914 -493 555.42 -493 571.208C-493 594.841 -473.841 614 -450.208 614H1418C1442.85 614 1463 593.853 1463 569V15L1414.13 44.4042C1404.7 50.0738 1397.68 58.9981 1394.39 69.4913L1361.89 173.061C1356.01 191.822 1338.62 204.589 1318.96 204.589H1312.01C1305.1 204.589 1298.28 206.182 1292.08 209.245L1152.42 278.251C1146.22 281.314 1139.4 282.907 1132.49 282.907H919.418C915.161 282.907 910.925 283.511 906.838 284.702L712.14 341.391C702.034 344.333 691.217 343.64 681.569 339.432L645.819 323.838C637.47 320.196 628.212 319.174 619.27 320.906L497.846 344.425C492.656 345.43 487.329 345.513 482.111 344.67L216.02 301.674C200.759 299.208 185.3 304.748 175.079 316.347L162.437 330.694C153.895 340.39 141.596 345.944 128.674 345.944H52.2827C46.4822 345.944 40.7366 347.066 35.3619 349.247L-138.318 419.726C-145.643 422.698 -153.622 423.689 -161.452 422.597L-227.49 413.392C-236.92 412.077 -246.523 413.788 -254.92 418.276Z" fill="url(#paint0_linear_801_3936)"/>
<path d="M55 122C53.4 60.4 16.6667 15.6667 -1.5 1L-52 411L184.5 376.5C167 356.333 133.2 314 138 306C142.8 298 125 275.667 115.5 265.5C96 243.333 56.6 183.6 55 122Z" fill="#6A252E" stroke="#6A252E"/>
<defs>
<linearGradient id="paint0_linear_801_3936" x1="485" y1="280.5" x2="485" y2="614" gradientUnits="userSpaceOnUse">
<stop stop-color="#661E29"/>
<stop offset="1" stop-color="#72343A"/>
</linearGradient>
</defs>
</svg>
