<svg width="141" height="205" viewBox="0 0 141 205" fill="none" xmlns="http://www.w3.org/2000/svg">
<path d="M94.8038 2.80144L91.1172 29.3406L98.9545 1.98563C107.942 0.364434 116.122 -0.167495 122.756 0.0442758L108.694 52.4666C39.3249 40.8867 18.8579 74.244 17.2955 92.3701H0.5C15.343 33.8631 60.0225 10.1999 94.8038 2.80144Z" fill="black"/>
<path d="M77.4442 118.39C107.74 87.5684 135.08 121.846 140.05 140.561C143.327 98.9054 128.307 75.569 108.034 64.987L100.311 69.1769L98.0881 60.9059C66.1006 50.9981 27.1175 67.1197 23.4729 91.212C22.9111 94.9261 24.1582 99.4641 26.5549 104.424L31.5142 105.702L29.4162 109.686C36.3153 121.223 47.7508 134.149 56.5311 144.075C59.5358 147.471 62.2295 150.516 64.3241 153.034C51.9259 151.754 43.8842 142.288 31.7997 128.064L31.7988 128.063C29.2326 125.042 26.4841 121.807 23.4729 118.39C25.8585 137.504 19.8725 157.335 11.8438 164.98C11.8438 168.548 16.3025 170.898 23.6178 172.822L33.3116 170.501L33.3169 174.912C37.5663 175.695 42.2836 176.452 47.3154 177.261C65.8896 180.244 88.7497 183.916 108.177 192.084C104.059 182.72 97.2145 171.558 89.7843 161.131C96.6865 162.184 109.782 180.2 117.215 196.37C121.908 198.882 126.289 201.737 130.223 205L123.352 140.561C85.6611 139.845 76.9472 129.639 77.4442 118.39Z" fill="black"/>
</svg>
