<svg width="1440" height="1025" viewBox="0 0 1440 1025" fill="none" xmlns="http://www.w3.org/2000/svg">
<rect width="1440" height="1025" fill="url(#paint0_linear_503_3209)"/>
<path d="M0 0H381.5L720 1018.06H328.5H0V0Z" fill="url(#paint1_linear_503_3209)" fill-opacity="0.13"/>
<path d="M1440 4.94214H1058.5L720 1023H1093.5H1440V4.94214Z" fill="url(#paint2_linear_503_3209)" fill-opacity="0.13"/>
<path d="M0 698.309V259.951L720 1023H0V698.309Z" fill="url(#paint3_linear_503_3209)" fill-opacity="0.13"/>
<path d="M0 698.309V678.046L720 1023H0V698.309Z" fill="#E6B93D" fill-opacity="0.13"/>
<path d="M1440 693.367V673.104L720 1018.06H1440V693.367Z" fill="#E6B93D" fill-opacity="0.13"/>
<path d="M1440 693.367V255.009L720 1018.06H1440V693.367Z" fill="url(#paint4_linear_503_3209)" fill-opacity="0.13"/>
<path d="M4.18104 46.0566C3.36492 46.0566 2.63983 45.8138 2.00577 45.3281C1.37799 44.8425 0.885176 44.1964 0.527339 43.3899C0.17578 42.5747 0 41.6814 0 40.7101L0.0188335 32.2675C0.0188335 31.2788 0.197752 30.3899 0.555589 29.6007C0.907148 28.8029 1.39682 28.1654 2.0246 27.6884C2.65239 27.2028 3.3712 26.96 4.18104 26.96C5.00972 26.96 5.73167 27.1985 6.3469 27.6754C6.96213 28.1524 7.44552 28.7942 7.79708 29.6007C8.15492 30.3986 8.33383 31.2875 8.33383 32.2675L8.35267 40.7101C8.35267 41.6727 8.17689 42.5616 7.82533 43.3769C7.46749 44.1921 6.97468 44.8425 6.3469 45.3281C5.72539 45.8138 5.00344 46.0566 4.18104 46.0566ZM6.01731 40.7101L5.99848 32.2675C5.99848 31.6431 5.82898 31.1357 5.48997 30.7455C5.15725 30.3552 4.72094 30.1601 4.18104 30.1601C3.62859 30.1601 3.186 30.3552 2.85328 30.7455C2.52055 31.1357 2.35419 31.6431 2.35419 32.2675V40.7101C2.35419 41.3692 2.52055 41.8895 2.85328 42.2711C3.186 42.6527 3.62859 42.8435 4.18104 42.8435C4.72094 42.8435 5.16039 42.6527 5.49939 42.2711C5.84467 41.8895 6.01731 41.3692 6.01731 40.7101Z" fill="white" fill-opacity="0.4"/>
<path d="M40.9328 611.093C40.1166 611.093 39.3915 610.85 38.7575 610.365C38.1297 609.879 37.6369 609.233 37.279 608.426C36.9275 607.611 36.7517 606.718 36.7517 605.747L36.7705 597.304C36.7705 596.315 36.9495 595.427 37.3073 594.637C37.6589 593.839 38.1485 593.202 38.7763 592.725C39.4041 592.239 40.1229 591.997 40.9328 591.997C41.7614 591.997 42.4834 592.235 43.0986 592.712C43.7138 593.189 44.1972 593.831 44.5488 594.637C44.9066 595.435 45.0855 596.324 45.0855 597.304L45.1044 605.747C45.1044 606.709 44.9286 607.598 44.577 608.413C44.2192 609.229 43.7264 609.879 43.0986 610.365C42.4771 610.85 41.7551 611.093 40.9328 611.093ZM42.769 605.747L42.7502 597.304C42.7502 596.68 42.5807 596.172 42.2417 595.782C41.909 595.392 41.4726 595.197 40.9328 595.197C40.3803 595.197 39.9377 595.392 39.605 595.782C39.2723 596.172 39.1059 596.68 39.1059 597.304V605.747C39.1059 606.406 39.2723 606.926 39.605 607.308C39.9377 607.689 40.3803 607.88 40.9328 607.88C41.4726 607.88 41.9121 607.689 42.2511 607.308C42.5964 606.926 42.769 606.406 42.769 605.747Z" fill="white" fill-opacity="0.4"/>
<path d="M1303.86 674C1303.04 674 1302.32 673.757 1301.68 673.272C1301.05 672.786 1300.56 672.14 1300.2 671.333C1299.85 670.518 1299.68 669.625 1299.68 668.653L1299.69 660.211C1299.69 659.222 1299.87 658.333 1300.23 657.544C1300.58 656.746 1301.07 656.109 1301.7 655.632C1302.33 655.146 1303.05 654.903 1303.86 654.903C1304.68 654.903 1305.41 655.142 1306.02 655.619C1306.64 656.096 1307.12 656.738 1307.47 657.544C1307.83 658.342 1308.01 659.231 1308.01 660.211L1308.03 668.653C1308.03 669.616 1307.85 670.505 1307.5 671.32C1307.14 672.135 1306.65 672.786 1306.02 673.272C1305.4 673.757 1304.68 674 1303.86 674ZM1305.69 668.653L1305.67 660.211C1305.67 659.586 1305.5 659.079 1305.17 658.689C1304.83 658.299 1304.4 658.103 1303.86 658.103C1303.3 658.103 1302.86 658.299 1302.53 658.689C1302.2 659.079 1302.03 659.586 1302.03 660.211V668.653C1302.03 669.313 1302.2 669.833 1302.53 670.214C1302.86 670.596 1303.3 670.787 1303.86 670.787C1304.4 670.787 1304.84 670.596 1305.17 670.214C1305.52 669.833 1305.69 669.313 1305.69 668.653Z" fill="white" fill-opacity="0.4"/>
<path d="M1175.23 406.647C1174.41 406.647 1173.68 406.404 1173.05 405.918C1172.42 405.433 1171.93 404.786 1171.57 403.98C1171.22 403.165 1171.04 402.271 1171.04 401.3L1171.06 392.858C1171.06 391.869 1171.24 390.98 1171.6 390.191C1171.95 389.393 1172.44 388.756 1173.07 388.279C1173.7 387.793 1174.42 387.55 1175.23 387.55C1176.05 387.55 1176.78 387.789 1177.39 388.266C1178.01 388.743 1178.49 389.384 1178.84 390.191C1179.2 390.989 1179.38 391.878 1179.38 392.858L1179.4 401.3C1179.4 402.263 1179.22 403.152 1178.87 403.967C1178.51 404.782 1178.02 405.433 1177.39 405.918C1176.77 406.404 1176.05 406.647 1175.23 406.647ZM1177.06 401.3L1177.04 392.858C1177.04 392.233 1176.87 391.726 1176.53 391.336C1176.2 390.945 1175.77 390.75 1175.23 390.75C1174.67 390.75 1174.23 390.945 1173.9 391.336C1173.56 391.726 1173.4 392.233 1173.4 392.858V401.3C1173.4 401.959 1173.56 402.48 1173.9 402.861C1174.23 403.243 1174.67 403.434 1175.23 403.434C1175.77 403.434 1176.2 403.243 1176.54 402.861C1176.89 402.48 1177.06 401.959 1177.06 401.3Z" fill="white" fill-opacity="0.4"/>
<path d="M1435.83 280.833C1435.01 280.833 1434.29 280.591 1433.65 280.105C1433.03 279.619 1432.53 278.973 1432.17 278.167C1431.82 277.352 1431.65 276.458 1431.65 275.487L1431.67 267.044C1431.67 266.056 1431.85 265.167 1432.2 264.378C1432.55 263.58 1433.04 262.942 1433.67 262.465C1434.3 261.98 1435.02 261.737 1435.83 261.737C1436.66 261.737 1437.38 261.975 1437.99 262.452C1438.61 262.929 1439.09 263.571 1439.44 264.378C1439.8 265.175 1439.98 266.064 1439.98 267.044L1440 275.487C1440 276.45 1439.82 277.339 1439.47 278.154C1439.11 278.969 1438.62 279.619 1437.99 280.105C1437.37 280.591 1436.65 280.833 1435.83 280.833ZM1437.66 275.487L1437.65 267.044C1437.65 266.42 1437.48 265.913 1437.14 265.522C1436.8 265.132 1436.37 264.937 1435.83 264.937C1435.28 264.937 1434.83 265.132 1434.5 265.522C1434.17 265.913 1434 266.42 1434 267.044V275.487C1434 276.146 1434.17 276.666 1434.5 277.048C1434.83 277.43 1435.28 277.62 1435.83 277.62C1436.37 277.62 1436.81 277.43 1437.15 277.048C1437.49 276.666 1437.66 276.146 1437.66 275.487Z" fill="white" fill-opacity="0.4"/>
<path d="M743.392 37.0701C742.576 37.0701 741.851 36.8272 741.217 36.3416C740.589 35.8559 740.096 35.2098 739.739 34.4033C739.387 33.5881 739.211 32.6948 739.211 31.7235L739.23 23.2809C739.23 22.2923 739.409 21.4033 739.767 20.6141C740.118 19.8163 740.608 19.1789 741.236 18.7019C741.864 18.2162 742.582 17.9734 743.392 17.9734C744.221 17.9734 744.943 18.2119 745.558 18.6889C746.173 19.1658 746.657 19.8076 747.008 20.6141C747.366 21.412 747.545 22.3009 747.545 23.2809L747.564 31.7235C747.564 32.6861 747.388 33.5751 747.037 34.3903C746.679 35.2055 746.186 35.8559 745.558 36.3416C744.937 36.8272 744.215 37.0701 743.392 37.0701ZM745.228 31.7235L745.21 23.2809C745.21 22.6565 745.04 22.1492 744.701 21.7589C744.368 21.3686 743.932 21.1735 743.392 21.1735C742.84 21.1735 742.397 21.3686 742.064 21.7589C741.732 22.1492 741.565 22.6565 741.565 23.2809V31.7235C741.565 32.3826 741.732 32.903 742.064 33.2845C742.397 33.6661 742.84 33.8569 743.392 33.8569C743.932 33.8569 744.372 33.6661 744.711 33.2845C745.056 32.903 745.228 32.3826 745.228 31.7235Z" fill="white" fill-opacity="0.4"/>
<path d="M523.717 415.633C522.901 415.633 522.176 415.39 521.542 414.905C520.914 414.419 520.421 413.773 520.063 412.967C519.712 412.151 519.536 411.258 519.536 410.287L519.555 401.844C519.555 400.855 519.734 399.967 520.091 399.177C520.443 398.38 520.933 397.742 521.56 397.265C522.188 396.779 522.907 396.537 523.717 396.537C524.546 396.537 525.268 396.775 525.883 397.252C526.498 397.729 526.981 398.371 527.333 399.177C527.691 399.975 527.87 400.864 527.87 401.844L527.889 410.287C527.889 411.249 527.713 412.138 527.361 412.954C527.003 413.769 526.511 414.419 525.883 414.905C525.261 415.39 524.539 415.633 523.717 415.633ZM525.553 410.287L525.534 401.844C525.534 401.22 525.365 400.712 525.026 400.322C524.693 399.932 524.257 399.737 523.717 399.737C523.164 399.737 522.722 399.932 522.389 400.322C522.056 400.712 521.89 401.22 521.89 401.844V410.287C521.89 410.946 522.056 411.466 522.389 411.848C522.722 412.229 523.164 412.42 523.717 412.42C524.257 412.42 524.696 412.229 525.035 411.848C525.381 411.466 525.553 410.946 525.553 410.287Z" fill="white" fill-opacity="0.4"/>
<path d="M141.08 242.64H138.755C138.688 242.64 138.654 242.598 138.654 242.514L138.674 224.768C138.674 224.7 138.701 224.667 138.755 224.667H141.06C141.113 224.667 141.14 224.7 141.14 224.768L141.16 242.514C141.16 242.598 141.133 242.64 141.08 242.64Z" fill="white" fill-opacity="0.4"/>
<path d="M532.82 415.633H530.495C530.428 415.633 530.395 415.591 530.395 415.507L530.415 397.761C530.415 397.694 530.441 397.66 530.495 397.66H532.8C532.854 397.66 532.88 397.694 532.88 397.761L532.9 415.507C532.9 415.591 532.874 415.633 532.82 415.633Z" fill="white" fill-opacity="0.4"/>
<path d="M1139.22 110.087H1136.9C1136.83 110.087 1136.8 110.045 1136.8 109.96L1136.82 92.2142C1136.82 92.1469 1136.84 92.1133 1136.9 92.1133H1139.2C1139.26 92.1133 1139.28 92.1469 1139.28 92.2142L1139.3 109.96C1139.3 110.045 1139.28 110.087 1139.22 110.087Z" fill="white" fill-opacity="0.4"/>
<path d="M435.929 17.9733H433.604C433.537 17.9733 433.503 17.9313 433.503 17.8472L433.523 0.100903C433.523 0.0336343 433.55 0 433.604 0H435.909C435.962 0 435.989 0.0336343 435.989 0.100903L436.009 17.8472C436.009 17.9313 435.982 17.9733 435.929 17.9733Z" fill="white" fill-opacity="0.4"/>
<path d="M779.224 262.86H776.898C776.832 262.86 776.798 262.818 776.798 262.734L776.818 244.988C776.818 244.92 776.845 244.887 776.898 244.887H779.204C779.257 244.887 779.284 244.92 779.284 244.988L779.304 262.734C779.304 262.818 779.277 262.86 779.224 262.86Z" fill="white" fill-opacity="0.4"/>
<path d="M33.3304 609.97H31.005C30.9382 609.97 30.9048 609.928 30.9048 609.844L30.9248 592.097C30.9248 592.03 30.9516 591.997 31.005 591.997H33.3104C33.3638 591.997 33.3905 592.03 33.3905 592.097L33.4106 609.844C33.4106 609.928 33.3839 609.97 33.3304 609.97Z" fill="white" fill-opacity="0.4"/>
<defs>
<linearGradient id="paint0_linear_503_3209" x1="720" y1="202.5" x2="720" y2="1150" gradientUnits="userSpaceOnUse">
<stop stop-color="#8D4440"/>
<stop offset="1" stop-color="#F3BF4A"/>
</linearGradient>
<linearGradient id="paint1_linear_503_3209" x1="360" y1="0" x2="360" y2="1018.06" gradientUnits="userSpaceOnUse">
<stop stop-color="#E6B93D"/>
<stop offset="1" stop-color="#E6B93D" stop-opacity="0"/>
</linearGradient>
<linearGradient id="paint2_linear_503_3209" x1="1080" y1="4.94214" x2="1080" y2="1023" gradientUnits="userSpaceOnUse">
<stop stop-color="#E6B93D"/>
<stop offset="1" stop-color="#E6B93D" stop-opacity="0"/>
</linearGradient>
<linearGradient id="paint3_linear_503_3209" x1="360" y1="259.951" x2="360" y2="1023" gradientUnits="userSpaceOnUse">
<stop stop-color="#E6B93D"/>
<stop offset="1" stop-color="#E6B93D" stop-opacity="0"/>
</linearGradient>
<linearGradient id="paint4_linear_503_3209" x1="1080" y1="255.009" x2="1080" y2="1018.06" gradientUnits="userSpaceOnUse">
<stop stop-color="#E6B93D"/>
<stop offset="1" stop-color="#E6B93D" stop-opacity="0"/>
</linearGradient>
</defs>
</svg>
