<svg width="1440" height="343" viewBox="0 0 1440 343" fill="none" xmlns="http://www.w3.org/2000/svg">
<g filter="url(#filter0_df_801_4081)">
<path fill-rule="evenodd" clip-rule="evenodd" d="M195.699 105.276C194.522 68.4267 98.7597 39.0089 41.1311 21.3057L41.131 21.3057C20.515 14.9726 4.77923 10.1386 0 7V340H5H325H1208H1418H1474V85C1470.22 87.4836 1460.1 90.8337 1446.81 95.2315C1407.85 108.127 1341.68 130.029 1328.5 165.5C1320.84 186.116 1295.6 242.437 1231.82 314.347C1148.41 310.414 1012.2 305.888 930.854 303.439C923.895 302.938 906.45 303.94 892.346 311.953C878.242 319.966 870.386 315.292 868.221 311.953C854.148 297.763 819.228 278.498 792.133 314.958C771.719 322.571 754.553 321.135 748.522 319.466C738.47 315.626 712.334 308.748 688.209 311.953C633.319 308.858 566.494 312.204 505.257 315.271C427.778 319.151 359.243 322.583 335.144 311.953C321.638 305.996 309.965 303.218 300.341 302.324C291.314 284.811 284.5 268.5 284.5 268.5C278.431 259.734 273.997 251.085 270.093 243.47C265.313 234.146 261.327 226.371 256.106 221.826C236.636 203.822 197.296 155.307 195.699 105.276Z" fill="#73353B"/>
<path d="M41.1311 21.3057L41.2779 20.8278L41.2747 20.8268L41.1311 21.3057ZM195.699 105.276L195.199 105.292L195.199 105.292L195.699 105.276ZM41.131 21.3057L40.9842 21.7837L40.9873 21.7846L41.131 21.3057ZM0 7L0.274467 6.58207L-0.5 6.07345V7H0ZM0 340H-0.5V340.5H0V340ZM1474 340V340.5H1474.5V340H1474ZM1474 85H1474.5V84.0726L1473.73 84.5823L1474 85ZM1446.81 95.2315L1446.97 95.7062L1446.97 95.7062L1446.81 95.2315ZM1328.5 165.5L1328.03 165.326L1328.03 165.326L1328.5 165.5ZM1231.82 314.347L1231.79 314.846L1232.03 314.858L1232.19 314.679L1231.82 314.347ZM930.854 303.439L930.818 303.938L930.828 303.939L930.839 303.939L930.854 303.439ZM868.221 311.953L868.64 311.681L868.612 311.638L868.576 311.601L868.221 311.953ZM792.133 314.958L792.308 315.427L792.446 315.375L792.534 315.257L792.133 314.958ZM748.522 319.466L748.344 319.933L748.366 319.941L748.389 319.948L748.522 319.466ZM688.209 311.953L688.18 312.452L688.228 312.455L688.274 312.449L688.209 311.953ZM505.257 315.271L505.282 315.77L505.282 315.77L505.257 315.271ZM335.144 311.953L334.942 312.411L335.144 311.953ZM300.341 302.324L299.897 302.553L300.022 302.796L300.295 302.822L300.341 302.324ZM284.5 268.5L284.961 268.307L284.941 268.259L284.911 268.215L284.5 268.5ZM270.093 243.47L269.649 243.698L269.649 243.698L270.093 243.47ZM256.106 221.826L255.767 222.193L255.772 222.198L255.778 222.203L256.106 221.826ZM40.9842 21.7837C69.8053 30.6374 108.121 42.4086 139.378 56.5665C155.008 63.6461 168.844 71.3101 178.839 79.4862C188.847 87.6733 194.912 96.2991 195.199 105.292L196.199 105.26C195.898 95.8277 189.551 86.9579 179.472 78.7122C169.379 70.4555 155.452 62.7494 139.791 55.6556C108.465 41.4666 70.0855 29.6773 41.2779 20.8278L40.9842 21.7837ZM40.9873 21.7846L40.9874 21.7846L41.2747 20.8268L41.2747 20.8268L40.9873 21.7846ZM-0.274467 7.41793C2.17964 9.02961 7.37532 11.0419 14.4672 13.4288C21.5833 15.8239 30.6785 18.6178 40.9842 21.7837L41.2778 20.8278C30.9675 17.6605 21.8868 14.8709 14.7862 12.481C7.66139 10.083 2.59959 8.10904 0.274467 6.58207L-0.274467 7.41793ZM0.5 340V7H-0.5V340H0.5ZM5 339.5H0V340.5H5V339.5ZM5 340.5H325V339.5H5V340.5ZM325 340.5H1208V339.5H325V340.5ZM1208 340.5H1418V339.5H1208V340.5ZM1418 340.5H1474V339.5H1418V340.5ZM1474.5 340V85H1473.5V340H1474.5ZM1473.73 84.5823C1471.89 85.787 1468.47 87.2277 1463.8 88.9281C1459.15 90.6227 1453.3 92.5571 1446.66 94.7568L1446.97 95.7062C1453.61 93.5081 1459.47 91.5686 1464.15 89.8678C1468.8 88.1728 1472.33 86.6966 1474.27 85.4177L1473.73 84.5823ZM1446.66 94.7568C1427.18 101.203 1400.86 109.912 1377.77 121.452C1366.21 127.223 1355.45 133.709 1346.75 140.986C1338.04 148.261 1331.37 156.348 1328.03 165.326L1328.97 165.674C1332.22 156.917 1338.76 148.964 1347.39 141.753C1356.01 134.544 1366.7 128.098 1378.21 122.347C1401.24 110.844 1427.49 102.156 1446.97 95.7062L1446.66 94.7568ZM1328.03 165.326C1320.39 185.887 1295.18 242.154 1231.44 314.015L1232.19 314.679C1296.02 242.72 1321.29 186.345 1328.97 165.674L1328.03 165.326ZM1231.84 313.847C1148.43 309.915 1012.22 305.388 930.869 302.939L930.839 303.939C1012.19 306.388 1148.39 310.914 1231.79 314.846L1231.84 313.847ZM930.89 302.941C923.873 302.436 906.319 303.44 892.099 311.519L892.593 312.388C906.581 304.441 923.916 303.441 930.818 303.938L930.89 302.941ZM892.099 311.519C878.146 319.446 870.617 314.729 868.64 311.681L867.801 312.225C870.155 315.855 878.338 320.487 892.593 312.388L892.099 311.519ZM868.576 311.601C861.49 304.456 849.148 296.02 835.132 293.967C821.068 291.907 805.385 296.287 791.732 314.66L792.534 315.257C805.976 297.169 821.3 292.952 834.988 294.956C848.724 296.969 860.879 305.26 867.866 312.305L868.576 311.601ZM791.958 314.49C771.639 322.067 754.58 320.624 748.655 318.984L748.389 319.948C754.526 321.647 771.8 323.075 792.308 315.427L791.958 314.49ZM748.7 318.999C738.605 315.142 712.381 308.237 688.143 311.458L688.274 312.449C712.287 309.259 738.335 316.11 748.344 319.933L748.7 318.999ZM688.237 311.454C633.315 308.357 566.462 311.705 505.232 314.772L505.282 315.77C566.527 312.703 633.323 309.359 688.18 312.452L688.237 311.454ZM505.232 314.772C466.488 316.712 429.999 318.539 400.183 318.553C385.275 318.561 372.047 318.114 361.046 317.004C350.035 315.893 341.296 314.121 335.345 311.496L334.942 312.411C341.041 315.101 349.907 316.885 360.945 317.999C371.994 319.114 385.26 319.561 400.183 319.553C430.029 319.539 466.547 317.71 505.282 315.77L505.232 314.772ZM335.345 311.496C321.795 305.519 310.07 302.726 300.388 301.826L300.295 302.822C309.861 303.711 321.481 306.474 334.942 312.411L335.345 311.496ZM284.5 268.5C284.039 268.693 284.039 268.693 284.039 268.693C284.039 268.693 284.039 268.693 284.039 268.694C284.039 268.694 284.04 268.695 284.04 268.696C284.041 268.698 284.042 268.701 284.044 268.705C284.047 268.713 284.052 268.725 284.059 268.741C284.072 268.772 284.092 268.819 284.118 268.882C284.17 269.006 284.248 269.19 284.35 269.431C284.555 269.912 284.856 270.618 285.247 271.521C286.028 273.326 287.163 275.914 288.58 279.051C291.414 285.322 295.378 293.787 299.897 302.553L300.786 302.095C296.277 293.348 292.321 284.901 289.491 278.639C288.076 275.508 286.944 272.924 286.165 271.124C285.775 270.223 285.474 269.519 285.271 269.04C285.169 268.8 285.091 268.617 285.04 268.493C285.014 268.432 284.994 268.385 284.981 268.354C284.974 268.338 284.969 268.327 284.966 268.319C284.965 268.315 284.963 268.312 284.963 268.31C284.962 268.309 284.962 268.308 284.962 268.308C284.962 268.308 284.961 268.308 284.961 268.307C284.961 268.307 284.961 268.307 284.5 268.5ZM269.649 243.698C273.551 251.312 277.999 259.988 284.089 268.785L284.911 268.215C278.863 259.48 274.443 250.859 270.538 243.242L269.649 243.698ZM255.778 222.203C258.333 224.427 260.603 227.458 262.838 231.116C265.073 234.775 267.256 239.032 269.649 243.698L270.538 243.242C268.151 238.585 265.95 234.292 263.692 230.595C261.434 226.899 259.101 223.77 256.434 221.448L255.778 222.203ZM195.199 105.292C196.002 130.426 206.281 155.148 218.772 175.82C231.266 196.495 245.999 213.16 255.767 222.193L256.445 221.458C246.743 212.487 232.071 195.894 219.628 175.302C207.183 154.708 196.994 130.156 196.199 105.26L195.199 105.292Z" fill="#73353B"/>
</g>
<defs>
<filter id="filter0_df_801_4081" x="-4.5" y="0.0734863" width="1483" height="342.427" filterUnits="userSpaceOnUse" color-interpolation-filters="sRGB">
<feFlood flood-opacity="0" result="BackgroundImageFix"/>
<feColorMatrix in="SourceAlpha" type="matrix" values="0 0 0 0 0 0 0 0 0 0 0 0 0 0 0 0 0 0 127 0" result="hardAlpha"/>
<feOffset dy="-2"/>
<feGaussianBlur stdDeviation="2"/>
<feComposite in2="hardAlpha" operator="out"/>
<feColorMatrix type="matrix" values="0 0 0 0 0 0 0 0 0 0 0 0 0 0 0 0 0 0 0.25 0"/>
<feBlend mode="normal" in2="BackgroundImageFix" result="effect1_dropShadow_801_4081"/>
<feBlend mode="normal" in="SourceGraphic" in2="effect1_dropShadow_801_4081" result="shape"/>
<feGaussianBlur stdDeviation="1" result="effect2_foregroundBlur_801_4081"/>
</filter>
</defs>
</svg>
