<svg width="413" height="292" viewBox="0 0 413 292" fill="none" xmlns="http://www.w3.org/2000/svg">
<path d="M104.121 281H63.4592C63.1043 281 62.9269 280.823 62.9269 280.468V268.12C62.9269 267.978 62.9979 267.836 63.1398 267.694L90.0705 230.758C90.5672 230.084 90.9753 229.232 91.2946 228.203C91.6494 227.139 91.8268 226.216 91.8268 225.436C91.8268 223.307 91.064 221.355 89.5383 219.581C88.0126 217.807 86.0788 216.92 83.737 216.92C81.5016 216.92 79.6034 217.771 78.0422 219.475C76.481 221.178 75.7004 223.342 75.7004 225.968V231.29C75.7004 231.645 75.523 231.822 75.1682 231.822H62.9269C62.6431 231.822 62.5012 231.645 62.5012 231.29V225.968C62.5012 221.887 63.5124 218.18 65.5349 214.844C67.5218 211.509 70.1297 208.866 73.3586 206.914C76.5874 204.927 80.0469 203.934 83.737 203.934C87.64 203.934 91.2059 204.927 94.4348 206.914C97.6281 208.937 100.183 211.58 102.099 214.844C104.05 218.109 105.026 221.639 105.026 225.436C105.026 227.813 104.6 230.243 103.749 232.727C102.933 235.175 101.797 237.357 100.342 239.273L79.6389 267.694H104.121C104.441 267.694 104.6 267.836 104.6 268.12V280.468C104.6 280.823 104.441 281 104.121 281ZM168.502 282.064C163.889 282.064 159.791 281.071 156.207 279.084C152.659 277.097 149.874 274.454 147.851 271.154C145.864 267.819 144.871 264.164 144.871 260.19L144.977 225.648C144.977 221.604 145.988 217.967 148.011 214.738C149.998 211.473 152.765 208.866 156.314 206.914C159.862 204.927 163.924 203.934 168.502 203.934C173.185 203.934 177.266 204.909 180.743 206.861C184.22 208.812 186.952 211.438 188.939 214.738C190.961 218.002 191.973 221.639 191.973 225.648L192.079 260.19C192.079 264.128 191.086 267.765 189.099 271.101C187.076 274.436 184.291 277.097 180.743 279.084C177.23 281.071 173.15 282.064 168.502 282.064ZM178.88 260.19L178.773 225.648C178.773 223.094 177.815 221.018 175.899 219.421C174.019 217.825 171.553 217.026 168.502 217.026C165.379 217.026 162.878 217.825 160.997 219.421C159.117 221.018 158.176 223.094 158.176 225.648V260.19C158.176 262.887 159.117 265.015 160.997 266.577C162.878 268.138 165.379 268.918 168.502 268.918C171.553 268.918 174.037 268.138 175.953 266.577C177.904 265.015 178.88 262.887 178.88 260.19ZM272.692 281H232.03C231.675 281 231.498 280.823 231.498 280.468V268.12C231.498 267.978 231.569 267.836 231.711 267.694L258.642 230.758C259.138 230.084 259.546 229.232 259.866 228.203C260.22 227.139 260.398 226.216 260.398 225.436C260.398 223.307 259.635 221.355 258.109 219.581C256.584 217.807 254.65 216.92 252.308 216.92C250.073 216.92 248.174 217.771 246.613 219.475C245.052 221.178 244.271 223.342 244.271 225.968V231.29C244.271 231.645 244.094 231.822 243.739 231.822H231.498C231.214 231.822 231.072 231.645 231.072 231.29V225.968C231.072 221.887 232.083 218.18 234.106 214.844C236.093 211.509 238.701 208.866 241.93 206.914C245.158 204.927 248.618 203.934 252.308 203.934C256.211 203.934 259.777 204.927 263.006 206.914C266.199 208.937 268.754 211.58 270.67 214.844C272.621 218.109 273.597 221.639 273.597 225.436C273.597 227.813 273.171 230.243 272.32 232.727C271.504 235.175 270.368 237.357 268.914 239.273L248.21 267.694H272.692C273.012 267.694 273.171 267.836 273.171 268.12V280.468C273.171 280.823 273.012 281 272.692 281ZM353.838 281H313.176C312.821 281 312.643 280.823 312.643 280.468V268.12C312.643 267.978 312.714 267.836 312.856 267.694L339.787 230.758C340.284 230.084 340.692 229.232 341.011 228.203C341.366 227.139 341.543 226.216 341.543 225.436C341.543 223.307 340.78 221.355 339.255 219.581C337.729 217.807 335.795 216.92 333.453 216.92C331.218 216.92 329.32 217.771 327.759 219.475C326.197 221.178 325.417 223.342 325.417 225.968V231.29C325.417 231.645 325.239 231.822 324.885 231.822H312.643C312.36 231.822 312.218 231.645 312.218 231.29V225.968C312.218 221.887 313.229 218.18 315.251 214.844C317.238 211.509 319.846 208.866 323.075 206.914C326.304 204.927 329.763 203.934 333.453 203.934C337.356 203.934 340.922 204.927 344.151 206.914C347.345 208.937 349.899 211.58 351.815 214.844C353.767 218.109 354.742 221.639 354.742 225.436C354.742 227.813 354.317 230.243 353.465 232.727C352.649 235.175 351.514 237.357 350.059 239.273L329.355 267.694H353.838C354.157 267.694 354.317 267.836 354.317 268.12V280.468C354.317 280.823 354.157 281 353.838 281Z" fill="#A76545"/>
<path d="M111.138 276H71.9685C71.6267 276 71.4558 275.829 71.4558 275.487V263.593C71.4558 263.456 71.5241 263.319 71.6608 263.183L97.6032 227.602C98.0817 226.952 98.4748 226.132 98.7824 225.141C99.1242 224.115 99.2951 223.227 99.2951 222.475C99.2951 220.424 98.5603 218.544 97.0905 216.835C95.6208 215.126 93.758 214.271 91.5022 214.271C89.3488 214.271 87.5202 215.092 86.0163 216.732C84.5124 218.373 83.7605 220.458 83.7605 222.987V228.114C83.7605 228.456 83.5896 228.627 83.2478 228.627H71.4558C71.1823 228.627 71.0456 228.456 71.0456 228.114V222.987C71.0456 219.057 72.0197 215.485 73.968 212.272C75.882 209.059 78.3942 206.513 81.5046 204.633C84.6149 202.719 87.9475 201.762 91.5022 201.762C95.2619 201.762 98.697 202.719 101.807 204.633C104.883 206.581 107.344 209.127 109.19 212.272C111.07 215.417 112.01 218.817 112.01 222.475C112.01 224.765 111.6 227.106 110.779 229.499C109.993 231.857 108.9 233.959 107.498 235.805L87.5544 263.183H111.138C111.446 263.183 111.6 263.319 111.6 263.593V275.487C111.6 275.829 111.446 276 111.138 276ZM171.056 277.025C166.613 277.025 162.665 276.068 159.213 274.154C155.795 272.24 153.112 269.694 151.163 266.515C149.249 263.302 148.292 259.782 148.292 255.954L148.395 222.68C148.395 218.783 149.369 215.28 151.317 212.169C153.231 209.025 155.897 206.513 159.315 204.633C162.733 202.719 166.647 201.762 171.056 201.762C175.568 201.762 179.498 202.702 182.848 204.582C186.198 206.461 188.829 208.991 190.744 212.169C192.692 215.314 193.666 218.817 193.666 222.68L193.768 255.954C193.768 259.748 192.811 263.251 190.897 266.464C188.949 269.677 186.266 272.24 182.848 274.154C179.464 276.068 175.534 277.025 171.056 277.025ZM181.054 255.954L180.951 222.68C180.951 220.219 180.028 218.219 178.183 216.681C176.371 215.143 173.996 214.374 171.056 214.374C168.048 214.374 165.639 215.143 163.827 216.681C162.016 218.219 161.11 220.219 161.11 222.68V255.954C161.11 258.551 162.016 260.602 163.827 262.106C165.639 263.61 168.048 264.362 171.056 264.362C173.996 264.362 176.388 263.61 178.234 262.106C180.114 260.602 181.054 258.551 181.054 255.954ZM269.323 276H230.153C229.812 276 229.641 275.829 229.641 275.487V263.593C229.641 263.456 229.709 263.319 229.846 263.183L255.788 227.602C256.267 226.952 256.66 226.132 256.967 225.141C257.309 224.115 257.48 223.227 257.48 222.475C257.48 220.424 256.745 218.544 255.275 216.835C253.806 215.126 251.943 214.271 249.687 214.271C247.534 214.271 245.705 215.092 244.201 216.732C242.697 218.373 241.945 220.458 241.945 222.987V228.114C241.945 228.456 241.775 228.627 241.433 228.627H229.641C229.367 228.627 229.231 228.456 229.231 228.114V222.987C229.231 219.057 230.205 215.485 232.153 212.272C234.067 209.059 236.579 206.513 239.69 204.633C242.8 202.719 246.132 201.762 249.687 201.762C253.447 201.762 256.882 202.719 259.992 204.633C263.068 206.581 265.529 209.127 267.375 212.272C269.255 215.417 270.195 218.817 270.195 222.475C270.195 224.765 269.785 227.106 268.964 229.499C268.178 231.857 267.085 233.959 265.683 235.805L245.739 263.183H269.323C269.631 263.183 269.785 263.319 269.785 263.593V275.487C269.785 275.829 269.631 276 269.323 276ZM345.391 276H306.221C305.879 276 305.708 275.829 305.708 275.487V263.593C305.708 263.456 305.777 263.319 305.913 263.183L331.856 227.602C332.334 226.952 332.727 226.132 333.035 225.141C333.377 224.115 333.548 223.227 333.548 222.475C333.548 220.424 332.813 218.544 331.343 216.835C329.873 215.126 328.011 214.271 325.755 214.271C323.601 214.271 321.773 215.092 320.269 216.732C318.765 218.373 318.013 220.458 318.013 222.987V228.114C318.013 228.456 317.842 228.627 317.5 228.627H305.708C305.435 228.627 305.298 228.456 305.298 228.114V222.987C305.298 219.057 306.272 215.485 308.221 212.272C310.135 209.059 312.647 206.513 315.757 204.633C318.867 202.719 322.2 201.762 325.755 201.762C329.514 201.762 332.95 202.719 336.06 204.633C339.136 206.581 341.597 209.127 343.443 212.272C345.323 215.417 346.263 218.817 346.263 222.475C346.263 224.765 345.852 227.106 345.032 229.499C344.246 231.857 343.152 233.959 341.751 235.805L321.807 263.183H345.391C345.699 263.183 345.852 263.319 345.852 263.593V275.487C345.852 275.829 345.699 276 345.391 276Z" fill="url(#paint0_linear_500_3989)"/>
<path d="M80.9362 4.39147L77.7722 27.0469L84.4986 3.69505C92.2118 2.3111 99.2323 1.85702 104.926 2.0378L92.8576 46.7885C33.3215 36.9033 15.7556 65.379 14.4147 80.8525H0C12.739 30.9075 51.0851 10.7073 80.9362 4.39147Z" fill="#A76545"/>
<path d="M66.0374 103.064C92.0385 76.7535 115.503 106.014 119.769 121.991C122.582 86.4314 109.69 66.5101 92.2913 57.4767L85.6631 61.0534L83.7549 53.9929C56.3017 45.5349 22.8445 59.2973 19.7165 79.8639C19.2343 83.0345 20.3046 86.9084 22.3616 91.1421L26.6179 92.2336L24.8173 95.6344C30.7385 105.483 40.553 116.518 48.0887 124.991C50.6674 127.89 52.9793 130.489 54.777 132.639C44.1363 131.546 37.2345 123.466 26.863 111.323L26.8622 111.322C24.6598 108.743 22.3009 105.981 19.7165 103.064C21.7639 119.381 16.6265 136.31 9.7358 142.837C9.73581 145.882 13.5625 147.889 19.8409 149.531L28.1606 147.55L28.1651 151.315C31.8122 151.983 35.8608 152.63 40.1793 153.32C56.1207 155.867 75.7403 159.001 92.4138 165.974C88.8795 157.981 83.0052 148.452 76.6283 139.551C82.552 140.45 93.7914 155.829 100.17 169.633C104.198 171.777 107.958 174.214 111.335 177L105.437 121.991C73.0895 121.38 65.6108 112.668 66.0374 103.064Z" fill="#A76545"/>
<path fill-rule="evenodd" clip-rule="evenodd" d="M152.726 74.2483L154.337 77.2575L156.937 74.2682C164.772 74.5162 171.01 77.0796 175.652 81.9583C180.587 87.0537 183.055 94.0039 183.055 102.809C183.055 109.245 181.776 114.854 179.219 119.637C176.617 124.375 173.252 128.04 169.124 130.632C164.997 133.224 160.51 134.521 155.665 134.521H145.166V169.115C145.166 169.562 144.942 169.786 144.493 169.786H129.015C128.566 169.786 128.342 169.562 128.342 169.115L128.362 162.22L128.681 163.852L133.449 159.991L128.376 157.088L128.611 74.7847C128.611 74.4271 128.791 74.2483 129.15 74.2483H152.726ZM155.665 90.5399L145.166 90.674V117.894H155.665C158.581 117.894 161.116 116.508 163.269 113.737C165.423 110.921 166.5 107.279 166.5 102.809C166.5 99.2333 165.535 96.3057 163.606 94.0262C161.677 91.702 159.03 90.5399 155.665 90.5399Z" fill="#A76545"/>
<path fill-rule="evenodd" clip-rule="evenodd" d="M179.825 169.115L196.918 74.7847C197.008 74.4271 197.232 74.2483 197.591 74.2483H217.579C217.938 74.2483 218.162 74.4271 218.252 74.7847L230.081 142.74L226.515 142.912L230.909 147.494L234.672 169.115C234.717 169.562 234.538 169.786 234.134 169.786H218.857C218.409 169.786 218.162 169.562 218.117 169.115L216.637 159.059H197.86L196.38 169.115C196.335 169.562 196.111 169.786 195.707 169.786H180.363C180.004 169.786 179.825 169.562 179.825 169.115ZM206.811 105.826L200.62 144.376H213.877L208.224 105.826L207.417 100.731L206.811 105.826Z" fill="#A76545"/>
<path fill-rule="evenodd" clip-rule="evenodd" d="M259.438 169.786H243.825C243.466 169.786 243.286 169.562 243.286 169.115L243.516 88.5537L248.688 86.1346L243.537 81.2071L243.556 74.7847C243.556 74.4271 243.735 74.2483 244.094 74.2483H271.955C276.935 74.2483 281.511 75.4551 285.684 77.8687C289.856 80.2822 293.176 83.5227 295.644 87.59C298.156 91.6573 299.413 96.261 299.413 101.401C299.413 104.753 298.897 107.793 297.865 110.519C296.833 113.245 295.622 115.547 294.231 117.424C292.885 119.302 291.651 120.687 290.529 121.581C293.991 125.402 296.249 129.687 297.305 134.437L292.509 134.822L297.925 140.12L297.983 139.925C297.994 140.267 297.999 140.611 297.999 140.957L298.134 169.115C298.134 169.562 297.91 169.786 297.461 169.786H281.848C281.489 169.786 281.31 169.651 281.31 169.383V140.957C281.31 137.649 280.143 134.789 277.81 132.375C275.477 129.962 272.606 128.755 269.196 128.755H260.111L259.976 169.115C259.976 169.562 259.797 169.786 259.438 169.786ZM271.955 90.674H260.111V112.262H271.955C274.782 112.262 277.294 111.212 279.493 109.111C281.736 107.01 282.857 104.44 282.857 101.401C282.857 98.4958 281.781 95.9928 279.627 93.8921C277.474 91.7467 274.916 90.674 271.955 90.674Z" fill="#A76545"/>
<path d="M336.359 169.786H320.813C320.41 169.786 320.208 169.562 320.208 169.115V164.066L324.395 159.97L320.208 159.634V90.8081H302.306C301.858 90.8081 301.633 90.5846 301.633 90.1377L301.768 74.7847C301.768 74.4271 301.948 74.2483 302.306 74.2483H354.664C355.158 74.2483 355.404 74.4271 355.404 74.7847V90.1377C355.404 90.5846 355.225 90.8081 354.866 90.8081H336.763L336.781 101.295L332.529 101.637L336.789 105.803L336.897 169.115C336.897 169.562 336.718 169.786 336.359 169.786Z" fill="#A76545"/>
<path fill-rule="evenodd" clip-rule="evenodd" d="M349.146 169.115L359.347 112.82L364.154 108.118L360.256 107.805L366.239 74.7847C366.329 74.4271 366.553 74.2483 366.912 74.2483H386.9C387.259 74.2483 387.483 74.4271 387.573 74.7847L388.442 79.7798L385.301 80.0321L389.14 83.787L403.993 169.115C404.038 169.562 403.859 169.786 403.455 169.786H388.178C387.73 169.786 387.483 169.562 387.438 169.115L385.957 159.059H367.181L365.701 169.115C365.656 169.562 365.432 169.786 365.028 169.786H349.684C349.325 169.786 349.146 169.562 349.146 169.115ZM376.132 105.826L369.941 144.376H383.198L377.545 105.826L376.738 100.731L376.132 105.826Z" fill="#A76545"/>
<g filter="url(#filter0_i_500_3989)">
<path d="M85.8505 2.30901L82.8071 24.1832L89.277 1.6366C96.6962 0.300375 103.449 -0.138053 108.925 0.0364932L97.3174 43.2442C40.0511 33.6998 23.1549 61.1936 21.8652 76.1336H8C20.2533 27.9108 57.1375 8.40702 85.8505 2.30901Z" fill="url(#paint1_linear_500_3989)"/>
<path d="M71.5197 97.5796C96.5295 72.1759 119.1 100.428 123.202 115.854C125.908 81.5201 113.508 62.2857 96.7726 53.5638L90.3971 57.0172L88.5618 50.2001C62.1552 42.0338 29.9735 55.3216 26.9648 75.179C26.501 78.2403 27.5305 81.9807 29.5091 86.0684L33.6031 87.1223L31.8711 90.4057C37.5666 99.9146 47.0069 110.569 54.2553 118.75C56.7357 121.549 58.9595 124.059 60.6886 126.134C50.4536 125.079 43.8149 117.277 33.8388 105.553L33.8381 105.552C31.7196 103.063 29.4507 100.396 26.9648 97.5796C28.9341 113.334 23.9926 129.679 17.3646 135.98C17.3646 138.921 21.0455 140.858 27.0844 142.444L35.087 140.531L35.0913 144.166C38.5993 144.812 42.4936 145.436 46.6474 146.102C61.981 148.561 80.8527 151.588 96.8905 158.32C93.4909 150.602 87.8406 141.402 81.7068 132.808C87.4047 133.676 98.2155 148.525 104.351 161.852C108.226 163.923 111.842 166.276 115.09 168.966L109.417 115.854C78.3029 115.263 71.1094 106.852 71.5197 97.5796Z" fill="url(#paint2_linear_500_3989)"/>
<path fill-rule="evenodd" clip-rule="evenodd" d="M154.903 69.7571L156.453 72.6626L158.954 69.7763C166.49 70.0158 172.491 72.4907 176.955 77.2013C181.702 82.1209 184.076 88.8314 184.076 97.3329C184.076 103.547 182.846 108.963 180.386 113.581C177.883 118.155 174.647 121.694 170.676 124.197C166.706 126.7 162.391 127.951 157.73 127.951H147.632V161.353C147.632 161.784 147.416 162 146.985 162H132.096C131.665 162 131.449 161.784 131.449 161.353L131.468 154.695L131.775 156.271L136.361 152.543L131.482 149.74L131.708 70.2749C131.708 69.9297 131.88 69.7571 132.226 69.7571H154.903ZM157.73 85.487L147.632 85.6164V111.898H157.73C160.535 111.898 162.973 110.56 165.045 107.884C167.116 105.165 168.152 101.648 168.152 97.3329C168.152 93.8805 167.224 91.0539 165.368 88.853C163.513 86.609 160.967 85.487 157.73 85.487Z" fill="url(#paint3_linear_500_3989)"/>
<path fill-rule="evenodd" clip-rule="evenodd" d="M180.969 161.353L197.411 70.2749C197.497 69.9297 197.713 69.7571 198.058 69.7571H217.283C217.629 69.7571 217.844 69.9297 217.931 70.2749L229.309 135.887L225.879 136.053L230.105 140.477L233.725 161.353C233.768 161.784 233.596 162 233.207 162H218.513C218.082 162 217.844 161.784 217.801 161.353L216.377 151.643H198.317L196.893 161.353C196.85 161.784 196.634 162 196.246 162H181.487C181.141 162 180.969 161.784 180.969 161.353ZM206.926 100.246L200.971 137.467H213.723L208.286 100.246L207.509 95.3262L206.926 100.246Z" fill="url(#paint4_linear_500_3989)"/>
<path fill-rule="evenodd" clip-rule="evenodd" d="M257.547 162H242.529C242.184 162 242.011 161.784 242.011 161.353L242.232 83.5692L247.207 81.2335L242.252 76.476L242.27 70.2749C242.27 69.9297 242.443 69.7571 242.788 69.7571H269.587C274.377 69.7571 278.779 70.9223 282.792 73.2526C286.805 75.583 289.999 78.7117 292.372 82.6387C294.789 86.5658 295.997 91.0107 295.997 95.9735C295.997 99.2101 295.501 102.145 294.509 104.777C293.516 107.41 292.351 109.632 291.013 111.444C289.718 113.257 288.532 114.595 287.453 115.458C290.782 119.147 292.954 123.285 293.97 127.87L289.357 128.242L294.567 133.357L294.622 133.169C294.633 133.499 294.638 133.831 294.638 134.165L294.768 161.353C294.768 161.784 294.552 162 294.12 162H279.102C278.757 162 278.585 161.871 278.585 161.612V134.165C278.585 130.972 277.463 128.21 275.219 125.88C272.974 123.549 270.213 122.384 266.933 122.384H258.194L258.065 161.353C258.065 161.784 257.892 162 257.547 162ZM269.587 85.6164H258.194V106.46H269.587C272.306 106.46 274.722 105.446 276.837 103.418C278.995 101.389 280.073 98.9081 280.073 95.9735C280.073 93.1685 279.038 90.7518 276.966 88.7236C274.895 86.6521 272.435 85.6164 269.587 85.6164Z" fill="url(#paint5_linear_500_3989)"/>
<path d="M331.535 162H316.582C316.194 162 316 161.784 316 161.353V156.477L320.027 152.523L316 152.198V85.7459H298.781C298.349 85.7459 298.134 85.5301 298.134 85.0986L298.263 70.2749C298.263 69.9297 298.436 69.7571 298.781 69.7571H349.142C349.617 69.7571 349.854 69.9297 349.854 70.2749V85.0986C349.854 85.5301 349.682 85.7459 349.337 85.7459H331.924L331.941 95.8713L327.851 96.201L331.948 100.224L332.053 161.353C332.053 161.784 331.881 162 331.535 162Z" fill="url(#paint6_linear_500_3989)"/>
<path fill-rule="evenodd" clip-rule="evenodd" d="M343.834 161.353L353.647 106.999L358.27 102.459L354.521 102.156L360.276 70.2749C360.363 69.9297 360.578 69.7571 360.924 69.7571H380.149C380.494 69.7571 380.71 69.9297 380.796 70.2749L381.633 75.0979L378.611 75.3414L382.304 78.9669L396.591 161.353C396.634 161.784 396.461 162 396.073 162H381.379C380.947 162 380.71 161.784 380.667 161.353L379.243 151.643H361.182L359.758 161.353C359.715 161.784 359.499 162 359.111 162H344.352C344.007 162 343.834 161.784 343.834 161.353ZM369.792 100.246L363.837 137.467H376.589L371.151 100.246L370.374 95.3262L369.792 100.246Z" fill="url(#paint7_linear_500_3989)"/>
</g>
<defs>
<filter id="filter0_i_500_3989" x="8" y="0" width="388.597" height="172.966" filterUnits="userSpaceOnUse" color-interpolation-filters="sRGB">
<feFlood flood-opacity="0" result="BackgroundImageFix"/>
<feBlend mode="normal" in="SourceGraphic" in2="BackgroundImageFix" result="shape"/>
<feColorMatrix in="SourceAlpha" type="matrix" values="0 0 0 0 0 0 0 0 0 0 0 0 0 0 0 0 0 0 127 0" result="hardAlpha"/>
<feOffset dy="4"/>
<feGaussianBlur stdDeviation="2"/>
<feComposite in2="hardAlpha" operator="arithmetic" k2="-1" k3="1"/>
<feColorMatrix type="matrix" values="0 0 0 0 0 0 0 0 0 0 0 0 0 0 0 0 0 0 0.25 0"/>
<feBlend mode="normal" in2="shape" result="effect1_innerShadow_500_3989"/>
</filter>
<linearGradient id="paint0_linear_500_3989" x1="209.5" y1="199" x2="210" y2="396.5" gradientUnits="userSpaceOnUse">
<stop stop-color="white"/>
<stop offset="1" stop-color="#D39947"/>
</linearGradient>
<linearGradient id="paint1_linear_500_3989" x1="202.299" y1="9.63723e-07" x2="231.51" y2="535.8" gradientUnits="userSpaceOnUse">
<stop stop-color="white"/>
<stop offset="1" stop-color="#D69C47"/>
</linearGradient>
<linearGradient id="paint2_linear_500_3989" x1="202.299" y1="9.63723e-07" x2="231.51" y2="535.8" gradientUnits="userSpaceOnUse">
<stop stop-color="white"/>
<stop offset="1" stop-color="#D69C47"/>
</linearGradient>
<linearGradient id="paint3_linear_500_3989" x1="202.299" y1="9.63723e-07" x2="231.51" y2="535.8" gradientUnits="userSpaceOnUse">
<stop stop-color="white"/>
<stop offset="1" stop-color="#D69C47"/>
</linearGradient>
<linearGradient id="paint4_linear_500_3989" x1="202.299" y1="9.63723e-07" x2="231.51" y2="535.8" gradientUnits="userSpaceOnUse">
<stop stop-color="white"/>
<stop offset="1" stop-color="#D69C47"/>
</linearGradient>
<linearGradient id="paint5_linear_500_3989" x1="202.299" y1="9.63723e-07" x2="231.51" y2="535.8" gradientUnits="userSpaceOnUse">
<stop stop-color="white"/>
<stop offset="1" stop-color="#D69C47"/>
</linearGradient>
<linearGradient id="paint6_linear_500_3989" x1="202.299" y1="9.63723e-07" x2="231.51" y2="535.8" gradientUnits="userSpaceOnUse">
<stop stop-color="white"/>
<stop offset="1" stop-color="#D69C47"/>
</linearGradient>
<linearGradient id="paint7_linear_500_3989" x1="202.299" y1="9.63723e-07" x2="231.51" y2="535.8" gradientUnits="userSpaceOnUse">
<stop stop-color="white"/>
<stop offset="1" stop-color="#D69C47"/>
</linearGradient>
</defs>
</svg>
