<svg width="1439" height="532" viewBox="0 0 1439 532" fill="none" xmlns="http://www.w3.org/2000/svg">
<g clip-path="url(#clip0_1934_12230)">
<g clip-path="url(#clip1_1934_12230)">
<path d="M221.5 171.5C125.958 251.634 16.8333 283 -64 314.5V532.5H1376.5V171.5L1050.5 17L702 251.5L644.5 214.5L547 262.5L284.5 111.5C279.462 118.252 247.532 149.667 221.5 171.5Z" fill="url(#paint0_linear_1934_12230)"/>
<path d="M1281.22 186.791L1050.68 17L1411.69 170.34L1439.5 176.334V468.5L1398.6 498H1108.48H1059.95L1042.5 479.519L1196.83 147.864L1280.19 188.495C1281.28 189.029 1282.2 187.513 1281.22 186.791Z" fill="#A86744"/>
<path d="M204 179C114.788 250.33 24 267.834 -56.5 299.5L-78 383.5L33 379L237 191.5L284.508 111.492C274.174 119.992 237.983 151.829 204 179Z" fill="#A86744"/>
<path d="M543 283L284.496 111.496L550.026 260.997L543 283Z" fill="#B9704F"/>
<path d="M744.957 276.035L1050.51 16.9961L702.855 250.594L744.957 276.035Z" fill="#B9704F"/>
<path d="M643.99 218.471L627.99 224.971L644.49 214.471L659.635 224.971L643.99 218.471Z" fill="#B9704F"/>
<path d="M543 282.999L644.548 214.471L550.049 260.959L543 282.999Z" fill="#A86744"/>
<path d="M737.5 281.5L745 276L644.484 214.477L737.5 281.5Z" fill="#A86744"/>
<rect x="-12.5" y="214" width="1453" height="318" fill="url(#paint1_linear_1934_12230)"/>
</g>
<rect x="5.5" y="335" width="1454" height="13" fill="#A76545"/>
<path d="M115 335V319H140V494H99V375C77 332 55.3333 357.333 46 375V494H0.5L0 319H29V335H46V319H99V335H115Z" fill="url(#paint2_linear_1934_12230)"/>
<path d="M262 335V319H287V494H246V375C224 332 202.333 357.333 193 375V494H146L147 319H176V335H193V319H246V335H262Z" fill="url(#paint3_linear_1934_12230)"/>
<path d="M409 335V319H434V494H393V375C371 332 349.333 357.333 340 375V494H293L294 319H323V335H340V319H393V335H409Z" fill="url(#paint4_linear_1934_12230)"/>
<path d="M556 335V319H581V494H540V375C518 332 496.333 357.333 487 375V494H440L441 319H470V335H487V319H540V335H556Z" fill="url(#paint5_linear_1934_12230)"/>
<path d="M703 335V319H728V494H687V375C665 332 643.333 357.333 634 375V494H587L588 319H617V335H634V319H687V335H703Z" fill="url(#paint6_linear_1934_12230)"/>
<path d="M850 335V319H875V494H834V375C812 332 790.333 357.333 781 375V494H734L735 319H764V335H781V319H834V335H850Z" fill="url(#paint7_linear_1934_12230)"/>
<path d="M997 335V319H1022V494H981V375C959 332 937.333 357.333 928 375V494H881L882 319H911V335H928V319H981V335H997Z" fill="url(#paint8_linear_1934_12230)"/>
<path d="M1144 335V319H1169V494H1128V375C1106 332 1084.33 357.333 1075 375V494H1028L1029 319H1058V335H1075V319H1128V335H1144Z" fill="url(#paint9_linear_1934_12230)"/>
<path d="M1291 335V319H1316V494H1275V375C1253 332 1231.33 357.333 1222 375V494H1175L1176 319H1205V335H1222V319H1275V335H1291Z" fill="url(#paint10_linear_1934_12230)"/>
<path d="M1438 335V319H1463V494H1422V375C1400 332 1378.33 357.333 1369 375V494H1322L1323 319H1352V335H1369V319H1422V335H1438Z" fill="url(#paint11_linear_1934_12230)"/>
</g>
<defs>
<linearGradient id="paint0_linear_1934_12230" x1="656.25" y1="17" x2="656.25" y2="532.5" gradientUnits="userSpaceOnUse">
<stop stop-color="#8D3732"/>
<stop offset="1" stop-color="#8D5132"/>
</linearGradient>
<linearGradient id="paint1_linear_1934_12230" x1="714" y1="214" x2="714" y2="532" gradientUnits="userSpaceOnUse">
<stop stop-color="#72343A" stop-opacity="0"/>
<stop offset="1" stop-color="#72343A"/>
</linearGradient>
<linearGradient id="paint2_linear_1934_12230" x1="69.5" y1="319" x2="69.5" y2="494" gradientUnits="userSpaceOnUse">
<stop stop-color="#A76545"/>
<stop offset="1" stop-color="#A76545" stop-opacity="0"/>
</linearGradient>
<linearGradient id="paint3_linear_1934_12230" x1="216.5" y1="319" x2="216.5" y2="494" gradientUnits="userSpaceOnUse">
<stop stop-color="#A76545"/>
<stop offset="1" stop-color="#A76545" stop-opacity="0"/>
</linearGradient>
<linearGradient id="paint4_linear_1934_12230" x1="363.5" y1="319" x2="363.5" y2="494" gradientUnits="userSpaceOnUse">
<stop stop-color="#A76545"/>
<stop offset="1" stop-color="#A76545" stop-opacity="0"/>
</linearGradient>
<linearGradient id="paint5_linear_1934_12230" x1="510.5" y1="319" x2="510.5" y2="494" gradientUnits="userSpaceOnUse">
<stop stop-color="#A76545"/>
<stop offset="1" stop-color="#A76545" stop-opacity="0"/>
</linearGradient>
<linearGradient id="paint6_linear_1934_12230" x1="657.5" y1="319" x2="657.5" y2="494" gradientUnits="userSpaceOnUse">
<stop stop-color="#A76545"/>
<stop offset="1" stop-color="#A76545" stop-opacity="0"/>
</linearGradient>
<linearGradient id="paint7_linear_1934_12230" x1="804.5" y1="319" x2="804.5" y2="494" gradientUnits="userSpaceOnUse">
<stop stop-color="#A76545"/>
<stop offset="1" stop-color="#A76545" stop-opacity="0"/>
</linearGradient>
<linearGradient id="paint8_linear_1934_12230" x1="951.5" y1="319" x2="951.5" y2="494" gradientUnits="userSpaceOnUse">
<stop stop-color="#A76545"/>
<stop offset="1" stop-color="#A76545" stop-opacity="0"/>
</linearGradient>
<linearGradient id="paint9_linear_1934_12230" x1="1098.5" y1="319" x2="1098.5" y2="494" gradientUnits="userSpaceOnUse">
<stop stop-color="#A76545"/>
<stop offset="1" stop-color="#A76545" stop-opacity="0"/>
</linearGradient>
<linearGradient id="paint10_linear_1934_12230" x1="1245.5" y1="319" x2="1245.5" y2="494" gradientUnits="userSpaceOnUse">
<stop stop-color="#A76545"/>
<stop offset="1" stop-color="#A76545" stop-opacity="0"/>
</linearGradient>
<linearGradient id="paint11_linear_1934_12230" x1="1392.5" y1="319" x2="1392.5" y2="494" gradientUnits="userSpaceOnUse">
<stop stop-color="#A76545"/>
<stop offset="1" stop-color="#A76545" stop-opacity="0"/>
</linearGradient>
<clipPath id="clip0_1934_12230">
<rect width="1439" height="532" fill="white"/>
</clipPath>
<clipPath id="clip1_1934_12230">
<rect width="1452" height="516" fill="white" transform="translate(0 17)"/>
</clipPath>
</defs>
</svg>
