<svg width="570" height="72" viewBox="0 0 570 72" fill="none" xmlns="http://www.w3.org/2000/svg">
<path d="M19.8867 71.9766C16.3385 71.9766 13.0671 71.0651 10.0723 69.2422C7.11003 67.4193 4.73372 64.9941 2.94336 61.9668C1.18555 58.9069 0.306641 55.554 0.306641 51.9082V47.3184C0.306641 46.9603 0.469401 46.7812 0.794922 46.7812H12.0254C12.2858 46.7812 12.416 46.9603 12.416 47.3184V51.9082C12.416 54.0892 13.1484 55.9772 14.6133 57.5723C16.0781 59.1348 17.8359 59.916 19.8867 59.916C21.9701 59.916 23.7441 59.1185 25.209 57.5234C26.6738 55.8958 27.4062 54.0241 27.4062 51.9082C27.4062 49.4668 25.8112 47.3346 22.6211 45.5117C22.1003 45.1862 21.4167 44.7956 20.5703 44.3398C19.7565 43.8516 18.7799 43.2982 17.6406 42.6797C16.5013 42.0612 15.3945 41.459 14.3203 40.873C13.2461 40.2546 12.2044 39.6686 11.1953 39.1152C7.54948 36.9668 4.83138 34.2812 3.04102 31.0586C1.2832 27.8034 0.404297 24.1576 0.404297 20.1211C0.404297 16.4102 1.31576 13.0573 3.13867 10.0625C4.96159 7.10026 7.33789 4.75651 10.2676 3.03125C13.2298 1.27344 16.4362 0.394531 19.8867 0.394531C23.4349 0.394531 26.6901 1.27344 29.6523 3.03125C32.6146 4.82161 34.9746 7.19792 36.7324 10.1602C38.5228 13.1224 39.418 16.4427 39.418 20.1211V28.3242C39.418 28.5846 39.2878 28.7148 39.0273 28.7148H27.7969C27.5365 28.7148 27.4062 28.5846 27.4062 28.3242L27.3086 20.1211C27.3086 17.7773 26.5762 15.873 25.1113 14.4082C23.6465 12.9434 21.9049 12.2109 19.8867 12.2109C17.8359 12.2109 16.0781 12.9922 14.6133 14.5547C13.1484 16.1172 12.416 17.9727 12.416 20.1211C12.416 22.3021 12.8717 24.125 13.7832 25.5898C14.7272 27.0547 16.4362 28.4544 18.9102 29.7891C19.1706 29.9193 19.7728 30.2448 20.7168 30.7656C21.6608 31.2865 22.7025 31.8724 23.8418 32.5234C25.0137 33.1419 26.0716 33.7116 27.0156 34.2324C27.9596 34.7207 28.5293 35.0137 28.7246 35.1113C32.0449 36.9668 34.6654 39.2454 36.5859 41.9473C38.5391 44.6491 39.5156 47.9694 39.5156 51.9082C39.5156 55.7168 38.6367 59.1348 36.8789 62.1621C35.0885 65.1895 32.7122 67.582 29.75 69.3398C26.7878 71.0977 23.5 71.9766 19.8867 71.9766ZM79.1641 71H46.8398C46.5794 71 46.4492 70.8372 46.4492 70.5117L46.5469 1.81055C46.5469 1.55013 46.6771 1.41992 46.9375 1.41992H79.0664C79.3268 1.41992 79.457 1.58268 79.457 1.9082V13.0898C79.457 13.3503 79.3268 13.4805 79.0664 13.4805H58.5586V29.1055H79.0664C79.3268 29.1055 79.457 29.2357 79.457 29.4961L79.5547 40.8242C79.5547 41.0846 79.4245 41.2148 79.1641 41.2148H58.5586V58.6953H79.1641C79.4245 58.6953 79.5547 58.8581 79.5547 59.1836V70.6094C79.5547 70.8698 79.4245 71 79.1641 71ZM121.156 71H88.832C88.5716 71 88.4414 70.8372 88.4414 70.5117L88.5391 1.9082C88.5391 1.58268 88.7018 1.41992 89.0273 1.41992H100.16C100.486 1.41992 100.648 1.58268 100.648 1.9082L100.551 58.6953H121.156C121.482 58.6953 121.645 58.8581 121.645 59.1836V70.5117C121.645 70.8372 121.482 71 121.156 71ZM124.818 70.5117L137.221 1.81055C137.286 1.55013 137.449 1.41992 137.709 1.41992H152.211C152.471 1.41992 152.634 1.55013 152.699 1.81055L164.613 70.5117C164.646 70.8372 164.516 71 164.223 71H153.139C152.813 71 152.634 70.8372 152.602 70.5117L151.527 63.1875H137.904L136.83 70.5117C136.798 70.8372 136.635 71 136.342 71H125.209C124.949 71 124.818 70.8372 124.818 70.5117ZM144.398 24.418L139.906 52.4941H149.525L145.424 24.418L144.838 20.707L144.398 24.418ZM182.582 71H171.254C170.993 71 170.863 70.8372 170.863 70.5117L171.059 1.81055C171.059 1.55013 171.189 1.41992 171.449 1.41992H183.656C183.917 1.41992 184.145 1.55013 184.34 1.81055L193.471 14.9941L202.553 1.81055C202.748 1.55013 202.992 1.41992 203.285 1.41992H215.541C215.834 1.41992 215.98 1.55013 215.98 1.81055L216.176 70.5117C216.176 70.8372 216.046 71 215.785 71H204.457C204.197 71 204.066 70.8372 204.066 70.5117L203.969 19.4863L193.471 34.7207L183.07 19.4863L182.973 70.5117C182.973 70.8372 182.842 71 182.582 71ZM221.205 70.5117L233.607 1.81055C233.673 1.55013 233.835 1.41992 234.096 1.41992H248.598C248.858 1.41992 249.021 1.55013 249.086 1.81055L261 70.5117C261.033 70.8372 260.902 71 260.609 71H249.525C249.2 71 249.021 70.8372 248.988 70.5117L247.914 63.1875H234.291L233.217 70.5117C233.184 70.8372 233.021 71 232.729 71H221.596C221.335 71 221.205 70.8372 221.205 70.5117ZM240.785 24.418L236.293 52.4941H245.912L241.811 24.418L241.225 20.707L240.785 24.418ZM282.533 71H271.254C270.961 71 270.814 70.8372 270.814 70.5117V13.4805H257.826C257.501 13.4805 257.338 13.3177 257.338 12.9922L257.436 1.81055C257.436 1.55013 257.566 1.41992 257.826 1.41992H295.814C296.173 1.41992 296.352 1.55013 296.352 1.81055V12.9922C296.352 13.3177 296.221 13.4805 295.961 13.4805H282.826L282.924 70.5117C282.924 70.8372 282.794 71 282.533 71ZM345.619 70.9023L327.699 71C327.374 71 327.211 70.8372 327.211 70.5117L327.406 1.81055C327.406 1.55013 327.536 1.41992 327.797 1.41992L346.498 1.32227C350.209 1.22461 353.562 2.07096 356.557 3.86133C359.584 5.65169 361.993 8.07682 363.783 11.1367C365.606 14.1641 366.518 17.5169 366.518 21.1953V49.9062C366.518 53.7474 365.59 57.263 363.734 60.4531C361.846 63.6107 359.34 66.1335 356.215 68.0215C353.09 69.877 349.558 70.8372 345.619 70.9023ZM346.498 13.2852L339.516 13.3828L339.418 58.6953H345.619C348.093 58.6953 350.176 57.8327 351.869 56.1074C353.562 54.3822 354.408 52.3151 354.408 49.9062V21.0977C354.408 18.9818 353.627 17.1426 352.064 15.5801C350.502 13.985 348.646 13.2201 346.498 13.2852ZM368.959 70.5117L381.361 1.81055C381.426 1.55013 381.589 1.41992 381.85 1.41992H396.352C396.612 1.41992 396.775 1.55013 396.84 1.81055L408.754 70.5117C408.786 70.8372 408.656 71 408.363 71H397.279C396.954 71 396.775 70.8372 396.742 70.5117L395.668 63.1875H382.045L380.971 70.5117C380.938 70.8372 380.775 71 380.482 71H369.35C369.089 71 368.959 70.8372 368.959 70.5117ZM388.539 24.418L384.047 52.4941H393.666L389.564 24.418L388.979 20.707L388.539 24.418ZM430.287 71H419.008C418.715 71 418.568 70.8372 418.568 70.5117V13.4805H405.58C405.255 13.4805 405.092 13.3177 405.092 12.9922L405.189 1.81055C405.189 1.55013 405.32 1.41992 405.58 1.41992H443.568C443.926 1.41992 444.105 1.55013 444.105 1.81055V12.9922C444.105 13.3177 443.975 13.4805 443.715 13.4805H430.58L430.678 70.5117C430.678 70.8372 430.548 71 430.287 71ZM439.564 70.5117L451.967 1.81055C452.032 1.55013 452.195 1.41992 452.455 1.41992H466.957C467.217 1.41992 467.38 1.55013 467.445 1.81055L479.359 70.5117C479.392 70.8372 479.262 71 478.969 71H467.885C467.559 71 467.38 70.8372 467.348 70.5117L466.273 63.1875H452.65L451.576 70.5117C451.544 70.8372 451.381 71 451.088 71H439.955C439.695 71 439.564 70.8372 439.564 70.5117ZM459.145 24.418L454.652 52.4941H464.271L460.17 24.418L459.584 20.707L459.145 24.418ZM496.498 71H486.488C485.967 71 485.707 70.7721 485.707 70.3164L485.609 2.20117C485.609 1.68034 485.87 1.41992 486.391 1.41992H495.424L512.318 40.8242L511.83 2.20117C511.83 1.68034 512.123 1.41992 512.709 1.41992H522.621C523.012 1.41992 523.207 1.68034 523.207 2.20117L523.305 70.4141C523.305 70.8047 523.142 71 522.816 71H514.027L496.693 34.1836L497.426 70.2188C497.426 70.7396 497.117 71 496.498 71ZM550.307 71.9766C546.693 71.9766 543.438 71.0814 540.541 69.291C537.611 67.5007 535.251 65.0918 533.461 62.0645C531.703 59.0371 530.824 55.6517 530.824 51.9082V20.2188C530.824 16.5729 531.719 13.2526 533.51 10.2578C535.268 7.23047 537.628 4.82161 540.59 3.03125C543.552 1.20833 546.791 0.296875 550.307 0.296875C553.985 0.296875 557.305 1.17578 560.268 2.93359C563.23 4.72396 565.574 7.11654 567.299 10.1113C569.057 13.1061 569.936 16.4753 569.936 20.2188V24.8086C569.936 25.069 569.773 25.1992 569.447 25.1992H558.217C557.956 25.1992 557.826 25.069 557.826 24.8086V21C557.826 18.4609 557.11 16.3613 555.678 14.7012C554.245 13.041 552.455 12.2109 550.307 12.2109C548.386 12.2109 546.677 13.0085 545.18 14.6035C543.682 16.1986 542.934 18.0703 542.934 20.2188V51.9082C542.934 54.0892 543.666 55.9772 545.131 57.5723C546.596 59.1348 548.321 59.916 550.307 59.916C552.455 59.916 554.245 59.151 555.678 57.6211C557.11 56.0586 557.826 54.1543 557.826 51.9082V46.9766H550.844C550.486 46.9766 550.307 46.8138 550.307 46.4883V35.3066C550.307 34.9811 550.486 34.8184 550.844 34.8184H569.545C569.805 34.8184 569.936 34.9811 569.936 35.3066V51.9082C569.936 55.6517 569.057 59.0371 567.299 62.0645C565.508 65.0918 563.148 67.5007 560.219 69.291C557.289 71.0814 553.985 71.9766 550.307 71.9766Z" fill="url(#paint0_linear_322_1197)"/>
<defs>
<linearGradient id="paint0_linear_322_1197" x1="286" y1="-63.4453" x2="283.516" y2="545.202" gradientUnits="userSpaceOnUse">
<stop stop-color="#FAFAFA"/>
<stop offset="1" stop-color="#D39947"/>
</linearGradient>
</defs>
</svg>
