<svg width="243" height="170" viewBox="0 0 243 170" fill="none" xmlns="http://www.w3.org/2000/svg">
<path fill-rule="evenodd" clip-rule="evenodd" d="M8.38326 52.88C6.5955 51.5906 7.65429 48.7661 9.84911 48.9696L11.0374 49.0797C11.0789 49.0798 11.1208 49.0799 11.163 49.0801C11.6416 49.0828 12.1123 49.1326 12.5768 49.2225L13.0013 49.2618C13.0162 49.2632 13.0242 49.28 13.016 49.2924C13.0084 49.3038 13.0144 49.3192 13.0277 49.3226C13.2036 49.3666 13.3787 49.4161 13.5531 49.4707C21.6874 52.0183 61.5382 64.8741 85.9571 72.7638C88.3835 73.5478 90.6401 71.2013 89.7812 68.8003C88.9144 66.3771 91.2326 64.0257 93.6679 64.858L135.038 78.9964C137.981 80.0021 140.871 77.3537 140.125 74.3345C139.419 71.4737 141.995 68.8815 144.86 69.5702L184.955 79.2086C185.428 79.3508 186.273 79.4336 187.176 79.1732C188.599 78.7631 188.547 76.9081 187.664 75.7197C186.952 74.7622 186.95 73.441 187.638 72.4658L187.77 72.2773C188.204 71.6627 188.405 70.9143 188.338 70.1653L188.073 67.1854C187.987 66.2216 187.323 65.407 186.396 65.1285C185.743 64.9321 185.206 64.4634 184.923 63.8425L184.119 62.0775C183.409 60.517 183.292 58.7256 184.031 57.1783C187.147 50.6553 193.799 44.1534 202.518 55.8451C203.62 57.3226 204.148 59.1532 204.189 60.9959C204.335 67.4679 204.476 72.4763 204.597 76.1483C204.741 80.5372 207.8 84.2414 212.065 85.2897L248.612 94.2742C252.868 95.3205 255.84 99.1644 255.781 103.547C255.699 109.646 249.93 114.06 244.022 112.543L216.74 105.542C210.581 103.961 204.531 108.454 204.263 114.806L203.713 127.83C203.637 129.633 203.136 131.447 201.839 132.701C198.846 135.594 193.766 137.638 187.961 132.516C185.584 130.418 185.122 126.986 186.035 123.95L186.216 123.348C186.46 122.534 186.817 121.76 187.275 121.045C188.197 119.608 188.698 117.942 188.721 116.235L188.774 112.311C188.785 111.497 188.556 110.698 188.116 110.012L187.469 109.004C186.703 107.811 186.949 106.234 188.042 105.331C188.709 104.78 189.084 103.951 189.058 103.087L189.023 101.919C189.006 101.362 188.914 100.799 188.592 100.344C187.924 99.3986 186.493 98.092 183.976 97.3355C180.918 96.4163 173.583 94.8586 169.614 94.0549C169.094 93.9495 168.632 93.6557 168.317 93.2284C167.687 92.3744 166.525 92.1133 165.589 92.6155L165.41 92.7121C164.861 93.0069 164.218 93.0738 163.621 92.8984L161.579 92.2993C159.455 91.6759 157.56 93.7984 158.419 95.8385C158.693 96.4886 158.694 97.2215 158.421 97.8722L158.375 97.9827C157.784 99.394 156.201 100.107 154.752 99.6146L105.971 83.0343C103.526 82.2032 101.083 84.2928 101.525 86.8371C101.986 89.4871 99.3338 91.598 96.8547 90.5544L10.5954 54.2452C10.3769 54.1532 10.1611 54.0547 9.95029 53.9469C9.93902 53.9411 9.92522 53.9447 9.91822 53.9553C9.91043 53.967 9.89444 53.9699 9.88302 53.9617L9.5864 53.7477C9.43818 53.6608 9.29338 53.568 9.15292 53.4684C8.8893 53.2814 8.6293 53.0838 8.38326 52.88Z" fill="#8E4440"/>
<path d="M151.205 81.1186L255.214 106.246C255.505 106.325 255.792 106.108 255.794 105.806L255.844 99.9584C255.863 97.6632 254.31 95.6528 252.084 95.0927L212.186 85.0534C207.854 83.9633 204.77 80.1321 204.637 75.6668C204.496 70.9463 204.335 65.3815 204.217 60.8707C204.169 59.0297 203.639 57.2043 202.528 55.7352C193.97 44.4137 187.226 50.8088 184.019 57.1978C183.263 58.7034 183.365 60.4683 184.071 61.9977L184.944 63.8869C185.22 64.4837 185.758 64.9177 186.4 65.0607C187.315 65.2647 187.986 66.0489 188.045 66.9851L188.252 70.2435C188.296 70.9344 188.092 71.6181 187.675 72.1712C186.911 73.1871 186.894 74.585 187.666 75.5953L187.726 75.6734C188.618 76.8384 188.693 78.6274 187.312 79.1241C186.396 79.4534 185.524 79.4291 185.039 79.321L144.697 69.5647C141.863 68.8793 139.325 71.4699 140.068 74.2894C140.851 77.2581 138.015 79.9042 135.108 78.9179L93.6388 64.8497C91.1959 64.0209 88.8784 66.3847 89.7554 68.8108C90.6249 71.2164 88.351 73.5713 85.9165 72.7866L12.6089 49.1569C12.5091 49.1248 12.4058 49.1041 12.3013 49.0954C10.7023 48.9628 10.2133 51.2118 11.7229 51.7552L93.5044 81.1872C95.4181 81.8759 97.3495 80.2085 96.9474 78.2148C96.554 76.2641 98.4003 74.6082 100.297 75.2107L143.4 88.9053C145.797 89.6667 148.082 87.4652 147.41 85.042C146.765 82.7149 148.858 80.5515 151.205 81.1186Z" fill="url(#paint0_linear_244_1126)"/>
<path d="M178.837 87.7865L255.214 106.246C255.505 106.325 255.792 106.107 255.794 105.806L255.844 99.9582C255.863 97.6631 254.31 95.6526 252.084 95.0925L212.186 85.0533C207.854 83.9632 204.77 80.132 204.636 75.6666C204.496 70.9462 204.335 65.3814 204.217 60.8705C204.169 59.0296 203.639 57.2042 202.528 55.7351C193.97 44.4135 187.226 50.8087 184.019 57.1976C183.263 58.7033 183.365 60.4682 184.071 61.9976L184.944 63.8867C185.22 64.4835 185.758 64.9176 186.4 65.0606C187.315 65.2645 187.986 66.0488 188.045 66.9849L188.252 70.2434C188.296 70.9342 188.092 71.618 187.675 72.1711C186.911 73.187 186.87 74.6016 187.626 75.6244C187.77 75.8189 187.917 76.0125 188.068 76.2019L188.08 76.2159C188.406 76.6241 188.787 77.1003 188.639 77.5994C187.967 79.8693 178.976 78.2283 172.024 76.6038C169.477 76.0087 167.753 78.828 169.496 80.7778L174.319 85.335C175.586 86.532 177.143 87.377 178.837 87.7865Z" fill="#C5960D" fill-opacity="0.13"/>
<path d="M148.261 80.1348L255.214 106.247C255.505 106.325 255.792 106.108 255.794 105.806L255.844 99.9586C255.863 97.6635 254.31 95.653 252.084 95.0929L212.186 85.0537C207.854 83.9635 204.77 80.1324 204.637 75.667C204.496 70.9466 204.335 65.3818 204.217 60.8709C204.169 59.0299 203.639 57.2046 202.528 55.7355C193.97 44.4139 187.226 50.8091 184.019 57.198C183.263 58.7037 183.365 60.4685 184.071 61.9979L184.944 63.8871C185.22 64.4839 185.758 64.918 186.4 65.061C187.315 65.2649 187.986 66.0492 188.045 66.9853L188.252 70.2438C188.296 70.9346 188.092 71.6184 187.675 72.1715C186.911 73.1874 186.894 74.5852 187.666 75.5955L187.726 75.6736C188.618 76.8386 188.693 78.6276 187.312 79.1244C186.396 79.4536 185.524 79.4294 185.039 79.3212L150.023 70.6109C145.554 69.4992 142.233 74.705 145.125 78.2888C145.702 79.0039 146.473 79.5385 147.344 79.8291L148.261 80.1348Z" fill="#C5960D" fill-opacity="0.13"/>
<path d="M151.205 81.119L255.214 106.247C255.505 106.326 255.792 106.108 255.794 105.806L255.844 99.9588C255.863 97.6637 254.31 95.6532 252.084 95.0931L212.186 85.0539C207.854 83.9637 204.77 80.1326 204.637 75.6672C204.496 70.9468 204.335 65.382 204.217 60.8711C204.169 59.0301 203.639 57.2048 202.528 55.7357C193.97 44.4141 187.226 50.8093 184.019 57.1982C183.264 58.7039 183.365 60.4687 184.071 61.9981L184.944 63.8873C185.22 64.4841 185.758 64.9182 186.4 65.0611C187.315 65.2651 187.986 66.0494 188.045 66.9855L188.253 70.244C188.296 70.9348 188.092 71.6186 187.676 72.1717C186.911 73.1875 186.894 74.5854 187.666 75.5957L187.726 75.6738C188.619 76.8388 188.693 78.6278 187.312 79.1246C186.396 79.4538 185.524 79.4295 185.039 79.3214L144.697 69.5651C141.863 68.8797 139.325 71.4703 140.069 74.2898C140.851 77.2586 138.015 79.9047 135.108 78.9183L99.6434 66.8872C96.0223 65.6587 93.0045 69.8691 95.3311 72.9037C95.8126 73.5317 96.4753 73.997 97.2295 74.2366L143.4 88.9057C145.797 89.6671 148.082 87.4657 147.41 85.0424C146.765 82.7154 148.858 80.5519 151.205 81.119Z" fill="#C5960D" fill-opacity="0.13"/>
<defs>
<linearGradient id="paint0_linear_244_1126" x1="284.387" y1="104.822" x2="141.126" y2="76.499" gradientUnits="userSpaceOnUse">
<stop stop-color="#C5960D"/>
<stop offset="1" stop-color="#BD720B"/>
</linearGradient>
</defs>
</svg>
