<svg width="243" height="170" viewBox="0 0 243 170" fill="none" xmlns="http://www.w3.org/2000/svg">
<path fill-rule="evenodd" clip-rule="evenodd" d="M234.156 52.8113C235.945 51.5209 234.885 48.6943 232.689 48.8979L231.505 49.0077C231.464 49.0077 231.422 49.0078 231.38 49.008C230.902 49.0107 230.431 49.0605 229.967 49.1503L229.542 49.1897C229.527 49.191 229.519 49.2078 229.528 49.2202C229.535 49.2316 229.529 49.247 229.516 49.2503C229.34 49.2943 229.164 49.3439 228.99 49.3986C220.855 51.9463 181.005 64.802 156.586 72.6918C154.159 73.4757 151.903 71.1292 152.762 68.7283C153.629 66.305 151.31 63.9536 148.875 64.7859L107.505 78.9243C104.562 79.93 101.672 77.2816 102.418 74.2624C103.124 71.4017 100.548 68.8094 97.6831 69.4982L57.5884 79.1365C57.1154 79.2787 56.2703 79.3615 55.3666 79.1011C53.9436 78.6911 53.9958 76.836 54.8794 75.6476C55.5912 74.6901 55.5928 73.3689 54.9054 72.3937L54.7725 72.2052C54.3392 71.5906 54.138 70.8422 54.2048 70.0932L54.4703 67.1134C54.5562 66.1495 55.2201 65.335 56.1468 65.0564C56.8002 64.86 57.337 64.3914 57.6198 63.7705L58.4236 62.0055C59.1343 60.4449 59.2509 58.6536 58.5119 57.1062C55.3964 50.5833 48.7442 44.0814 40.0246 55.773C38.9227 57.2505 38.3953 59.0812 38.3539 60.9239C38.2084 67.3959 38.0665 72.4042 37.9459 76.0763C37.8018 80.4652 34.7425 84.1693 30.4782 85.2176L-6.06882 94.2022C-10.325 95.2485 -13.2969 99.0923 -13.2381 103.475C-13.1563 109.574 -7.38714 113.988 -1.47897 112.471L25.8033 105.469C31.9618 103.889 38.0123 108.382 38.2803 114.734L38.8296 127.758C38.9056 129.561 39.4065 131.375 40.7042 132.629C43.6974 135.522 48.7765 137.565 54.5818 132.444C56.959 130.346 57.4209 126.914 56.5084 123.878L56.3274 123.276C56.0829 122.462 55.7262 121.687 55.2675 120.973C54.3456 119.536 53.8447 117.87 53.8218 116.163L53.7692 112.239C53.7583 111.425 53.987 110.626 54.4269 109.94L55.0742 108.932C55.8401 107.739 55.5939 106.162 54.5007 105.259C53.8336 104.708 53.4585 103.879 53.4846 103.015L53.5197 101.847C53.5364 101.29 53.6293 100.727 53.9513 100.271C54.6193 99.3265 56.0496 98.0199 58.5667 97.2634C61.6247 96.3442 68.9597 94.7866 72.9285 93.9828C73.449 93.8774 73.9108 93.5836 74.2261 93.1563C74.8564 92.3023 76.0184 92.0412 76.9535 92.5435L77.1334 92.6401C77.6821 92.9348 78.3247 93.0017 78.9224 92.8263L80.9637 92.2272C83.0876 91.6038 84.9828 93.7263 84.1238 95.7664C83.8501 96.4166 83.8494 97.1495 84.1219 97.8001L84.1681 97.9106C84.7592 99.322 86.3419 100.035 87.7906 99.5426L136.572 82.9622C139.017 82.1312 141.46 84.2208 141.018 86.765C140.557 89.4151 143.209 91.5259 145.688 90.4824L231.948 54.1731C232.166 54.0811 232.382 53.9825 232.593 53.8746C232.605 53.8688 232.618 53.8724 232.625 53.883C232.633 53.8948 232.649 53.8977 232.661 53.8894L232.96 53.6738C233.107 53.5873 233.251 53.4952 233.39 53.3963C233.652 53.2104 233.911 53.0139 234.156 52.8113Z" fill="#8E4440"/>
<path d="M91.339 81.0463L-12.6694 106.174C-12.9604 106.253 -13.2474 106.035 -13.25 105.734L-13.2996 99.8861C-13.3191 97.5909 -11.7656 95.5805 -9.53973 95.0204L30.3582 84.9811C34.6905 83.891 37.7746 80.0599 37.9077 75.5945C38.0484 70.8741 38.2093 65.3093 38.3274 60.7984C38.3756 58.9574 38.9055 57.1321 40.016 55.663C48.5742 44.3414 55.318 50.7366 58.5251 57.1255C59.2809 58.6312 59.1795 60.396 58.473 61.9254L57.6003 63.8146C57.3246 64.4114 56.7863 64.8455 56.1447 64.9884C55.2291 65.1924 54.5584 65.9767 54.4989 66.9128L54.2918 70.1713C54.2479 70.8621 54.4525 71.5458 54.8688 72.0989C55.6333 73.1148 55.6501 74.5127 54.8782 75.523L54.8184 75.6011C53.9258 76.7661 53.8517 78.5551 55.2327 79.0519C56.1482 79.3811 57.0203 79.3568 57.5057 79.2487L97.8468 69.4924C100.681 68.807 103.219 71.3976 102.476 74.2171C101.693 77.1859 104.529 79.8319 107.437 78.8456L148.905 64.7774C151.348 63.9487 153.666 66.3125 152.789 68.7385C151.919 71.1441 154.193 73.4991 156.628 72.7143L229.935 49.0847C230.035 49.0525 230.138 49.0319 230.243 49.0232C231.842 48.8905 232.331 51.1396 230.821 51.6829L149.04 81.1149C147.126 81.8036 145.195 80.1362 145.597 78.1425C145.99 76.1918 144.144 74.5359 142.247 75.1385L99.1443 88.833C96.7477 89.5944 94.4626 87.393 95.1341 84.9697C95.7789 82.6427 93.6862 80.4792 91.339 81.0463Z" fill="url(#paint0_linear_244_1118)"/>
<path d="M63.7065 87.7152L-12.6699 106.175C-12.9609 106.254 -13.2479 106.036 -13.2505 105.735L-13.3002 99.8869C-13.3197 97.5918 -11.7661 95.5813 -9.54023 95.0212L30.3578 84.982C34.6901 83.8919 37.7742 80.0607 37.9073 75.5953C38.048 70.8749 38.2088 65.3101 38.327 60.7992C38.3752 58.9583 38.9051 57.1329 40.0156 55.6638C48.5738 44.3422 55.3176 50.7374 58.5246 57.1264C59.2804 58.632 59.1791 60.3969 58.4726 61.9263L57.5999 63.8154C57.3242 64.4122 56.7859 64.8463 56.1442 64.9893C55.2287 65.1933 54.558 65.9775 54.4985 66.9136L54.2914 70.1721C54.2475 70.8629 54.4521 71.5467 54.8684 72.0998C55.6329 73.1157 55.6733 74.5303 54.9179 75.5531C54.7743 75.7476 54.6267 75.9412 54.4753 76.1306L54.464 76.1446C54.1375 76.5528 53.7566 77.029 53.9044 77.5282C54.5767 79.798 63.5683 78.157 70.5201 76.5325C73.0666 75.9374 74.7908 78.7567 73.0481 80.7065L68.225 85.2637C66.9582 86.4607 65.4005 87.3057 63.7065 87.7152Z" fill="#C5960D" fill-opacity="0.13"/>
<path d="M94.2822 80.0625L-12.6701 106.174C-12.9612 106.253 -13.2482 106.036 -13.2507 105.734L-13.3004 99.8864C-13.3199 97.5912 -11.7664 95.5807 -9.5405 95.0207L30.3574 84.9814C34.6897 83.8913 37.7739 80.0601 37.9069 75.5948C38.0476 70.8743 38.2085 65.3095 38.3266 60.7986C38.3748 58.9577 38.9047 57.1323 40.0152 55.6632C48.5735 44.3416 55.3173 50.7368 58.5243 57.1258C59.2801 58.6314 59.1787 60.3963 58.4722 61.9257L57.5995 63.8148C57.3239 64.4117 56.7856 64.8457 56.1439 64.9887C55.2284 65.1927 54.5576 65.9769 54.4981 66.913L54.291 70.1715C54.2471 70.8624 54.4518 71.5461 54.868 72.0992C55.6326 73.1151 55.6493 74.513 54.8774 75.5232L54.8176 75.6014C53.925 76.7664 53.8509 78.5554 55.232 79.0521C56.1474 79.3814 57.0195 79.3571 57.5049 79.249L92.5207 70.5386C96.9897 69.4269 100.31 74.6328 97.4182 78.2165C96.8411 78.9317 96.071 79.4662 95.1992 79.7568L94.2822 80.0625Z" fill="#C5960D" fill-opacity="0.13"/>
<path d="M91.3385 81.0467L-12.6699 106.175C-12.961 106.253 -13.248 106.036 -13.2505 105.734L-13.3002 99.8865C-13.3197 97.5914 -11.7661 95.5809 -9.54028 95.0209L30.3576 84.9816C34.6899 83.8915 37.7741 80.0603 37.9071 75.5949C38.0478 70.8745 38.2087 65.3097 38.3268 60.7988C38.375 58.9579 38.9049 57.1325 40.0154 55.6634C48.5736 44.3418 55.3175 50.737 58.5245 57.1259C59.2803 58.6316 59.1789 60.3965 58.4724 61.9259L57.5997 63.815C57.324 64.4118 56.7858 64.8459 56.1441 64.9889C55.2285 65.1929 54.5578 65.9771 54.4983 66.9132L54.2912 70.1717C54.2473 70.8625 54.452 71.5463 54.8682 72.0994C55.6328 73.1153 55.6495 74.5132 54.8776 75.5234L54.8178 75.6016C53.9252 76.7666 53.8511 78.5556 55.2321 79.0523C56.1476 79.3816 57.0197 79.3573 57.5051 79.2491L97.8463 69.4928C100.68 68.8074 103.219 71.3981 102.475 74.2176C101.693 77.1863 104.529 79.8324 107.436 78.846L142.9 66.8149C146.521 65.5864 149.539 69.7968 147.213 72.8314C146.731 73.4595 146.069 73.9247 145.314 74.1643L99.1437 88.8334C96.7472 89.5949 94.462 87.3934 95.1335 84.9701C95.7783 82.6431 93.6856 80.4797 91.3385 81.0467Z" fill="#C5960D" fill-opacity="0.13"/>
<defs>
<linearGradient id="paint0_linear_244_1118" x1="-41.8423" y1="104.75" x2="101.418" y2="76.4267" gradientUnits="userSpaceOnUse">
<stop stop-color="#C5960D"/>
<stop offset="1" stop-color="#BD720B"/>
</linearGradient>
</defs>
</svg>
