<svg width="426" height="283" viewBox="0 0 426 283" fill="none" xmlns="http://www.w3.org/2000/svg">
<path fill-rule="evenodd" clip-rule="evenodd" d="M398.327 18.2032C405.095 12.1111 410.776 6.99698 411.309 2C423.501 21.4359 426.287 71.6188 382.692 77.53C381.01 80.3493 379.072 83.55 376.865 87.1531C394.724 78.7219 414.564 84.1652 425.254 90.0695C414.622 108.619 387.063 138.263 357.785 117.785C356.541 119.763 355.258 121.798 353.937 123.893C351.809 127.265 349.637 130.591 347.424 133.87C366.451 128.96 385.142 136.751 395.071 143.946C381.636 161.656 349.919 188.387 322.435 166.96C317.536 172.79 312.503 178.446 307.354 183.932C326.216 180.281 344.209 188.361 353.835 195.684C339.084 214.191 303.829 242.239 275.721 214.383C268.251 220.895 260.628 227.113 252.895 233.046C275.323 227.524 295.707 239.251 305.492 248.768C287.789 266.101 246.767 291.125 222.738 254.451C208.462 263.824 193.997 272.32 179.58 279.995C191.116 272.966 203.641 263.347 216.643 252.039C182.479 239.369 192.509 199.352 202.853 179.313C218.29 185.786 242.177 204.712 235.76 234.573C244.552 226.186 253.443 217.254 262.286 208.037C230.883 197.474 235.597 158.822 242.992 138.524C258.487 142.986 283.17 157.922 282.957 185.924C291.286 176.799 299.465 167.598 307.366 158.547C274.477 149.763 278.158 110.759 285.031 90.3419C300.645 94.4609 325.911 109.068 325.361 137.656C333.527 128.062 341.227 118.87 348.286 110.389C315.638 102.887 319.314 65.3216 325.99 45.8482C340.906 49.8645 365.179 64.1584 363.521 92.0243C368.971 85.446 373.77 79.6637 377.784 74.9137C366.236 47.0928 384.537 30.6174 398.327 18.2032Z" fill="url(#paint0_linear_244_785)"/>
<path d="M411.309 2L411.733 1.73432L410.966 0.510957L410.812 1.94689L411.309 2ZM398.327 18.2032L398.662 18.5748L398.327 18.2032ZM382.692 77.53L382.625 77.0345L382.386 77.0669L382.263 77.2738L382.692 77.53ZM376.865 87.1531L376.439 86.892L375.564 88.3203L377.079 87.6052L376.865 87.1531ZM425.254 90.0695L425.688 90.3181L425.941 89.8774L425.496 89.6318L425.254 90.0695ZM357.785 117.785L358.072 117.375L357.642 117.075L357.362 117.519L357.785 117.785ZM353.937 123.893L353.514 123.626L353.937 123.893ZM347.424 133.87L347.009 133.59L346.271 134.684L347.548 134.354L347.424 133.87ZM395.071 143.946L395.469 144.248L395.778 143.841L395.364 143.541L395.071 143.946ZM322.435 166.96L322.742 166.566L322.362 166.269L322.052 166.638L322.435 166.96ZM307.354 183.932L306.99 183.59L305.932 184.717L307.449 184.423L307.354 183.932ZM353.835 195.684L354.226 195.996L354.545 195.596L354.138 195.286L353.835 195.684ZM275.721 214.383L276.073 214.028L275.743 213.7L275.392 214.006L275.721 214.383ZM252.895 233.046L252.59 232.649L253.014 233.531L252.895 233.046ZM305.492 248.768L305.841 249.125L306.208 248.767L305.84 248.41L305.492 248.768ZM222.738 254.451L223.156 254.177L222.882 253.758L222.463 254.033L222.738 254.451ZM179.58 279.995L179.32 279.568L179.815 280.436L179.58 279.995ZM216.643 252.039L216.971 252.417L217.607 251.864L216.817 251.57L216.643 252.039ZM202.853 179.313L203.046 178.852L202.62 178.673L202.408 179.084L202.853 179.313ZM235.76 234.573L235.271 234.468L234.93 236.056L236.105 234.934L235.76 234.573ZM262.286 208.037L262.647 208.383L263.193 207.814L262.446 207.563L262.286 208.037ZM242.992 138.524L243.131 138.044L242.682 137.915L242.523 138.353L242.992 138.524ZM282.957 185.924L282.457 185.92L282.447 187.224L283.326 186.261L282.957 185.924ZM307.366 158.547L307.742 158.875L308.27 158.271L307.495 158.063L307.366 158.547ZM285.031 90.3419L285.159 89.8584L284.706 89.7391L284.557 90.1824L285.031 90.3419ZM325.361 137.656L324.862 137.647L324.835 139.047L325.742 137.98L325.361 137.656ZM348.286 110.389L348.671 110.709L349.191 110.083L348.398 109.901L348.286 110.389ZM325.99 45.8482L326.12 45.3654L325.669 45.2439L325.517 45.6861L325.99 45.8482ZM363.521 92.0243L363.021 91.9946L362.931 93.5201L363.906 92.3433L363.521 92.0243ZM377.784 74.9137L378.166 75.2365L378.362 75.0036L378.245 74.7221L377.784 74.9137ZM410.812 1.94689C410.562 4.28624 409.096 6.71586 406.78 9.36157C404.471 11.9992 401.383 14.7793 397.993 17.8316L398.662 18.5748C402.039 15.5349 405.176 12.712 407.532 10.0203C409.882 7.33666 411.523 4.71074 411.807 2.05311L410.812 1.94689ZM382.759 78.0255C393.758 76.5341 401.864 72.2437 407.628 66.3164C413.388 60.3937 416.781 52.8656 418.41 44.9374C421.664 29.1033 417.9 11.5664 411.733 1.73432L410.886 2.26568C416.91 11.8694 420.635 29.142 417.431 44.7361C415.831 52.522 412.509 59.8627 406.911 65.6192C401.318 71.3711 393.424 75.5703 382.625 77.0345L382.759 78.0255ZM377.292 87.4142C379.499 83.81 381.438 80.6076 383.121 77.7862L382.263 77.2738C380.582 80.0911 378.645 83.2901 376.439 86.892L377.292 87.4142ZM425.496 89.6318C414.73 83.6853 394.711 78.1749 376.652 86.7009L377.079 87.6052C394.736 79.2689 414.399 84.6451 425.013 90.5072L425.496 89.6318ZM357.499 118.195C364.9 123.372 372.216 125.394 379.198 125.202C386.172 125.01 392.778 122.608 398.77 118.99C410.745 111.762 420.346 99.6379 425.688 90.3181L424.821 89.8208C419.53 99.0501 410.036 111.023 398.254 118.134C392.368 121.687 385.93 124.016 379.17 124.202C372.417 124.388 365.31 122.438 358.072 117.375L357.499 118.195ZM354.36 124.16C355.681 122.065 356.964 120.029 358.208 118.051L357.362 117.519C356.117 119.496 354.835 121.532 353.514 123.626L354.36 124.16ZM347.838 134.15C350.055 130.866 352.229 127.536 354.36 124.16L353.514 123.626C351.389 126.994 349.22 130.315 347.009 133.59L347.838 134.15ZM395.364 143.541C385.364 136.294 366.52 128.425 347.299 133.386L347.548 134.354C366.382 129.494 384.921 137.208 394.777 144.351L395.364 143.541ZM322.127 167.354C336.063 178.218 351.078 176.853 364.236 170.581C377.375 164.318 388.721 153.144 395.469 144.248L394.672 143.644C387.986 152.458 376.756 163.505 363.806 169.678C350.876 175.842 336.291 177.128 322.742 166.566L322.127 167.354ZM307.719 184.274C312.874 178.782 317.912 173.119 322.817 167.282L322.052 166.638C317.159 172.461 312.133 178.11 306.99 183.59L307.719 184.274ZM354.138 195.286C344.441 187.909 326.307 179.754 307.259 183.441L307.449 184.423C326.126 180.807 343.976 188.812 353.533 196.082L354.138 195.286ZM275.369 214.738C282.467 221.773 290.039 225.297 297.644 226.311C305.241 227.324 312.833 225.827 319.977 222.882C334.253 216.995 346.819 205.289 354.226 195.996L353.444 195.373C346.1 204.586 333.663 216.157 319.596 221.957C312.569 224.855 305.155 226.304 297.776 225.32C290.403 224.337 283.028 220.921 276.073 214.028L275.369 214.738ZM253.199 233.443C260.941 227.503 268.571 221.279 276.049 214.76L275.392 214.006C267.93 220.511 260.316 226.722 252.59 232.649L253.199 233.443ZM305.84 248.41C295.988 238.827 275.435 226.981 252.775 232.56L253.014 233.531C275.211 228.066 295.426 239.675 305.143 249.126L305.84 248.41ZM222.319 254.725C228.38 263.974 235.535 269.365 243.156 271.946C250.77 274.525 258.805 274.283 266.608 272.348C282.197 268.48 296.954 257.827 305.841 249.125L305.142 248.411C296.326 257.042 281.721 267.568 266.367 271.377C258.697 273.28 250.865 273.501 243.476 270.999C236.094 268.499 229.11 263.265 223.156 254.177L222.319 254.725ZM179.815 280.436C194.245 272.755 208.723 264.251 223.012 254.869L222.463 254.033C208.202 263.397 193.75 271.885 179.345 279.554L179.815 280.436ZM216.315 251.662C203.324 262.96 190.823 272.559 179.32 279.568L179.84 280.422C191.408 273.373 203.957 263.735 216.971 252.417L216.315 251.662ZM202.408 179.084C197.213 189.148 192.084 204.249 192.558 218.456C192.795 225.567 194.436 232.476 198.198 238.416C201.964 244.363 207.834 249.306 216.469 252.508L216.817 251.57C208.37 248.438 202.682 243.628 199.043 237.881C195.4 232.129 193.79 225.406 193.557 218.423C193.091 204.445 198.148 189.517 203.297 179.542L202.408 179.084ZM236.249 234.678C239.493 219.581 235.072 207.238 227.899 197.869C220.736 188.513 210.828 182.115 203.046 178.852L202.659 179.774C210.315 182.984 220.069 189.286 227.105 198.477C234.13 207.654 238.444 219.704 235.271 234.468L236.249 234.678ZM261.926 207.691C253.086 216.904 244.2 225.83 235.415 234.211L236.105 234.934C244.903 226.541 253.799 217.605 262.647 208.383L261.926 207.691ZM242.523 138.353C238.807 148.55 235.757 163.372 237.594 176.998C239.434 190.648 246.194 203.152 262.127 208.511L262.446 207.563C246.975 202.359 240.39 190.256 238.585 176.864C236.777 163.449 239.782 148.796 243.462 138.696L242.523 138.353ZM283.457 185.927C283.565 171.763 277.37 160.903 269.212 153.037C261.062 145.179 250.941 140.293 243.131 138.044L242.854 139.005C250.538 141.218 260.506 146.031 268.518 153.757C276.522 161.474 282.562 172.083 282.457 185.92L283.457 185.927ZM306.989 158.218C299.09 167.267 290.913 176.465 282.587 185.587L283.326 186.261C291.658 177.133 299.84 167.929 307.742 158.875L306.989 158.218ZM284.557 90.1824C281.104 100.44 278.445 115.383 280.795 128.893C283.151 142.432 290.556 154.575 307.237 159.03L307.495 158.063C291.286 153.735 284.088 141.984 281.78 128.721C279.468 115.429 282.085 100.662 285.505 90.5014L284.557 90.1824ZM325.861 137.666C326.139 123.205 319.882 112.277 311.601 104.46C303.329 96.6516 293.03 91.935 285.159 89.8584L284.903 90.8253C292.646 92.8678 302.786 97.5144 310.914 105.187C319.032 112.85 325.133 123.52 324.862 137.647L325.861 137.666ZM347.902 110.069C340.844 118.549 333.145 127.74 324.981 137.332L325.742 137.98C333.909 128.384 341.611 119.191 348.671 110.709L347.902 110.069ZM325.517 45.6861C322.162 55.4713 319.552 69.8219 321.9 82.6976C323.075 89.1418 325.496 95.2374 329.709 100.202C333.926 105.171 339.916 108.978 348.175 110.876L348.398 109.901C340.333 108.048 334.539 104.347 330.471 99.5545C326.4 94.7567 324.036 88.8373 322.883 82.5182C320.576 69.8674 323.142 55.6985 326.463 46.0104L325.517 45.6861ZM364.02 92.054C364.859 77.9514 359.13 67.2764 351.321 59.6353C343.522 52.0052 333.644 47.3912 326.12 45.3654L325.86 46.331C333.253 48.3216 342.969 52.8627 350.621 60.3501C358.262 67.8265 363.841 78.2313 363.021 91.9946L364.02 92.054ZM377.402 74.591C373.386 79.3431 368.585 85.1272 363.135 91.7053L363.906 92.3433C369.356 85.7647 374.154 79.9843 378.166 75.2365L377.402 74.591ZM397.993 17.8316C391.109 24.0283 383.016 31.3073 378.112 40.5465C373.189 49.822 371.489 61.0522 377.322 75.1054L378.245 74.7221C372.531 60.9543 374.207 50.0363 378.996 41.0154C383.803 31.9581 391.755 24.7923 398.662 18.5748L397.993 17.8316ZM1.06282 340.548C41.9107 335.375 110.317 317.432 179.815 280.436L179.345 279.554C109.957 316.492 41.6669 334.398 0.937179 339.556L1.06282 340.548Z" fill="#CF942F"/>
<defs>
<linearGradient id="paint0_linear_244_785" x1="213.127" y1="2" x2="213.127" y2="340.052" gradientUnits="userSpaceOnUse">
<stop stop-color="#E6B93E"/>
<stop offset="1" stop-color="#C58528"/>
</linearGradient>
</defs>
</svg>
