<svg width="391" height="915" viewBox="0 0 391 915" fill="none" xmlns="http://www.w3.org/2000/svg">
<rect width="391" height="915" rx="6" fill="url(#paint0_linear_518_3275)"/>
<path d="M0 2.00001C0 0.89544 0.895431 0 2 0H389C390.105 0 391 0.89543 391 2V357.809C391 359.284 389.456 360.252 388.128 359.608L197.865 267.419C197.318 267.154 196.681 267.152 196.132 267.414L2.8613 359.635C1.53397 360.268 0 359.3 0 357.83V2.00001Z" fill="white" fill-opacity="0.13"/>
<path d="M0 2C0 0.89543 0.895431 0 2 0H389C390.105 0 391 0.895431 391 2V533.83C391 535.461 389.152 536.406 387.83 535.451L198.162 398.557C197.467 398.056 196.53 398.052 195.832 398.549L3.15868 535.495C1.83448 536.436 0 535.489 0 533.864V2Z" fill="white" fill-opacity="0.13"/>
<path d="M0 1.99999C0 0.895417 0.895431 0 2 0H389C390.105 0 391 0.895431 391 2V792.509C391 794.324 388.777 795.201 387.538 793.875L198.45 591.453C197.664 590.611 196.331 590.606 195.538 591.442L3.45102 793.942C2.20718 795.253 0 794.373 0 792.566V1.99999Z" fill="white" fill-opacity="0.13"/>
<defs>
<linearGradient id="paint0_linear_518_3275" x1="196" y1="-544.5" x2="196" y2="1012" gradientUnits="userSpaceOnUse">
<stop stop-color="white"/>
<stop offset="1" stop-color="#C79C64"/>
</linearGradient>
</defs>
</svg>
