<svg width="360" height="1297" viewBox="0 0 360 1297" fill="none" xmlns="http://www.w3.org/2000/svg">
<g clip-path="url(#clip0_381_1570)">
<rect width="694" height="1471" transform="translate(0 -174)" fill="white"/>
<rect y="-174" width="366" height="1471" fill="url(#paint0_linear_381_1570)"/>
<path d="M383.601 822.518L663.269 838L678 768.223H568.908L583.638 762.285L530.907 755.286L637.437 720.08L568.908 693.357L595.807 686.57L568.908 677.875L606.268 661.544L465.153 677.875L481.591 669.391H432.916L476.254 656.454L357.769 652L249.53 661.544L290.093 669.391L225.193 677.875L312.723 693.357H278.778L465.153 713.929L439.961 720.08L432.916 735.562L465.153 748.499H439.961L476.254 755.286L143 781.161H236.508L257.216 792.401H432.916L417.332 802.582L465.153 812.125L383.601 822.518Z" fill="url(#paint1_linear_381_1570)"/>
<path d="M41.8492 466.483L-237.297 452L-252 517.275H-143.112L-157.815 522.83L-105.182 529.377L-211.513 562.312L-143.112 587.311L-169.961 593.66L-143.112 601.795L-180.402 617.072L-39.5507 601.795L-55.9585 609.731H-7.3743L-50.6313 621.834L67.6329 626L175.669 617.072L135.182 609.731L199.961 601.795L112.595 587.311H146.476L-39.5507 568.066L-14.4062 562.312L-7.3743 547.829L-39.5507 535.726H-14.4062L-50.6313 529.377L282 505.172H188.667L167.998 494.657H-7.3743L8.18115 485.133L-39.5507 476.205L41.8492 466.483Z" fill="url(#paint2_linear_381_1570)"/>
<g style="mix-blend-mode:soft-light">
<path opacity="0.3" d="M311.55 592.705C310.534 592.705 309.632 592.486 308.843 592.049C308.062 591.611 307.448 591.029 307.003 590.303C306.566 589.568 306.347 588.764 306.347 587.889L306.37 580.283C306.37 579.393 306.593 578.592 307.038 577.881C307.476 577.162 308.085 576.588 308.866 576.158C309.648 575.721 310.542 575.502 311.55 575.502C312.581 575.502 313.48 575.717 314.245 576.146C315.011 576.576 315.613 577.154 316.05 577.881C316.495 578.6 316.718 579.4 316.718 580.283L316.741 587.889C316.741 588.756 316.523 589.557 316.085 590.291C315.64 591.025 315.027 591.611 314.245 592.049C313.472 592.486 312.573 592.705 311.55 592.705ZM313.835 587.889L313.812 580.283C313.812 579.721 313.601 579.264 313.179 578.912C312.765 578.561 312.222 578.385 311.55 578.385C310.863 578.385 310.312 578.561 309.898 578.912C309.484 579.264 309.277 579.721 309.277 580.283V587.889C309.277 588.482 309.484 588.951 309.898 589.295C310.312 589.639 310.863 589.811 311.55 589.811C312.222 589.811 312.769 589.639 313.191 589.295C313.62 588.951 313.835 588.482 313.835 587.889ZM312.909 635.471H310.191C310.113 635.471 310.073 635.432 310.073 635.354L310.097 618.865C310.097 618.803 310.128 618.771 310.191 618.771H312.886C312.948 618.771 312.98 618.803 312.98 618.865L313.003 635.354C313.003 635.432 312.972 635.471 312.909 635.471Z" fill="white"/>
<path opacity="0.3" d="M117.038 671.083H114.319C114.241 671.083 114.202 671.043 114.202 670.965L114.225 654.477C114.225 654.415 114.256 654.383 114.319 654.383H117.014C117.077 654.383 117.108 654.415 117.108 654.477L117.131 670.965C117.131 671.043 117.1 671.083 117.038 671.083ZM115.678 714.317C114.663 714.317 113.76 714.098 112.971 713.661C112.19 713.223 111.577 712.641 111.131 711.915C110.694 711.18 110.475 710.375 110.475 709.5L110.498 701.895C110.498 701.004 110.721 700.204 111.166 699.493C111.604 698.774 112.213 698.2 112.995 697.77C113.776 697.333 114.67 697.114 115.678 697.114C116.709 697.114 117.608 697.329 118.373 697.758C119.139 698.188 119.741 698.766 120.178 699.493C120.623 700.211 120.846 701.012 120.846 701.895L120.87 709.5C120.87 710.368 120.651 711.168 120.213 711.903C119.768 712.637 119.155 713.223 118.373 713.661C117.6 714.098 116.702 714.317 115.678 714.317ZM117.963 709.5L117.94 701.895C117.94 701.333 117.729 700.875 117.307 700.524C116.893 700.172 116.35 699.997 115.678 699.997C114.991 699.997 114.44 700.172 114.026 700.524C113.612 700.875 113.405 701.333 113.405 701.895V709.5C113.405 710.094 113.612 710.563 114.026 710.907C114.44 711.25 114.991 711.422 115.678 711.422C116.35 711.422 116.897 711.25 117.319 710.907C117.748 710.563 117.963 710.094 117.963 709.5Z" fill="white"/>
<path opacity="0.3" d="M286.84 409.043H284.121C284.043 409.043 284.004 409.004 284.004 408.926L284.028 392.438C284.028 392.375 284.059 392.344 284.121 392.344H286.817C286.879 392.344 286.91 392.375 286.91 392.438L286.934 408.926C286.934 409.004 286.903 409.043 286.84 409.043ZM285.481 452.278C284.465 452.278 283.563 452.059 282.774 451.622C281.992 451.184 281.379 450.602 280.934 449.875C280.496 449.141 280.278 448.336 280.278 447.461L280.301 439.856C280.301 438.965 280.524 438.165 280.969 437.454C281.407 436.735 282.016 436.161 282.797 435.731C283.578 435.293 284.473 435.075 285.481 435.075C286.512 435.075 287.41 435.29 288.176 435.719C288.942 436.149 289.543 436.727 289.981 437.454C290.426 438.172 290.649 438.973 290.649 439.856L290.672 447.461C290.672 448.329 290.453 449.129 290.016 449.864C289.571 450.598 288.957 451.184 288.176 451.622C287.403 452.059 286.504 452.278 285.481 452.278ZM287.766 447.461L287.742 439.856C287.742 439.293 287.532 438.836 287.11 438.485C286.696 438.133 286.153 437.958 285.481 437.958C284.793 437.958 284.242 438.133 283.828 438.485C283.414 438.836 283.207 439.293 283.207 439.856V447.461C283.207 448.055 283.414 448.524 283.828 448.868C284.242 449.211 284.793 449.383 285.481 449.383C286.153 449.383 286.7 449.211 287.121 448.868C287.551 448.524 287.766 448.055 287.766 447.461Z" fill="white"/>
<path opacity="0.2" d="M45.9252 185.234C44.9096 185.234 44.0072 185.016 43.2182 184.578C42.4369 184.141 41.8236 183.559 41.3783 182.832C40.9408 182.098 40.7221 181.293 40.7221 180.418L40.7455 172.812C40.7455 171.922 40.9682 171.121 41.4135 170.41C41.851 169.691 42.4604 169.117 43.2416 168.688C44.0229 168.25 44.9174 168.031 45.9252 168.031C46.9564 168.031 47.8549 168.246 48.6205 168.676C49.3861 169.105 49.9877 169.684 50.4252 170.41C50.8705 171.129 51.0932 171.93 51.0932 172.812L51.1166 180.418C51.1166 181.285 50.8979 182.086 50.4604 182.82C50.015 183.555 49.4018 184.141 48.6205 184.578C47.8471 185.016 46.9486 185.234 45.9252 185.234ZM48.2104 180.418L48.1869 172.812C48.1869 172.25 47.976 171.793 47.5541 171.441C47.14 171.09 46.5971 170.914 45.9252 170.914C45.2377 170.914 44.6869 171.09 44.2729 171.441C43.8588 171.793 43.6518 172.25 43.6518 172.812V180.418C43.6518 181.012 43.8588 181.48 44.2729 181.824C44.6869 182.168 45.2377 182.34 45.9252 182.34C46.5971 182.34 47.1439 182.168 47.5658 181.824C47.9955 181.48 48.2104 181.012 48.2104 180.418ZM47.2846 228H44.5658C44.4877 228 44.4486 227.961 44.4486 227.883L44.4721 211.395C44.4721 211.332 44.5033 211.301 44.5658 211.301H47.2611C47.3236 211.301 47.3549 211.332 47.3549 211.395L47.3783 227.883C47.3783 227.961 47.3471 228 47.2846 228Z" fill="white"/>
<path opacity="0.3" d="M238.979 506.232C237.963 506.232 237.061 506.014 236.272 505.576C235.491 505.139 234.877 504.557 234.432 503.83C233.994 503.096 233.776 502.291 233.776 501.416L233.799 493.811C233.799 492.92 234.022 492.119 234.467 491.408C234.905 490.689 235.514 490.115 236.295 489.686C237.076 489.248 237.971 489.029 238.979 489.029C240.01 489.029 240.909 489.244 241.674 489.674C242.44 490.104 243.041 490.682 243.479 491.408C243.924 492.127 244.147 492.928 244.147 493.811L244.17 501.416C244.17 502.283 243.951 503.084 243.514 503.818C243.069 504.553 242.455 505.139 241.674 505.576C240.901 506.014 240.002 506.232 238.979 506.232ZM241.264 501.416L241.241 493.811C241.241 493.248 241.03 492.791 240.608 492.439C240.194 492.088 239.651 491.912 238.979 491.912C238.291 491.912 237.741 492.088 237.326 492.439C236.912 492.791 236.705 493.248 236.705 493.811V501.416C236.705 502.01 236.912 502.479 237.326 502.822C237.741 503.166 238.291 503.338 238.979 503.338C239.651 503.338 240.198 503.166 240.619 502.822C241.049 502.479 241.264 502.01 241.264 501.416ZM240.338 548.998H237.619C237.541 548.998 237.502 548.959 237.502 548.881L237.526 532.393C237.526 532.33 237.557 532.299 237.619 532.299H240.315C240.377 532.299 240.409 532.33 240.409 532.393L240.432 548.881C240.432 548.959 240.401 548.998 240.338 548.998Z" fill="white"/>
<path opacity="0.25" d="M20.2082 535.057C19.1926 535.057 18.2902 534.838 17.5012 534.4C16.7199 533.963 16.1066 533.381 15.6613 532.654C15.2238 531.92 15.0051 531.115 15.0051 530.24L15.0285 522.635C15.0285 521.744 15.2512 520.943 15.6965 520.232C16.134 519.514 16.7434 518.939 17.5246 518.51C18.3059 518.072 19.2004 517.854 20.2082 517.854C21.2395 517.854 22.1379 518.068 22.9035 518.498C23.6691 518.928 24.2707 519.506 24.7082 520.232C25.1535 520.951 25.3762 521.752 25.3762 522.635L25.3996 530.24C25.3996 531.107 25.1809 531.908 24.7434 532.643C24.2981 533.377 23.6848 533.963 22.9035 534.4C22.1301 534.838 21.2316 535.057 20.2082 535.057ZM22.4934 530.24L22.4699 522.635C22.4699 522.072 22.259 521.615 21.8371 521.264C21.4231 520.912 20.8801 520.736 20.2082 520.736C19.5207 520.736 18.9699 520.912 18.5559 521.264C18.1418 521.615 17.9348 522.072 17.9348 522.635V530.24C17.9348 530.834 18.1418 531.303 18.5559 531.646C18.9699 531.99 19.5207 532.162 20.2082 532.162C20.8801 532.162 21.427 531.99 21.8488 531.646C22.2785 531.303 22.4934 530.834 22.4934 530.24Z" fill="white"/>
<path opacity="0.25" d="M132.186 464.071H129.467C129.389 464.071 129.35 464.032 129.35 463.954L129.373 447.466C129.373 447.403 129.405 447.372 129.467 447.372H132.162C132.225 447.372 132.256 447.403 132.256 447.466L132.28 463.954C132.28 464.032 132.248 464.071 132.186 464.071Z" fill="white"/>
<path opacity="0.2" d="M88.1499 307.503H85.4312C85.3531 307.503 85.314 307.464 85.314 307.386L85.3374 290.898C85.3374 290.835 85.3687 290.804 85.4312 290.804H88.1265C88.189 290.804 88.2203 290.835 88.2203 290.898L88.2437 307.386C88.2437 307.464 88.2124 307.503 88.1499 307.503ZM88.1499 350.503H85.4312C85.3531 350.503 85.314 350.464 85.314 350.386L85.3374 333.898C85.3374 333.835 85.3687 333.804 85.4312 333.804H88.1265C88.189 333.804 88.2203 333.835 88.2203 333.898L88.2437 350.386C88.2437 350.464 88.2124 350.503 88.1499 350.503Z" fill="white"/>
<path opacity="0.2" d="M319.653 326.735C318.637 326.735 317.735 326.517 316.946 326.079C316.164 325.642 315.551 325.06 315.106 324.333C314.668 323.599 314.45 322.794 314.45 321.919L314.473 314.313C314.473 313.423 314.696 312.622 315.141 311.911C315.578 311.192 316.188 310.618 316.969 310.188C317.75 309.751 318.645 309.532 319.653 309.532C320.684 309.532 321.582 309.747 322.348 310.177C323.114 310.606 323.715 311.185 324.153 311.911C324.598 312.63 324.821 313.431 324.821 314.313L324.844 321.919C324.844 322.786 324.625 323.587 324.188 324.321C323.742 325.056 323.129 325.642 322.348 326.079C321.575 326.517 320.676 326.735 319.653 326.735ZM321.938 321.919L321.914 314.313C321.914 313.751 321.703 313.294 321.282 312.942C320.867 312.591 320.325 312.415 319.653 312.415C318.965 312.415 318.414 312.591 318 312.942C317.586 313.294 317.379 313.751 317.379 314.313V321.919C317.379 322.513 317.586 322.981 318 323.325C318.414 323.669 318.965 323.841 319.653 323.841C320.325 323.841 320.871 323.669 321.293 323.325C321.723 322.981 321.938 322.513 321.938 321.919ZM319.653 369.735C318.637 369.735 317.735 369.517 316.946 369.079C316.164 368.642 315.551 368.06 315.106 367.333C314.668 366.599 314.45 365.794 314.45 364.919L314.473 357.313C314.473 356.423 314.696 355.622 315.141 354.911C315.578 354.192 316.188 353.618 316.969 353.188C317.75 352.751 318.645 352.532 319.653 352.532C320.684 352.532 321.582 352.747 322.348 353.177C323.114 353.606 323.715 354.185 324.153 354.911C324.598 355.63 324.821 356.431 324.821 357.313L324.844 364.919C324.844 365.786 324.625 366.587 324.188 367.321C323.742 368.056 323.129 368.642 322.348 369.079C321.575 369.517 320.676 369.735 319.653 369.735ZM321.938 364.919L321.914 357.313C321.914 356.751 321.703 356.294 321.282 355.942C320.867 355.591 320.325 355.415 319.653 355.415C318.965 355.415 318.414 355.591 318 355.942C317.586 356.294 317.379 356.751 317.379 357.313V364.919C317.379 365.513 317.586 365.981 318 366.325C318.414 366.669 318.965 366.841 319.653 366.841C320.325 366.841 320.871 366.669 321.293 366.325C321.723 365.981 321.938 365.513 321.938 364.919Z" fill="white"/>
<path opacity="0.2" d="M192.125 370.627C191.109 370.627 190.207 370.408 189.418 369.971C188.636 369.533 188.023 368.951 187.578 368.225C187.14 367.49 186.921 366.686 186.921 365.811L186.945 358.205C186.945 357.314 187.168 356.514 187.613 355.803C188.05 355.084 188.66 354.51 189.441 354.08C190.222 353.643 191.117 353.424 192.125 353.424C193.156 353.424 194.054 353.639 194.82 354.068C195.585 354.498 196.187 355.076 196.625 355.803C197.07 356.521 197.293 357.322 197.293 358.205L197.316 365.811C197.316 366.678 197.097 367.479 196.66 368.213C196.214 368.947 195.601 369.533 194.82 369.971C194.046 370.408 193.148 370.627 192.125 370.627ZM194.41 365.811L194.386 358.205C194.386 357.643 194.175 357.186 193.753 356.834C193.339 356.482 192.796 356.307 192.125 356.307C191.437 356.307 190.886 356.482 190.472 356.834C190.058 357.186 189.851 357.643 189.851 358.205V365.811C189.851 366.404 190.058 366.873 190.472 367.217C190.886 367.561 191.437 367.732 192.125 367.732C192.796 367.732 193.343 367.561 193.765 367.217C194.195 366.873 194.41 366.404 194.41 365.811ZM192.125 413.627C191.109 413.627 190.207 413.408 189.418 412.971C188.636 412.533 188.023 411.951 187.578 411.225C187.14 410.49 186.921 409.686 186.921 408.811L186.945 401.205C186.945 400.314 187.168 399.514 187.613 398.803C188.05 398.084 188.66 397.51 189.441 397.08C190.222 396.643 191.117 396.424 192.125 396.424C193.156 396.424 194.054 396.639 194.82 397.068C195.585 397.498 196.187 398.076 196.625 398.803C197.07 399.521 197.293 400.322 197.293 401.205L197.316 408.811C197.316 409.678 197.097 410.479 196.66 411.213C196.214 411.947 195.601 412.533 194.82 412.971C194.046 413.408 193.148 413.627 192.125 413.627ZM194.41 408.811L194.386 401.205C194.386 400.643 194.175 400.186 193.753 399.834C193.339 399.482 192.796 399.307 192.125 399.307C191.437 399.307 190.886 399.482 190.472 399.834C190.058 400.186 189.851 400.643 189.851 401.205V408.811C189.851 409.404 190.058 409.873 190.472 410.217C190.886 410.561 191.437 410.732 192.125 410.732C192.796 410.732 193.343 410.561 193.765 410.217C194.195 409.873 194.41 409.404 194.41 408.811Z" fill="white"/>
<path opacity="0.2" d="M265.703 241.338H262.984C262.906 241.338 262.867 241.299 262.867 241.221L262.89 224.733C262.89 224.67 262.922 224.639 262.984 224.639H265.679C265.742 224.639 265.773 224.67 265.773 224.733L265.797 241.221C265.797 241.299 265.765 241.338 265.703 241.338ZM264.344 284.573C263.328 284.573 262.426 284.354 261.637 283.917C260.855 283.479 260.242 282.897 259.797 282.17C259.359 281.436 259.14 280.631 259.14 279.756L259.164 272.151C259.164 271.26 259.387 270.459 259.832 269.749C260.269 269.03 260.879 268.456 261.66 268.026C262.441 267.588 263.336 267.37 264.344 267.37C265.375 267.37 266.273 267.584 267.039 268.014C267.804 268.444 268.406 269.022 268.844 269.749C269.289 270.467 269.512 271.268 269.512 272.151L269.535 279.756C269.535 280.624 269.316 281.424 268.879 282.159C268.433 282.893 267.82 283.479 267.039 283.917C266.265 284.354 265.367 284.573 264.344 284.573ZM266.629 279.756L266.605 272.151C266.605 271.588 266.394 271.131 265.972 270.78C265.558 270.428 265.015 270.252 264.344 270.252C263.656 270.252 263.105 270.428 262.691 270.78C262.277 271.131 262.07 271.588 262.07 272.151V279.756C262.07 280.35 262.277 280.819 262.691 281.163C263.105 281.506 263.656 281.678 264.344 281.678C265.015 281.678 265.562 281.506 265.984 281.163C266.414 280.819 266.629 280.35 266.629 279.756Z" fill="white"/>
</g>
<path d="M-36.98 334.962L22.742 348.643L8.99643 354.857H105.215L172.995 367.455L81.0421 360.957L57.3429 364.035L96.6835 372.585H8.99643L-50.7256 367.455L27.9558 388.319H-71.2374L-102.288 377.716L-109.199 388.319L-146.826 396.169L-222.464 388.319L-184.389 402H-308.099L-401 367.455L-323.741 377.716L-335.59 367.455L-237.001 360.957L-303.244 354.857L-210.959 327.044L-247.183 319.981L-210.959 310.93L-261.27 293.933L-71.2374 310.93L-93.3743 302.101H-27.826L-86.187 288.636L73.3713 284L219.13 293.933L164.506 302.101L264 310.93L134.032 327.044L181.053 334.962L57.3429 343.171L-36.98 334.962Z" fill="url(#paint3_linear_381_1570)"/>
<g clip-path="url(#clip1_381_1570)">
<rect width="360" height="347.25" transform="translate(0 998)" fill="url(#paint4_linear_381_1570)"/>
<rect y="998" width="360" height="256.25" fill="url(#paint5_linear_381_1570)"/>
<g filter="url(#filter0_f_381_1570)">
<ellipse cx="180.375" cy="1181.88" rx="148.875" ry="28.875" fill="#E6B93D"/>
</g>
<path d="M351.875 1162.88L410.5 1166.25L451.75 1100.38H384.75L393.75 1094.25L354.625 1089.75L363 1086.38L339 1083.12L393.75 1078.62L363 1070.25L354.625 1068.62L363 1066.88H334L398.75 1051.88L357.5 1045.75L334 1055.75H316.125L323.375 1059.12H215.25L226.875 1066.88H211.875L215.25 1070.25L194.625 1073.62L291.125 1089.75L266 1094.25L273.75 1100.38L251.5 1107.12L273.75 1109.88L241.375 1120.5H348L330.125 1128.25H343L339 1135.5H278.25L252 1141.12H307.25L285 1147.75H357.5L343 1157.88H363L351.875 1162.88Z" fill="url(#paint6_linear_381_1570)" fill-opacity="0.28"/>
<path d="M78.875 1064.38L-84.875 1055.25L-93.5 1096.38H-29.625L-38.25 1099.88L-7.375 1104L-69.75 1124.75L-29.625 1140.5L-45.375 1144.5L-29.625 1149.62L-51.5 1159.25L31.125 1149.62L21.5 1154.62H50L24.625 1162.25L94 1164.88L157.375 1159.25L133.625 1154.62L171.625 1149.62L120.375 1140.5H140.25L31.125 1128.38L45.875 1124.75L50 1115.62L31.125 1108H45.875L24.625 1104L219.75 1088.75H165L152.875 1082.12H50L59.125 1076.12L31.125 1070.5L78.875 1064.38Z" fill="url(#paint7_linear_381_1570)"/>
<path d="M0 998H95.375L180 1252.51H82.125H0V998Z" fill="url(#paint8_linear_381_1570)" fill-opacity="0.13"/>
<path d="M360 999.235H264.625L180 1253.75H273.375H360V999.235Z" fill="url(#paint9_linear_381_1570)" fill-opacity="0.13"/>
<path d="M0 1172.58V1062.99L180 1253.75H0V1172.58Z" fill="url(#paint10_linear_381_1570)" fill-opacity="0.13"/>
<path d="M0 1172.58V1167.51L180 1253.75H0V1172.58Z" fill="#E6B93D" fill-opacity="0.13"/>
<path d="M360 1171.34V1166.28L180 1252.51H360V1171.34Z" fill="#E6B93D" fill-opacity="0.13"/>
<path d="M360 1171.34V1061.75L180 1252.51H360V1171.34Z" fill="url(#paint11_linear_381_1570)" fill-opacity="0.13"/>
<path d="M1.04526 1009.51C0.841231 1009.51 0.659958 1009.45 0.501443 1009.33C0.344497 1009.21 0.221294 1009.05 0.131835 1008.85C0.0439449 1008.64 0 1008.42 0 1008.18L0.00470838 1006.07C0.00470838 1005.82 0.049438 1005.6 0.138897 1005.4C0.226787 1005.2 0.349205 1005.04 0.506151 1004.92C0.663097 1004.8 0.8428 1004.74 1.04526 1004.74C1.25243 1004.74 1.43292 1004.8 1.58672 1004.92C1.74053 1005.04 1.86138 1005.2 1.94927 1005.4C2.03873 1005.6 2.08346 1005.82 2.08346 1006.07L2.08817 1008.18C2.08817 1008.42 2.04422 1008.64 1.95633 1008.84C1.86687 1009.05 1.74367 1009.21 1.58672 1009.33C1.43135 1009.45 1.25086 1009.51 1.04526 1009.51ZM1.50433 1008.18L1.49962 1006.07C1.49962 1005.91 1.45724 1005.78 1.37249 1005.69C1.28931 1005.59 1.18023 1005.54 1.04526 1005.54C0.907148 1005.54 0.796501 1005.59 0.71332 1005.69C0.630138 1005.78 0.588548 1005.91 0.588548 1006.07V1008.18C0.588548 1008.34 0.630138 1008.47 0.71332 1008.57C0.796501 1008.66 0.907148 1008.71 1.04526 1008.71C1.18023 1008.71 1.2901 1008.66 1.37485 1008.57C1.46117 1008.47 1.50433 1008.34 1.50433 1008.18Z" fill="white" fill-opacity="0.4"/>
<path d="M10.2332 1150.77C10.0292 1150.77 9.84789 1150.71 9.68938 1150.59C9.53243 1150.47 9.40923 1150.31 9.31977 1150.11C9.23188 1149.9 9.18793 1149.68 9.18793 1149.44L9.19264 1147.33C9.19264 1147.08 9.23737 1146.86 9.32683 1146.66C9.41472 1146.46 9.53714 1146.3 9.69409 1146.18C9.85103 1146.06 10.0307 1146 10.2332 1146C10.4404 1146 10.6209 1146.06 10.7747 1146.18C10.9285 1146.3 11.0493 1146.46 11.1372 1146.66C11.2267 1146.86 11.2714 1147.08 11.2714 1147.33L11.2761 1149.44C11.2761 1149.68 11.2322 1149.9 11.1443 1150.1C11.0548 1150.31 10.9316 1150.47 10.7747 1150.59C10.6193 1150.71 10.4388 1150.77 10.2332 1150.77ZM10.6923 1149.44L10.6876 1147.33C10.6876 1147.17 10.6452 1147.04 10.5604 1146.95C10.4772 1146.85 10.3682 1146.8 10.2332 1146.8C10.0951 1146.8 9.98444 1146.85 9.90125 1146.95C9.81807 1147.04 9.77648 1147.17 9.77648 1147.33V1149.44C9.77648 1149.6 9.81807 1149.73 9.90125 1149.83C9.98444 1149.92 10.0951 1149.97 10.2332 1149.97C10.3682 1149.97 10.478 1149.92 10.5628 1149.83C10.6491 1149.73 10.6923 1149.6 10.6923 1149.44Z" fill="white" fill-opacity="0.4"/>
<path d="M325.964 1166.5C325.76 1166.5 325.579 1166.44 325.42 1166.32C325.263 1166.2 325.14 1166.03 325.051 1165.83C324.963 1165.63 324.919 1165.41 324.919 1165.16L324.924 1163.05C324.924 1162.81 324.968 1162.58 325.058 1162.39C325.146 1162.19 325.268 1162.03 325.425 1161.91C325.582 1161.79 325.762 1161.73 325.964 1161.73C326.171 1161.73 326.352 1161.79 326.506 1161.9C326.659 1162.02 326.78 1162.18 326.868 1162.39C326.958 1162.59 327.002 1162.81 327.002 1163.05L327.007 1165.16C327.007 1165.4 326.963 1165.63 326.875 1165.83C326.786 1166.03 326.662 1166.2 326.506 1166.32C326.35 1166.44 326.17 1166.5 325.964 1166.5ZM326.423 1165.16L326.418 1163.05C326.418 1162.9 326.376 1162.77 326.291 1162.67C326.208 1162.57 326.099 1162.53 325.964 1162.53C325.826 1162.53 325.715 1162.57 325.632 1162.67C325.549 1162.77 325.507 1162.9 325.507 1163.05V1165.16C325.507 1165.33 325.549 1165.46 325.632 1165.55C325.715 1165.65 325.826 1165.7 325.964 1165.7C326.099 1165.7 326.209 1165.65 326.294 1165.55C326.38 1165.46 326.423 1165.33 326.423 1165.16Z" fill="white" fill-opacity="0.4"/>
<path d="M293.806 1099.66C293.602 1099.66 293.421 1099.6 293.262 1099.48C293.106 1099.36 292.982 1099.2 292.893 1099C292.805 1098.79 292.761 1098.57 292.761 1098.33L292.766 1096.21C292.766 1095.97 292.81 1095.75 292.9 1095.55C292.988 1095.35 293.11 1095.19 293.267 1095.07C293.424 1094.95 293.604 1094.89 293.806 1094.89C294.013 1094.89 294.194 1094.95 294.348 1095.07C294.502 1095.19 294.622 1095.35 294.71 1095.55C294.8 1095.75 294.844 1095.97 294.844 1096.21L294.849 1098.33C294.849 1098.57 294.805 1098.79 294.717 1098.99C294.628 1099.2 294.505 1099.36 294.348 1099.48C294.192 1099.6 294.012 1099.66 293.806 1099.66ZM294.265 1098.33L294.261 1096.21C294.261 1096.06 294.218 1095.93 294.134 1095.83C294.05 1095.74 293.941 1095.69 293.806 1095.69C293.668 1095.69 293.558 1095.74 293.474 1095.83C293.391 1095.93 293.35 1096.06 293.35 1096.21V1098.33C293.35 1098.49 293.391 1098.62 293.474 1098.72C293.558 1098.81 293.668 1098.86 293.806 1098.86C293.941 1098.86 294.051 1098.81 294.136 1098.72C294.222 1098.62 294.265 1098.49 294.265 1098.33Z" fill="white" fill-opacity="0.4"/>
<path d="M358.957 1068.21C358.753 1068.21 358.572 1068.15 358.413 1068.03C358.256 1067.9 358.133 1067.74 358.044 1067.54C357.956 1067.34 357.912 1067.11 357.912 1066.87L357.917 1064.76C357.917 1064.51 357.961 1064.29 358.051 1064.09C358.139 1063.89 358.261 1063.73 358.418 1063.62C358.575 1063.49 358.755 1063.43 358.957 1063.43C359.164 1063.43 359.345 1063.49 359.499 1063.61C359.652 1063.73 359.773 1063.89 359.861 1064.09C359.951 1064.29 359.995 1064.52 359.995 1064.76L360 1066.87C360 1067.11 359.956 1067.33 359.868 1067.54C359.779 1067.74 359.656 1067.9 359.499 1068.03C359.343 1068.15 359.163 1068.21 358.957 1068.21ZM359.416 1066.87L359.411 1064.76C359.411 1064.6 359.369 1064.48 359.284 1064.38C359.201 1064.28 359.092 1064.23 358.957 1064.23C358.819 1064.23 358.708 1064.28 358.625 1064.38C358.542 1064.48 358.5 1064.6 358.5 1064.76V1066.87C358.5 1067.04 358.542 1067.17 358.625 1067.26C358.708 1067.36 358.819 1067.4 358.957 1067.4C359.092 1067.4 359.202 1067.36 359.287 1067.26C359.373 1067.17 359.416 1067.04 359.416 1066.87Z" fill="white" fill-opacity="0.4"/>
<path d="M185.848 1007.27C185.644 1007.27 185.463 1007.21 185.304 1007.09C185.147 1006.96 185.024 1006.8 184.935 1006.6C184.847 1006.4 184.803 1006.17 184.803 1005.93L184.808 1003.82C184.808 1003.57 184.852 1003.35 184.942 1003.15C185.03 1002.95 185.152 1002.79 185.309 1002.68C185.466 1002.55 185.646 1002.49 185.848 1002.49C186.055 1002.49 186.236 1002.55 186.39 1002.67C186.543 1002.79 186.664 1002.95 186.752 1003.15C186.842 1003.35 186.886 1003.58 186.886 1003.82L186.891 1005.93C186.891 1006.17 186.847 1006.39 186.759 1006.6C186.67 1006.8 186.546 1006.96 186.39 1007.09C186.234 1007.21 186.054 1007.27 185.848 1007.27ZM186.307 1005.93L186.302 1003.82C186.302 1003.66 186.26 1003.54 186.175 1003.44C186.092 1003.34 185.983 1003.29 185.848 1003.29C185.71 1003.29 185.599 1003.34 185.516 1003.44C185.433 1003.54 185.391 1003.66 185.391 1003.82V1005.93C185.391 1006.1 185.433 1006.23 185.516 1006.32C185.599 1006.42 185.71 1006.46 185.848 1006.46C185.983 1006.46 186.093 1006.42 186.178 1006.32C186.264 1006.23 186.307 1006.1 186.307 1005.93Z" fill="white" fill-opacity="0.4"/>
<path d="M130.929 1101.91C130.725 1101.91 130.544 1101.85 130.385 1101.73C130.228 1101.61 130.105 1101.44 130.016 1101.24C129.928 1101.04 129.884 1100.82 129.884 1100.57L129.889 1098.46C129.889 1098.21 129.933 1097.99 130.023 1097.79C130.111 1097.6 130.233 1097.44 130.39 1097.32C130.547 1097.2 130.727 1097.13 130.929 1097.13C131.136 1097.13 131.317 1097.19 131.471 1097.31C131.625 1097.43 131.745 1097.59 131.833 1097.79C131.923 1097.99 131.967 1098.22 131.967 1098.46L131.972 1100.57C131.972 1100.81 131.928 1101.04 131.84 1101.24C131.751 1101.44 131.628 1101.61 131.471 1101.73C131.315 1101.85 131.135 1101.91 130.929 1101.91ZM131.388 1100.57L131.384 1098.46C131.384 1098.31 131.341 1098.18 131.256 1098.08C131.173 1097.98 131.064 1097.93 130.929 1097.93C130.791 1097.93 130.68 1097.98 130.597 1098.08C130.514 1098.18 130.473 1098.31 130.473 1098.46V1100.57C130.473 1100.74 130.514 1100.87 130.597 1100.96C130.68 1101.06 130.791 1101.11 130.929 1101.11C131.064 1101.11 131.174 1101.06 131.259 1100.96C131.345 1100.87 131.388 1100.74 131.388 1100.57Z" fill="white" fill-opacity="0.4"/>
<path d="M35.27 1058.66H34.6886C34.6719 1058.66 34.6636 1058.65 34.6636 1058.63L34.6686 1054.19C34.6686 1054.18 34.6753 1054.17 34.6886 1054.17H35.265C35.2783 1054.17 35.285 1054.18 35.285 1054.19L35.29 1058.63C35.29 1058.65 35.2833 1058.66 35.27 1058.66Z" fill="white" fill-opacity="0.4"/>
<path d="M133.205 1101.91H132.624C132.607 1101.91 132.599 1101.9 132.599 1101.88L132.604 1097.44C132.604 1097.42 132.61 1097.42 132.624 1097.42H133.2C133.213 1097.42 133.22 1097.42 133.22 1097.44L133.225 1101.88C133.225 1101.9 133.218 1101.91 133.205 1101.91Z" fill="white" fill-opacity="0.4"/>
<path d="M284.806 1025.52H284.225C284.208 1025.52 284.2 1025.51 284.2 1025.49L284.205 1021.05C284.205 1021.04 284.211 1021.03 284.225 1021.03H284.801C284.814 1021.03 284.821 1021.04 284.821 1021.05L284.826 1025.49C284.826 1025.51 284.819 1025.52 284.806 1025.52Z" fill="white" fill-opacity="0.4"/>
<path d="M108.982 1002.49H108.401C108.384 1002.49 108.376 1002.48 108.376 1002.46L108.381 998.025C108.381 998.008 108.388 998 108.401 998H108.977C108.991 998 108.997 998.008 108.997 998.025L109.002 1002.46C109.002 1002.48 108.996 1002.49 108.982 1002.49Z" fill="white" fill-opacity="0.4"/>
<path d="M194.806 1063.72H194.225C194.208 1063.72 194.2 1063.7 194.2 1063.68L194.205 1059.25C194.205 1059.23 194.211 1059.22 194.225 1059.22H194.801C194.814 1059.22 194.821 1059.23 194.821 1059.25L194.826 1063.68C194.826 1063.7 194.819 1063.72 194.806 1063.72Z" fill="white" fill-opacity="0.4"/>
<path d="M8.33262 1150.49H7.75128C7.73457 1150.49 7.72622 1150.48 7.72622 1150.46L7.73123 1146.02C7.73123 1146.01 7.73791 1146 7.75128 1146H8.32761C8.34098 1146 8.34766 1146.01 8.34766 1146.02L8.35267 1150.46C8.35267 1150.48 8.34599 1150.49 8.33262 1150.49Z" fill="white" fill-opacity="0.4"/>
<g clip-path="url(#clip2_381_1570)">
<path d="M55.375 1147.88C31.4894 1167.91 4.20833 1175.75 -16 1183.62V1238.12H344.125V1147.88L262.625 1109.25L175.5 1167.88L161.125 1158.62L136.75 1170.62L71.125 1132.88C69.8655 1134.56 61.8829 1142.42 55.375 1147.88Z" fill="url(#paint12_linear_381_1570)"/>
<path d="M315.435 1151.71L262.624 1109.25L345.375 1147.62L351.75 1149.12L350.375 1222.87L342.375 1229.62H275.875H264.75L260.75 1225L296.125 1142L315.161 1152.13C315.429 1152.27 315.672 1151.9 315.435 1151.71Z" fill="#A86744"/>
<path d="M51 1149.75C28.697 1167.58 6 1171.96 -14.125 1179.88L-19.5 1200.88L8.25 1199.75L59.25 1152.88L71.127 1132.87C68.5436 1135 59.4958 1142.96 51 1149.75Z" fill="#A86744"/>
<path d="M135.75 1175.75L71.124 1132.87L137.507 1170.25L135.75 1175.75Z" fill="#B9704F"/>
<path d="M186.239 1174.01L262.628 1109.25L175.714 1167.65L186.239 1174.01Z" fill="#B9704F"/>
<path d="M160.997 1159.62L156.997 1161.24L161.122 1158.62L164.909 1161.24L160.997 1159.62Z" fill="#B9704F"/>
<path d="M135.75 1175.75L161.137 1158.62L137.512 1170.24L135.75 1175.75Z" fill="#A86744"/>
<path d="M184.375 1175.37L186.25 1174L161.121 1158.62L184.375 1175.37Z" fill="#A86744"/>
<rect y="1158.5" width="360" height="79.5" fill="url(#paint13_linear_381_1570)"/>
</g>
<rect x="-1.75" y="1188.75" width="363.5" height="3.25" fill="#A76545"/>
<path d="M25.625 1188.75V1184.75H31.875V1228.5H21.625V1198.75C16.125 1188 10.7083 1194.33 8.375 1198.75V1228.5H-3L-3.125 1184.75H4.125V1188.75H8.375V1184.75H21.625V1188.75H25.625Z" fill="url(#paint14_linear_381_1570)"/>
<path d="M62.375 1188.75V1184.75H68.625V1228.5H58.375V1198.75C52.875 1188 47.4583 1194.33 45.125 1198.75V1228.5H33.375L33.625 1184.75H40.875V1188.75H45.125V1184.75H58.375V1188.75H62.375Z" fill="url(#paint15_linear_381_1570)"/>
<path d="M99.125 1188.75V1184.75H105.375V1228.5H95.125V1198.75C89.625 1188 84.2083 1194.33 81.875 1198.75V1228.5H70.125L70.375 1184.75H77.625V1188.75H81.875V1184.75H95.125V1188.75H99.125Z" fill="url(#paint16_linear_381_1570)"/>
<path d="M135.875 1188.75V1184.75H142.125V1228.5H131.875V1198.75C126.375 1188 120.958 1194.33 118.625 1198.75V1228.5H106.875L107.125 1184.75H114.375V1188.75H118.625V1184.75H131.875V1188.75H135.875Z" fill="url(#paint17_linear_381_1570)"/>
<path d="M172.625 1188.75V1184.75H178.875V1228.5H168.625V1198.75C163.125 1188 157.708 1194.33 155.375 1198.75V1228.5H143.625L143.875 1184.75H151.125V1188.75H155.375V1184.75H168.625V1188.75H172.625Z" fill="url(#paint18_linear_381_1570)"/>
<path d="M209.375 1188.75V1184.75H215.625V1228.5H205.375V1198.75C199.875 1188 194.458 1194.33 192.125 1198.75V1228.5H180.375L180.625 1184.75H187.875V1188.75H192.125V1184.75H205.375V1188.75H209.375Z" fill="url(#paint19_linear_381_1570)"/>
<path d="M246.125 1188.75V1184.75H252.375V1228.5H242.125V1198.75C236.625 1188 231.208 1194.33 228.875 1198.75V1228.5H217.125L217.375 1184.75H224.625V1188.75H228.875V1184.75H242.125V1188.75H246.125Z" fill="url(#paint20_linear_381_1570)"/>
<path d="M282.875 1188.75V1184.75H289.125V1228.5H278.875V1198.75C273.375 1188 267.958 1194.33 265.625 1198.75V1228.5H253.875L254.125 1184.75H261.375V1188.75H265.625V1184.75H278.875V1188.75H282.875Z" fill="url(#paint21_linear_381_1570)"/>
<path d="M319.625 1188.75V1184.75H325.875V1228.5H315.625V1198.75C310.125 1188 304.708 1194.33 302.375 1198.75V1228.5H290.625L290.875 1184.75H298.125V1188.75H302.375V1184.75H315.625V1188.75H319.625Z" fill="url(#paint22_linear_381_1570)"/>
<path d="M356.375 1188.75V1184.75H362.625V1228.5H352.375V1198.75C346.875 1188 341.458 1194.33 339.125 1198.75V1228.5H327.375L327.625 1184.75H334.875V1188.75H339.125V1184.75H352.375V1188.75H356.375Z" fill="url(#paint23_linear_381_1570)"/>
<path d="M-109.987 1221.38H-121.637C-122.157 1221.38 -122.622 1221.7 -122.806 1222.18L-142.958 1275.31C-143.703 1277.27 -142.253 1279.38 -140.154 1279.38H230.184C231.715 1279.38 233.001 1278.22 233.167 1276.7L237.873 1233.54C237.944 1232.88 237.495 1232.29 236.845 1232.17L65.8829 1202.32C65.6335 1202.27 65.3768 1202.31 65.1467 1202.41L41.9282 1213.06C41.5105 1213.26 41.0212 1213.2 40.6543 1212.93L27.5437 1203.04C26.975 1202.61 26.1634 1202.74 25.7603 1203.33L13.8573 1220.67C13.5663 1221.1 13.0455 1221.3 12.5447 1221.18L-37.002 1209.71C-37.2451 1209.66 -37.4658 1209.53 -37.6357 1209.34L-56.1396 1189.44C-56.6589 1188.88 -57.5533 1188.91 -58.0304 1189.5L-67.8747 1201.78C-68.1119 1202.08 -68.4707 1202.25 -68.8499 1202.25H-74.952C-75.3013 1202.25 -75.6346 1202.4 -75.8713 1202.65L-85.2631 1212.85C-85.5646 1213.17 -86.0172 1213.32 -86.4517 1213.22L-101.839 1209.83C-102.379 1209.71 -102.934 1209.96 -103.202 1210.44L-108.893 1220.73C-109.113 1221.13 -109.532 1221.38 -109.987 1221.38Z" fill="#8C3E11"/>
<path d="M-63.7299 1240.07L-117.596 1268.87C-121.077 1270.73 -123.25 1274.35 -123.25 1278.3C-123.25 1284.21 -118.46 1289 -112.552 1289H354.5C360.713 1289 365.75 1283.96 365.75 1277.75V1139.25L353.532 1146.6C351.176 1148.02 349.421 1150.25 348.597 1152.87L340.473 1178.77C339.001 1183.46 334.655 1186.65 329.739 1186.65H328.003C326.274 1186.65 324.569 1187.05 323.019 1187.81L288.106 1205.06C286.556 1205.83 284.851 1206.23 283.122 1206.23H229.854C228.79 1206.23 227.731 1206.38 226.709 1206.68L178.035 1220.85C175.509 1221.58 172.804 1221.41 170.392 1220.36L161.455 1216.46C159.367 1215.55 157.053 1215.29 154.818 1215.73L124.461 1221.61C123.164 1221.86 121.832 1221.88 120.528 1221.67L54.0051 1210.92C50.1897 1210.3 46.3249 1211.69 43.7698 1214.59L40.6094 1218.17C38.4737 1220.6 35.3991 1221.99 32.1686 1221.99H13.0707C11.6206 1221.99 10.1842 1222.27 8.84047 1222.81L-34.5796 1240.43C-36.4108 1241.17 -38.4056 1241.42 -40.3629 1241.15L-56.8726 1238.85C-59.23 1238.52 -61.6308 1238.95 -63.7299 1240.07Z" fill="url(#paint24_linear_381_1570)"/>
<path d="M13.75 1166C13.35 1150.6 4.16667 1139.42 -0.375 1135.75L-13 1238.25L46.125 1229.62C41.75 1224.58 33.3 1214 34.5 1212C35.7 1210 31.25 1204.42 28.875 1201.88C24 1196.33 14.15 1181.4 13.75 1166Z" fill="#6A252E" stroke="#6A252E" stroke-width="0.25"/>
<g opacity="0.79" filter="url(#filter1_i_381_1570)">
<path d="M351.75 1235.94L336.009 1242.3L289.579 1240.59L281.443 1237.88L273.006 1238.38L259.548 1233.94L244.313 1236.03L213.748 1233.94L331.643 1201.12L347.384 1205.16L351.75 1216.86L349.378 1226.88L351.75 1235.94Z" fill="#E3CBC6" fill-opacity="0.86"/>
</g>
<g filter="url(#filter2_i_381_1570)">
<path d="M209.128 1231.45L224.595 1226.23L232.831 1225.62L240.63 1222.26L274.428 1213.2L308.227 1204.15L325.126 1199.62L333.575 1197.35L335.379 1198.91L337.8 1198.3L340.501 1200.11L208.004 1235.69L208.023 1234.56L207.418 1233.5L209.128 1231.45Z" fill="#C4A09F"/>
</g>
<path d="M274.613 1226.49L293.496 1225.92L303.233 1224.03L308.16 1224.85L311.273 1225.92L312.966 1225.47L313.16 1227.72L275.001 1231L274.613 1226.49Z" fill="#A78079"/>
<path d="M308.762 1216.68L324.829 1214.2L343.908 1212.57L344.296 1217.07L306.136 1220.35L305.943 1218.1L308.762 1216.68Z" fill="#A67F78" fill-opacity="0.63"/>
<rect x="307.523" y="1231.78" width="18.7761" height="7.27836" transform="rotate(-4.90732 307.523 1231.78)" fill="#A67F78" fill-opacity="0.35"/>
<path d="M79.5 1247C75.2 1245.4 69.375 1252 67 1255.5L92.75 1254.5L87.375 1246.5C86.5417 1247.33 83.8 1248.6 79.5 1247Z" fill="#73353B"/>
<path d="M278 1246.25C282.3 1244.65 288.125 1251.25 290.5 1254.75L264.75 1253.75L270.125 1245.75C270.958 1246.58 273.7 1247.85 278 1246.25Z" fill="#73353B"/>
<g filter="url(#filter3_i_381_1570)">
<path d="M105.874 1259.43C106.05 1258.22 107.162 1257.37 108.376 1257.52L121.781 1259.18C122.144 1259.22 122.449 1259.47 122.564 1259.82L122.778 1260.46C122.927 1260.91 123.51 1261.01 123.798 1260.64V1260.64C123.923 1260.47 124.124 1260.39 124.327 1260.41L139.663 1262.16C140.084 1262.21 140.381 1262.59 140.32 1263.01L139.815 1266.47C139.636 1267.7 138.494 1268.55 137.264 1268.38L106.487 1263.88C105.804 1263.78 105.331 1263.15 105.431 1262.47L105.874 1259.43Z" fill="#F8E6E3" fill-opacity="0.27"/>
</g>
<g filter="url(#filter4_i_381_1570)">
<rect x="78.1294" y="1267.34" width="19.3483" height="5.05102" rx="2.25" transform="rotate(-7.08437 78.1294 1267.34)" fill="#F8E6E3" fill-opacity="0.27"/>
</g>
<g filter="url(#filter5_i_381_1570)">
<path d="M402.259 1236.58L390.037 1247.04L362.625 1260.25L349 1258.5L348 1261.25L336.375 1260.25L332.5 1258.5L277.682 1276.42L372.336 1221.88L387.696 1220.77L390.238 1227.62L397.397 1229.16L402.259 1236.58Z" fill="#B28888"/>
</g>
<g filter="url(#filter6_i_381_1570)">
<path d="M-31.2236 1252.71L-13.7849 1254.28L-2.65972 1248.07L14.9609 1258L24.212 1261.22L19.4829 1274.23L-33.4219 1266.23L-31.2236 1252.71Z" fill="#E3CBC6" fill-opacity="0.25"/>
</g>
<g filter="url(#filter7_i_381_1570)">
<path d="M61.6598 1298.72L-90.5 1288.32L50.1396 1260L69.7299 1265.03L70.0274 1274.63L78.298 1279.54L81.25 1290.81L61.6598 1298.72Z" fill="#B18687"/>
</g>
<g filter="url(#filter8_i_381_1570)">
<path d="M138.371 1227.13C138.782 1225.77 140.333 1225.12 141.585 1225.79L149.611 1230.08C149.876 1230.22 150.166 1230.31 150.465 1230.34L161.75 1231.38C161.901 1231.4 162.05 1231.43 162.195 1231.47L181.463 1237.3C183.024 1237.77 183.58 1239.7 182.51 1240.93L180.548 1243.19C179.983 1243.84 179.097 1244.11 178.266 1243.89L166.517 1240.73C166.258 1240.66 165.988 1240.64 165.721 1240.66L156.665 1241.52C156.48 1241.54 156.295 1241.53 156.112 1241.5L137.564 1238.66C136.21 1238.45 135.355 1237.1 135.751 1235.78L138.371 1227.13Z" fill="#E3CBC6" fill-opacity="0.65"/>
</g>
<g filter="url(#filter9_i_381_1570)">
<path d="M99.3848 1270.67C99.1723 1269.44 99.9925 1268.28 101.217 1268.06L108.396 1266.82C108.747 1266.76 109.107 1266.78 109.446 1266.88L112.915 1267.96C113.857 1268.25 114.5 1269.12 114.5 1270.11L114.5 1270.87C114.5 1271.44 114.712 1271.98 115.093 1272.4L118.531 1276.14C119.735 1277.45 119.012 1279.57 117.259 1279.88L103.677 1282.23C102.452 1282.45 101.288 1281.63 101.075 1280.4L99.3848 1270.67Z" fill="#F8E6E3" fill-opacity="0.65"/>
</g>
<g filter="url(#filter10_i_381_1570)">
<path d="M27.1248 1248.33L31.0989 1245.38L36.25 1244.49L37.2619 1250.32L26.9598 1252.11L27.1248 1248.33Z" fill="#F8E6E3" fill-opacity="0.65"/>
</g>
<g filter="url(#filter11_i_381_1570)">
<path d="M38.9878 1234.58L42.962 1231.63L52.625 1236.37L60.125 1234.58L68.75 1240.99L60.125 1244.24L51.125 1239.49L38.8229 1238.36L38.9878 1234.58Z" fill="#F8E6E3" fill-opacity="0.65"/>
</g>
</g>
<rect y="723" width="360" height="275" fill="url(#paint25_linear_381_1570)"/>
</g>
<defs>
<filter id="filter0_f_381_1570" x="-48" y="1073.5" width="456.75" height="216.75" filterUnits="userSpaceOnUse" color-interpolation-filters="sRGB">
<feFlood flood-opacity="0" result="BackgroundImageFix"/>
<feBlend mode="normal" in="SourceGraphic" in2="BackgroundImageFix" result="shape"/>
<feGaussianBlur stdDeviation="39.75" result="effect1_foregroundBlur_381_1570"/>
</filter>
<filter id="filter1_i_381_1570" x="213.748" y="1201.12" width="138.002" height="41.1797" filterUnits="userSpaceOnUse" color-interpolation-filters="sRGB">
<feFlood flood-opacity="0" result="BackgroundImageFix"/>
<feBlend mode="normal" in="SourceGraphic" in2="BackgroundImageFix" result="shape"/>
<feColorMatrix in="SourceAlpha" type="matrix" values="0 0 0 0 0 0 0 0 0 0 0 0 0 0 0 0 0 0 127 0" result="hardAlpha"/>
<feOffset dx="11" dy="1"/>
<feComposite in2="hardAlpha" operator="arithmetic" k2="-1" k3="1"/>
<feColorMatrix type="matrix" values="0 0 0 0 0.4 0 0 0 0 0.117647 0 0 0 0 0.160784 0 0 0 0.21 0"/>
<feBlend mode="normal" in2="shape" result="effect1_innerShadow_381_1570"/>
</filter>
<filter id="filter2_i_381_1570" x="207.418" y="1197.35" width="133.083" height="38.332" filterUnits="userSpaceOnUse" color-interpolation-filters="sRGB">
<feFlood flood-opacity="0" result="BackgroundImageFix"/>
<feBlend mode="normal" in="SourceGraphic" in2="BackgroundImageFix" result="shape"/>
<feColorMatrix in="SourceAlpha" type="matrix" values="0 0 0 0 0 0 0 0 0 0 0 0 0 0 0 0 0 0 127 0" result="hardAlpha"/>
<feOffset dx="-9.75" dy="1"/>
<feComposite in2="hardAlpha" operator="arithmetic" k2="-1" k3="1"/>
<feColorMatrix type="matrix" values="0 0 0 0 0.4 0 0 0 0 0.117647 0 0 0 0 0.160784 0 0 0 0.21 0"/>
<feBlend mode="normal" in2="shape" result="effect1_innerShadow_381_1570"/>
</filter>
<filter id="filter3_i_381_1570" x="105.417" y="1257.5" width="34.9111" height="10.8955" filterUnits="userSpaceOnUse" color-interpolation-filters="sRGB">
<feFlood flood-opacity="0" result="BackgroundImageFix"/>
<feBlend mode="normal" in="SourceGraphic" in2="BackgroundImageFix" result="shape"/>
<feColorMatrix in="SourceAlpha" type="matrix" values="0 0 0 0 0 0 0 0 0 0 0 0 0 0 0 0 0 0 127 0" result="hardAlpha"/>
<feOffset dx="11" dy="1"/>
<feComposite in2="hardAlpha" operator="arithmetic" k2="-1" k3="1"/>
<feColorMatrix type="matrix" values="0 0 0 0 0.4 0 0 0 0 0.117647 0 0 0 0 0.160784 0 0 0 0.21 0"/>
<feBlend mode="normal" in2="shape" result="effect1_innerShadow_381_1570"/>
</filter>
<filter id="filter4_i_381_1570" x="78.3895" y="1265.22" width="19.3033" height="6.87793" filterUnits="userSpaceOnUse" color-interpolation-filters="sRGB">
<feFlood flood-opacity="0" result="BackgroundImageFix"/>
<feBlend mode="normal" in="SourceGraphic" in2="BackgroundImageFix" result="shape"/>
<feColorMatrix in="SourceAlpha" type="matrix" values="0 0 0 0 0 0 0 0 0 0 0 0 0 0 0 0 0 0 127 0" result="hardAlpha"/>
<feOffset dx="11" dy="1"/>
<feComposite in2="hardAlpha" operator="arithmetic" k2="-1" k3="1"/>
<feColorMatrix type="matrix" values="0 0 0 0 0.4 0 0 0 0 0.117647 0 0 0 0 0.160784 0 0 0 0.21 0"/>
<feBlend mode="normal" in2="shape" result="effect1_innerShadow_381_1570"/>
</filter>
<filter id="filter5_i_381_1570" x="277.682" y="1220.77" width="124.577" height="55.6514" filterUnits="userSpaceOnUse" color-interpolation-filters="sRGB">
<feFlood flood-opacity="0" result="BackgroundImageFix"/>
<feBlend mode="normal" in="SourceGraphic" in2="BackgroundImageFix" result="shape"/>
<feColorMatrix in="SourceAlpha" type="matrix" values="0 0 0 0 0 0 0 0 0 0 0 0 0 0 0 0 0 0 127 0" result="hardAlpha"/>
<feOffset dx="11" dy="1"/>
<feComposite in2="hardAlpha" operator="arithmetic" k2="-1" k3="1"/>
<feColorMatrix type="matrix" values="0 0 0 0 0.4 0 0 0 0 0.117647 0 0 0 0 0.160784 0 0 0 0.21 0"/>
<feBlend mode="normal" in2="shape" result="effect1_innerShadow_381_1570"/>
</filter>
<filter id="filter6_i_381_1570" x="-33.4219" y="1248.07" width="57.6339" height="26.1582" filterUnits="userSpaceOnUse" color-interpolation-filters="sRGB">
<feFlood flood-opacity="0" result="BackgroundImageFix"/>
<feBlend mode="normal" in="SourceGraphic" in2="BackgroundImageFix" result="shape"/>
<feColorMatrix in="SourceAlpha" type="matrix" values="0 0 0 0 0 0 0 0 0 0 0 0 0 0 0 0 0 0 127 0" result="hardAlpha"/>
<feOffset dx="11" dy="1"/>
<feComposite in2="hardAlpha" operator="arithmetic" k2="-1" k3="1"/>
<feColorMatrix type="matrix" values="0 0 0 0 0.4 0 0 0 0 0.117647 0 0 0 0 0.160784 0 0 0 0.21 0"/>
<feBlend mode="normal" in2="shape" result="effect1_innerShadow_381_1570"/>
</filter>
<filter id="filter7_i_381_1570" x="-90.5" y="1260" width="171.75" height="38.7217" filterUnits="userSpaceOnUse" color-interpolation-filters="sRGB">
<feFlood flood-opacity="0" result="BackgroundImageFix"/>
<feBlend mode="normal" in="SourceGraphic" in2="BackgroundImageFix" result="shape"/>
<feColorMatrix in="SourceAlpha" type="matrix" values="0 0 0 0 0 0 0 0 0 0 0 0 0 0 0 0 0 0 127 0" result="hardAlpha"/>
<feOffset dx="11" dy="1"/>
<feComposite in2="hardAlpha" operator="arithmetic" k2="-1" k3="1"/>
<feColorMatrix type="matrix" values="0 0 0 0 0.4 0 0 0 0 0.117647 0 0 0 0 0.160784 0 0 0 0.21 0"/>
<feBlend mode="normal" in2="shape" result="effect1_innerShadow_381_1570"/>
</filter>
<filter id="filter8_i_381_1570" x="135.654" y="1225.53" width="47.4089" height="18.4355" filterUnits="userSpaceOnUse" color-interpolation-filters="sRGB">
<feFlood flood-opacity="0" result="BackgroundImageFix"/>
<feBlend mode="normal" in="SourceGraphic" in2="BackgroundImageFix" result="shape"/>
<feColorMatrix in="SourceAlpha" type="matrix" values="0 0 0 0 0 0 0 0 0 0 0 0 0 0 0 0 0 0 127 0" result="hardAlpha"/>
<feOffset dx="11" dy="1"/>
<feComposite in2="hardAlpha" operator="arithmetic" k2="-1" k3="1"/>
<feColorMatrix type="matrix" values="0 0 0 0 0.4 0 0 0 0 0.117647 0 0 0 0 0.160784 0 0 0 0.21 0"/>
<feBlend mode="normal" in2="shape" result="effect1_innerShadow_381_1570"/>
</filter>
<filter id="filter9_i_381_1570" x="99.3513" y="1266.78" width="19.7746" height="15.4834" filterUnits="userSpaceOnUse" color-interpolation-filters="sRGB">
<feFlood flood-opacity="0" result="BackgroundImageFix"/>
<feBlend mode="normal" in="SourceGraphic" in2="BackgroundImageFix" result="shape"/>
<feColorMatrix in="SourceAlpha" type="matrix" values="0 0 0 0 0 0 0 0 0 0 0 0 0 0 0 0 0 0 127 0" result="hardAlpha"/>
<feOffset dx="11" dy="1"/>
<feComposite in2="hardAlpha" operator="arithmetic" k2="-1" k3="1"/>
<feColorMatrix type="matrix" values="0 0 0 0 0.4 0 0 0 0 0.117647 0 0 0 0 0.160784 0 0 0 0.21 0"/>
<feBlend mode="normal" in2="shape" result="effect1_innerShadow_381_1570"/>
</filter>
<filter id="filter10_i_381_1570" x="26.9598" y="1244.49" width="10.3021" height="7.61816" filterUnits="userSpaceOnUse" color-interpolation-filters="sRGB">
<feFlood flood-opacity="0" result="BackgroundImageFix"/>
<feBlend mode="normal" in="SourceGraphic" in2="BackgroundImageFix" result="shape"/>
<feColorMatrix in="SourceAlpha" type="matrix" values="0 0 0 0 0 0 0 0 0 0 0 0 0 0 0 0 0 0 127 0" result="hardAlpha"/>
<feOffset dx="2.25" dy="1"/>
<feComposite in2="hardAlpha" operator="arithmetic" k2="-1" k3="1"/>
<feColorMatrix type="matrix" values="0 0 0 0 0.4 0 0 0 0 0.117647 0 0 0 0 0.160784 0 0 0 0.21 0"/>
<feBlend mode="normal" in2="shape" result="effect1_innerShadow_381_1570"/>
</filter>
<filter id="filter11_i_381_1570" x="38.8229" y="1231.63" width="29.9271" height="12.6064" filterUnits="userSpaceOnUse" color-interpolation-filters="sRGB">
<feFlood flood-opacity="0" result="BackgroundImageFix"/>
<feBlend mode="normal" in="SourceGraphic" in2="BackgroundImageFix" result="shape"/>
<feColorMatrix in="SourceAlpha" type="matrix" values="0 0 0 0 0 0 0 0 0 0 0 0 0 0 0 0 0 0 127 0" result="hardAlpha"/>
<feOffset dx="2.25" dy="1"/>
<feComposite in2="hardAlpha" operator="arithmetic" k2="-1" k3="1"/>
<feColorMatrix type="matrix" values="0 0 0 0 0.4 0 0 0 0 0.117647 0 0 0 0 0.160784 0 0 0 0.21 0"/>
<feBlend mode="normal" in2="shape" result="effect1_innerShadow_381_1570"/>
</filter>
<linearGradient id="paint0_linear_381_1570" x1="183" y1="1297" x2="183" y2="-134.496" gradientUnits="userSpaceOnUse">
<stop offset="0.161159" stop-color="#E6B93D"/>
<stop offset="0.478166" stop-color="#C59238"/>
<stop offset="0.703747" stop-color="#AC7334"/>
<stop offset="0.857636" stop-color="#87462E"/>
<stop offset="1" stop-color="#661E29"/>
</linearGradient>
<linearGradient id="paint1_linear_381_1570" x1="627.83" y1="893.779" x2="292.863" y2="599.975" gradientUnits="userSpaceOnUse">
<stop stop-color="white" stop-opacity="0.31"/>
<stop offset="1" stop-color="white" stop-opacity="0"/>
</linearGradient>
<linearGradient id="paint2_linear_381_1570" x1="-201.924" y1="399.82" x2="113.437" y2="694.95" gradientUnits="userSpaceOnUse">
<stop stop-color="white" stop-opacity="0.31"/>
<stop offset="1" stop-color="white" stop-opacity="0"/>
</linearGradient>
<linearGradient id="paint3_linear_381_1570" x1="-509.658" y1="524.459" x2="129.921" y2="204.238" gradientUnits="userSpaceOnUse">
<stop stop-color="white" stop-opacity="0.31"/>
<stop offset="1" stop-color="white" stop-opacity="0"/>
</linearGradient>
<linearGradient id="paint4_linear_381_1570" x1="180" y1="0" x2="180" y2="347.25" gradientUnits="userSpaceOnUse">
<stop offset="0.891227" stop-color="#72343A"/>
<stop offset="1" stop-color="#72343A" stop-opacity="0"/>
</linearGradient>
<linearGradient id="paint5_linear_381_1570" x1="180" y1="1048.62" x2="180" y2="1285.5" gradientUnits="userSpaceOnUse">
<stop stop-color="#8D4440"/>
<stop offset="1" stop-color="#F3BF4A"/>
</linearGradient>
<linearGradient id="paint6_linear_381_1570" x1="522" y1="1130.5" x2="214.625" y2="1170.13" gradientUnits="userSpaceOnUse">
<stop stop-color="white"/>
<stop offset="1" stop-color="white" stop-opacity="0"/>
</linearGradient>
<linearGradient id="paint7_linear_381_1570" x1="-64.125" y1="1022.37" x2="133.125" y2="1194.25" gradientUnits="userSpaceOnUse">
<stop stop-color="white" stop-opacity="0.31"/>
<stop offset="1" stop-color="white" stop-opacity="0"/>
</linearGradient>
<linearGradient id="paint8_linear_381_1570" x1="90" y1="998" x2="90" y2="1252.51" gradientUnits="userSpaceOnUse">
<stop stop-color="#E6B93D"/>
<stop offset="1" stop-color="#E6B93D" stop-opacity="0"/>
</linearGradient>
<linearGradient id="paint9_linear_381_1570" x1="270" y1="999.235" x2="270" y2="1253.75" gradientUnits="userSpaceOnUse">
<stop stop-color="#E6B93D"/>
<stop offset="1" stop-color="#E6B93D" stop-opacity="0"/>
</linearGradient>
<linearGradient id="paint10_linear_381_1570" x1="90" y1="1062.99" x2="90" y2="1253.75" gradientUnits="userSpaceOnUse">
<stop stop-color="#E6B93D"/>
<stop offset="1" stop-color="#E6B93D" stop-opacity="0"/>
</linearGradient>
<linearGradient id="paint11_linear_381_1570" x1="270" y1="1061.75" x2="270" y2="1252.51" gradientUnits="userSpaceOnUse">
<stop stop-color="#E6B93D"/>
<stop offset="1" stop-color="#E6B93D" stop-opacity="0"/>
</linearGradient>
<linearGradient id="paint12_linear_381_1570" x1="164.062" y1="1109.25" x2="164.062" y2="1238.12" gradientUnits="userSpaceOnUse">
<stop stop-color="#8D3732"/>
<stop offset="1" stop-color="#8D5132"/>
</linearGradient>
<linearGradient id="paint13_linear_381_1570" x1="180" y1="1158.5" x2="180" y2="1238" gradientUnits="userSpaceOnUse">
<stop stop-color="#72343A" stop-opacity="0"/>
<stop offset="1" stop-color="#72343A"/>
</linearGradient>
<linearGradient id="paint14_linear_381_1570" x1="14.25" y1="1184.75" x2="14.25" y2="1228.5" gradientUnits="userSpaceOnUse">
<stop stop-color="#A76545"/>
<stop offset="1" stop-color="#A76545" stop-opacity="0"/>
</linearGradient>
<linearGradient id="paint15_linear_381_1570" x1="51" y1="1184.75" x2="51" y2="1228.5" gradientUnits="userSpaceOnUse">
<stop stop-color="#A76545"/>
<stop offset="1" stop-color="#A76545" stop-opacity="0"/>
</linearGradient>
<linearGradient id="paint16_linear_381_1570" x1="87.75" y1="1184.75" x2="87.75" y2="1228.5" gradientUnits="userSpaceOnUse">
<stop stop-color="#A76545"/>
<stop offset="1" stop-color="#A76545" stop-opacity="0"/>
</linearGradient>
<linearGradient id="paint17_linear_381_1570" x1="124.5" y1="1184.75" x2="124.5" y2="1228.5" gradientUnits="userSpaceOnUse">
<stop stop-color="#A76545"/>
<stop offset="1" stop-color="#A76545" stop-opacity="0"/>
</linearGradient>
<linearGradient id="paint18_linear_381_1570" x1="161.25" y1="1184.75" x2="161.25" y2="1228.5" gradientUnits="userSpaceOnUse">
<stop stop-color="#A76545"/>
<stop offset="1" stop-color="#A76545" stop-opacity="0"/>
</linearGradient>
<linearGradient id="paint19_linear_381_1570" x1="198" y1="1184.75" x2="198" y2="1228.5" gradientUnits="userSpaceOnUse">
<stop stop-color="#A76545"/>
<stop offset="1" stop-color="#A76545" stop-opacity="0"/>
</linearGradient>
<linearGradient id="paint20_linear_381_1570" x1="234.75" y1="1184.75" x2="234.75" y2="1228.5" gradientUnits="userSpaceOnUse">
<stop stop-color="#A76545"/>
<stop offset="1" stop-color="#A76545" stop-opacity="0"/>
</linearGradient>
<linearGradient id="paint21_linear_381_1570" x1="271.5" y1="1184.75" x2="271.5" y2="1228.5" gradientUnits="userSpaceOnUse">
<stop stop-color="#A76545"/>
<stop offset="1" stop-color="#A76545" stop-opacity="0"/>
</linearGradient>
<linearGradient id="paint22_linear_381_1570" x1="308.25" y1="1184.75" x2="308.25" y2="1228.5" gradientUnits="userSpaceOnUse">
<stop stop-color="#A76545"/>
<stop offset="1" stop-color="#A76545" stop-opacity="0"/>
</linearGradient>
<linearGradient id="paint23_linear_381_1570" x1="345" y1="1184.75" x2="345" y2="1228.5" gradientUnits="userSpaceOnUse">
<stop stop-color="#A76545"/>
<stop offset="1" stop-color="#A76545" stop-opacity="0"/>
</linearGradient>
<linearGradient id="paint24_linear_381_1570" x1="121.25" y1="1205.62" x2="121.25" y2="1289" gradientUnits="userSpaceOnUse">
<stop stop-color="#661E29"/>
<stop offset="1" stop-color="#72343A"/>
</linearGradient>
<linearGradient id="paint25_linear_381_1570" x1="180" y1="723" x2="180" y2="998" gradientUnits="userSpaceOnUse">
<stop stop-color="#CD9B3A"/>
<stop offset="1" stop-color="#995440"/>
</linearGradient>
<clipPath id="clip0_381_1570">
<rect width="694" height="1471" fill="white" transform="translate(0 -174)"/>
</clipPath>
<clipPath id="clip1_381_1570">
<rect width="360" height="347.25" fill="white" transform="translate(0 998)"/>
</clipPath>
<clipPath id="clip2_381_1570">
<rect width="360" height="129" fill="white" transform="translate(0 1109.25)"/>
</clipPath>
</defs>
</svg>
